M48
METRIC,LZ,000.000
;FILE_FORMAT=3:3
;TYPE=PLATED
;Layer: PTH_Through
;EasyEDA v6.5.50, 2025-05-18 23:27:22
;3d9ee40f25bc44afba2a55a8afe60d3c,38e003156f3e444eba849dea5bfb7f5a,10
;Gerber Generator version 0.2
;Holesize 1 = 0.701 mm
T01C0.701
;Holesize 2 = 0.800 mm
T02C0.800
;Holesize 3 = 0.900 mm
T03C0.900
;Holesize 4 = 0.901 mm
T04C0.901
;Holesize 5 = 0.915 mm
T05C0.915
;Holesize 6 = 1.000 mm
T06C1.000
;Holesize 7 = 1.200 mm
T07C1.200
;Holesize 8 = 2.200 mm
T08C2.200
%
G05
G90
T01
X020458Y-011049
X021960Y-011049
X012827Y-037846
X011557Y-037846
X010287Y-037846
T02
X011049Y-010811
X011049Y-012811
T03
X020193Y-022860
X020193Y-015240
X011303Y-023495
X011303Y-015875
X012827Y-026162
X012827Y-033782
X017907Y-026289
X017907Y-033909
X006477Y-040767
X006477Y-033147
T04
X017018Y-020193
X014478Y-020193
X043180Y-042672
X027940Y-040132
X027940Y-035051
X027940Y-029971
X027940Y-024891
X027940Y-019811
X027940Y-014731
X027940Y-009651
X043180Y-007112
X043180Y-012193
X043180Y-017273
X043180Y-022353
X043180Y-027433
X043180Y-032513
X043180Y-037592
X043180Y-040132
X043180Y-035052
X043180Y-029972
X043180Y-024892
X043180Y-019812
X043180Y-014732
X043180Y-009652
X027940Y-007112
X027940Y-012192
X027940Y-017272
X027940Y-022352
X027940Y-027432
X027940Y-032512
X027940Y-037592
X027940Y-042672
T05
X064125Y-032093
X061585Y-032093
X059045Y-032093
X056505Y-032093
X053965Y-032093
X051425Y-032093
X048885Y-032093
X057725Y-004863
X060265Y-004863
X062805Y-004863
X065345Y-004863
X075862Y-030480
X073362Y-030480
X070862Y-030480
X075862Y-044980
X070862Y-044980
X002500Y-002500
X077597Y-002540
X002540Y-047498
X077597Y-047498
T06
X005207Y-010763
X005207Y-019463
T07
X005080Y-025654
X005080Y-028194
X019431Y-004948
X021971Y-004958
X016891Y-004948
T08
X068667Y-037980
X077967Y-037980
M30
