G04 Layer: BottomLayer*
G04 EasyEDA v6.5.50, 2025-05-18 23:27:22*
G04 3d9ee40f25bc44afba2a55a8afe60d3c,38e003156f3e444eba849dea5bfb7f5a,10*
G04 Gerber Generator version 0.2*
G04 Scale: 100 percent, Rotated: No, Reflected: No *
G04 Dimensions in millimeters *
G04 leading zeros omitted , absolute positions ,4 integer and 5 decimal *
%FSLAX45Y45*%
%MOMM*%

%ADD10C,1.5000*%
%ADD11C,1.0000*%
%ADD12C,0.5000*%
%ADD13C,1.3000*%
%ADD14C,1.8000*%
%ADD15R,1.8000X1.8000*%
%ADD16C,1.4000*%
%ADD17O,0.8999982X1.5999968*%
%ADD18R,0.9000X1.6000*%
%ADD19C,1.8796*%
%ADD20O,1.7999964X2.5999948*%
%ADD21R,1.8000X2.6000*%
%ADD22R,1.6000X1.6000*%
%ADD23C,1.6000*%
%ADD24C,1.5240*%
%ADD25C,3.0000*%
%ADD26C,3.5000*%
%ADD27C,0.0112*%

%LPD*%
G36*
X36068Y-4974082D02*
G01*
X32156Y-4973320D01*
X28905Y-4971084D01*
X26670Y-4967833D01*
X25908Y-4963922D01*
X25908Y-4839004D01*
X26466Y-4836261D01*
X25908Y-4833467D01*
X25908Y-4666132D01*
X26466Y-4663338D01*
X25908Y-4660595D01*
X25908Y-348284D01*
X26670Y-344424D01*
X28905Y-340868D01*
X26670Y-337566D01*
X25908Y-333705D01*
X25908Y-166319D01*
X26670Y-162407D01*
X28854Y-158851D01*
X26670Y-155549D01*
X25908Y-151688D01*
X25908Y-36068D01*
X26670Y-32156D01*
X28905Y-28905D01*
X32156Y-26670D01*
X36068Y-25908D01*
X151688Y-25908D01*
X155549Y-26670D01*
X159105Y-28905D01*
X162407Y-26670D01*
X166319Y-25908D01*
X333705Y-25908D01*
X337566Y-26670D01*
X341172Y-28854D01*
X344424Y-26670D01*
X348284Y-25908D01*
X7670495Y-25908D01*
X7673238Y-26466D01*
X7676032Y-25908D01*
X7843367Y-25908D01*
X7846161Y-26466D01*
X7848904Y-25908D01*
X7963916Y-25908D01*
X7967827Y-26670D01*
X7971078Y-28905D01*
X7973314Y-32156D01*
X7974075Y-36068D01*
X7974075Y-136855D01*
X7973110Y-141173D01*
X7970418Y-144678D01*
X7966456Y-146710D01*
X7962036Y-146862D01*
X7957972Y-145135D01*
X7955025Y-141833D01*
X7951419Y-135280D01*
X7939633Y-118110D01*
X7926324Y-102108D01*
X7911592Y-87376D01*
X7895590Y-74066D01*
X7878419Y-62280D01*
X7860182Y-52171D01*
X7853527Y-49225D01*
X7853527Y-160172D01*
X7963916Y-160172D01*
X7967827Y-160934D01*
X7971078Y-163118D01*
X7973314Y-166420D01*
X7974075Y-170332D01*
X7974075Y-337667D01*
X7973314Y-341579D01*
X7971078Y-344881D01*
X7967827Y-347065D01*
X7963916Y-347827D01*
X7853527Y-347827D01*
X7853527Y-458774D01*
X7860182Y-455828D01*
X7878419Y-445719D01*
X7895590Y-433933D01*
X7911592Y-420624D01*
X7926324Y-405892D01*
X7939633Y-389890D01*
X7951419Y-372719D01*
X7955025Y-366166D01*
X7957972Y-362864D01*
X7962036Y-361137D01*
X7966456Y-361289D01*
X7970418Y-363321D01*
X7973110Y-366826D01*
X7974075Y-371144D01*
X7974075Y-3670249D01*
X7973212Y-3674364D01*
X7970723Y-3677767D01*
X7967116Y-3679901D01*
X7962900Y-3680358D01*
X7958886Y-3679088D01*
X7955737Y-3676294D01*
X7951673Y-3670808D01*
X7938465Y-3656228D01*
X7923885Y-3643020D01*
X7908086Y-3631285D01*
X7891221Y-3621176D01*
X7873441Y-3612794D01*
X7854899Y-3606139D01*
X7835849Y-3601364D01*
X7816342Y-3598468D01*
X7796733Y-3597503D01*
X7777073Y-3598468D01*
X7757617Y-3601364D01*
X7738516Y-3606139D01*
X7719974Y-3612794D01*
X7702194Y-3621176D01*
X7685328Y-3631285D01*
X7669530Y-3643020D01*
X7654950Y-3656228D01*
X7641742Y-3670808D01*
X7630007Y-3686606D01*
X7619898Y-3703472D01*
X7611516Y-3721303D01*
X7604861Y-3739794D01*
X7600086Y-3758895D01*
X7597190Y-3778351D01*
X7596225Y-3798011D01*
X7597190Y-3817670D01*
X7600086Y-3837127D01*
X7604861Y-3856177D01*
X7611516Y-3874719D01*
X7619898Y-3892499D01*
X7630007Y-3909364D01*
X7641742Y-3925163D01*
X7654950Y-3939743D01*
X7669530Y-3952951D01*
X7685328Y-3964686D01*
X7702194Y-3974795D01*
X7719974Y-3983228D01*
X7738516Y-3989832D01*
X7757617Y-3994607D01*
X7777073Y-3997502D01*
X7796733Y-3998468D01*
X7816342Y-3997502D01*
X7835849Y-3994607D01*
X7854899Y-3989832D01*
X7873441Y-3983228D01*
X7891221Y-3974795D01*
X7908086Y-3964686D01*
X7923885Y-3952951D01*
X7938465Y-3939743D01*
X7951673Y-3925163D01*
X7955737Y-3919728D01*
X7958886Y-3916934D01*
X7962900Y-3915664D01*
X7967116Y-3916121D01*
X7970723Y-3918254D01*
X7973212Y-3921658D01*
X7974075Y-3925773D01*
X7974075Y-4632655D01*
X7973110Y-4636973D01*
X7970418Y-4640478D01*
X7966456Y-4642510D01*
X7962036Y-4642662D01*
X7957972Y-4640935D01*
X7955025Y-4637633D01*
X7951419Y-4631080D01*
X7939633Y-4613910D01*
X7926324Y-4597908D01*
X7911592Y-4583176D01*
X7895590Y-4569866D01*
X7878419Y-4558080D01*
X7860182Y-4547971D01*
X7853527Y-4545025D01*
X7853527Y-4655972D01*
X7963916Y-4655972D01*
X7967827Y-4656734D01*
X7971078Y-4658918D01*
X7973314Y-4662220D01*
X7974075Y-4666132D01*
X7974075Y-4833467D01*
X7973314Y-4837379D01*
X7971078Y-4840681D01*
X7967827Y-4842865D01*
X7963916Y-4843627D01*
X7853527Y-4843627D01*
X7853527Y-4954574D01*
X7860182Y-4951628D01*
X7878419Y-4941519D01*
X7895590Y-4929733D01*
X7911592Y-4916424D01*
X7926324Y-4901692D01*
X7939633Y-4885690D01*
X7951419Y-4868519D01*
X7955025Y-4861966D01*
X7957972Y-4858664D01*
X7962036Y-4856937D01*
X7966456Y-4857089D01*
X7970418Y-4859121D01*
X7973110Y-4862626D01*
X7974075Y-4866944D01*
X7974075Y-4963922D01*
X7973314Y-4967833D01*
X7971078Y-4971084D01*
X7967827Y-4973320D01*
X7963916Y-4974082D01*
X7857540Y-4974082D01*
X7853680Y-4973320D01*
X7850479Y-4971186D01*
X7847279Y-4973320D01*
X7843367Y-4974082D01*
X7676032Y-4974082D01*
X7672120Y-4973320D01*
X7668920Y-4971186D01*
X7665720Y-4973320D01*
X7661859Y-4974082D01*
X351840Y-4974082D01*
X347980Y-4973320D01*
X344779Y-4971186D01*
X341579Y-4973320D01*
X337667Y-4974082D01*
X170332Y-4974082D01*
X166420Y-4973320D01*
X163220Y-4971186D01*
X160020Y-4973320D01*
X156159Y-4974082D01*
G37*

%LPC*%
G36*
X160172Y-4954574D02*
G01*
X160172Y-4843627D01*
X49225Y-4843627D01*
X52171Y-4850282D01*
X62280Y-4868519D01*
X74066Y-4885690D01*
X87376Y-4901692D01*
X102108Y-4916424D01*
X118110Y-4929733D01*
X135280Y-4941519D01*
X153517Y-4951628D01*
G37*
G36*
X347827Y-4954574D02*
G01*
X354482Y-4951628D01*
X372719Y-4941519D01*
X389890Y-4929733D01*
X405892Y-4916424D01*
X420624Y-4901692D01*
X433933Y-4885690D01*
X445719Y-4868519D01*
X455828Y-4850282D01*
X458774Y-4843627D01*
X347827Y-4843627D01*
G37*
G36*
X7665872Y-4954574D02*
G01*
X7665872Y-4843627D01*
X7554925Y-4843627D01*
X7557871Y-4850282D01*
X7567980Y-4868519D01*
X7579766Y-4885690D01*
X7593075Y-4901692D01*
X7607808Y-4916424D01*
X7623809Y-4929733D01*
X7640980Y-4941519D01*
X7659217Y-4951628D01*
G37*
G36*
X6578701Y-4774488D02*
G01*
X7492796Y-4774488D01*
X7498638Y-4774285D01*
X7504226Y-4773625D01*
X7509814Y-4772609D01*
X7515148Y-4771136D01*
X7522159Y-4768596D01*
X7525766Y-4767021D01*
X7530744Y-4764379D01*
X7535519Y-4761382D01*
X7540040Y-4758029D01*
X7544358Y-4754321D01*
X7548321Y-4750358D01*
X7552029Y-4746040D01*
X7555382Y-4741519D01*
X7558379Y-4736744D01*
X7561021Y-4731766D01*
X7563256Y-4726584D01*
X7565136Y-4721250D01*
X7566609Y-4715814D01*
X7567625Y-4710226D01*
X7568285Y-4704638D01*
X7568488Y-4698796D01*
X7568488Y-4666132D01*
X7569250Y-4662220D01*
X7571486Y-4658918D01*
X7574788Y-4656734D01*
X7578648Y-4655972D01*
X7665872Y-4655972D01*
X7665872Y-4601159D01*
X7666329Y-4598162D01*
X7667650Y-4595418D01*
X7681010Y-4582007D01*
X7690459Y-4569968D01*
X7698384Y-4556861D01*
X7704632Y-4542942D01*
X7709204Y-4528312D01*
X7711948Y-4513275D01*
X7712862Y-4497984D01*
X7711948Y-4482744D01*
X7709204Y-4467707D01*
X7704632Y-4453077D01*
X7698384Y-4439107D01*
X7690459Y-4426051D01*
X7681010Y-4414012D01*
X7670190Y-4403191D01*
X7658150Y-4393742D01*
X7645095Y-4385818D01*
X7631125Y-4379569D01*
X7616494Y-4374997D01*
X7601458Y-4372254D01*
X7586218Y-4371340D01*
X7570927Y-4372254D01*
X7555890Y-4374997D01*
X7541259Y-4379569D01*
X7527340Y-4385818D01*
X7514234Y-4393742D01*
X7502194Y-4403191D01*
X7491374Y-4414012D01*
X7481925Y-4426051D01*
X7474051Y-4439107D01*
X7467752Y-4453077D01*
X7463180Y-4467707D01*
X7460437Y-4482744D01*
X7459522Y-4497984D01*
X7460386Y-4512208D01*
X7459725Y-4516424D01*
X7457440Y-4520031D01*
X7437780Y-4539742D01*
X7432141Y-4546549D01*
X7430719Y-4548530D01*
X7426147Y-4556099D01*
X7421676Y-4566462D01*
X7420914Y-4568748D01*
X7418781Y-4577334D01*
X7418374Y-4579772D01*
X7417562Y-4588560D01*
X7417511Y-4613351D01*
X7416749Y-4617212D01*
X7414514Y-4620514D01*
X7411212Y-4622749D01*
X7407351Y-4623511D01*
X7159447Y-4623511D01*
X7155180Y-4622546D01*
X7151725Y-4619904D01*
X7149642Y-4616094D01*
X7149439Y-4611725D01*
X7151014Y-4607661D01*
X7154214Y-4604664D01*
X7158177Y-4602276D01*
X7170216Y-4592828D01*
X7181037Y-4582007D01*
X7190435Y-4569968D01*
X7198359Y-4556861D01*
X7204811Y-4542434D01*
X7130643Y-4542434D01*
X7130643Y-4613351D01*
X7129881Y-4617212D01*
X7127697Y-4620514D01*
X7124395Y-4622749D01*
X7120483Y-4623511D01*
X7051903Y-4623511D01*
X7048042Y-4622749D01*
X7044740Y-4620514D01*
X7042505Y-4617212D01*
X7041743Y-4613351D01*
X7041743Y-4542434D01*
X6967626Y-4542434D01*
X6974027Y-4556861D01*
X6981952Y-4569968D01*
X6991400Y-4582007D01*
X7002221Y-4592828D01*
X7014260Y-4602276D01*
X7018223Y-4604664D01*
X7021372Y-4607661D01*
X7022998Y-4611725D01*
X7022744Y-4616094D01*
X7020712Y-4619904D01*
X7017207Y-4622546D01*
X7012940Y-4623511D01*
X6614058Y-4623511D01*
X6610197Y-4622749D01*
X6606286Y-4619904D01*
X6604050Y-4616602D01*
X6603288Y-4612741D01*
X6603238Y-3321964D01*
X6602425Y-3313176D01*
X6602018Y-3310737D01*
X6599885Y-3302152D01*
X6599123Y-3299866D01*
X6594652Y-3289503D01*
X6590080Y-3281934D01*
X6588658Y-3279952D01*
X6583019Y-3273145D01*
X6541262Y-3231286D01*
X6538925Y-3227730D01*
X6538315Y-3223514D01*
X6539179Y-3209290D01*
X6538214Y-3193999D01*
X6535470Y-3178962D01*
X6530949Y-3164382D01*
X6524650Y-3150412D01*
X6516725Y-3137306D01*
X6507327Y-3125266D01*
X6496507Y-3114446D01*
X6484467Y-3105048D01*
X6471361Y-3097123D01*
X6457391Y-3090824D01*
X6442811Y-3086303D01*
X6427774Y-3083560D01*
X6412484Y-3082594D01*
X6397193Y-3083560D01*
X6382156Y-3086303D01*
X6367576Y-3090824D01*
X6353606Y-3097123D01*
X6340500Y-3105048D01*
X6328460Y-3114446D01*
X6317640Y-3125266D01*
X6308242Y-3137306D01*
X6300317Y-3150412D01*
X6294729Y-3162808D01*
X6292545Y-3165957D01*
X6289294Y-3168040D01*
X6285484Y-3168802D01*
X6281674Y-3168040D01*
X6278422Y-3165957D01*
X6276238Y-3162808D01*
X6270650Y-3150412D01*
X6262725Y-3137306D01*
X6253327Y-3125266D01*
X6242507Y-3114446D01*
X6230467Y-3105048D01*
X6217361Y-3097123D01*
X6203391Y-3090824D01*
X6188811Y-3086303D01*
X6173774Y-3083560D01*
X6158484Y-3082594D01*
X6143193Y-3083560D01*
X6128156Y-3086303D01*
X6113576Y-3090824D01*
X6099606Y-3097123D01*
X6086500Y-3105048D01*
X6074460Y-3114446D01*
X6063640Y-3125266D01*
X6054242Y-3137306D01*
X6046317Y-3150412D01*
X6040729Y-3162808D01*
X6038545Y-3165957D01*
X6035294Y-3168040D01*
X6031484Y-3168802D01*
X6027674Y-3168040D01*
X6024422Y-3165957D01*
X6022238Y-3162808D01*
X6016650Y-3150412D01*
X6008725Y-3137306D01*
X5999327Y-3125266D01*
X5988507Y-3114446D01*
X5976467Y-3105048D01*
X5963361Y-3097123D01*
X5949391Y-3090824D01*
X5934811Y-3086303D01*
X5919774Y-3083560D01*
X5904484Y-3082594D01*
X5889193Y-3083560D01*
X5874156Y-3086303D01*
X5859576Y-3090824D01*
X5845606Y-3097123D01*
X5832500Y-3105048D01*
X5820460Y-3114446D01*
X5809640Y-3125266D01*
X5800242Y-3137306D01*
X5792317Y-3150412D01*
X5786729Y-3162808D01*
X5784545Y-3165957D01*
X5781294Y-3168040D01*
X5777484Y-3168802D01*
X5773674Y-3168040D01*
X5770422Y-3165957D01*
X5768238Y-3162808D01*
X5762650Y-3150412D01*
X5754725Y-3137306D01*
X5745327Y-3125266D01*
X5734507Y-3114446D01*
X5729884Y-3110839D01*
X5727801Y-3108655D01*
X5726430Y-3105861D01*
X5725972Y-3102864D01*
X5725972Y-2934919D01*
X5725769Y-2929128D01*
X5725109Y-2923438D01*
X5724093Y-2918002D01*
X5722620Y-2912465D01*
X5720791Y-2907182D01*
X5718505Y-2901950D01*
X5715914Y-2897022D01*
X5712866Y-2892196D01*
X5709564Y-2887675D01*
X5705805Y-2883357D01*
X5701893Y-2879445D01*
X5697524Y-2875686D01*
X5693054Y-2872384D01*
X5688228Y-2869336D01*
X5683300Y-2866745D01*
X5678068Y-2864459D01*
X5672785Y-2862580D01*
X5667298Y-2861106D01*
X5661812Y-2860090D01*
X5656122Y-2859430D01*
X5650331Y-2859227D01*
X4411573Y-2858211D01*
X4407662Y-2857449D01*
X4404360Y-2855214D01*
X4402124Y-2851861D01*
X4401413Y-2847949D01*
X4402226Y-2844088D01*
X4404461Y-2840786D01*
X4414215Y-2831338D01*
X4423968Y-2819298D01*
X4432198Y-2806242D01*
X4438853Y-2792272D01*
X4443831Y-2777642D01*
X4446981Y-2762504D01*
X4448352Y-2747111D01*
X4447895Y-2731668D01*
X4447184Y-2726639D01*
X4447184Y-2723489D01*
X4448149Y-2720492D01*
X4450029Y-2717952D01*
X4638395Y-2529586D01*
X4641697Y-2527350D01*
X4645558Y-2526588D01*
X6670751Y-2526588D01*
X6674612Y-2527350D01*
X6677914Y-2529586D01*
X6680149Y-2532888D01*
X6680911Y-2536748D01*
X6680911Y-3377996D01*
X6681114Y-3383838D01*
X6681774Y-3389426D01*
X6682790Y-3395014D01*
X6684264Y-3400450D01*
X6686143Y-3405784D01*
X6688378Y-3410965D01*
X6691020Y-3415944D01*
X6694017Y-3420719D01*
X6697370Y-3425240D01*
X6701078Y-3429558D01*
X6705041Y-3433521D01*
X6709359Y-3437229D01*
X6713880Y-3440582D01*
X6718655Y-3443579D01*
X6723634Y-3446221D01*
X6728815Y-3448456D01*
X6734149Y-3450336D01*
X6739585Y-3451809D01*
X6745173Y-3452825D01*
X6750761Y-3453485D01*
X6756603Y-3453688D01*
X7419441Y-3453637D01*
X7428230Y-3452825D01*
X7430668Y-3452418D01*
X7439253Y-3450285D01*
X7441539Y-3449523D01*
X7451902Y-3445052D01*
X7459472Y-3440480D01*
X7461453Y-3439058D01*
X7468260Y-3433419D01*
X7641386Y-3260293D01*
X7647025Y-3253486D01*
X7648448Y-3251504D01*
X7653020Y-3243935D01*
X7654137Y-3241751D01*
X7657490Y-3233572D01*
X7658252Y-3231235D01*
X7660386Y-3222650D01*
X7660792Y-3220262D01*
X7661656Y-3211423D01*
X7661706Y-3154426D01*
X7662164Y-3151428D01*
X7663484Y-3148685D01*
X7665567Y-3146450D01*
X7670190Y-3142843D01*
X7681010Y-3132023D01*
X7690459Y-3119983D01*
X7698384Y-3106877D01*
X7704632Y-3092907D01*
X7709204Y-3078327D01*
X7711948Y-3063290D01*
X7712862Y-3048000D01*
X7711948Y-3032709D01*
X7709204Y-3017672D01*
X7704632Y-3003092D01*
X7698384Y-2989122D01*
X7690459Y-2976016D01*
X7681010Y-2963976D01*
X7670190Y-2953156D01*
X7658150Y-2943758D01*
X7645095Y-2935833D01*
X7631125Y-2929534D01*
X7616494Y-2925013D01*
X7601458Y-2922270D01*
X7586218Y-2921304D01*
X7570927Y-2922270D01*
X7555890Y-2925013D01*
X7541259Y-2929534D01*
X7527340Y-2935833D01*
X7514234Y-2943758D01*
X7502194Y-2953156D01*
X7491374Y-2963976D01*
X7481925Y-2976016D01*
X7474051Y-2989122D01*
X7470444Y-2997047D01*
X7468260Y-3000197D01*
X7465009Y-3002330D01*
X7461199Y-3003042D01*
X7457389Y-3002330D01*
X7454138Y-3000197D01*
X7451953Y-2997047D01*
X7448346Y-2989122D01*
X7440472Y-2976016D01*
X7431024Y-2963976D01*
X7420203Y-2953156D01*
X7408164Y-2943758D01*
X7395057Y-2935833D01*
X7381138Y-2929534D01*
X7366508Y-2925013D01*
X7351471Y-2922270D01*
X7336180Y-2921304D01*
X7320940Y-2922270D01*
X7305903Y-2925013D01*
X7291273Y-2929534D01*
X7277353Y-2935833D01*
X7264247Y-2943758D01*
X7252208Y-2953156D01*
X7241387Y-2963976D01*
X7231938Y-2976016D01*
X7224014Y-2989122D01*
X7220458Y-2997047D01*
X7218222Y-3000197D01*
X7214971Y-3002330D01*
X7211212Y-3003042D01*
X7207402Y-3002330D01*
X7204151Y-3000197D01*
X7201916Y-2997047D01*
X7198359Y-2989122D01*
X7190435Y-2976016D01*
X7181037Y-2963976D01*
X7170216Y-2953156D01*
X7165594Y-2949549D01*
X7163511Y-2947314D01*
X7162139Y-2944571D01*
X7161682Y-2941574D01*
X7161682Y-2001012D01*
X7162088Y-1998268D01*
X7163206Y-1995728D01*
X7166051Y-1991055D01*
X7169658Y-1983181D01*
X7172959Y-1972411D01*
X7174585Y-1961235D01*
X7174738Y-1958797D01*
X7174585Y-1949957D01*
X7172858Y-1938832D01*
X7172248Y-1936445D01*
X7168591Y-1925777D01*
X7164578Y-1917903D01*
X7163308Y-1915820D01*
X7156653Y-1906727D01*
X7150506Y-1900326D01*
X7148677Y-1898700D01*
X7141667Y-1893316D01*
X7139635Y-1891995D01*
X7129678Y-1886661D01*
X7121347Y-1883613D01*
X7119010Y-1882952D01*
X7110374Y-1881124D01*
X7107936Y-1880819D01*
X7098995Y-1880311D01*
X4594758Y-1880362D01*
X4585970Y-1881174D01*
X4583531Y-1881581D01*
X4574946Y-1883714D01*
X4572660Y-1884476D01*
X4562297Y-1888947D01*
X4554728Y-1893519D01*
X4552746Y-1894941D01*
X4545939Y-1900580D01*
X4465421Y-1980996D01*
X4462170Y-1983181D01*
X4458360Y-1983993D01*
X4454499Y-1983232D01*
X4451197Y-1981149D01*
X4448962Y-1977948D01*
X4448098Y-1974088D01*
X4447946Y-1969617D01*
X4445660Y-1954326D01*
X4441596Y-1939391D01*
X4435805Y-1925066D01*
X4428337Y-1911553D01*
X4419346Y-1899005D01*
X4408881Y-1887575D01*
X4397197Y-1877517D01*
X4384344Y-1868881D01*
X4373422Y-1863242D01*
X4370425Y-1860905D01*
X4368495Y-1857654D01*
X4367885Y-1853895D01*
X4368698Y-1850186D01*
X4370832Y-1847037D01*
X4373981Y-1844903D01*
X4377537Y-1843328D01*
X4390847Y-1835454D01*
X4403140Y-1826107D01*
X4414215Y-1815338D01*
X4423968Y-1803298D01*
X4432198Y-1790242D01*
X4438853Y-1776272D01*
X4443831Y-1761642D01*
X4446981Y-1746504D01*
X4448352Y-1731111D01*
X4447895Y-1715668D01*
X4445609Y-1700377D01*
X4441545Y-1685442D01*
X4435754Y-1671116D01*
X4428286Y-1657604D01*
X4419295Y-1645056D01*
X4408830Y-1633626D01*
X4397146Y-1623517D01*
X4384294Y-1614881D01*
X4373321Y-1609242D01*
X4370324Y-1606905D01*
X4368393Y-1603654D01*
X4367784Y-1599946D01*
X4368596Y-1596237D01*
X4370730Y-1593088D01*
X4373880Y-1590903D01*
X4377588Y-1589278D01*
X4390898Y-1581404D01*
X4403191Y-1572056D01*
X4414266Y-1561287D01*
X4424019Y-1549247D01*
X4432249Y-1536192D01*
X4438904Y-1522222D01*
X4443882Y-1507591D01*
X4447032Y-1492453D01*
X4448403Y-1477060D01*
X4447946Y-1461617D01*
X4445660Y-1446326D01*
X4441596Y-1431391D01*
X4435805Y-1417066D01*
X4428337Y-1403553D01*
X4419346Y-1391005D01*
X4408881Y-1379575D01*
X4397197Y-1369517D01*
X4384344Y-1360881D01*
X4373422Y-1355242D01*
X4370425Y-1352905D01*
X4368495Y-1349654D01*
X4367885Y-1345895D01*
X4368698Y-1342186D01*
X4370832Y-1339037D01*
X4373981Y-1336903D01*
X4377537Y-1335328D01*
X4390847Y-1327454D01*
X4403140Y-1318107D01*
X4414215Y-1307338D01*
X4423968Y-1295298D01*
X4432198Y-1282242D01*
X4438853Y-1268272D01*
X4443831Y-1253642D01*
X4446981Y-1238504D01*
X4448352Y-1223111D01*
X4447895Y-1207668D01*
X4445609Y-1192377D01*
X4441545Y-1177442D01*
X4435754Y-1163116D01*
X4428286Y-1149604D01*
X4419295Y-1137056D01*
X4408830Y-1125626D01*
X4397146Y-1115517D01*
X4384294Y-1106881D01*
X4373321Y-1101242D01*
X4370324Y-1098905D01*
X4368393Y-1095654D01*
X4367784Y-1091946D01*
X4368596Y-1088237D01*
X4370730Y-1085088D01*
X4373880Y-1082903D01*
X4377588Y-1081278D01*
X4390898Y-1073404D01*
X4403191Y-1064056D01*
X4414266Y-1053287D01*
X4424019Y-1041247D01*
X4432249Y-1028192D01*
X4438904Y-1014221D01*
X4443882Y-999591D01*
X4447032Y-984453D01*
X4448403Y-969060D01*
X4447946Y-953617D01*
X4445660Y-938326D01*
X4441596Y-923391D01*
X4435805Y-909066D01*
X4428337Y-895553D01*
X4419346Y-883005D01*
X4408881Y-871575D01*
X4397197Y-861517D01*
X4384344Y-852881D01*
X4373372Y-847242D01*
X4370374Y-844905D01*
X4368444Y-841654D01*
X4367885Y-837895D01*
X4368698Y-834186D01*
X4370781Y-831037D01*
X4373930Y-828903D01*
X4377588Y-827278D01*
X4390898Y-819403D01*
X4403191Y-810056D01*
X4414266Y-799287D01*
X4424019Y-787247D01*
X4432249Y-774192D01*
X4438904Y-760222D01*
X4443882Y-745591D01*
X4447032Y-730453D01*
X4448403Y-715060D01*
X4447946Y-699617D01*
X4445660Y-684326D01*
X4443171Y-675132D01*
X4442968Y-670712D01*
X4444644Y-666648D01*
X4447844Y-663651D01*
X4452061Y-662330D01*
X4456430Y-662889D01*
X4460138Y-665276D01*
X4576927Y-782015D01*
X4587036Y-790905D01*
X4597958Y-798220D01*
X4609744Y-804011D01*
X4622190Y-808228D01*
X4635093Y-810818D01*
X4648555Y-811682D01*
X6055258Y-811682D01*
X6068720Y-810818D01*
X6081623Y-808228D01*
X6094069Y-804011D01*
X6105855Y-798220D01*
X6116777Y-790905D01*
X6126886Y-782015D01*
X6294882Y-614019D01*
X6297371Y-612241D01*
X6300266Y-611225D01*
X6310833Y-609295D01*
X6325412Y-604723D01*
X6339382Y-598474D01*
X6352438Y-590550D01*
X6364478Y-581101D01*
X6375298Y-570280D01*
X6384747Y-558241D01*
X6392672Y-545185D01*
X6398260Y-532790D01*
X6400444Y-529640D01*
X6403695Y-527558D01*
X6407505Y-526796D01*
X6411315Y-527558D01*
X6414516Y-529640D01*
X6416751Y-532790D01*
X6422339Y-545185D01*
X6430264Y-558241D01*
X6439662Y-570280D01*
X6450482Y-581101D01*
X6462522Y-590550D01*
X6475628Y-598474D01*
X6489598Y-604723D01*
X6504178Y-609295D01*
X6519214Y-612038D01*
X6534505Y-612952D01*
X6549745Y-612038D01*
X6564833Y-609295D01*
X6579412Y-604723D01*
X6593382Y-598474D01*
X6606438Y-590550D01*
X6618478Y-581101D01*
X6629298Y-570280D01*
X6638747Y-558241D01*
X6646672Y-545185D01*
X6652920Y-531215D01*
X6657492Y-516635D01*
X6660235Y-501548D01*
X6661200Y-486308D01*
X6660235Y-471017D01*
X6657492Y-455980D01*
X6652920Y-441401D01*
X6646672Y-427431D01*
X6638747Y-414324D01*
X6629298Y-402285D01*
X6618478Y-391464D01*
X6606438Y-382066D01*
X6593382Y-374142D01*
X6579412Y-367842D01*
X6564833Y-363321D01*
X6549745Y-360527D01*
X6534505Y-359613D01*
X6519214Y-360527D01*
X6504178Y-363321D01*
X6489598Y-367842D01*
X6475628Y-374142D01*
X6462522Y-382066D01*
X6450482Y-391464D01*
X6439662Y-402285D01*
X6430264Y-414324D01*
X6422339Y-427431D01*
X6416751Y-439826D01*
X6414516Y-442976D01*
X6411315Y-445058D01*
X6407505Y-445770D01*
X6403695Y-445058D01*
X6400444Y-442976D01*
X6398260Y-439826D01*
X6392672Y-427431D01*
X6384747Y-414324D01*
X6375298Y-402285D01*
X6364478Y-391464D01*
X6352438Y-382066D01*
X6339382Y-374142D01*
X6325412Y-367842D01*
X6310833Y-363321D01*
X6295745Y-360527D01*
X6280505Y-359613D01*
X6265214Y-360527D01*
X6250178Y-363321D01*
X6235598Y-367842D01*
X6221628Y-374142D01*
X6208522Y-382066D01*
X6196482Y-391464D01*
X6185662Y-402285D01*
X6176264Y-414324D01*
X6168339Y-427431D01*
X6162751Y-439826D01*
X6160516Y-442976D01*
X6157315Y-445058D01*
X6155639Y-445363D01*
X6157264Y-447598D01*
X6158230Y-451256D01*
X6155537Y-466598D01*
X6154572Y-469493D01*
X6152743Y-471932D01*
X6096914Y-527761D01*
X6093612Y-529996D01*
X6089751Y-530758D01*
X6070955Y-530758D01*
X6070955Y-549554D01*
X6070193Y-553415D01*
X6067958Y-556717D01*
X6016955Y-607720D01*
X6013653Y-609955D01*
X6009792Y-610717D01*
X5992215Y-610717D01*
X5988304Y-609955D01*
X5985002Y-607720D01*
X5982817Y-604418D01*
X5982055Y-600557D01*
X5982055Y-530758D01*
X5907328Y-530758D01*
X5908751Y-532790D01*
X5914339Y-545185D01*
X5922264Y-558241D01*
X5931662Y-570280D01*
X5942482Y-581101D01*
X5954522Y-590550D01*
X5956706Y-591870D01*
X5959856Y-594868D01*
X5961481Y-598932D01*
X5961227Y-603250D01*
X5959144Y-607110D01*
X5955690Y-609752D01*
X5951423Y-610717D01*
X5847588Y-610717D01*
X5843320Y-609752D01*
X5839815Y-607110D01*
X5837783Y-603250D01*
X5837529Y-598932D01*
X5839155Y-594868D01*
X5842304Y-591870D01*
X5844438Y-590550D01*
X5856478Y-581101D01*
X5867298Y-570280D01*
X5876747Y-558241D01*
X5884672Y-545185D01*
X5890260Y-532790D01*
X5892444Y-529640D01*
X5895695Y-527558D01*
X5897372Y-527202D01*
X5895746Y-524967D01*
X5894781Y-521309D01*
X5898235Y-501548D01*
X5899200Y-486308D01*
X5898235Y-471017D01*
X5894781Y-451256D01*
X5895746Y-447598D01*
X5897372Y-445363D01*
X5895695Y-445058D01*
X5892444Y-442976D01*
X5890260Y-439826D01*
X5884672Y-427431D01*
X5876747Y-414324D01*
X5867298Y-402285D01*
X5856478Y-391464D01*
X5844438Y-382066D01*
X5831382Y-374142D01*
X5817412Y-367842D01*
X5802833Y-363321D01*
X5787745Y-360527D01*
X5772505Y-359613D01*
X5757214Y-360527D01*
X5742178Y-363321D01*
X5727598Y-367842D01*
X5713628Y-374142D01*
X5700522Y-382066D01*
X5688482Y-391464D01*
X5677662Y-402285D01*
X5668264Y-414324D01*
X5660339Y-427431D01*
X5654040Y-441401D01*
X5649518Y-455980D01*
X5646724Y-471017D01*
X5645810Y-486308D01*
X5646724Y-501548D01*
X5649518Y-516635D01*
X5654040Y-531215D01*
X5660339Y-545185D01*
X5668264Y-558241D01*
X5677662Y-570280D01*
X5688482Y-581101D01*
X5700522Y-590550D01*
X5702706Y-591870D01*
X5705856Y-594868D01*
X5707481Y-598932D01*
X5707227Y-603250D01*
X5705144Y-607110D01*
X5701690Y-609752D01*
X5697423Y-610717D01*
X4694021Y-610717D01*
X4690160Y-609955D01*
X4686858Y-607720D01*
X4478172Y-399084D01*
X4468063Y-390194D01*
X4457141Y-382879D01*
X4445355Y-377088D01*
X4432909Y-372872D01*
X4420006Y-370281D01*
X4406544Y-369417D01*
X3696055Y-369417D01*
X3682593Y-370281D01*
X3669690Y-372872D01*
X3657244Y-377088D01*
X3645458Y-382879D01*
X3634536Y-390194D01*
X3624630Y-398830D01*
X3615994Y-408736D01*
X3608679Y-419658D01*
X3602888Y-431444D01*
X3598672Y-443890D01*
X3596081Y-456793D01*
X3595217Y-470255D01*
X3595217Y-1795678D01*
X3594455Y-1799539D01*
X3592220Y-1802841D01*
X2936392Y-2458669D01*
X2932887Y-2460955D01*
X2928721Y-2461615D01*
X2924657Y-2460548D01*
X2921355Y-2457907D01*
X2919425Y-2454148D01*
X2917545Y-2447340D01*
X2911754Y-2433015D01*
X2904286Y-2419502D01*
X2895295Y-2406954D01*
X2884830Y-2395524D01*
X2873146Y-2385415D01*
X2860294Y-2376779D01*
X2849422Y-2371191D01*
X2846425Y-2368854D01*
X2844495Y-2365603D01*
X2843885Y-2361844D01*
X2844698Y-2358186D01*
X2846832Y-2355037D01*
X2849981Y-2352852D01*
X2853588Y-2351278D01*
X2866898Y-2343404D01*
X2879191Y-2334056D01*
X2890266Y-2323287D01*
X2900019Y-2311247D01*
X2908249Y-2298192D01*
X2914904Y-2284222D01*
X2919882Y-2269591D01*
X2923032Y-2254453D01*
X2924403Y-2239060D01*
X2923946Y-2223617D01*
X2921660Y-2208326D01*
X2917596Y-2193391D01*
X2911805Y-2179066D01*
X2904337Y-2165553D01*
X2895346Y-2153005D01*
X2884881Y-2141575D01*
X2873197Y-2131466D01*
X2860344Y-2122830D01*
X2849321Y-2117191D01*
X2846324Y-2114854D01*
X2844393Y-2111603D01*
X2843784Y-2107844D01*
X2844596Y-2104136D01*
X2846730Y-2100986D01*
X2849880Y-2098852D01*
X2853537Y-2097227D01*
X2866847Y-2089353D01*
X2879140Y-2080006D01*
X2890215Y-2069236D01*
X2899968Y-2057196D01*
X2908198Y-2044141D01*
X2914853Y-2030171D01*
X2919831Y-2015540D01*
X2922981Y-2000402D01*
X2924352Y-1985010D01*
X2923895Y-1969566D01*
X2921609Y-1954275D01*
X2917545Y-1939340D01*
X2911754Y-1925015D01*
X2904286Y-1911502D01*
X2895295Y-1898954D01*
X2884830Y-1887524D01*
X2873146Y-1877415D01*
X2860294Y-1868779D01*
X2849422Y-1863191D01*
X2846425Y-1860854D01*
X2844495Y-1857603D01*
X2843885Y-1853844D01*
X2844698Y-1850186D01*
X2846832Y-1847037D01*
X2849981Y-1844852D01*
X2853588Y-1843278D01*
X2866898Y-1835404D01*
X2879191Y-1826056D01*
X2890266Y-1815287D01*
X2900019Y-1803247D01*
X2908249Y-1790192D01*
X2914904Y-1776222D01*
X2919882Y-1761591D01*
X2923032Y-1746453D01*
X2924403Y-1731060D01*
X2923946Y-1715617D01*
X2921660Y-1700326D01*
X2917596Y-1685391D01*
X2911805Y-1671066D01*
X2904337Y-1657553D01*
X2895346Y-1645005D01*
X2884881Y-1633575D01*
X2873197Y-1623466D01*
X2860344Y-1614830D01*
X2849321Y-1609191D01*
X2846324Y-1606854D01*
X2844393Y-1603603D01*
X2843784Y-1599844D01*
X2844596Y-1596136D01*
X2846730Y-1592986D01*
X2849880Y-1590852D01*
X2853537Y-1589227D01*
X2866847Y-1581353D01*
X2879140Y-1572006D01*
X2890215Y-1561236D01*
X2899968Y-1549196D01*
X2908198Y-1536141D01*
X2914853Y-1522171D01*
X2919831Y-1507540D01*
X2922981Y-1492402D01*
X2924352Y-1477010D01*
X2923895Y-1461566D01*
X2921609Y-1446276D01*
X2917545Y-1431340D01*
X2911754Y-1417015D01*
X2904286Y-1403502D01*
X2895295Y-1390954D01*
X2884830Y-1379524D01*
X2873146Y-1369415D01*
X2860294Y-1360779D01*
X2849422Y-1355191D01*
X2846425Y-1352854D01*
X2844495Y-1349603D01*
X2843885Y-1345844D01*
X2844698Y-1342186D01*
X2846832Y-1339037D01*
X2849981Y-1336852D01*
X2853588Y-1335278D01*
X2866898Y-1327404D01*
X2879191Y-1318056D01*
X2890266Y-1307287D01*
X2900019Y-1295247D01*
X2908249Y-1282192D01*
X2914904Y-1268222D01*
X2919882Y-1253591D01*
X2923032Y-1238453D01*
X2924403Y-1223060D01*
X2923946Y-1207617D01*
X2921660Y-1192326D01*
X2917596Y-1177391D01*
X2911805Y-1163066D01*
X2904337Y-1149553D01*
X2895346Y-1137005D01*
X2884881Y-1125575D01*
X2873197Y-1115466D01*
X2860344Y-1106830D01*
X2849321Y-1101191D01*
X2846324Y-1098854D01*
X2844393Y-1095603D01*
X2843784Y-1091844D01*
X2844596Y-1088136D01*
X2846730Y-1084986D01*
X2849880Y-1082852D01*
X2853537Y-1081227D01*
X2866847Y-1073353D01*
X2879140Y-1064006D01*
X2890215Y-1053236D01*
X2899968Y-1041196D01*
X2908198Y-1028141D01*
X2914853Y-1014171D01*
X2919831Y-999540D01*
X2922981Y-984402D01*
X2924352Y-969010D01*
X2923895Y-953566D01*
X2921609Y-938276D01*
X2917545Y-923340D01*
X2911754Y-909015D01*
X2904286Y-895502D01*
X2895295Y-882954D01*
X2884830Y-871524D01*
X2873146Y-861415D01*
X2860294Y-852779D01*
X2849422Y-847191D01*
X2846425Y-844854D01*
X2844495Y-841603D01*
X2843885Y-837895D01*
X2844698Y-834186D01*
X2846832Y-831037D01*
X2849981Y-828852D01*
X2853588Y-827278D01*
X2866898Y-819403D01*
X2879191Y-810056D01*
X2890266Y-799287D01*
X2900019Y-787247D01*
X2908249Y-774192D01*
X2914904Y-760222D01*
X2919882Y-745591D01*
X2923032Y-730453D01*
X2924403Y-715060D01*
X2923946Y-699617D01*
X2921660Y-684326D01*
X2917596Y-669391D01*
X2911805Y-655066D01*
X2904337Y-641553D01*
X2895346Y-629005D01*
X2884881Y-617575D01*
X2873197Y-607466D01*
X2860344Y-598830D01*
X2846578Y-591769D01*
X2832100Y-586384D01*
X2817063Y-582777D01*
X2801721Y-580948D01*
X2786278Y-580948D01*
X2770936Y-582777D01*
X2755900Y-586384D01*
X2741422Y-591769D01*
X2727655Y-598830D01*
X2714853Y-607466D01*
X2703118Y-617575D01*
X2692704Y-629005D01*
X2683662Y-641553D01*
X2676194Y-655066D01*
X2670403Y-669391D01*
X2666339Y-684326D01*
X2664053Y-699617D01*
X2663596Y-715060D01*
X2664968Y-730453D01*
X2668117Y-745591D01*
X2673096Y-760222D01*
X2679750Y-774192D01*
X2687980Y-787247D01*
X2697734Y-799287D01*
X2708808Y-810056D01*
X2721102Y-819403D01*
X2734411Y-827278D01*
X2738018Y-828852D01*
X2741117Y-830986D01*
X2743250Y-834136D01*
X2744063Y-837844D01*
X2743454Y-841603D01*
X2741523Y-844854D01*
X2738526Y-847191D01*
X2727604Y-852779D01*
X2714802Y-861415D01*
X2703068Y-871524D01*
X2692654Y-882954D01*
X2683611Y-895502D01*
X2676144Y-909015D01*
X2670352Y-923340D01*
X2666288Y-938276D01*
X2664002Y-953566D01*
X2663545Y-969010D01*
X2664917Y-984402D01*
X2668066Y-999540D01*
X2673045Y-1014171D01*
X2679700Y-1028141D01*
X2687929Y-1041196D01*
X2697683Y-1053236D01*
X2708757Y-1064006D01*
X2721051Y-1073353D01*
X2734360Y-1081227D01*
X2738120Y-1082852D01*
X2741218Y-1085037D01*
X2743352Y-1088186D01*
X2744165Y-1091844D01*
X2743555Y-1095603D01*
X2741625Y-1098854D01*
X2738628Y-1101191D01*
X2727655Y-1106830D01*
X2714853Y-1115466D01*
X2703118Y-1125575D01*
X2692704Y-1137005D01*
X2683662Y-1149553D01*
X2676194Y-1163066D01*
X2670403Y-1177391D01*
X2666339Y-1192326D01*
X2664053Y-1207617D01*
X2663596Y-1223060D01*
X2664968Y-1238453D01*
X2668117Y-1253591D01*
X2673096Y-1268222D01*
X2679750Y-1282192D01*
X2687980Y-1295247D01*
X2697734Y-1307287D01*
X2708808Y-1318056D01*
X2721102Y-1327404D01*
X2734411Y-1335278D01*
X2738018Y-1336852D01*
X2741117Y-1338986D01*
X2743250Y-1342136D01*
X2744063Y-1345844D01*
X2743454Y-1349603D01*
X2741523Y-1352854D01*
X2738526Y-1355191D01*
X2727604Y-1360779D01*
X2714802Y-1369415D01*
X2703068Y-1379524D01*
X2692654Y-1390954D01*
X2683611Y-1403502D01*
X2676144Y-1417015D01*
X2670352Y-1431340D01*
X2666288Y-1446276D01*
X2664002Y-1461566D01*
X2663545Y-1477010D01*
X2664917Y-1492402D01*
X2668066Y-1507540D01*
X2673045Y-1522171D01*
X2679700Y-1536141D01*
X2687929Y-1549196D01*
X2697683Y-1561236D01*
X2708757Y-1572006D01*
X2721051Y-1581353D01*
X2734360Y-1589227D01*
X2738120Y-1590852D01*
X2741218Y-1593037D01*
X2743352Y-1596186D01*
X2744165Y-1599844D01*
X2743555Y-1603603D01*
X2741625Y-1606854D01*
X2738628Y-1609191D01*
X2727655Y-1614830D01*
X2714853Y-1623466D01*
X2703118Y-1633575D01*
X2692704Y-1645005D01*
X2683662Y-1657553D01*
X2676194Y-1671066D01*
X2670403Y-1685391D01*
X2666339Y-1700326D01*
X2664053Y-1715617D01*
X2663596Y-1731060D01*
X2664968Y-1746453D01*
X2668117Y-1761591D01*
X2673096Y-1776222D01*
X2679750Y-1790192D01*
X2687980Y-1803247D01*
X2697734Y-1815287D01*
X2708808Y-1826056D01*
X2721102Y-1835404D01*
X2734411Y-1843278D01*
X2738018Y-1844852D01*
X2741117Y-1846986D01*
X2743250Y-1850136D01*
X2744063Y-1853844D01*
X2743454Y-1857603D01*
X2741523Y-1860854D01*
X2738526Y-1863191D01*
X2727604Y-1868779D01*
X2714802Y-1877415D01*
X2703068Y-1887524D01*
X2692654Y-1898954D01*
X2683611Y-1911502D01*
X2676144Y-1925015D01*
X2670352Y-1939340D01*
X2666288Y-1954275D01*
X2664002Y-1969566D01*
X2663545Y-1985010D01*
X2664917Y-2000402D01*
X2668066Y-2015540D01*
X2673045Y-2030171D01*
X2679700Y-2044141D01*
X2687929Y-2057196D01*
X2697683Y-2069236D01*
X2708757Y-2080006D01*
X2721051Y-2089353D01*
X2734360Y-2097227D01*
X2738120Y-2098852D01*
X2741218Y-2101037D01*
X2743352Y-2104186D01*
X2744165Y-2107844D01*
X2743555Y-2111603D01*
X2741625Y-2114854D01*
X2738628Y-2117191D01*
X2727655Y-2122830D01*
X2714853Y-2131466D01*
X2703118Y-2141575D01*
X2692704Y-2153005D01*
X2683662Y-2165553D01*
X2676194Y-2179066D01*
X2670403Y-2193391D01*
X2666339Y-2208326D01*
X2664053Y-2223617D01*
X2663596Y-2239060D01*
X2664968Y-2254453D01*
X2668117Y-2269591D01*
X2673096Y-2284222D01*
X2679750Y-2298192D01*
X2687980Y-2311247D01*
X2697734Y-2323287D01*
X2708808Y-2334056D01*
X2721102Y-2343404D01*
X2734411Y-2351278D01*
X2738018Y-2352852D01*
X2741117Y-2354986D01*
X2743250Y-2358136D01*
X2744063Y-2361844D01*
X2743454Y-2365603D01*
X2741523Y-2368854D01*
X2738526Y-2371191D01*
X2727604Y-2376779D01*
X2714802Y-2385415D01*
X2703068Y-2395524D01*
X2692654Y-2406954D01*
X2683611Y-2419502D01*
X2676144Y-2433015D01*
X2670352Y-2447340D01*
X2666288Y-2462276D01*
X2664002Y-2477566D01*
X2663545Y-2493010D01*
X2664917Y-2508402D01*
X2668066Y-2523540D01*
X2673045Y-2538171D01*
X2679700Y-2552141D01*
X2687929Y-2565196D01*
X2697683Y-2577236D01*
X2708757Y-2588006D01*
X2721051Y-2597353D01*
X2734360Y-2605227D01*
X2738120Y-2606852D01*
X2741218Y-2609037D01*
X2743352Y-2612186D01*
X2744165Y-2615844D01*
X2743555Y-2619603D01*
X2741625Y-2622854D01*
X2738628Y-2625191D01*
X2727655Y-2630830D01*
X2714853Y-2639466D01*
X2703118Y-2649575D01*
X2692704Y-2661005D01*
X2683662Y-2673553D01*
X2676194Y-2687066D01*
X2670403Y-2701391D01*
X2666339Y-2716326D01*
X2664053Y-2731617D01*
X2663596Y-2747060D01*
X2664968Y-2762453D01*
X2668117Y-2777591D01*
X2673096Y-2792222D01*
X2679750Y-2806192D01*
X2687980Y-2819247D01*
X2697734Y-2831287D01*
X2708808Y-2842056D01*
X2721102Y-2851404D01*
X2734411Y-2859278D01*
X2738018Y-2860852D01*
X2741117Y-2862986D01*
X2743250Y-2866136D01*
X2744063Y-2869844D01*
X2743454Y-2873603D01*
X2741523Y-2876854D01*
X2738526Y-2879191D01*
X2727604Y-2884779D01*
X2714802Y-2893415D01*
X2703068Y-2903524D01*
X2692654Y-2914954D01*
X2683611Y-2927502D01*
X2676144Y-2941015D01*
X2670352Y-2955340D01*
X2666288Y-2970276D01*
X2664002Y-2985566D01*
X2663545Y-3001010D01*
X2664917Y-3016402D01*
X2668066Y-3031540D01*
X2673045Y-3046171D01*
X2679700Y-3060141D01*
X2687929Y-3073196D01*
X2697683Y-3085236D01*
X2708757Y-3096006D01*
X2721051Y-3105353D01*
X2734360Y-3113227D01*
X2738120Y-3114852D01*
X2741218Y-3117037D01*
X2743352Y-3120186D01*
X2744165Y-3123844D01*
X2743555Y-3127603D01*
X2741625Y-3130854D01*
X2738628Y-3133191D01*
X2727655Y-3138830D01*
X2714853Y-3147466D01*
X2703118Y-3157575D01*
X2692704Y-3169005D01*
X2683662Y-3181553D01*
X2676194Y-3195066D01*
X2670403Y-3209391D01*
X2666339Y-3224326D01*
X2664053Y-3239617D01*
X2663596Y-3255060D01*
X2664968Y-3270453D01*
X2668117Y-3285591D01*
X2673096Y-3300222D01*
X2679750Y-3314192D01*
X2687980Y-3327247D01*
X2697734Y-3339287D01*
X2708808Y-3350056D01*
X2721102Y-3359404D01*
X2734411Y-3367278D01*
X2738018Y-3368852D01*
X2741117Y-3370986D01*
X2743250Y-3374136D01*
X2744063Y-3377844D01*
X2743454Y-3381603D01*
X2741523Y-3384854D01*
X2738526Y-3387191D01*
X2727604Y-3392779D01*
X2714802Y-3401415D01*
X2703068Y-3411524D01*
X2692654Y-3422954D01*
X2683611Y-3435502D01*
X2676144Y-3449015D01*
X2670352Y-3463340D01*
X2666288Y-3478276D01*
X2664002Y-3493566D01*
X2663545Y-3509010D01*
X2664917Y-3524402D01*
X2668066Y-3539540D01*
X2673045Y-3554171D01*
X2679700Y-3568141D01*
X2687929Y-3581196D01*
X2697683Y-3593236D01*
X2708757Y-3604006D01*
X2721051Y-3613353D01*
X2734360Y-3621227D01*
X2738120Y-3622852D01*
X2741218Y-3625037D01*
X2743352Y-3628136D01*
X2744165Y-3631844D01*
X2743555Y-3635603D01*
X2741625Y-3638854D01*
X2738628Y-3641191D01*
X2727655Y-3646830D01*
X2714853Y-3655466D01*
X2703118Y-3665575D01*
X2692704Y-3677005D01*
X2683662Y-3689553D01*
X2676194Y-3703065D01*
X2670403Y-3717391D01*
X2666339Y-3732326D01*
X2664053Y-3747617D01*
X2663596Y-3763060D01*
X2664968Y-3778453D01*
X2668117Y-3793591D01*
X2673096Y-3808222D01*
X2679750Y-3822192D01*
X2687980Y-3835247D01*
X2697734Y-3847287D01*
X2708808Y-3858006D01*
X2721102Y-3867404D01*
X2734411Y-3875278D01*
X2738069Y-3876903D01*
X2741218Y-3879037D01*
X2743301Y-3882186D01*
X2744165Y-3885895D01*
X2743555Y-3889603D01*
X2741625Y-3892905D01*
X2738628Y-3895242D01*
X2727655Y-3900830D01*
X2714802Y-3909466D01*
X2703118Y-3919575D01*
X2692704Y-3931005D01*
X2683662Y-3943553D01*
X2676194Y-3957065D01*
X2672232Y-3966870D01*
X2747670Y-3966870D01*
X2747670Y-3894937D01*
X2748330Y-3891229D01*
X2750362Y-3888028D01*
X2753410Y-3885793D01*
X2757017Y-3884828D01*
X2760776Y-3885234D01*
X2763367Y-3885996D01*
X2778556Y-3888740D01*
X2794000Y-3889654D01*
X2809443Y-3888740D01*
X2824632Y-3885996D01*
X2827223Y-3885234D01*
X2830982Y-3884828D01*
X2834589Y-3885793D01*
X2837637Y-3888028D01*
X2839669Y-3891229D01*
X2840329Y-3894937D01*
X2840329Y-3966870D01*
X2915767Y-3966870D01*
X2911805Y-3957065D01*
X2904337Y-3943553D01*
X2895295Y-3931005D01*
X2884881Y-3919575D01*
X2873197Y-3909466D01*
X2860344Y-3900830D01*
X2849372Y-3895242D01*
X2846374Y-3892905D01*
X2844444Y-3889603D01*
X2843885Y-3885895D01*
X2844698Y-3882186D01*
X2846781Y-3879037D01*
X2849930Y-3876903D01*
X2853588Y-3875278D01*
X2866898Y-3867404D01*
X2879191Y-3858006D01*
X2890266Y-3847287D01*
X2900019Y-3835247D01*
X2908249Y-3822192D01*
X2914904Y-3808222D01*
X2919882Y-3793591D01*
X2923032Y-3778453D01*
X2924403Y-3763060D01*
X2923946Y-3747617D01*
X2921660Y-3732326D01*
X2917596Y-3717391D01*
X2911805Y-3703065D01*
X2904337Y-3689553D01*
X2895346Y-3677005D01*
X2884881Y-3665575D01*
X2873197Y-3655466D01*
X2860344Y-3646830D01*
X2849321Y-3641191D01*
X2846324Y-3638854D01*
X2844393Y-3635603D01*
X2843784Y-3631844D01*
X2844596Y-3628136D01*
X2846730Y-3624986D01*
X2849880Y-3622852D01*
X2853537Y-3621227D01*
X2866847Y-3613353D01*
X2879140Y-3604006D01*
X2890215Y-3593236D01*
X2899968Y-3581196D01*
X2908198Y-3568141D01*
X2914853Y-3554171D01*
X2919831Y-3539540D01*
X2922981Y-3524402D01*
X2924352Y-3509010D01*
X2923895Y-3493566D01*
X2921609Y-3478276D01*
X2917545Y-3463340D01*
X2911754Y-3449015D01*
X2904286Y-3435502D01*
X2895295Y-3422954D01*
X2884830Y-3411524D01*
X2873146Y-3401415D01*
X2860294Y-3392779D01*
X2849422Y-3387191D01*
X2846425Y-3384854D01*
X2844495Y-3381603D01*
X2843885Y-3377844D01*
X2844698Y-3374186D01*
X2846832Y-3371037D01*
X2849981Y-3368852D01*
X2853588Y-3367278D01*
X2866898Y-3359404D01*
X2879191Y-3350056D01*
X2890266Y-3339287D01*
X2900019Y-3327247D01*
X2908249Y-3314192D01*
X2914904Y-3300222D01*
X2919882Y-3285591D01*
X2923032Y-3270453D01*
X2924403Y-3255060D01*
X2923946Y-3239617D01*
X2921660Y-3224326D01*
X2917596Y-3209391D01*
X2911805Y-3195066D01*
X2904337Y-3181553D01*
X2895346Y-3169005D01*
X2884881Y-3157575D01*
X2873197Y-3147466D01*
X2860344Y-3138830D01*
X2849321Y-3133191D01*
X2846324Y-3130854D01*
X2844393Y-3127603D01*
X2843784Y-3123844D01*
X2844596Y-3120136D01*
X2846730Y-3116986D01*
X2849880Y-3114852D01*
X2853537Y-3113227D01*
X2866847Y-3105353D01*
X2879140Y-3096006D01*
X2890215Y-3085236D01*
X2899968Y-3073196D01*
X2908198Y-3060141D01*
X2914853Y-3046171D01*
X2919831Y-3031540D01*
X2922981Y-3016402D01*
X2924352Y-3001010D01*
X2923895Y-2985566D01*
X2921609Y-2970276D01*
X2917545Y-2955340D01*
X2911754Y-2941015D01*
X2904286Y-2927502D01*
X2895295Y-2914954D01*
X2884830Y-2903524D01*
X2873146Y-2893415D01*
X2860294Y-2884779D01*
X2849422Y-2879191D01*
X2846425Y-2876854D01*
X2844495Y-2873603D01*
X2843885Y-2869844D01*
X2844698Y-2866186D01*
X2846832Y-2863037D01*
X2849981Y-2860852D01*
X2853588Y-2859278D01*
X2866898Y-2851404D01*
X2879191Y-2842056D01*
X2890266Y-2831287D01*
X2900019Y-2819247D01*
X2908249Y-2806192D01*
X2914904Y-2792222D01*
X2919882Y-2777591D01*
X2923032Y-2762453D01*
X2923336Y-2759354D01*
X2924251Y-2755950D01*
X2926283Y-2753055D01*
X3766515Y-1912772D01*
X3775405Y-1902663D01*
X3782720Y-1891741D01*
X3788511Y-1879955D01*
X3792728Y-1867509D01*
X3795318Y-1854606D01*
X3796182Y-1841144D01*
X3796182Y-580542D01*
X3796944Y-576681D01*
X3799179Y-573379D01*
X3802481Y-571144D01*
X3806342Y-570382D01*
X4266488Y-570382D01*
X4270400Y-571195D01*
X4273753Y-573430D01*
X4275937Y-576834D01*
X4276648Y-580745D01*
X4275785Y-584708D01*
X4273448Y-587959D01*
X4269994Y-590092D01*
X4265422Y-591769D01*
X4251655Y-598830D01*
X4238802Y-607466D01*
X4227118Y-617575D01*
X4216704Y-629005D01*
X4207662Y-641553D01*
X4200194Y-655066D01*
X4194403Y-669391D01*
X4190339Y-684326D01*
X4188053Y-699617D01*
X4187596Y-715060D01*
X4188968Y-730453D01*
X4192117Y-745591D01*
X4197096Y-760222D01*
X4203750Y-774192D01*
X4211980Y-787247D01*
X4221734Y-799287D01*
X4232808Y-810056D01*
X4245102Y-819403D01*
X4258411Y-827278D01*
X4262069Y-828903D01*
X4265218Y-831037D01*
X4267301Y-834186D01*
X4268114Y-837895D01*
X4267555Y-841654D01*
X4265625Y-844905D01*
X4262628Y-847242D01*
X4251655Y-852881D01*
X4238853Y-861517D01*
X4227118Y-871575D01*
X4216704Y-883005D01*
X4207662Y-895553D01*
X4200194Y-909066D01*
X4194403Y-923391D01*
X4190339Y-938326D01*
X4188053Y-953617D01*
X4187596Y-969060D01*
X4188968Y-984453D01*
X4192117Y-999591D01*
X4197096Y-1014221D01*
X4203750Y-1028192D01*
X4211980Y-1041247D01*
X4221734Y-1053287D01*
X4232808Y-1064056D01*
X4245102Y-1073404D01*
X4258411Y-1081278D01*
X4262120Y-1082903D01*
X4265218Y-1085037D01*
X4267352Y-1088186D01*
X4268165Y-1091895D01*
X4267555Y-1095654D01*
X4265625Y-1098905D01*
X4262628Y-1101242D01*
X4251604Y-1106881D01*
X4238802Y-1115517D01*
X4227068Y-1125626D01*
X4216654Y-1137056D01*
X4207611Y-1149604D01*
X4200144Y-1163116D01*
X4194352Y-1177442D01*
X4190288Y-1192377D01*
X4188002Y-1207668D01*
X4187545Y-1223111D01*
X4188917Y-1238504D01*
X4192066Y-1253642D01*
X4197045Y-1268272D01*
X4203700Y-1282242D01*
X4211929Y-1295298D01*
X4221683Y-1307338D01*
X4232757Y-1318107D01*
X4245051Y-1327454D01*
X4258360Y-1335328D01*
X4262018Y-1336903D01*
X4265117Y-1339088D01*
X4267250Y-1342237D01*
X4268063Y-1345946D01*
X4267454Y-1349654D01*
X4265523Y-1352956D01*
X4262526Y-1355242D01*
X4251655Y-1360881D01*
X4238853Y-1369517D01*
X4227118Y-1379575D01*
X4216704Y-1391005D01*
X4207662Y-1403553D01*
X4200194Y-1417066D01*
X4194403Y-1431391D01*
X4190339Y-1446326D01*
X4188053Y-1461617D01*
X4187596Y-1477060D01*
X4188968Y-1492453D01*
X4192117Y-1507591D01*
X4197096Y-1522222D01*
X4203750Y-1536192D01*
X4211980Y-1549247D01*
X4221734Y-1561287D01*
X4232808Y-1572056D01*
X4245102Y-1581404D01*
X4258411Y-1589278D01*
X4262120Y-1590903D01*
X4265218Y-1593037D01*
X4267352Y-1596186D01*
X4268165Y-1599895D01*
X4267555Y-1603654D01*
X4265625Y-1606905D01*
X4262628Y-1609242D01*
X4251604Y-1614881D01*
X4238802Y-1623517D01*
X4227068Y-1633626D01*
X4216654Y-1645056D01*
X4207611Y-1657604D01*
X4200144Y-1671116D01*
X4194352Y-1685442D01*
X4190288Y-1700377D01*
X4188002Y-1715668D01*
X4187545Y-1731111D01*
X4188917Y-1746504D01*
X4192066Y-1761642D01*
X4197045Y-1776272D01*
X4203700Y-1790242D01*
X4211929Y-1803298D01*
X4221683Y-1815338D01*
X4232757Y-1826107D01*
X4245051Y-1835454D01*
X4258360Y-1843328D01*
X4262018Y-1844903D01*
X4265117Y-1847088D01*
X4267250Y-1850237D01*
X4268063Y-1853946D01*
X4267454Y-1857654D01*
X4265523Y-1860956D01*
X4262526Y-1863242D01*
X4251655Y-1868881D01*
X4238853Y-1877517D01*
X4227118Y-1887575D01*
X4216704Y-1899005D01*
X4207662Y-1911553D01*
X4200194Y-1925066D01*
X4194403Y-1939391D01*
X4190339Y-1954326D01*
X4188053Y-1969617D01*
X4187596Y-1985060D01*
X4188968Y-2000453D01*
X4192117Y-2015591D01*
X4197096Y-2030222D01*
X4203750Y-2044192D01*
X4211980Y-2057247D01*
X4221734Y-2069287D01*
X4232808Y-2080056D01*
X4245102Y-2089404D01*
X4258411Y-2097278D01*
X4262120Y-2098903D01*
X4265218Y-2101037D01*
X4267352Y-2104186D01*
X4268165Y-2107895D01*
X4267555Y-2111654D01*
X4265625Y-2114905D01*
X4262628Y-2117242D01*
X4251604Y-2122881D01*
X4238802Y-2131517D01*
X4227068Y-2141626D01*
X4216654Y-2153056D01*
X4207611Y-2165604D01*
X4200144Y-2179116D01*
X4194352Y-2193442D01*
X4190288Y-2208377D01*
X4188002Y-2223668D01*
X4187545Y-2239111D01*
X4188917Y-2254504D01*
X4192066Y-2269642D01*
X4197045Y-2284272D01*
X4203700Y-2298242D01*
X4211929Y-2311298D01*
X4221683Y-2323338D01*
X4232757Y-2334107D01*
X4245051Y-2343454D01*
X4258360Y-2351328D01*
X4262018Y-2352903D01*
X4265117Y-2355088D01*
X4267250Y-2358237D01*
X4268063Y-2361946D01*
X4267454Y-2365654D01*
X4265523Y-2368956D01*
X4262526Y-2371242D01*
X4251655Y-2376881D01*
X4238853Y-2385517D01*
X4227118Y-2395575D01*
X4216704Y-2407005D01*
X4207662Y-2419553D01*
X4200194Y-2433066D01*
X4194403Y-2447391D01*
X4190339Y-2462326D01*
X4188053Y-2477617D01*
X4187596Y-2493060D01*
X4188968Y-2508453D01*
X4192117Y-2523591D01*
X4197096Y-2538222D01*
X4203750Y-2552192D01*
X4211980Y-2565247D01*
X4221734Y-2577287D01*
X4232808Y-2588056D01*
X4245102Y-2597404D01*
X4258411Y-2605278D01*
X4262120Y-2606903D01*
X4265218Y-2609037D01*
X4267352Y-2612186D01*
X4268165Y-2615895D01*
X4267555Y-2619654D01*
X4265625Y-2622905D01*
X4262628Y-2625242D01*
X4251604Y-2630932D01*
X4238802Y-2639568D01*
X4227068Y-2649626D01*
X4216654Y-2661056D01*
X4207611Y-2673604D01*
X4200144Y-2687116D01*
X4194352Y-2701442D01*
X4190288Y-2716377D01*
X4188002Y-2731668D01*
X4187545Y-2747111D01*
X4188917Y-2762504D01*
X4192066Y-2777642D01*
X4197045Y-2792272D01*
X4203700Y-2806242D01*
X4211929Y-2819298D01*
X4221683Y-2831338D01*
X4232757Y-2842107D01*
X4245051Y-2851454D01*
X4258360Y-2859328D01*
X4262018Y-2860903D01*
X4265117Y-2863088D01*
X4267250Y-2866237D01*
X4268063Y-2869946D01*
X4267454Y-2873654D01*
X4265523Y-2876956D01*
X4262526Y-2879242D01*
X4251655Y-2884830D01*
X4238853Y-2893466D01*
X4227118Y-2903575D01*
X4216704Y-2915005D01*
X4207662Y-2927553D01*
X4200194Y-2941066D01*
X4194403Y-2955391D01*
X4190339Y-2970326D01*
X4188053Y-2985617D01*
X4187596Y-3001060D01*
X4188968Y-3016453D01*
X4192117Y-3031591D01*
X4197096Y-3046222D01*
X4203750Y-3060192D01*
X4211980Y-3073247D01*
X4221734Y-3085287D01*
X4232808Y-3096056D01*
X4245102Y-3105404D01*
X4258411Y-3113278D01*
X4262120Y-3114903D01*
X4265218Y-3117037D01*
X4267352Y-3120186D01*
X4268165Y-3123895D01*
X4267555Y-3127654D01*
X4265625Y-3130905D01*
X4262628Y-3133242D01*
X4251604Y-3138881D01*
X4238802Y-3147517D01*
X4227068Y-3157626D01*
X4216654Y-3169056D01*
X4207611Y-3181604D01*
X4200144Y-3195116D01*
X4194352Y-3209442D01*
X4190288Y-3224377D01*
X4188002Y-3239668D01*
X4187545Y-3255111D01*
X4188917Y-3270503D01*
X4192066Y-3285642D01*
X4197045Y-3300272D01*
X4203700Y-3314242D01*
X4211929Y-3327298D01*
X4221683Y-3339337D01*
X4232757Y-3350107D01*
X4245051Y-3359454D01*
X4258360Y-3367328D01*
X4262018Y-3368903D01*
X4265117Y-3371087D01*
X4267250Y-3374237D01*
X4268063Y-3377946D01*
X4267454Y-3381654D01*
X4265523Y-3384956D01*
X4262526Y-3387242D01*
X4251655Y-3392830D01*
X4238853Y-3401466D01*
X4227118Y-3411575D01*
X4216704Y-3423005D01*
X4207662Y-3435553D01*
X4200194Y-3449065D01*
X4196232Y-3458870D01*
X4271670Y-3458870D01*
X4271670Y-3387039D01*
X4272330Y-3383330D01*
X4274362Y-3380130D01*
X4277410Y-3377895D01*
X4281017Y-3376879D01*
X4284776Y-3377285D01*
X4287316Y-3378098D01*
X4302506Y-3380790D01*
X4317949Y-3381705D01*
X4333392Y-3380790D01*
X4348581Y-3378098D01*
X4351223Y-3377285D01*
X4354982Y-3376879D01*
X4358640Y-3377844D01*
X4361637Y-3380079D01*
X4363669Y-3383279D01*
X4364329Y-3386988D01*
X4364329Y-3458870D01*
X4439767Y-3458870D01*
X4435805Y-3449065D01*
X4428337Y-3435553D01*
X4419346Y-3423005D01*
X4408881Y-3411575D01*
X4397197Y-3401466D01*
X4384344Y-3392830D01*
X4373422Y-3387242D01*
X4370425Y-3384905D01*
X4368495Y-3381654D01*
X4367885Y-3377895D01*
X4368698Y-3374186D01*
X4370832Y-3371037D01*
X4373981Y-3368903D01*
X4377537Y-3367328D01*
X4390847Y-3359454D01*
X4403140Y-3350107D01*
X4414215Y-3339337D01*
X4423968Y-3327298D01*
X4432198Y-3314242D01*
X4438853Y-3300272D01*
X4443831Y-3285642D01*
X4446981Y-3270503D01*
X4448352Y-3255111D01*
X4447895Y-3239668D01*
X4445609Y-3224377D01*
X4441545Y-3209442D01*
X4435754Y-3195116D01*
X4428286Y-3181604D01*
X4419295Y-3169056D01*
X4408830Y-3157626D01*
X4397146Y-3147517D01*
X4384294Y-3138881D01*
X4373321Y-3133242D01*
X4370324Y-3130905D01*
X4368393Y-3127654D01*
X4367784Y-3123895D01*
X4368596Y-3120237D01*
X4370730Y-3117088D01*
X4373829Y-3114903D01*
X4377588Y-3113278D01*
X4390898Y-3105404D01*
X4403191Y-3096056D01*
X4414266Y-3085287D01*
X4424019Y-3073247D01*
X4432249Y-3060192D01*
X4438904Y-3046222D01*
X4443882Y-3031591D01*
X4446879Y-3017316D01*
X4448149Y-3014116D01*
X4450435Y-3011525D01*
X4453432Y-3009849D01*
X4456836Y-3009239D01*
X5564835Y-3010154D01*
X5568746Y-3010916D01*
X5571998Y-3013100D01*
X5574233Y-3016402D01*
X5574995Y-3020314D01*
X5574995Y-3102864D01*
X5574538Y-3105861D01*
X5573166Y-3108655D01*
X5571083Y-3110839D01*
X5566460Y-3114446D01*
X5555640Y-3125266D01*
X5546242Y-3137306D01*
X5538317Y-3150412D01*
X5532729Y-3162808D01*
X5530545Y-3165957D01*
X5527294Y-3168040D01*
X5523484Y-3168802D01*
X5519674Y-3168040D01*
X5516422Y-3165957D01*
X5514238Y-3162808D01*
X5508650Y-3150412D01*
X5500725Y-3137306D01*
X5491327Y-3125266D01*
X5480507Y-3114446D01*
X5468467Y-3105048D01*
X5455361Y-3097123D01*
X5441391Y-3090824D01*
X5426811Y-3086303D01*
X5411774Y-3083560D01*
X5396484Y-3082594D01*
X5381193Y-3083560D01*
X5366156Y-3086303D01*
X5351576Y-3090824D01*
X5337606Y-3097123D01*
X5324500Y-3105048D01*
X5312460Y-3114446D01*
X5301640Y-3125266D01*
X5292242Y-3137306D01*
X5284317Y-3150412D01*
X5278729Y-3162808D01*
X5276545Y-3165957D01*
X5273294Y-3168040D01*
X5269484Y-3168802D01*
X5265674Y-3168040D01*
X5262422Y-3165957D01*
X5260238Y-3162808D01*
X5254650Y-3150412D01*
X5246725Y-3137306D01*
X5237327Y-3125266D01*
X5226507Y-3114446D01*
X5214467Y-3105048D01*
X5201361Y-3097123D01*
X5187391Y-3090824D01*
X5172811Y-3086303D01*
X5157774Y-3083560D01*
X5142484Y-3082594D01*
X5127193Y-3083560D01*
X5112156Y-3086303D01*
X5097576Y-3090824D01*
X5083606Y-3097123D01*
X5070500Y-3105048D01*
X5058460Y-3114446D01*
X5047640Y-3125266D01*
X5038242Y-3137306D01*
X5030317Y-3150412D01*
X5024729Y-3162808D01*
X5022545Y-3165957D01*
X5019294Y-3168040D01*
X5017617Y-3168396D01*
X5019243Y-3170631D01*
X5020208Y-3174288D01*
X5016754Y-3193999D01*
X5015788Y-3209290D01*
X5016754Y-3224580D01*
X5020208Y-3244291D01*
X5019243Y-3247948D01*
X5017617Y-3250184D01*
X5019294Y-3250539D01*
X5022545Y-3252622D01*
X5024729Y-3255772D01*
X5030317Y-3268167D01*
X5038242Y-3281273D01*
X5047640Y-3293313D01*
X5058460Y-3304133D01*
X5070500Y-3313531D01*
X5083606Y-3321456D01*
X5097576Y-3327755D01*
X5112156Y-3332276D01*
X5127193Y-3335020D01*
X5142484Y-3335985D01*
X5157774Y-3335020D01*
X5172811Y-3332276D01*
X5187391Y-3327755D01*
X5201361Y-3321456D01*
X5214467Y-3313531D01*
X5226507Y-3304133D01*
X5237327Y-3293313D01*
X5246725Y-3281273D01*
X5254650Y-3268167D01*
X5260238Y-3255772D01*
X5262422Y-3252622D01*
X5265674Y-3250539D01*
X5269484Y-3249777D01*
X5273294Y-3250539D01*
X5276545Y-3252622D01*
X5278729Y-3255772D01*
X5284317Y-3268167D01*
X5292242Y-3281273D01*
X5301640Y-3293313D01*
X5312460Y-3304133D01*
X5324500Y-3313531D01*
X5337606Y-3321456D01*
X5351576Y-3327755D01*
X5366156Y-3332276D01*
X5381193Y-3335020D01*
X5396484Y-3335985D01*
X5411774Y-3335020D01*
X5426811Y-3332276D01*
X5441391Y-3327755D01*
X5455361Y-3321456D01*
X5468467Y-3313531D01*
X5480507Y-3304133D01*
X5491327Y-3293313D01*
X5500725Y-3281273D01*
X5508650Y-3268167D01*
X5514238Y-3255772D01*
X5516422Y-3252622D01*
X5519674Y-3250539D01*
X5523484Y-3249777D01*
X5527294Y-3250539D01*
X5530545Y-3252622D01*
X5532729Y-3255772D01*
X5538317Y-3268167D01*
X5546242Y-3281273D01*
X5555640Y-3293313D01*
X5566460Y-3304133D01*
X5578500Y-3313531D01*
X5591606Y-3321456D01*
X5605576Y-3327755D01*
X5620156Y-3332276D01*
X5635193Y-3335020D01*
X5650484Y-3335985D01*
X5665774Y-3335020D01*
X5680811Y-3332276D01*
X5695391Y-3327755D01*
X5709361Y-3321456D01*
X5722467Y-3313531D01*
X5734507Y-3304133D01*
X5745327Y-3293313D01*
X5754725Y-3281273D01*
X5762650Y-3268167D01*
X5768238Y-3255772D01*
X5770422Y-3252622D01*
X5773674Y-3250539D01*
X5777484Y-3249777D01*
X5781294Y-3250539D01*
X5784545Y-3252622D01*
X5786729Y-3255772D01*
X5792317Y-3268167D01*
X5800242Y-3281273D01*
X5809640Y-3293313D01*
X5820460Y-3304133D01*
X5832500Y-3313531D01*
X5845606Y-3321456D01*
X5859576Y-3327755D01*
X5874156Y-3332276D01*
X5889193Y-3335020D01*
X5904484Y-3335985D01*
X5919774Y-3335020D01*
X5934811Y-3332276D01*
X5949391Y-3327755D01*
X5963361Y-3321456D01*
X5976467Y-3313531D01*
X5988507Y-3304133D01*
X5999327Y-3293313D01*
X6008725Y-3281273D01*
X6016650Y-3268167D01*
X6022238Y-3255772D01*
X6024422Y-3252622D01*
X6027674Y-3250539D01*
X6031484Y-3249777D01*
X6035294Y-3250539D01*
X6038545Y-3252622D01*
X6040729Y-3255772D01*
X6046317Y-3268167D01*
X6054242Y-3281273D01*
X6063640Y-3293313D01*
X6074460Y-3304133D01*
X6086500Y-3313531D01*
X6099606Y-3321456D01*
X6113576Y-3327755D01*
X6128156Y-3332276D01*
X6143193Y-3335020D01*
X6158484Y-3335985D01*
X6173774Y-3335020D01*
X6188811Y-3332276D01*
X6203391Y-3327755D01*
X6217361Y-3321456D01*
X6230467Y-3313531D01*
X6242507Y-3304133D01*
X6253327Y-3293313D01*
X6262725Y-3281273D01*
X6270650Y-3268167D01*
X6276238Y-3255772D01*
X6278422Y-3252622D01*
X6281674Y-3250539D01*
X6285484Y-3249777D01*
X6289294Y-3250539D01*
X6292545Y-3252622D01*
X6294729Y-3255772D01*
X6300317Y-3268167D01*
X6308242Y-3281273D01*
X6317640Y-3293313D01*
X6328460Y-3304133D01*
X6340500Y-3313531D01*
X6353606Y-3321456D01*
X6367576Y-3327755D01*
X6382156Y-3332276D01*
X6397193Y-3335020D01*
X6412484Y-3335985D01*
X6426708Y-3335121D01*
X6430924Y-3335731D01*
X6434480Y-3338068D01*
X6449314Y-3352901D01*
X6451549Y-3356203D01*
X6452311Y-3360064D01*
X6452362Y-4650841D01*
X6453174Y-4659630D01*
X6453581Y-4662068D01*
X6455714Y-4670653D01*
X6456476Y-4672939D01*
X6460947Y-4683302D01*
X6465519Y-4690872D01*
X6466941Y-4692853D01*
X6472580Y-4699660D01*
X6527139Y-4754219D01*
X6533946Y-4759858D01*
X6535928Y-4761280D01*
X6543497Y-4765852D01*
X6553860Y-4770323D01*
X6556146Y-4771085D01*
X6564731Y-4773218D01*
X6567170Y-4773625D01*
X6575958Y-4774438D01*
G37*
G36*
X49225Y-4655972D02*
G01*
X160172Y-4655972D01*
X160172Y-4545025D01*
X153517Y-4547971D01*
X135280Y-4558080D01*
X118110Y-4569866D01*
X102108Y-4583176D01*
X87376Y-4597908D01*
X74066Y-4613910D01*
X62280Y-4631080D01*
X52171Y-4649317D01*
G37*
G36*
X347827Y-4655972D02*
G01*
X458774Y-4655972D01*
X455828Y-4649317D01*
X445719Y-4631080D01*
X433933Y-4613910D01*
X420624Y-4597908D01*
X405892Y-4583176D01*
X389890Y-4569866D01*
X372719Y-4558080D01*
X354482Y-4547971D01*
X347827Y-4545025D01*
G37*
G36*
X6967626Y-4453534D02*
G01*
X7041743Y-4453534D01*
X7041743Y-4379417D01*
X7027316Y-4385818D01*
X7014260Y-4393742D01*
X7002221Y-4403191D01*
X6991400Y-4414012D01*
X6981952Y-4426051D01*
X6974027Y-4439107D01*
G37*
G36*
X7130643Y-4453534D02*
G01*
X7204811Y-4453534D01*
X7198359Y-4439107D01*
X7190435Y-4426051D01*
X7181037Y-4414012D01*
X7170216Y-4403191D01*
X7158177Y-4393742D01*
X7145070Y-4385818D01*
X7130643Y-4379417D01*
G37*
G36*
X4238447Y-4397705D02*
G01*
X4397552Y-4397705D01*
X4406747Y-4396892D01*
X4415282Y-4394606D01*
X4423206Y-4390898D01*
X4430420Y-4385868D01*
X4436668Y-4379620D01*
X4441698Y-4372406D01*
X4445406Y-4364482D01*
X4447692Y-4355947D01*
X4448505Y-4346752D01*
X4448505Y-4187647D01*
X4447692Y-4178452D01*
X4445406Y-4169918D01*
X4441698Y-4161993D01*
X4436668Y-4154779D01*
X4430420Y-4148531D01*
X4423206Y-4143501D01*
X4415282Y-4139793D01*
X4406747Y-4137507D01*
X4399737Y-4136898D01*
X4395876Y-4135729D01*
X4392726Y-4133189D01*
X4390847Y-4129582D01*
X4390542Y-4125569D01*
X4391812Y-4121759D01*
X4394454Y-4118711D01*
X4403191Y-4112056D01*
X4414266Y-4101287D01*
X4424019Y-4089247D01*
X4432249Y-4076192D01*
X4438904Y-4062222D01*
X4443882Y-4047591D01*
X4447032Y-4032453D01*
X4448403Y-4017060D01*
X4447946Y-4001617D01*
X4445660Y-3986326D01*
X4441596Y-3971391D01*
X4435805Y-3957065D01*
X4428337Y-3943553D01*
X4419346Y-3931005D01*
X4408881Y-3919575D01*
X4397197Y-3909466D01*
X4384344Y-3900830D01*
X4373422Y-3895242D01*
X4370425Y-3892905D01*
X4368495Y-3889654D01*
X4367885Y-3885895D01*
X4368698Y-3882186D01*
X4370832Y-3879037D01*
X4373981Y-3876903D01*
X4377537Y-3875328D01*
X4390847Y-3867454D01*
X4403140Y-3858107D01*
X4414215Y-3847337D01*
X4423968Y-3835298D01*
X4432198Y-3822242D01*
X4438853Y-3808272D01*
X4443831Y-3793642D01*
X4446981Y-3778504D01*
X4448352Y-3763111D01*
X4447895Y-3747668D01*
X4445609Y-3732377D01*
X4441545Y-3717442D01*
X4435754Y-3703116D01*
X4428286Y-3689604D01*
X4419295Y-3677056D01*
X4408830Y-3665626D01*
X4397146Y-3655517D01*
X4384294Y-3646881D01*
X4373321Y-3641242D01*
X4370324Y-3638905D01*
X4368393Y-3635654D01*
X4367784Y-3631895D01*
X4368596Y-3628237D01*
X4370730Y-3625087D01*
X4373880Y-3622903D01*
X4377588Y-3621278D01*
X4390898Y-3613404D01*
X4403191Y-3604056D01*
X4414266Y-3593287D01*
X4424019Y-3581247D01*
X4432249Y-3568192D01*
X4438904Y-3554222D01*
X4439818Y-3551529D01*
X4364329Y-3551529D01*
X4364329Y-3623564D01*
X4363720Y-3627170D01*
X4361789Y-3630269D01*
X4358944Y-3632555D01*
X4355439Y-3633622D01*
X4351782Y-3633419D01*
X4341012Y-3630828D01*
X4325670Y-3628999D01*
X4310227Y-3628999D01*
X4294886Y-3630828D01*
X4284218Y-3633419D01*
X4280560Y-3633622D01*
X4277055Y-3632504D01*
X4274210Y-3630269D01*
X4272330Y-3627120D01*
X4271670Y-3623513D01*
X4271670Y-3551529D01*
X4196181Y-3551529D01*
X4197096Y-3554222D01*
X4203750Y-3568192D01*
X4211980Y-3581247D01*
X4221734Y-3593287D01*
X4232808Y-3604056D01*
X4245102Y-3613404D01*
X4258411Y-3621278D01*
X4262120Y-3622903D01*
X4265218Y-3625037D01*
X4267352Y-3628186D01*
X4268165Y-3631895D01*
X4267555Y-3635654D01*
X4265625Y-3638905D01*
X4262628Y-3641242D01*
X4251604Y-3646881D01*
X4238802Y-3655517D01*
X4227068Y-3665626D01*
X4216654Y-3677056D01*
X4207611Y-3689604D01*
X4200144Y-3703116D01*
X4194352Y-3717442D01*
X4190288Y-3732377D01*
X4188002Y-3747668D01*
X4187545Y-3763111D01*
X4188917Y-3778504D01*
X4192066Y-3793642D01*
X4197045Y-3808272D01*
X4203700Y-3822242D01*
X4211929Y-3835298D01*
X4221683Y-3847337D01*
X4232757Y-3858107D01*
X4245051Y-3867454D01*
X4258360Y-3875328D01*
X4262018Y-3876903D01*
X4265117Y-3879087D01*
X4267250Y-3882237D01*
X4268063Y-3885946D01*
X4267454Y-3889654D01*
X4265523Y-3892956D01*
X4262526Y-3895242D01*
X4251655Y-3900830D01*
X4238853Y-3909466D01*
X4227118Y-3919575D01*
X4216704Y-3931005D01*
X4207662Y-3943553D01*
X4200194Y-3957065D01*
X4194403Y-3971391D01*
X4190339Y-3986326D01*
X4188053Y-4001617D01*
X4187596Y-4017060D01*
X4188968Y-4032453D01*
X4192117Y-4047591D01*
X4197096Y-4062222D01*
X4203750Y-4076192D01*
X4211980Y-4089247D01*
X4221734Y-4101287D01*
X4232808Y-4112056D01*
X4241546Y-4118711D01*
X4244187Y-4121759D01*
X4245457Y-4125569D01*
X4245152Y-4129582D01*
X4243273Y-4133189D01*
X4240123Y-4135729D01*
X4236262Y-4136898D01*
X4229252Y-4137507D01*
X4220718Y-4139793D01*
X4212793Y-4143501D01*
X4205579Y-4148531D01*
X4199331Y-4154779D01*
X4194301Y-4161993D01*
X4190593Y-4169918D01*
X4188307Y-4178452D01*
X4187494Y-4187647D01*
X4187494Y-4346752D01*
X4188307Y-4355947D01*
X4190593Y-4364482D01*
X4194301Y-4372406D01*
X4199331Y-4379620D01*
X4205579Y-4385868D01*
X4212793Y-4390898D01*
X4220718Y-4394606D01*
X4229252Y-4396892D01*
G37*
G36*
X2714447Y-4397705D02*
G01*
X2873552Y-4397705D01*
X2882747Y-4396892D01*
X2891282Y-4394606D01*
X2899206Y-4390898D01*
X2906420Y-4385868D01*
X2912668Y-4379620D01*
X2917698Y-4372406D01*
X2921406Y-4364482D01*
X2923692Y-4355947D01*
X2924505Y-4346752D01*
X2924505Y-4187647D01*
X2923692Y-4178452D01*
X2921406Y-4169918D01*
X2917698Y-4161993D01*
X2912668Y-4154779D01*
X2906420Y-4148531D01*
X2899206Y-4143501D01*
X2891282Y-4139793D01*
X2882747Y-4137507D01*
X2875737Y-4136898D01*
X2871876Y-4135729D01*
X2868726Y-4133189D01*
X2866847Y-4129582D01*
X2866542Y-4125569D01*
X2867812Y-4121759D01*
X2870454Y-4118711D01*
X2879191Y-4112056D01*
X2890266Y-4101287D01*
X2900019Y-4089247D01*
X2908249Y-4076192D01*
X2914904Y-4062222D01*
X2915818Y-4059529D01*
X2840329Y-4059529D01*
X2840329Y-4126534D01*
X2839567Y-4130446D01*
X2837383Y-4133748D01*
X2834081Y-4135932D01*
X2830169Y-4136694D01*
X2809849Y-4136694D01*
X2805938Y-4135932D01*
X2802636Y-4133748D01*
X2750616Y-4081729D01*
X2748432Y-4078427D01*
X2747670Y-4074515D01*
X2747670Y-4059529D01*
X2732684Y-4059529D01*
X2728772Y-4058767D01*
X2725470Y-4056583D01*
X2402179Y-3733241D01*
X2399944Y-3729939D01*
X2399182Y-3726078D01*
X2399182Y-1524355D01*
X2398318Y-1510893D01*
X2395728Y-1497990D01*
X2391511Y-1485544D01*
X2385720Y-1473758D01*
X2378405Y-1462836D01*
X2369769Y-1452930D01*
X2359863Y-1444294D01*
X2348941Y-1436979D01*
X2337155Y-1431188D01*
X2324709Y-1426972D01*
X2311806Y-1424381D01*
X2298344Y-1423517D01*
X2284679Y-1423517D01*
X2280412Y-1422552D01*
X2276906Y-1419961D01*
X2274874Y-1416100D01*
X2274620Y-1411732D01*
X2276195Y-1407718D01*
X2282952Y-1397558D01*
X2288794Y-1385773D01*
X2293010Y-1373327D01*
X2295550Y-1360474D01*
X2296464Y-1347012D01*
X2296464Y-1119276D01*
X2297633Y-1103376D01*
X2297633Y-637692D01*
X2298293Y-634034D01*
X2300224Y-630885D01*
X2306929Y-623417D01*
X2316022Y-610565D01*
X2323642Y-596747D01*
X2329688Y-582218D01*
X2334056Y-567080D01*
X2336698Y-551535D01*
X2337562Y-535533D01*
X2337562Y-456082D01*
X2336698Y-440080D01*
X2334056Y-424535D01*
X2329688Y-409397D01*
X2323642Y-394868D01*
X2316022Y-381050D01*
X2306929Y-368198D01*
X2296414Y-356463D01*
X2284679Y-345998D01*
X2271826Y-336854D01*
X2258060Y-329234D01*
X2243480Y-323189D01*
X2228342Y-318871D01*
X2212797Y-316230D01*
X2197100Y-315315D01*
X2181352Y-316230D01*
X2165807Y-318871D01*
X2150668Y-323189D01*
X2136140Y-329234D01*
X2122373Y-336854D01*
X2109520Y-345998D01*
X2097735Y-356463D01*
X2087270Y-368198D01*
X2078736Y-380238D01*
X2075942Y-382879D01*
X2072386Y-384352D01*
X2068525Y-384352D01*
X2064918Y-382879D01*
X2062175Y-380238D01*
X2052929Y-367233D01*
X2042414Y-355447D01*
X2030679Y-344982D01*
X2017826Y-335838D01*
X2004060Y-328218D01*
X1994458Y-324256D01*
X1994458Y-423468D01*
X2048306Y-423468D01*
X2052574Y-424383D01*
X2056028Y-427075D01*
X2058060Y-430936D01*
X2058314Y-435305D01*
X2057501Y-440080D01*
X2056587Y-456082D01*
X2056587Y-535533D01*
X2057501Y-551535D01*
X2057958Y-554278D01*
X2057755Y-558647D01*
X2055723Y-562559D01*
X2052218Y-565200D01*
X2047951Y-566166D01*
X1994458Y-566166D01*
X1994458Y-665327D01*
X2004060Y-661365D01*
X2017826Y-653745D01*
X2030679Y-644652D01*
X2042414Y-634136D01*
X2052929Y-622401D01*
X2061464Y-610362D01*
X2064207Y-607720D01*
X2067814Y-606298D01*
X2071674Y-606298D01*
X2075230Y-607720D01*
X2078024Y-610362D01*
X2087270Y-623417D01*
X2094026Y-630986D01*
X2095957Y-634136D01*
X2096617Y-637743D01*
X2096617Y-1002182D01*
X2095855Y-1006094D01*
X2093620Y-1009396D01*
X2090318Y-1011631D01*
X2086406Y-1012342D01*
X2082495Y-1011580D01*
X2077212Y-1009548D01*
X2077212Y-1073556D01*
X2086457Y-1073556D01*
X2090420Y-1074369D01*
X2093772Y-1076655D01*
X2095957Y-1080058D01*
X2096617Y-1084021D01*
X2096363Y-1091285D01*
X2095500Y-1101648D01*
X2095449Y-1126134D01*
X2094687Y-1129995D01*
X2092502Y-1133297D01*
X2089200Y-1135481D01*
X2085289Y-1136243D01*
X2077212Y-1136243D01*
X2077212Y-1200150D01*
X2081987Y-1198473D01*
X2085797Y-1197914D01*
X2089505Y-1198829D01*
X2092655Y-1201064D01*
X2094738Y-1204315D01*
X2095449Y-1208074D01*
X2095449Y-1301496D01*
X2094687Y-1305407D01*
X2092502Y-1308709D01*
X2024532Y-1376680D01*
X2021484Y-1378762D01*
X2017928Y-1379626D01*
X2002840Y-1380490D01*
X1986584Y-1383284D01*
X1970735Y-1387957D01*
X1955546Y-1394358D01*
X1941220Y-1402486D01*
X1927860Y-1412189D01*
X1915718Y-1423314D01*
X1904898Y-1435811D01*
X1895602Y-1449425D01*
X1887880Y-1464005D01*
X1881936Y-1479346D01*
X1877720Y-1495298D01*
X1875383Y-1511655D01*
X1874875Y-1528114D01*
X1876298Y-1544574D01*
X1879600Y-1560728D01*
X1884680Y-1576425D01*
X1891538Y-1591411D01*
X1900072Y-1605534D01*
X1910130Y-1618589D01*
X1921611Y-1630426D01*
X1934413Y-1640890D01*
X1948281Y-1649780D01*
X1963064Y-1657045D01*
X1978609Y-1662582D01*
X1994662Y-1666341D01*
X2011070Y-1668221D01*
X2027529Y-1668221D01*
X2043938Y-1666341D01*
X2059990Y-1662582D01*
X2075535Y-1657045D01*
X2090318Y-1649780D01*
X2104186Y-1640890D01*
X2116988Y-1630426D01*
X2119731Y-1627581D01*
X2123084Y-1625295D01*
X2127046Y-1624482D01*
X2188057Y-1624482D01*
X2191918Y-1625244D01*
X2195220Y-1627479D01*
X2197455Y-1630781D01*
X2198217Y-1634642D01*
X2198217Y-3771544D01*
X2199081Y-3785006D01*
X2201672Y-3797909D01*
X2205888Y-3810355D01*
X2211679Y-3822141D01*
X2218994Y-3833063D01*
X2227884Y-3843172D01*
X2660548Y-4275836D01*
X2662732Y-4279138D01*
X2663494Y-4283049D01*
X2663494Y-4346752D01*
X2664307Y-4355947D01*
X2666593Y-4364482D01*
X2670302Y-4372406D01*
X2675331Y-4379620D01*
X2681579Y-4385868D01*
X2688793Y-4390898D01*
X2696718Y-4394606D01*
X2705252Y-4396892D01*
G37*
G36*
X1028700Y-4393082D02*
G01*
X1041806Y-4392218D01*
X1054709Y-4389628D01*
X1067155Y-4385411D01*
X1078941Y-4379620D01*
X1089863Y-4372305D01*
X1092250Y-4370222D01*
X1095349Y-4368342D01*
X1098956Y-4367682D01*
X1574444Y-4367682D01*
X1587906Y-4366818D01*
X1600809Y-4364228D01*
X1613255Y-4360011D01*
X1625041Y-4354220D01*
X1635963Y-4346905D01*
X1645869Y-4338269D01*
X1654505Y-4328363D01*
X1661820Y-4317441D01*
X1667611Y-4305655D01*
X1671828Y-4293209D01*
X1674418Y-4280306D01*
X1675282Y-4266844D01*
X1675282Y-3503879D01*
X1676044Y-3500018D01*
X1678178Y-3496767D01*
X1681378Y-3494532D01*
X1685188Y-3493719D01*
X1688998Y-3494328D01*
X1692300Y-3496360D01*
X1699260Y-3502710D01*
X1712620Y-3512413D01*
X1726946Y-3520541D01*
X1742135Y-3526942D01*
X1757984Y-3531615D01*
X1774240Y-3534410D01*
X1790700Y-3535375D01*
X1807159Y-3534410D01*
X1823415Y-3531615D01*
X1839264Y-3526942D01*
X1854454Y-3520541D01*
X1868779Y-3512413D01*
X1882139Y-3502710D01*
X1894281Y-3491585D01*
X1905101Y-3479088D01*
X1914398Y-3465474D01*
X1922119Y-3450894D01*
X1928063Y-3435553D01*
X1932279Y-3419601D01*
X1934616Y-3403244D01*
X1935124Y-3386785D01*
X1933702Y-3370326D01*
X1930400Y-3354171D01*
X1925320Y-3338474D01*
X1918462Y-3323488D01*
X1909927Y-3309365D01*
X1899869Y-3296310D01*
X1888388Y-3284474D01*
X1875586Y-3274009D01*
X1861718Y-3265119D01*
X1846935Y-3257854D01*
X1831390Y-3252317D01*
X1815338Y-3248558D01*
X1798929Y-3246678D01*
X1782470Y-3246678D01*
X1766062Y-3248558D01*
X1750009Y-3252317D01*
X1734464Y-3257854D01*
X1719681Y-3265119D01*
X1701088Y-3277108D01*
X1697685Y-3277717D01*
X1562455Y-3277717D01*
X1548993Y-3278581D01*
X1536090Y-3281172D01*
X1523644Y-3285388D01*
X1511858Y-3291179D01*
X1500936Y-3298494D01*
X1491030Y-3307130D01*
X1482394Y-3317036D01*
X1475079Y-3327958D01*
X1469288Y-3339744D01*
X1465072Y-3352190D01*
X1462481Y-3365093D01*
X1461617Y-3378200D01*
X1462481Y-3391306D01*
X1465072Y-3404209D01*
X1469288Y-3416655D01*
X1473250Y-3424732D01*
X1474317Y-3429203D01*
X1474317Y-4156557D01*
X1473555Y-4160418D01*
X1471320Y-4163720D01*
X1468018Y-4165955D01*
X1464157Y-4166717D01*
X1266342Y-4166717D01*
X1262481Y-4165955D01*
X1259179Y-4163720D01*
X1256944Y-4160418D01*
X1256182Y-4156557D01*
X1256182Y-3923741D01*
X1257096Y-3919524D01*
X1259687Y-3916070D01*
X1263446Y-3914038D01*
X1267714Y-3913682D01*
X1276197Y-3914851D01*
X1289202Y-3914851D01*
X1302105Y-3913073D01*
X1314653Y-3909568D01*
X1326642Y-3904386D01*
X1337767Y-3897579D01*
X1347876Y-3889349D01*
X1356766Y-3879850D01*
X1364284Y-3869182D01*
X1370279Y-3857650D01*
X1374648Y-3845356D01*
X1377289Y-3832606D01*
X1378712Y-3813606D01*
X1379728Y-3810609D01*
X1382318Y-3797706D01*
X1383182Y-3784244D01*
X1383182Y-3486200D01*
X1383842Y-3482644D01*
X1385671Y-3479546D01*
X1397101Y-3466388D01*
X1406398Y-3452774D01*
X1414119Y-3438194D01*
X1420063Y-3422853D01*
X1424279Y-3406901D01*
X1426616Y-3390544D01*
X1427124Y-3374085D01*
X1425702Y-3357626D01*
X1422400Y-3341471D01*
X1417320Y-3325774D01*
X1410462Y-3310788D01*
X1401927Y-3296665D01*
X1391869Y-3283610D01*
X1380388Y-3271774D01*
X1367586Y-3261309D01*
X1353718Y-3252419D01*
X1338935Y-3245154D01*
X1323390Y-3239617D01*
X1307338Y-3235858D01*
X1290929Y-3233978D01*
X1274470Y-3233978D01*
X1258062Y-3235858D01*
X1242009Y-3239617D01*
X1226464Y-3245154D01*
X1211681Y-3252419D01*
X1197813Y-3261309D01*
X1185011Y-3271774D01*
X1173530Y-3283610D01*
X1163472Y-3296665D01*
X1154938Y-3310788D01*
X1148588Y-3324656D01*
X1146302Y-3327857D01*
X1143000Y-3329940D01*
X1139139Y-3330600D01*
X1135329Y-3329787D01*
X1132078Y-3327552D01*
X1129944Y-3324301D01*
X1129182Y-3320440D01*
X1129182Y-2673553D01*
X1129995Y-2669641D01*
X1132128Y-2666492D01*
X1129944Y-2663291D01*
X1129182Y-2659380D01*
X1129182Y-2573020D01*
X1129944Y-2569108D01*
X1132078Y-2565552D01*
X1129944Y-2562301D01*
X1129182Y-2558440D01*
X1129182Y-2503881D01*
X1129842Y-2500223D01*
X1131773Y-2497074D01*
X1134668Y-2494838D01*
X1138174Y-2493772D01*
X1154938Y-2491841D01*
X1170990Y-2488082D01*
X1186738Y-2482494D01*
X1190802Y-2481427D01*
X1194917Y-2482138D01*
X1198422Y-2484424D01*
X1200708Y-2487980D01*
X1201369Y-2492146D01*
X1200251Y-2496159D01*
X1197660Y-2499461D01*
X1185011Y-2509774D01*
X1173530Y-2521610D01*
X1163472Y-2534666D01*
X1154938Y-2548788D01*
X1148435Y-2562860D01*
X1229360Y-2562860D01*
X1229360Y-2482088D01*
X1226261Y-2483205D01*
X1222197Y-2484272D01*
X1218082Y-2483561D01*
X1214577Y-2481275D01*
X1212291Y-2477719D01*
X1211630Y-2473553D01*
X1212748Y-2469540D01*
X1215339Y-2466238D01*
X1227988Y-2455926D01*
X1239469Y-2444089D01*
X1249527Y-2431034D01*
X1258062Y-2416911D01*
X1264920Y-2401925D01*
X1270000Y-2386228D01*
X1273302Y-2370074D01*
X1274724Y-2353614D01*
X1274216Y-2337155D01*
X1271879Y-2320798D01*
X1267663Y-2304846D01*
X1261719Y-2289505D01*
X1253998Y-2274925D01*
X1244701Y-2261311D01*
X1233881Y-2248814D01*
X1221740Y-2237689D01*
X1208379Y-2227986D01*
X1194054Y-2219858D01*
X1178864Y-2213457D01*
X1163015Y-2208784D01*
X1146759Y-2205990D01*
X1130300Y-2205024D01*
X1113840Y-2205990D01*
X1097584Y-2208784D01*
X1081735Y-2213457D01*
X1066546Y-2219858D01*
X1052220Y-2227986D01*
X1038860Y-2237689D01*
X1026718Y-2248814D01*
X1015898Y-2261311D01*
X1006602Y-2274925D01*
X998880Y-2289505D01*
X992936Y-2304846D01*
X988720Y-2320798D01*
X986383Y-2337155D01*
X986078Y-2347671D01*
X985266Y-2351430D01*
X983081Y-2354580D01*
X957884Y-2379827D01*
X948994Y-2389936D01*
X941679Y-2400858D01*
X935888Y-2412644D01*
X931671Y-2425090D01*
X929081Y-2437993D01*
X928217Y-2451455D01*
X928217Y-3226765D01*
X927252Y-3231032D01*
X924661Y-3234486D01*
X920800Y-3236569D01*
X916432Y-3236823D01*
X912418Y-3235198D01*
X901141Y-3227679D01*
X889355Y-3221888D01*
X876909Y-3217672D01*
X864006Y-3215081D01*
X850544Y-3214217D01*
X755446Y-3214217D01*
X751789Y-3213506D01*
X748588Y-3211525D01*
X739140Y-3202889D01*
X725779Y-3193186D01*
X711454Y-3185058D01*
X696264Y-3178657D01*
X680415Y-3173984D01*
X664159Y-3171190D01*
X647700Y-3170224D01*
X631240Y-3171190D01*
X614984Y-3173984D01*
X599135Y-3178657D01*
X583946Y-3185058D01*
X569620Y-3193186D01*
X556260Y-3202889D01*
X544118Y-3214014D01*
X533298Y-3226511D01*
X524001Y-3240125D01*
X516280Y-3254705D01*
X510336Y-3270046D01*
X506120Y-3285998D01*
X503783Y-3302355D01*
X503275Y-3318814D01*
X504698Y-3335274D01*
X508000Y-3351428D01*
X513080Y-3367125D01*
X519938Y-3382111D01*
X528472Y-3396234D01*
X538530Y-3409289D01*
X550011Y-3421126D01*
X562813Y-3431590D01*
X576681Y-3440480D01*
X591464Y-3447745D01*
X607009Y-3453282D01*
X623062Y-3457041D01*
X639470Y-3458921D01*
X655929Y-3458921D01*
X672338Y-3457041D01*
X688390Y-3453282D01*
X703935Y-3447745D01*
X718718Y-3440480D01*
X737158Y-3428796D01*
X740918Y-3428288D01*
X744575Y-3429254D01*
X747674Y-3431489D01*
X749706Y-3434740D01*
X750417Y-3438448D01*
X750417Y-3953103D01*
X749452Y-3957421D01*
X746709Y-3960926D01*
X742746Y-3962958D01*
X738327Y-3963111D01*
X734263Y-3961333D01*
X725779Y-3955186D01*
X711454Y-3947058D01*
X701040Y-3942689D01*
X701040Y-4023360D01*
X740257Y-4023360D01*
X744118Y-4024122D01*
X747420Y-4026357D01*
X749655Y-4029608D01*
X750417Y-4033520D01*
X750417Y-4114444D01*
X750722Y-4119219D01*
X750163Y-4123283D01*
X747979Y-4126839D01*
X744626Y-4129227D01*
X740562Y-4130040D01*
X701040Y-4130040D01*
X701040Y-4210812D01*
X703935Y-4209745D01*
X718718Y-4202480D01*
X732586Y-4193590D01*
X745388Y-4183126D01*
X754735Y-4173474D01*
X758494Y-4171035D01*
X762965Y-4170426D01*
X767232Y-4171848D01*
X771194Y-4175963D01*
X780084Y-4186072D01*
X957427Y-4363415D01*
X967536Y-4372305D01*
X978458Y-4379620D01*
X990244Y-4385411D01*
X1002690Y-4389628D01*
X1015593Y-4392218D01*
G37*
G36*
X594360Y-4210812D02*
G01*
X594360Y-4130040D01*
X513486Y-4130040D01*
X519938Y-4144111D01*
X528472Y-4158234D01*
X538530Y-4171289D01*
X550011Y-4183126D01*
X562813Y-4193590D01*
X576681Y-4202480D01*
X591464Y-4209745D01*
G37*
G36*
X513689Y-4023360D02*
G01*
X594360Y-4023360D01*
X594360Y-3942689D01*
X583946Y-3947058D01*
X569620Y-3955186D01*
X556260Y-3964889D01*
X544118Y-3976014D01*
X533298Y-3988511D01*
X524001Y-4002125D01*
X516280Y-4016705D01*
G37*
G36*
X6866686Y-3998468D02*
G01*
X6886346Y-3997502D01*
X6905802Y-3994607D01*
X6924903Y-3989832D01*
X6943394Y-3983228D01*
X6961225Y-3974795D01*
X6978091Y-3964686D01*
X6993890Y-3952951D01*
X7008469Y-3939743D01*
X7021677Y-3925163D01*
X7033412Y-3909364D01*
X7043521Y-3892499D01*
X7051903Y-3874719D01*
X7058558Y-3856177D01*
X7063333Y-3837127D01*
X7066229Y-3817670D01*
X7067194Y-3798011D01*
X7066229Y-3778351D01*
X7063333Y-3758895D01*
X7058558Y-3739794D01*
X7051903Y-3721303D01*
X7043521Y-3703472D01*
X7033412Y-3686606D01*
X7021677Y-3670808D01*
X7008469Y-3656228D01*
X6993890Y-3643020D01*
X6978091Y-3631285D01*
X6961225Y-3621176D01*
X6943394Y-3612794D01*
X6924903Y-3606139D01*
X6905802Y-3601364D01*
X6886346Y-3598468D01*
X6866686Y-3597503D01*
X6847027Y-3598468D01*
X6827570Y-3601364D01*
X6808520Y-3606139D01*
X6789978Y-3612794D01*
X6772198Y-3621176D01*
X6755333Y-3631285D01*
X6739534Y-3643020D01*
X6724954Y-3656228D01*
X6711696Y-3670808D01*
X6700012Y-3686606D01*
X6689902Y-3703472D01*
X6681470Y-3721303D01*
X6674866Y-3739794D01*
X6670040Y-3758895D01*
X6667195Y-3778351D01*
X6666230Y-3798011D01*
X6667195Y-3817670D01*
X6670040Y-3837127D01*
X6674866Y-3856177D01*
X6681470Y-3874719D01*
X6689902Y-3892499D01*
X6700012Y-3909364D01*
X6711696Y-3925163D01*
X6724954Y-3939743D01*
X6739534Y-3952951D01*
X6755333Y-3964686D01*
X6772198Y-3974795D01*
X6789978Y-3983228D01*
X6808520Y-3989832D01*
X6827570Y-3994607D01*
X6847027Y-3997502D01*
G37*
G36*
X4844034Y-3327857D02*
G01*
X4844034Y-3253740D01*
X4769916Y-3253740D01*
X4776317Y-3268167D01*
X4784242Y-3281273D01*
X4793640Y-3293313D01*
X4804460Y-3304133D01*
X4816500Y-3313531D01*
X4829606Y-3321456D01*
G37*
G36*
X4932934Y-3327857D02*
G01*
X4947361Y-3321456D01*
X4960467Y-3313531D01*
X4972507Y-3304133D01*
X4983327Y-3293313D01*
X4992725Y-3281273D01*
X5000650Y-3268167D01*
X5006238Y-3255772D01*
X5007660Y-3253740D01*
X4932934Y-3253740D01*
G37*
G36*
X4769916Y-3164840D02*
G01*
X4844034Y-3164840D01*
X4844034Y-3090722D01*
X4829606Y-3097123D01*
X4816500Y-3105048D01*
X4804460Y-3114446D01*
X4793640Y-3125266D01*
X4784242Y-3137306D01*
X4776317Y-3150412D01*
G37*
G36*
X4932934Y-3164840D02*
G01*
X5007660Y-3164840D01*
X5006238Y-3162808D01*
X5000650Y-3150412D01*
X4992725Y-3137306D01*
X4983327Y-3125266D01*
X4972507Y-3114446D01*
X4960467Y-3105048D01*
X4947361Y-3097123D01*
X4932934Y-3090722D01*
G37*
G36*
X499973Y-2959658D02*
G01*
X516026Y-2959658D01*
X531977Y-2957830D01*
X547573Y-2954172D01*
X562660Y-2948787D01*
X577088Y-2941726D01*
X590550Y-2933039D01*
X602996Y-2922879D01*
X614172Y-2911398D01*
X623976Y-2898698D01*
X632256Y-2884932D01*
X638911Y-2870352D01*
X643839Y-2855112D01*
X647039Y-2839415D01*
X648411Y-2823413D01*
X647954Y-2807360D01*
X645668Y-2791510D01*
X641604Y-2775966D01*
X635762Y-2761030D01*
X628294Y-2746857D01*
X619252Y-2733598D01*
X608736Y-2721508D01*
X605586Y-2717393D01*
X604824Y-2713126D01*
X605840Y-2708960D01*
X608482Y-2705557D01*
X612343Y-2703576D01*
X615238Y-2702814D01*
X623214Y-2699105D01*
X630428Y-2694076D01*
X636676Y-2687828D01*
X641705Y-2680614D01*
X645414Y-2672638D01*
X647700Y-2664155D01*
X648512Y-2654960D01*
X648512Y-2616758D01*
X559358Y-2616758D01*
X559358Y-2674721D01*
X558647Y-2678430D01*
X556666Y-2681630D01*
X553669Y-2683865D01*
X550062Y-2684881D01*
X546303Y-2684475D01*
X539902Y-2682443D01*
X534060Y-2679547D01*
X527100Y-2676652D01*
X519938Y-2674213D01*
X512622Y-2672181D01*
X505206Y-2670556D01*
X497738Y-2669438D01*
X490169Y-2668727D01*
X482447Y-2668524D01*
X466801Y-2668524D01*
X462940Y-2667711D01*
X459638Y-2665526D01*
X457403Y-2662224D01*
X456641Y-2658364D01*
X456641Y-2616758D01*
X389636Y-2616758D01*
X385775Y-2615996D01*
X382473Y-2613761D01*
X380288Y-2610459D01*
X379476Y-2606598D01*
X379476Y-2524201D01*
X380288Y-2520340D01*
X382473Y-2517038D01*
X385775Y-2514803D01*
X389636Y-2514041D01*
X456641Y-2514041D01*
X456641Y-2424887D01*
X418439Y-2424887D01*
X409244Y-2425700D01*
X400761Y-2427986D01*
X393954Y-2431135D01*
X389991Y-2432100D01*
X386029Y-2431440D01*
X382574Y-2429256D01*
X380288Y-2425903D01*
X379476Y-2421940D01*
X379476Y-2126284D01*
X380288Y-2122424D01*
X382473Y-2119122D01*
X426821Y-2074773D01*
X430123Y-2072589D01*
X433984Y-2071776D01*
X455320Y-2071776D01*
X459232Y-2072589D01*
X473506Y-2078634D01*
X488899Y-2083155D01*
X504698Y-2085848D01*
X520700Y-2086762D01*
X536702Y-2085848D01*
X552500Y-2083155D01*
X567893Y-2078634D01*
X582676Y-2072386D01*
X596646Y-2064461D01*
X609600Y-2055063D01*
X621436Y-2044192D01*
X631952Y-2032101D01*
X640994Y-2018842D01*
X648462Y-2004669D01*
X654304Y-1989734D01*
X658368Y-1974189D01*
X660654Y-1958339D01*
X661111Y-1942287D01*
X659739Y-1926336D01*
X656539Y-1910588D01*
X651611Y-1895348D01*
X644956Y-1880768D01*
X636676Y-1867001D01*
X626872Y-1854301D01*
X615696Y-1842820D01*
X603250Y-1832660D01*
X589788Y-1823974D01*
X575360Y-1816912D01*
X560273Y-1811528D01*
X544677Y-1807870D01*
X528726Y-1806041D01*
X512673Y-1806041D01*
X496722Y-1807870D01*
X481126Y-1811528D01*
X466039Y-1816912D01*
X460197Y-1819757D01*
X455726Y-1820824D01*
X377952Y-1820824D01*
X370230Y-1821027D01*
X362661Y-1821738D01*
X355193Y-1822856D01*
X347776Y-1824482D01*
X340461Y-1826514D01*
X333298Y-1828952D01*
X326288Y-1831848D01*
X319481Y-1835200D01*
X312877Y-1838909D01*
X306527Y-1843024D01*
X300431Y-1847494D01*
X294589Y-1852371D01*
X288950Y-1857654D01*
X165354Y-1981250D01*
X160070Y-1986889D01*
X155194Y-1992731D01*
X150723Y-1998827D01*
X146608Y-2005177D01*
X142900Y-2011781D01*
X139547Y-2018588D01*
X136652Y-2025599D01*
X134213Y-2032762D01*
X132181Y-2040077D01*
X130556Y-2047493D01*
X129438Y-2054961D01*
X128727Y-2062530D01*
X128524Y-2070252D01*
X128524Y-2730347D01*
X128727Y-2738069D01*
X129438Y-2745638D01*
X130556Y-2753106D01*
X132181Y-2760522D01*
X134213Y-2767838D01*
X136652Y-2775000D01*
X139547Y-2782011D01*
X142900Y-2788818D01*
X146608Y-2795422D01*
X150723Y-2801772D01*
X155194Y-2807868D01*
X160070Y-2813710D01*
X165354Y-2819349D01*
X228650Y-2882646D01*
X234289Y-2887929D01*
X240131Y-2892806D01*
X246227Y-2897276D01*
X252577Y-2901391D01*
X259181Y-2905099D01*
X265988Y-2908452D01*
X272999Y-2911348D01*
X280162Y-2913786D01*
X287477Y-2915869D01*
X294894Y-2917444D01*
X302361Y-2918561D01*
X309930Y-2919272D01*
X317652Y-2919476D01*
X405434Y-2919476D01*
X409346Y-2920288D01*
X413004Y-2922879D01*
X425450Y-2933039D01*
X438912Y-2941726D01*
X453339Y-2948787D01*
X468426Y-2954172D01*
X484022Y-2957830D01*
G37*
G36*
X1790700Y-2773375D02*
G01*
X1807159Y-2772410D01*
X1823415Y-2769616D01*
X1839264Y-2764942D01*
X1854454Y-2758541D01*
X1868779Y-2750413D01*
X1882139Y-2740710D01*
X1894281Y-2729585D01*
X1905101Y-2717088D01*
X1914398Y-2703474D01*
X1922119Y-2688894D01*
X1928063Y-2673553D01*
X1932279Y-2657602D01*
X1934616Y-2641244D01*
X1935124Y-2624785D01*
X1933702Y-2608326D01*
X1930400Y-2592171D01*
X1925320Y-2576474D01*
X1918462Y-2561488D01*
X1909927Y-2547366D01*
X1899869Y-2534310D01*
X1888388Y-2522474D01*
X1875586Y-2512009D01*
X1861718Y-2503119D01*
X1846935Y-2495854D01*
X1831390Y-2490317D01*
X1815338Y-2486558D01*
X1798929Y-2484678D01*
X1782470Y-2484678D01*
X1766062Y-2486558D01*
X1750009Y-2490317D01*
X1734464Y-2495854D01*
X1719681Y-2503119D01*
X1705813Y-2512009D01*
X1693011Y-2522474D01*
X1681530Y-2534310D01*
X1671472Y-2547366D01*
X1662938Y-2561488D01*
X1656080Y-2576474D01*
X1651000Y-2592171D01*
X1647698Y-2608326D01*
X1646275Y-2624785D01*
X1646783Y-2641244D01*
X1649120Y-2657602D01*
X1653336Y-2673553D01*
X1659280Y-2688894D01*
X1667002Y-2703474D01*
X1676298Y-2717088D01*
X1687118Y-2729585D01*
X1699260Y-2740710D01*
X1712620Y-2750413D01*
X1726946Y-2758541D01*
X1742135Y-2764942D01*
X1757984Y-2769616D01*
X1774240Y-2772410D01*
G37*
G36*
X1336040Y-2750210D02*
G01*
X1346454Y-2745841D01*
X1360779Y-2737713D01*
X1374140Y-2728010D01*
X1386281Y-2716885D01*
X1397101Y-2704388D01*
X1406398Y-2690774D01*
X1414119Y-2676194D01*
X1416710Y-2669540D01*
X1336040Y-2669540D01*
G37*
G36*
X1229360Y-2750210D02*
G01*
X1229360Y-2669540D01*
X1148638Y-2669540D01*
X1151280Y-2676194D01*
X1159002Y-2690774D01*
X1168298Y-2704388D01*
X1179118Y-2716885D01*
X1191260Y-2728010D01*
X1204620Y-2737713D01*
X1218946Y-2745841D01*
G37*
G36*
X1336040Y-2562860D02*
G01*
X1416913Y-2562860D01*
X1410462Y-2548788D01*
X1401927Y-2534666D01*
X1391869Y-2521610D01*
X1380388Y-2509774D01*
X1367586Y-2499309D01*
X1353718Y-2490419D01*
X1338935Y-2483154D01*
X1336040Y-2482088D01*
G37*
G36*
X559358Y-2514041D02*
G01*
X648512Y-2514041D01*
X648512Y-2475839D01*
X647700Y-2466644D01*
X645414Y-2458161D01*
X641705Y-2450185D01*
X636676Y-2442972D01*
X630428Y-2436723D01*
X623214Y-2431694D01*
X615238Y-2427986D01*
X606755Y-2425700D01*
X597560Y-2424887D01*
X559358Y-2424887D01*
G37*
G36*
X2011070Y-2430221D02*
G01*
X2027529Y-2430221D01*
X2043938Y-2428341D01*
X2059990Y-2424582D01*
X2075535Y-2419045D01*
X2090318Y-2411780D01*
X2104186Y-2402890D01*
X2116988Y-2392426D01*
X2128469Y-2380589D01*
X2138527Y-2367534D01*
X2147062Y-2353411D01*
X2153920Y-2338425D01*
X2159000Y-2322728D01*
X2162302Y-2306574D01*
X2163724Y-2290114D01*
X2163216Y-2273655D01*
X2160879Y-2257298D01*
X2156663Y-2241346D01*
X2150719Y-2226005D01*
X2142998Y-2211425D01*
X2133701Y-2197811D01*
X2122881Y-2185314D01*
X2110740Y-2174189D01*
X2097379Y-2164486D01*
X2083054Y-2156358D01*
X2067864Y-2149957D01*
X2052015Y-2145284D01*
X2035759Y-2142490D01*
X2019300Y-2141524D01*
X2002840Y-2142490D01*
X1986584Y-2145284D01*
X1979472Y-2147366D01*
X1975916Y-2147773D01*
X1972411Y-2146858D01*
X1969414Y-2144826D01*
X1821789Y-1997202D01*
X1820011Y-1994712D01*
X1814118Y-1975764D01*
X1807921Y-1962302D01*
X1800148Y-1949704D01*
X1790852Y-1938121D01*
X1780184Y-1927809D01*
X1768348Y-1918868D01*
X1755495Y-1911451D01*
X1741830Y-1905660D01*
X1727555Y-1901596D01*
X1712925Y-1899361D01*
X1698091Y-1898904D01*
X1683308Y-1900224D01*
X1668830Y-1903425D01*
X1654860Y-1908352D01*
X1641551Y-1914956D01*
X1629206Y-1923135D01*
X1617929Y-1932787D01*
X1607921Y-1943760D01*
X1599387Y-1955901D01*
X1592376Y-1968957D01*
X1586992Y-1982774D01*
X1583385Y-1997151D01*
X1581556Y-2011883D01*
X1581556Y-2026716D01*
X1583385Y-2041448D01*
X1586992Y-2055825D01*
X1592376Y-2069642D01*
X1599387Y-2082698D01*
X1607921Y-2094839D01*
X1617929Y-2105812D01*
X1629206Y-2115464D01*
X1641551Y-2123643D01*
X1654860Y-2130247D01*
X1668830Y-2135174D01*
X1674520Y-2136444D01*
X1677212Y-2137460D01*
X1679549Y-2139188D01*
X1888337Y-2347976D01*
X1890420Y-2350922D01*
X1891538Y-2353411D01*
X1900072Y-2367534D01*
X1910130Y-2380589D01*
X1921611Y-2392426D01*
X1934413Y-2402890D01*
X1948281Y-2411780D01*
X1963064Y-2419045D01*
X1978609Y-2424582D01*
X1994662Y-2428341D01*
G37*
G36*
X1489151Y-2132380D02*
G01*
X1501495Y-2127148D01*
X1514348Y-2119731D01*
X1526184Y-2110790D01*
X1536852Y-2100478D01*
X1546148Y-2088896D01*
X1553921Y-2076297D01*
X1560118Y-2062835D01*
X1560830Y-2060651D01*
X1489151Y-2060651D01*
G37*
G36*
X1406448Y-2132228D02*
G01*
X1406448Y-2060651D01*
X1334871Y-2060651D01*
X1338376Y-2069642D01*
X1345387Y-2082698D01*
X1353921Y-2094839D01*
X1363929Y-2105812D01*
X1375206Y-2115464D01*
X1387551Y-2123643D01*
X1400860Y-2130247D01*
G37*
G36*
X1334871Y-1977948D02*
G01*
X1406448Y-1977948D01*
X1406448Y-1906371D01*
X1400860Y-1908352D01*
X1387551Y-1914956D01*
X1375206Y-1923135D01*
X1363929Y-1932787D01*
X1353921Y-1943760D01*
X1345387Y-1955901D01*
X1338376Y-1968957D01*
G37*
G36*
X1489151Y-1977948D02*
G01*
X1560830Y-1977948D01*
X1560118Y-1975764D01*
X1553921Y-1962302D01*
X1546148Y-1949704D01*
X1536852Y-1938121D01*
X1526184Y-1927809D01*
X1514348Y-1918868D01*
X1501495Y-1911451D01*
X1489151Y-1906219D01*
G37*
G36*
X1122070Y-1731721D02*
G01*
X1138529Y-1731721D01*
X1154938Y-1729841D01*
X1170990Y-1726082D01*
X1186535Y-1720545D01*
X1201318Y-1713280D01*
X1215186Y-1704390D01*
X1227988Y-1693925D01*
X1239469Y-1682089D01*
X1249527Y-1669034D01*
X1258062Y-1654911D01*
X1264920Y-1639925D01*
X1270000Y-1624228D01*
X1273302Y-1608074D01*
X1274724Y-1591614D01*
X1274216Y-1575155D01*
X1271879Y-1558798D01*
X1267663Y-1542846D01*
X1261719Y-1527505D01*
X1253998Y-1512925D01*
X1244701Y-1499311D01*
X1233881Y-1486814D01*
X1221740Y-1475689D01*
X1208379Y-1465986D01*
X1194054Y-1457858D01*
X1178864Y-1451457D01*
X1163015Y-1446784D01*
X1146759Y-1443990D01*
X1130300Y-1443024D01*
X1113840Y-1443990D01*
X1097584Y-1446784D01*
X1081735Y-1451457D01*
X1066546Y-1457858D01*
X1052220Y-1465986D01*
X1038860Y-1475689D01*
X1029411Y-1484325D01*
X1026210Y-1486306D01*
X1022553Y-1487017D01*
X986942Y-1487017D01*
X983081Y-1486255D01*
X979779Y-1484020D01*
X977544Y-1480718D01*
X976782Y-1476857D01*
X976782Y-1355547D01*
X977544Y-1351635D01*
X979779Y-1348333D01*
X989939Y-1338173D01*
X993038Y-1336090D01*
X996696Y-1335227D01*
X1000404Y-1335735D01*
X1003655Y-1337564D01*
X1006043Y-1340459D01*
X1007414Y-1342999D01*
X1015898Y-1354683D01*
X1025855Y-1365300D01*
X1037031Y-1374546D01*
X1049274Y-1382268D01*
X1062380Y-1388465D01*
X1066038Y-1389634D01*
X1066038Y-1319936D01*
X1032713Y-1319936D01*
X1028801Y-1319174D01*
X1025499Y-1316990D01*
X1023315Y-1313688D01*
X1022553Y-1309776D01*
X1023315Y-1305915D01*
X1025499Y-1302613D01*
X1120597Y-1207566D01*
X1122934Y-1205788D01*
X1125677Y-1204772D01*
X1131468Y-1203553D01*
X1135938Y-1203604D01*
X1140002Y-1205585D01*
X1142746Y-1209141D01*
X1143762Y-1213510D01*
X1143762Y-1242263D01*
X1213459Y-1242263D01*
X1209395Y-1231950D01*
X1202385Y-1219200D01*
X1193850Y-1207516D01*
X1183944Y-1196898D01*
X1182268Y-1195527D01*
X1179576Y-1192123D01*
X1178610Y-1187907D01*
X1179474Y-1183640D01*
X1182014Y-1180134D01*
X1194257Y-1169162D01*
X1683410Y-678281D01*
X1686712Y-676097D01*
X1690624Y-675284D01*
X1778660Y-675284D01*
X1787855Y-674471D01*
X1796338Y-672236D01*
X1804314Y-668477D01*
X1811528Y-663448D01*
X1817725Y-657250D01*
X1822805Y-650036D01*
X1826514Y-642061D01*
X1827275Y-639165D01*
X1829104Y-635508D01*
X1832254Y-632866D01*
X1836216Y-631698D01*
X1840280Y-632155D01*
X1843836Y-634238D01*
X1855520Y-644652D01*
X1868373Y-653745D01*
X1882139Y-661365D01*
X1891741Y-665327D01*
X1891741Y-566166D01*
X1839722Y-566166D01*
X1835861Y-565404D01*
X1832559Y-563168D01*
X1830374Y-559866D01*
X1829562Y-556006D01*
X1829562Y-433628D01*
X1830374Y-429717D01*
X1832559Y-426415D01*
X1835861Y-424230D01*
X1839722Y-423468D01*
X1891741Y-423468D01*
X1891741Y-324256D01*
X1882139Y-328218D01*
X1868373Y-335838D01*
X1855520Y-344982D01*
X1843836Y-355396D01*
X1840280Y-357428D01*
X1836216Y-357936D01*
X1832254Y-356768D01*
X1829104Y-354126D01*
X1827275Y-350418D01*
X1826514Y-347522D01*
X1822805Y-339598D01*
X1817725Y-332384D01*
X1811528Y-326136D01*
X1804314Y-321106D01*
X1796338Y-317398D01*
X1787855Y-315112D01*
X1778660Y-314299D01*
X1599539Y-314299D01*
X1590344Y-315112D01*
X1581810Y-317398D01*
X1573834Y-321106D01*
X1566672Y-326136D01*
X1560423Y-332384D01*
X1555394Y-339598D01*
X1551686Y-347522D01*
X1549400Y-356057D01*
X1548587Y-365252D01*
X1548587Y-453796D01*
X1547825Y-457708D01*
X1545640Y-460959D01*
X1060500Y-947826D01*
X1057198Y-950010D01*
X1053287Y-950823D01*
X585673Y-950823D01*
X581202Y-949756D01*
X575360Y-946912D01*
X560273Y-941527D01*
X544677Y-937869D01*
X528726Y-936040D01*
X512673Y-936040D01*
X496722Y-937869D01*
X481126Y-941527D01*
X466039Y-946912D01*
X451612Y-953973D01*
X438150Y-962660D01*
X425704Y-972819D01*
X414528Y-984300D01*
X404723Y-997000D01*
X396443Y-1010716D01*
X389788Y-1025347D01*
X384860Y-1040587D01*
X381660Y-1056284D01*
X380288Y-1072286D01*
X380746Y-1088339D01*
X383032Y-1104188D01*
X387096Y-1119682D01*
X392938Y-1134668D01*
X400405Y-1148842D01*
X409448Y-1162100D01*
X419963Y-1174191D01*
X431800Y-1185062D01*
X444754Y-1194460D01*
X458724Y-1202334D01*
X473506Y-1208582D01*
X488899Y-1213104D01*
X504698Y-1215847D01*
X520700Y-1216761D01*
X536702Y-1215847D01*
X552500Y-1213104D01*
X567893Y-1208582D01*
X582117Y-1202588D01*
X586079Y-1201775D01*
X817575Y-1201775D01*
X821436Y-1202588D01*
X824737Y-1204772D01*
X826922Y-1208074D01*
X827735Y-1211935D01*
X826922Y-1215847D01*
X824737Y-1219149D01*
X805484Y-1238402D01*
X796594Y-1248511D01*
X789279Y-1259484D01*
X783488Y-1271270D01*
X779272Y-1283716D01*
X776681Y-1296568D01*
X775817Y-1310030D01*
X775817Y-1536344D01*
X776681Y-1549806D01*
X779272Y-1562709D01*
X783488Y-1575155D01*
X789279Y-1586941D01*
X796594Y-1597863D01*
X805484Y-1607972D01*
X855827Y-1658315D01*
X865936Y-1667205D01*
X876858Y-1674520D01*
X888644Y-1680311D01*
X901090Y-1684528D01*
X913993Y-1687118D01*
X927455Y-1687982D01*
X1022553Y-1687982D01*
X1026515Y-1688795D01*
X1029868Y-1691081D01*
X1032611Y-1693925D01*
X1045413Y-1704390D01*
X1059281Y-1713280D01*
X1074064Y-1720545D01*
X1089609Y-1726082D01*
X1105662Y-1729841D01*
G37*
G36*
X1143762Y-1389634D02*
G01*
X1147419Y-1388465D01*
X1160526Y-1382268D01*
X1172768Y-1374546D01*
X1183944Y-1365300D01*
X1193850Y-1354683D01*
X1202385Y-1342999D01*
X1209395Y-1330248D01*
X1213459Y-1319936D01*
X1143762Y-1319936D01*
G37*
G36*
X2014474Y-1200150D02*
G01*
X2014474Y-1136243D01*
X1950618Y-1136243D01*
X1952091Y-1141018D01*
X1957730Y-1153160D01*
X1964943Y-1164488D01*
X1973630Y-1174750D01*
X1983587Y-1183741D01*
X1994611Y-1191361D01*
X2006600Y-1197406D01*
G37*
G36*
X1950466Y-1073556D02*
G01*
X2014474Y-1073556D01*
X2014474Y-1009548D01*
X2012899Y-1010005D01*
X2000504Y-1015237D01*
X1988972Y-1022045D01*
X1978456Y-1030376D01*
X1969109Y-1040028D01*
X1961134Y-1050848D01*
X1954682Y-1062583D01*
G37*
G36*
X7665872Y-458774D02*
G01*
X7665872Y-347827D01*
X7554925Y-347827D01*
X7557871Y-354482D01*
X7567980Y-372719D01*
X7579766Y-389890D01*
X7593075Y-405892D01*
X7607808Y-420624D01*
X7623809Y-433933D01*
X7640980Y-445719D01*
X7659217Y-455828D01*
G37*
G36*
X343865Y-454761D02*
G01*
X350520Y-451866D01*
X368706Y-441706D01*
X385876Y-429920D01*
X401929Y-416610D01*
X416610Y-401929D01*
X429920Y-385876D01*
X441706Y-368706D01*
X451866Y-350520D01*
X454761Y-343865D01*
X343865Y-343865D01*
G37*
G36*
X156159Y-454761D02*
G01*
X156159Y-343865D01*
X45110Y-343865D01*
X48158Y-350520D01*
X58267Y-368706D01*
X70053Y-385876D01*
X83362Y-401929D01*
X98094Y-416610D01*
X114096Y-429920D01*
X131318Y-441706D01*
X149504Y-451866D01*
G37*
G36*
X6070955Y-441858D02*
G01*
X6145682Y-441858D01*
X6144260Y-439826D01*
X6138672Y-427431D01*
X6130747Y-414324D01*
X6121298Y-402285D01*
X6110478Y-391464D01*
X6098438Y-382066D01*
X6085382Y-374142D01*
X6070955Y-367690D01*
G37*
G36*
X5907328Y-441858D02*
G01*
X5982055Y-441858D01*
X5982055Y-367690D01*
X5967628Y-374142D01*
X5954522Y-382066D01*
X5942482Y-391464D01*
X5931662Y-402285D01*
X5922264Y-414324D01*
X5914339Y-427431D01*
X5908751Y-439826D01*
G37*
G36*
X7554925Y-160172D02*
G01*
X7665872Y-160172D01*
X7665872Y-49225D01*
X7659217Y-52171D01*
X7640980Y-62280D01*
X7623809Y-74066D01*
X7607808Y-87376D01*
X7593075Y-102108D01*
X7579766Y-118110D01*
X7567980Y-135280D01*
X7557871Y-153517D01*
G37*
G36*
X343865Y-156159D02*
G01*
X454761Y-156159D01*
X451866Y-149504D01*
X441706Y-131318D01*
X429920Y-114096D01*
X416610Y-98094D01*
X401929Y-83362D01*
X385876Y-70053D01*
X368706Y-58267D01*
X350520Y-48158D01*
X343865Y-45110D01*
G37*
G36*
X45110Y-156159D02*
G01*
X156159Y-156159D01*
X156159Y-45110D01*
X149504Y-48158D01*
X131318Y-58267D01*
X114096Y-70053D01*
X98094Y-83362D01*
X83362Y-98094D01*
X70053Y-114096D01*
X58267Y-131318D01*
X48158Y-149504D01*
G37*

%LPD*%
D10*
X520700Y-1946300D02*
G01*
X377799Y-1946300D01*
X254000Y-2070100D01*
X254000Y-2730500D01*
X317500Y-2794000D01*
X482600Y-2794000D01*
X508000Y-2819400D01*
X520700Y-1076299D02*
G01*
X1100099Y-1076299D01*
X1104900Y-1081100D01*
D11*
X2197125Y-495807D02*
G01*
X2197125Y-1103731D01*
X2195956Y-1104900D01*
X2195959Y-1104900D02*
G01*
X2195959Y-1347340D01*
X2019300Y-1524000D01*
X2019300Y-2286000D02*
G01*
X1968500Y-2286000D01*
X1701800Y-2019300D01*
X1104900Y-1081100D02*
G01*
X876300Y-1309700D01*
X876300Y-1536700D01*
X927100Y-1587500D01*
X1130300Y-1587500D01*
X1282700Y-3378200D02*
G01*
X1282700Y-3784600D01*
X1130300Y-2349500D02*
G01*
X1028700Y-2451100D01*
X1028700Y-3784600D01*
X647700Y-3314700D02*
G01*
X850900Y-3314700D01*
X850900Y-4114800D01*
X1028700Y-4292600D01*
X1054100Y-4267200D01*
X1168400Y-4267200D01*
X1155700Y-4254500D01*
X1155700Y-3784600D01*
X1790700Y-3390900D02*
G01*
X1778000Y-3378200D01*
X1562100Y-3378200D01*
X1574800Y-3390900D01*
X1574800Y-4267200D01*
X1168400Y-4267200D01*
D12*
X4318000Y-2235200D02*
G01*
X4597400Y-1955800D01*
X7099300Y-1955800D01*
X7086193Y-1968906D01*
X7086193Y-3048000D01*
X4318000Y-2489200D02*
G01*
X4622800Y-2184400D01*
X6908800Y-2184400D01*
X6908800Y-3200400D01*
X7183805Y-3200400D01*
X7336205Y-3048000D01*
X4318000Y-2743200D02*
G01*
X4610100Y-2451100D01*
X6718300Y-2451100D01*
X6756400Y-2489200D01*
X6756400Y-3378200D01*
X7416800Y-3378200D01*
X7586192Y-3208807D01*
X7586192Y-3048000D01*
X4318000Y-2997200D02*
G01*
X4381500Y-2933700D01*
X5650484Y-2934715D01*
X5650484Y-3209289D01*
X6412484Y-3209289D02*
G01*
X6527800Y-3324605D01*
X6527800Y-4648200D01*
X6578600Y-4699000D01*
X7493000Y-4699000D01*
X7493000Y-4591202D01*
X7586192Y-4498009D01*
D10*
X1689100Y-494792D02*
G01*
X1104900Y-1081023D01*
D11*
X2019300Y-1524000D02*
G01*
X2298700Y-1524000D01*
X2298700Y-3771900D01*
X2794000Y-4267200D01*
X2794000Y-2743200D02*
G01*
X3695700Y-1841500D01*
X3695700Y-469900D01*
X4406900Y-469900D01*
X4648200Y-711200D01*
X6055613Y-711200D01*
X6280505Y-486308D01*
D13*
G01*
X1104900Y-1081100D03*
G01*
X1104900Y-1281099D03*
D11*
G01*
X2045843Y-1104900D03*
G01*
X2195956Y-1104900D03*
D14*
G01*
X520700Y-1076299D03*
G01*
X520700Y-1946300D03*
D15*
G01*
X508000Y-2565400D03*
D14*
G01*
X508000Y-2819400D03*
D16*
G01*
X1701800Y-2019300D03*
G01*
X1447800Y-2019300D03*
D17*
G01*
X1282700Y-3784600D03*
G01*
X1155700Y-3784600D03*
D18*
G01*
X1028700Y-3784600D03*
D19*
G01*
X2019300Y-2286000D03*
G01*
X2019300Y-1524000D03*
G01*
X1130300Y-2349500D03*
G01*
X1130300Y-1587500D03*
G01*
X1282700Y-2616200D03*
G01*
X1282700Y-3378200D03*
G01*
X1790700Y-2628900D03*
G01*
X1790700Y-3390900D03*
G01*
X647700Y-4076700D03*
G01*
X647700Y-3314700D03*
D20*
G01*
X1943100Y-494817D03*
G01*
X2197125Y-495807D03*
D21*
G01*
X1689100Y-494792D03*
D22*
G01*
X4318000Y-4267200D03*
D23*
G01*
X2794000Y-4013200D03*
G01*
X2794000Y-3505200D03*
G01*
X2794000Y-2997200D03*
G01*
X2794000Y-2489200D03*
G01*
X2794000Y-1981200D03*
G01*
X2794000Y-1473200D03*
G01*
X2794000Y-965200D03*
G01*
X4318000Y-711200D03*
G01*
X4318000Y-1219200D03*
G01*
X4318000Y-1727200D03*
G01*
X4318000Y-2235200D03*
G01*
X4318000Y-2743200D03*
G01*
X4318000Y-3251200D03*
G01*
X4318000Y-3759200D03*
G01*
X4318000Y-4013200D03*
G01*
X4318000Y-3505200D03*
G01*
X4318000Y-2997200D03*
G01*
X4318000Y-2489200D03*
G01*
X4318000Y-1981200D03*
G01*
X4318000Y-1473200D03*
G01*
X4318000Y-965200D03*
G01*
X2794000Y-711200D03*
G01*
X2794000Y-1219200D03*
G01*
X2794000Y-1727200D03*
G01*
X2794000Y-2235200D03*
G01*
X2794000Y-2743200D03*
G01*
X2794000Y-3251200D03*
G01*
X2794000Y-3759200D03*
D22*
G01*
X2794000Y-4267200D03*
D24*
G01*
X6412484Y-3209289D03*
G01*
X6158484Y-3209289D03*
G01*
X5904484Y-3209289D03*
G01*
X5650484Y-3209289D03*
G01*
X5396484Y-3209289D03*
G01*
X5142484Y-3209289D03*
G01*
X4888484Y-3209289D03*
G01*
X5772505Y-486308D03*
G01*
X6026505Y-486308D03*
G01*
X6280505Y-486308D03*
G01*
X6534505Y-486308D03*
G01*
X7586192Y-3048000D03*
G01*
X7336205Y-3048000D03*
G01*
X7086193Y-3048000D03*
G01*
X7586192Y-4498009D03*
G01*
X7086193Y-4498009D03*
D25*
G01*
X6866686Y-3798011D03*
G01*
X7796707Y-3798011D03*
D26*
G01*
X250012Y-250012D03*
G01*
X7759700Y-254000D03*
G01*
X254000Y-4749800D03*
G01*
X7759700Y-4749800D03*
M02*
