G04 Layer: TopLayer*
G04 EasyEDA v6.5.50, 2025-05-18 23:27:22*
G04 3d9ee40f25bc44afba2a55a8afe60d3c,38e003156f3e444eba849dea5bfb7f5a,10*
G04 Gerber Generator version 0.2*
G04 Scale: 100 percent, Rotated: No, Reflected: No *
G04 Dimensions in millimeters *
G04 leading zeros omitted , absolute positions ,4 integer and 5 decimal *
%FSLAX45Y45*%
%MOMM*%

%ADD10C,1.0000*%
%ADD11C,1.3000*%
%ADD12C,1.8000*%
%ADD13R,1.8000X1.8000*%
%ADD14C,1.4000*%
%ADD15O,0.8999982X1.5999968*%
%ADD16R,0.9000X1.6000*%
%ADD17C,1.8796*%
%ADD18O,1.7999964X2.5999948*%
%ADD19R,1.8000X2.6000*%
%ADD20R,1.6000X1.6000*%
%ADD21C,1.6000*%
%ADD22C,1.5240*%
%ADD23C,3.0000*%
%ADD24C,3.5000*%
%ADD25C,0.0148*%

%LPD*%
G36*
X36068Y-4974082D02*
G01*
X32156Y-4973320D01*
X28905Y-4971084D01*
X26670Y-4967833D01*
X25908Y-4963922D01*
X25908Y-4839004D01*
X26466Y-4836261D01*
X25908Y-4833467D01*
X25908Y-4666132D01*
X26466Y-4663338D01*
X25908Y-4660595D01*
X25908Y-348284D01*
X26670Y-344424D01*
X28905Y-340868D01*
X26670Y-337566D01*
X25908Y-333705D01*
X25908Y-166319D01*
X26670Y-162407D01*
X28854Y-158851D01*
X26670Y-155549D01*
X25908Y-151688D01*
X25908Y-36068D01*
X26670Y-32156D01*
X28905Y-28905D01*
X32156Y-26670D01*
X36068Y-25908D01*
X151688Y-25908D01*
X155549Y-26670D01*
X159105Y-28905D01*
X162407Y-26670D01*
X166319Y-25908D01*
X333705Y-25908D01*
X337566Y-26670D01*
X341172Y-28854D01*
X344424Y-26670D01*
X348284Y-25908D01*
X7670495Y-25908D01*
X7673238Y-26466D01*
X7676032Y-25908D01*
X7843367Y-25908D01*
X7846161Y-26466D01*
X7848904Y-25908D01*
X7963916Y-25908D01*
X7967827Y-26670D01*
X7971078Y-28905D01*
X7973314Y-32156D01*
X7974075Y-36068D01*
X7974075Y-136855D01*
X7973110Y-141173D01*
X7970418Y-144678D01*
X7966456Y-146710D01*
X7962036Y-146862D01*
X7957972Y-145135D01*
X7955025Y-141833D01*
X7951419Y-135280D01*
X7939633Y-118110D01*
X7926324Y-102108D01*
X7911592Y-87376D01*
X7895590Y-74066D01*
X7878419Y-62280D01*
X7860182Y-52171D01*
X7853527Y-49225D01*
X7853527Y-160172D01*
X7963916Y-160172D01*
X7967827Y-160934D01*
X7971078Y-163118D01*
X7973314Y-166420D01*
X7974075Y-170332D01*
X7974075Y-337667D01*
X7973314Y-341579D01*
X7971078Y-344881D01*
X7967827Y-347065D01*
X7963916Y-347827D01*
X7853527Y-347827D01*
X7853527Y-458774D01*
X7860182Y-455828D01*
X7878419Y-445719D01*
X7895590Y-433933D01*
X7911592Y-420624D01*
X7926324Y-405892D01*
X7939633Y-389890D01*
X7951419Y-372719D01*
X7955025Y-366166D01*
X7957972Y-362864D01*
X7962036Y-361137D01*
X7966456Y-361289D01*
X7970418Y-363321D01*
X7973110Y-366826D01*
X7974075Y-371144D01*
X7974075Y-3670249D01*
X7973212Y-3674364D01*
X7970723Y-3677767D01*
X7967116Y-3679901D01*
X7962900Y-3680358D01*
X7958886Y-3679088D01*
X7955737Y-3676294D01*
X7951673Y-3670808D01*
X7938465Y-3656228D01*
X7923885Y-3643020D01*
X7908086Y-3631285D01*
X7891221Y-3621176D01*
X7873441Y-3612794D01*
X7854899Y-3606139D01*
X7835849Y-3601364D01*
X7816342Y-3598468D01*
X7796733Y-3597503D01*
X7777073Y-3598468D01*
X7757617Y-3601364D01*
X7738516Y-3606139D01*
X7719974Y-3612794D01*
X7702194Y-3621176D01*
X7685328Y-3631285D01*
X7669530Y-3643020D01*
X7654950Y-3656228D01*
X7641742Y-3670808D01*
X7630007Y-3686606D01*
X7619898Y-3703472D01*
X7611516Y-3721303D01*
X7604861Y-3739794D01*
X7600086Y-3758895D01*
X7597190Y-3778351D01*
X7596225Y-3798011D01*
X7597190Y-3817670D01*
X7600086Y-3837127D01*
X7604861Y-3856177D01*
X7611516Y-3874719D01*
X7619898Y-3892499D01*
X7630007Y-3909364D01*
X7641742Y-3925163D01*
X7654950Y-3939743D01*
X7669530Y-3952951D01*
X7685328Y-3964686D01*
X7702194Y-3974795D01*
X7719974Y-3983228D01*
X7738516Y-3989832D01*
X7757617Y-3994607D01*
X7777073Y-3997502D01*
X7796733Y-3998468D01*
X7816342Y-3997502D01*
X7835849Y-3994607D01*
X7854899Y-3989832D01*
X7873441Y-3983228D01*
X7891221Y-3974795D01*
X7908086Y-3964686D01*
X7923885Y-3952951D01*
X7938465Y-3939743D01*
X7951673Y-3925163D01*
X7955737Y-3919728D01*
X7958886Y-3916934D01*
X7962900Y-3915664D01*
X7967116Y-3916121D01*
X7970723Y-3918254D01*
X7973212Y-3921658D01*
X7974075Y-3925773D01*
X7974075Y-4632655D01*
X7973110Y-4636973D01*
X7970418Y-4640478D01*
X7966456Y-4642510D01*
X7962036Y-4642662D01*
X7957972Y-4640935D01*
X7955025Y-4637633D01*
X7951419Y-4631080D01*
X7939633Y-4613910D01*
X7926324Y-4597908D01*
X7911592Y-4583176D01*
X7895590Y-4569866D01*
X7878419Y-4558080D01*
X7860182Y-4547971D01*
X7853527Y-4545025D01*
X7853527Y-4655972D01*
X7963916Y-4655972D01*
X7967827Y-4656734D01*
X7971078Y-4658918D01*
X7973314Y-4662220D01*
X7974075Y-4666132D01*
X7974075Y-4833467D01*
X7973314Y-4837379D01*
X7971078Y-4840681D01*
X7967827Y-4842865D01*
X7963916Y-4843627D01*
X7853527Y-4843627D01*
X7853527Y-4954574D01*
X7860182Y-4951628D01*
X7878419Y-4941519D01*
X7895590Y-4929733D01*
X7911592Y-4916424D01*
X7926324Y-4901692D01*
X7939633Y-4885690D01*
X7951419Y-4868519D01*
X7955025Y-4861966D01*
X7957972Y-4858664D01*
X7962036Y-4856937D01*
X7966456Y-4857089D01*
X7970418Y-4859121D01*
X7973110Y-4862626D01*
X7974075Y-4866944D01*
X7974075Y-4963922D01*
X7973314Y-4967833D01*
X7971078Y-4971084D01*
X7967827Y-4973320D01*
X7963916Y-4974082D01*
X7857540Y-4974082D01*
X7853680Y-4973320D01*
X7850479Y-4971186D01*
X7847279Y-4973320D01*
X7843367Y-4974082D01*
X7676032Y-4974082D01*
X7672120Y-4973320D01*
X7668920Y-4971186D01*
X7665720Y-4973320D01*
X7661859Y-4974082D01*
X351840Y-4974082D01*
X347980Y-4973320D01*
X344779Y-4971186D01*
X341579Y-4973320D01*
X337667Y-4974082D01*
X170332Y-4974082D01*
X166420Y-4973320D01*
X163220Y-4971186D01*
X160020Y-4973320D01*
X156159Y-4974082D01*
G37*

%LPC*%
G36*
X347827Y-4954574D02*
G01*
X354482Y-4951628D01*
X372719Y-4941519D01*
X389890Y-4929733D01*
X405892Y-4916424D01*
X420624Y-4901692D01*
X433933Y-4885690D01*
X445719Y-4868519D01*
X455828Y-4850282D01*
X458774Y-4843627D01*
X347827Y-4843627D01*
G37*
G36*
X160172Y-4954574D02*
G01*
X160172Y-4843627D01*
X49225Y-4843627D01*
X52171Y-4850282D01*
X62280Y-4868519D01*
X74066Y-4885690D01*
X87376Y-4901692D01*
X102108Y-4916424D01*
X118110Y-4929733D01*
X135280Y-4941519D01*
X153517Y-4951628D01*
G37*
G36*
X7665872Y-4954574D02*
G01*
X7665872Y-4843627D01*
X7554925Y-4843627D01*
X7557871Y-4850282D01*
X7567980Y-4868519D01*
X7579766Y-4885690D01*
X7593075Y-4901692D01*
X7607808Y-4916424D01*
X7623809Y-4929733D01*
X7640980Y-4941519D01*
X7659217Y-4951628D01*
G37*
G36*
X2172055Y-4888382D02*
G01*
X4558944Y-4888382D01*
X4572406Y-4887518D01*
X4585309Y-4884928D01*
X4597755Y-4880711D01*
X4609541Y-4874920D01*
X4620463Y-4867605D01*
X4630369Y-4858969D01*
X4639005Y-4849063D01*
X4646320Y-4838141D01*
X4652111Y-4826355D01*
X4656328Y-4813909D01*
X4658918Y-4801006D01*
X4659782Y-4787544D01*
X4659782Y-3264255D01*
X4658918Y-3250793D01*
X4656328Y-3237890D01*
X4652111Y-3225444D01*
X4646320Y-3213658D01*
X4639005Y-3202736D01*
X4630115Y-3192627D01*
X4617872Y-3180384D01*
X4607763Y-3171494D01*
X4596841Y-3164179D01*
X4585055Y-3158388D01*
X4572609Y-3154172D01*
X4559706Y-3151581D01*
X4546244Y-3150717D01*
X4404563Y-3150717D01*
X4401058Y-3150057D01*
X4384294Y-3138881D01*
X4373321Y-3133242D01*
X4370324Y-3130905D01*
X4368393Y-3127654D01*
X4367784Y-3123895D01*
X4368596Y-3120237D01*
X4370730Y-3117088D01*
X4373829Y-3114903D01*
X4377588Y-3113278D01*
X4390898Y-3105404D01*
X4403191Y-3096056D01*
X4414266Y-3085287D01*
X4424019Y-3073247D01*
X4432249Y-3060192D01*
X4438904Y-3046222D01*
X4443882Y-3031591D01*
X4447032Y-3016453D01*
X4448403Y-3001060D01*
X4447946Y-2985617D01*
X4445660Y-2970326D01*
X4441596Y-2955391D01*
X4435805Y-2941066D01*
X4428337Y-2927553D01*
X4419346Y-2915005D01*
X4408881Y-2903575D01*
X4397197Y-2893466D01*
X4384344Y-2884830D01*
X4373422Y-2879242D01*
X4370425Y-2876905D01*
X4368495Y-2873654D01*
X4367885Y-2869895D01*
X4368698Y-2866186D01*
X4370832Y-2863037D01*
X4373981Y-2860903D01*
X4377537Y-2859328D01*
X4390847Y-2851454D01*
X4403140Y-2842107D01*
X4414215Y-2831338D01*
X4423968Y-2819298D01*
X4432198Y-2806242D01*
X4438853Y-2792272D01*
X4443831Y-2777642D01*
X4446981Y-2762504D01*
X4448352Y-2747111D01*
X4447895Y-2731668D01*
X4445609Y-2716377D01*
X4441545Y-2701442D01*
X4435754Y-2687116D01*
X4428286Y-2673604D01*
X4419295Y-2661056D01*
X4408830Y-2649626D01*
X4397146Y-2639568D01*
X4384294Y-2630932D01*
X4373321Y-2625242D01*
X4370324Y-2622956D01*
X4368393Y-2619654D01*
X4367784Y-2615946D01*
X4368596Y-2612237D01*
X4370730Y-2609088D01*
X4373829Y-2606903D01*
X4377588Y-2605278D01*
X4390898Y-2597404D01*
X4403191Y-2588056D01*
X4414266Y-2577287D01*
X4424019Y-2565247D01*
X4432249Y-2552192D01*
X4438904Y-2538222D01*
X4443882Y-2523591D01*
X4447032Y-2508453D01*
X4448403Y-2493060D01*
X4447946Y-2477617D01*
X4445660Y-2462326D01*
X4441596Y-2447391D01*
X4435805Y-2433066D01*
X4428337Y-2419553D01*
X4419346Y-2407005D01*
X4408881Y-2395575D01*
X4397197Y-2385517D01*
X4384344Y-2376881D01*
X4373422Y-2371242D01*
X4370425Y-2368905D01*
X4368495Y-2365654D01*
X4367885Y-2361895D01*
X4368698Y-2358186D01*
X4370832Y-2355037D01*
X4373981Y-2352903D01*
X4377537Y-2351328D01*
X4390847Y-2343454D01*
X4403140Y-2334107D01*
X4414215Y-2323338D01*
X4423968Y-2311298D01*
X4432198Y-2298242D01*
X4438853Y-2284272D01*
X4443831Y-2269642D01*
X4446981Y-2254504D01*
X4448352Y-2239111D01*
X4447895Y-2223668D01*
X4445609Y-2208377D01*
X4441545Y-2193442D01*
X4435754Y-2179116D01*
X4428286Y-2165604D01*
X4419295Y-2153056D01*
X4408830Y-2141626D01*
X4397146Y-2131517D01*
X4384294Y-2122881D01*
X4373321Y-2117242D01*
X4370324Y-2114905D01*
X4368393Y-2111654D01*
X4367784Y-2107946D01*
X4368596Y-2104237D01*
X4370730Y-2101088D01*
X4373880Y-2098903D01*
X4377588Y-2097278D01*
X4390898Y-2089404D01*
X4403191Y-2080056D01*
X4414266Y-2069287D01*
X4424019Y-2057247D01*
X4432249Y-2044192D01*
X4438904Y-2030222D01*
X4443882Y-2015591D01*
X4447032Y-2000453D01*
X4448403Y-1985060D01*
X4447946Y-1969617D01*
X4445660Y-1954326D01*
X4441596Y-1939391D01*
X4435805Y-1925066D01*
X4428337Y-1911553D01*
X4419346Y-1899005D01*
X4408881Y-1887575D01*
X4397197Y-1877517D01*
X4384344Y-1868881D01*
X4373422Y-1863242D01*
X4370425Y-1860905D01*
X4368495Y-1857654D01*
X4367885Y-1853895D01*
X4368698Y-1850186D01*
X4370832Y-1847037D01*
X4373981Y-1844903D01*
X4377537Y-1843328D01*
X4390847Y-1835454D01*
X4403140Y-1826107D01*
X4414215Y-1815338D01*
X4423968Y-1803298D01*
X4432198Y-1790242D01*
X4438853Y-1776272D01*
X4443831Y-1761642D01*
X4446981Y-1746504D01*
X4448352Y-1731111D01*
X4447895Y-1715668D01*
X4445609Y-1700377D01*
X4441545Y-1685442D01*
X4435754Y-1671116D01*
X4428286Y-1657604D01*
X4419295Y-1645056D01*
X4408830Y-1633626D01*
X4397146Y-1623517D01*
X4384294Y-1614881D01*
X4373321Y-1609242D01*
X4370324Y-1606905D01*
X4368393Y-1603654D01*
X4367784Y-1599946D01*
X4368596Y-1596237D01*
X4370730Y-1593088D01*
X4373880Y-1590903D01*
X4377588Y-1589278D01*
X4390898Y-1581404D01*
X4403191Y-1572056D01*
X4414266Y-1561287D01*
X4424019Y-1549247D01*
X4432249Y-1536192D01*
X4438904Y-1522222D01*
X4443882Y-1507591D01*
X4447032Y-1492453D01*
X4448403Y-1477060D01*
X4447946Y-1461617D01*
X4445660Y-1446326D01*
X4441596Y-1431391D01*
X4435805Y-1417066D01*
X4428337Y-1403553D01*
X4419346Y-1391005D01*
X4408881Y-1379575D01*
X4397197Y-1369517D01*
X4384344Y-1360881D01*
X4373422Y-1355242D01*
X4370425Y-1352905D01*
X4368495Y-1349654D01*
X4367885Y-1345895D01*
X4368698Y-1342186D01*
X4370832Y-1339037D01*
X4373981Y-1336903D01*
X4377537Y-1335328D01*
X4390847Y-1327454D01*
X4403140Y-1318107D01*
X4414215Y-1307338D01*
X4423968Y-1295298D01*
X4432198Y-1282242D01*
X4438853Y-1268272D01*
X4443831Y-1253642D01*
X4446981Y-1238504D01*
X4448352Y-1223111D01*
X4447895Y-1207668D01*
X4445609Y-1192377D01*
X4441545Y-1177442D01*
X4435754Y-1163116D01*
X4428286Y-1149604D01*
X4419295Y-1137056D01*
X4408830Y-1125626D01*
X4397146Y-1115517D01*
X4384294Y-1106881D01*
X4373321Y-1101242D01*
X4370324Y-1098905D01*
X4368393Y-1095654D01*
X4367784Y-1091946D01*
X4368596Y-1088237D01*
X4370730Y-1085088D01*
X4373880Y-1082903D01*
X4377588Y-1081278D01*
X4390898Y-1073404D01*
X4403191Y-1064056D01*
X4414266Y-1053287D01*
X4424019Y-1041247D01*
X4432249Y-1028192D01*
X4438904Y-1014221D01*
X4443882Y-999591D01*
X4447032Y-984453D01*
X4448403Y-969060D01*
X4447946Y-953617D01*
X4445660Y-938326D01*
X4441596Y-923391D01*
X4435805Y-909066D01*
X4428337Y-895553D01*
X4419346Y-883005D01*
X4408881Y-871575D01*
X4397197Y-861517D01*
X4384344Y-852881D01*
X4373372Y-847242D01*
X4370374Y-844905D01*
X4368444Y-841654D01*
X4367885Y-837895D01*
X4368698Y-834186D01*
X4370781Y-831037D01*
X4373930Y-828903D01*
X4377588Y-827278D01*
X4390898Y-819403D01*
X4403191Y-810056D01*
X4414266Y-799287D01*
X4424019Y-787247D01*
X4432249Y-774192D01*
X4438904Y-760222D01*
X4443882Y-745591D01*
X4447032Y-730453D01*
X4448403Y-715060D01*
X4447946Y-699617D01*
X4445660Y-684326D01*
X4441596Y-669391D01*
X4435805Y-655066D01*
X4428337Y-641553D01*
X4419295Y-629005D01*
X4408881Y-617575D01*
X4397197Y-607466D01*
X4384344Y-598830D01*
X4370578Y-591769D01*
X4356100Y-586435D01*
X4341063Y-582777D01*
X4325721Y-580948D01*
X4310278Y-580948D01*
X4294936Y-582777D01*
X4279900Y-586435D01*
X4265422Y-591769D01*
X4251655Y-598830D01*
X4238802Y-607466D01*
X4227118Y-617575D01*
X4216704Y-629005D01*
X4207662Y-641553D01*
X4200194Y-655066D01*
X4194403Y-669391D01*
X4190339Y-684326D01*
X4188053Y-699617D01*
X4187596Y-715060D01*
X4188968Y-730453D01*
X4192117Y-745591D01*
X4197096Y-760222D01*
X4203750Y-774192D01*
X4211980Y-787247D01*
X4221734Y-799287D01*
X4232808Y-810056D01*
X4245102Y-819403D01*
X4258411Y-827278D01*
X4262069Y-828903D01*
X4265218Y-831037D01*
X4267301Y-834186D01*
X4268114Y-837895D01*
X4267555Y-841654D01*
X4265625Y-844905D01*
X4262628Y-847242D01*
X4251655Y-852881D01*
X4238853Y-861517D01*
X4227118Y-871575D01*
X4216704Y-883005D01*
X4207662Y-895553D01*
X4200194Y-909066D01*
X4194403Y-923391D01*
X4190339Y-938326D01*
X4188053Y-953617D01*
X4187596Y-969060D01*
X4188968Y-984453D01*
X4192117Y-999591D01*
X4197096Y-1014221D01*
X4203750Y-1028192D01*
X4211980Y-1041247D01*
X4221734Y-1053287D01*
X4232808Y-1064056D01*
X4245102Y-1073404D01*
X4258411Y-1081278D01*
X4262120Y-1082903D01*
X4265218Y-1085037D01*
X4267352Y-1088186D01*
X4268165Y-1091895D01*
X4267555Y-1095654D01*
X4265625Y-1098905D01*
X4262628Y-1101242D01*
X4251604Y-1106881D01*
X4238802Y-1115517D01*
X4227068Y-1125626D01*
X4216654Y-1137056D01*
X4207611Y-1149604D01*
X4200144Y-1163116D01*
X4194352Y-1177442D01*
X4190288Y-1192377D01*
X4188002Y-1207668D01*
X4187545Y-1223111D01*
X4188917Y-1238504D01*
X4192066Y-1253642D01*
X4197045Y-1268272D01*
X4203700Y-1282242D01*
X4211929Y-1295298D01*
X4221683Y-1307338D01*
X4232757Y-1318107D01*
X4245051Y-1327454D01*
X4258360Y-1335328D01*
X4262018Y-1336903D01*
X4265117Y-1339088D01*
X4267250Y-1342237D01*
X4268063Y-1345946D01*
X4267454Y-1349654D01*
X4265523Y-1352956D01*
X4262526Y-1355242D01*
X4251655Y-1360881D01*
X4238853Y-1369517D01*
X4227118Y-1379575D01*
X4216704Y-1391005D01*
X4207662Y-1403553D01*
X4200194Y-1417066D01*
X4194403Y-1431391D01*
X4190339Y-1446326D01*
X4188053Y-1461617D01*
X4187596Y-1477060D01*
X4188968Y-1492453D01*
X4192117Y-1507591D01*
X4197096Y-1522222D01*
X4203750Y-1536192D01*
X4211980Y-1549247D01*
X4221734Y-1561287D01*
X4232808Y-1572056D01*
X4245102Y-1581404D01*
X4258411Y-1589278D01*
X4262120Y-1590903D01*
X4265218Y-1593037D01*
X4267352Y-1596186D01*
X4268165Y-1599895D01*
X4267555Y-1603654D01*
X4265625Y-1606905D01*
X4262628Y-1609242D01*
X4251604Y-1614881D01*
X4238802Y-1623517D01*
X4227068Y-1633626D01*
X4216654Y-1645056D01*
X4207611Y-1657604D01*
X4200144Y-1671116D01*
X4194352Y-1685442D01*
X4190288Y-1700377D01*
X4188002Y-1715668D01*
X4187545Y-1731111D01*
X4188917Y-1746504D01*
X4192066Y-1761642D01*
X4197045Y-1776272D01*
X4203700Y-1790242D01*
X4211929Y-1803298D01*
X4221683Y-1815338D01*
X4232757Y-1826107D01*
X4245051Y-1835454D01*
X4258360Y-1843328D01*
X4262018Y-1844903D01*
X4265117Y-1847088D01*
X4267250Y-1850237D01*
X4268063Y-1853946D01*
X4267454Y-1857654D01*
X4265523Y-1860956D01*
X4262526Y-1863242D01*
X4251655Y-1868881D01*
X4238853Y-1877517D01*
X4227118Y-1887575D01*
X4216704Y-1899005D01*
X4207662Y-1911553D01*
X4200194Y-1925066D01*
X4194403Y-1939391D01*
X4190339Y-1954326D01*
X4188053Y-1969617D01*
X4187596Y-1985060D01*
X4188968Y-2000453D01*
X4192117Y-2015591D01*
X4197096Y-2030222D01*
X4203750Y-2044192D01*
X4211980Y-2057247D01*
X4221734Y-2069287D01*
X4232808Y-2080056D01*
X4245102Y-2089404D01*
X4258411Y-2097278D01*
X4262120Y-2098903D01*
X4265218Y-2101037D01*
X4267352Y-2104186D01*
X4268165Y-2107895D01*
X4267555Y-2111654D01*
X4265625Y-2114905D01*
X4262628Y-2117242D01*
X4251604Y-2122881D01*
X4238802Y-2131517D01*
X4227068Y-2141626D01*
X4216654Y-2153056D01*
X4207611Y-2165604D01*
X4200144Y-2179116D01*
X4194352Y-2193442D01*
X4190288Y-2208377D01*
X4188002Y-2223668D01*
X4187545Y-2239111D01*
X4188917Y-2254504D01*
X4192066Y-2269642D01*
X4197045Y-2284272D01*
X4203700Y-2298242D01*
X4211929Y-2311298D01*
X4221683Y-2323338D01*
X4232757Y-2334107D01*
X4245051Y-2343454D01*
X4258360Y-2351328D01*
X4262018Y-2352903D01*
X4265117Y-2355088D01*
X4267250Y-2358237D01*
X4268063Y-2361946D01*
X4267454Y-2365654D01*
X4265523Y-2368956D01*
X4262526Y-2371242D01*
X4251655Y-2376881D01*
X4238853Y-2385517D01*
X4227118Y-2395575D01*
X4216704Y-2407005D01*
X4207662Y-2419553D01*
X4200194Y-2433066D01*
X4194403Y-2447391D01*
X4190339Y-2462326D01*
X4188053Y-2477617D01*
X4187596Y-2493060D01*
X4188968Y-2508453D01*
X4192117Y-2523591D01*
X4197096Y-2538222D01*
X4203750Y-2552192D01*
X4211980Y-2565247D01*
X4221734Y-2577287D01*
X4232808Y-2588056D01*
X4245102Y-2597404D01*
X4258411Y-2605278D01*
X4262120Y-2606903D01*
X4265218Y-2609037D01*
X4267352Y-2612186D01*
X4268165Y-2615895D01*
X4267555Y-2619654D01*
X4265625Y-2622905D01*
X4262628Y-2625242D01*
X4251604Y-2630932D01*
X4238802Y-2639568D01*
X4227068Y-2649626D01*
X4216654Y-2661056D01*
X4207611Y-2673604D01*
X4200144Y-2687116D01*
X4194352Y-2701442D01*
X4190288Y-2716377D01*
X4188002Y-2731668D01*
X4187545Y-2747111D01*
X4188917Y-2762504D01*
X4192066Y-2777642D01*
X4197045Y-2792272D01*
X4203700Y-2806242D01*
X4211929Y-2819298D01*
X4221683Y-2831338D01*
X4232757Y-2842107D01*
X4245051Y-2851454D01*
X4258360Y-2859328D01*
X4262018Y-2860903D01*
X4265117Y-2863088D01*
X4267250Y-2866237D01*
X4268063Y-2869946D01*
X4267454Y-2873654D01*
X4265523Y-2876956D01*
X4262526Y-2879242D01*
X4251655Y-2884830D01*
X4238853Y-2893466D01*
X4227118Y-2903575D01*
X4216704Y-2915005D01*
X4207662Y-2927553D01*
X4200194Y-2941066D01*
X4194403Y-2955391D01*
X4190339Y-2970326D01*
X4188053Y-2985617D01*
X4187596Y-3001060D01*
X4188968Y-3016453D01*
X4192117Y-3031591D01*
X4197096Y-3046222D01*
X4203750Y-3060192D01*
X4211980Y-3073247D01*
X4221734Y-3085287D01*
X4232808Y-3096056D01*
X4245102Y-3105404D01*
X4258411Y-3113278D01*
X4262120Y-3114903D01*
X4265218Y-3117037D01*
X4267352Y-3120186D01*
X4268165Y-3123895D01*
X4267555Y-3127654D01*
X4265625Y-3130905D01*
X4262628Y-3133242D01*
X4251604Y-3138881D01*
X4238802Y-3147517D01*
X4227068Y-3157626D01*
X4216654Y-3169056D01*
X4207611Y-3181604D01*
X4200144Y-3195116D01*
X4194352Y-3209442D01*
X4190288Y-3224377D01*
X4188002Y-3239668D01*
X4187545Y-3255111D01*
X4188917Y-3270503D01*
X4192066Y-3285642D01*
X4197045Y-3300272D01*
X4203700Y-3314242D01*
X4211929Y-3327298D01*
X4221683Y-3339337D01*
X4232757Y-3350107D01*
X4245051Y-3359454D01*
X4258360Y-3367328D01*
X4262018Y-3368903D01*
X4265117Y-3371087D01*
X4267250Y-3374237D01*
X4268063Y-3377946D01*
X4267454Y-3381654D01*
X4265523Y-3384956D01*
X4262526Y-3387242D01*
X4251655Y-3392830D01*
X4238853Y-3401466D01*
X4227118Y-3411575D01*
X4216704Y-3423005D01*
X4207662Y-3435553D01*
X4200194Y-3449065D01*
X4196232Y-3458870D01*
X4271670Y-3458870D01*
X4271670Y-3387039D01*
X4272330Y-3383330D01*
X4274362Y-3380130D01*
X4277410Y-3377895D01*
X4281017Y-3376879D01*
X4284776Y-3377285D01*
X4287316Y-3378098D01*
X4302506Y-3380790D01*
X4317949Y-3381705D01*
X4333392Y-3380790D01*
X4348581Y-3378098D01*
X4351223Y-3377285D01*
X4354982Y-3376879D01*
X4358640Y-3377844D01*
X4361637Y-3380079D01*
X4363669Y-3383279D01*
X4364329Y-3386988D01*
X4364329Y-3458870D01*
X4440072Y-3458870D01*
X4439208Y-3457549D01*
X4435805Y-3449065D01*
X4428337Y-3435553D01*
X4419346Y-3423005D01*
X4408881Y-3411575D01*
X4397197Y-3401466D01*
X4384344Y-3392830D01*
X4373422Y-3387242D01*
X4370425Y-3384905D01*
X4368495Y-3381654D01*
X4367885Y-3377895D01*
X4368698Y-3374186D01*
X4370832Y-3371037D01*
X4373981Y-3368903D01*
X4377537Y-3367328D01*
X4390847Y-3359454D01*
X4398314Y-3353765D01*
X4401210Y-3352241D01*
X4404461Y-3351682D01*
X4448657Y-3351682D01*
X4452518Y-3352444D01*
X4455820Y-3354679D01*
X4458055Y-3357981D01*
X4458817Y-3361842D01*
X4458817Y-3453739D01*
X4458004Y-3457651D01*
X4455160Y-3461359D01*
X4458055Y-3465118D01*
X4458817Y-3469030D01*
X4458817Y-3541369D01*
X4458055Y-3545281D01*
X4455820Y-3548583D01*
X4455668Y-3549853D01*
X4458004Y-3553206D01*
X4458817Y-3557168D01*
X4458817Y-3707892D01*
X4458004Y-3711803D01*
X4455820Y-3715105D01*
X4452518Y-3717290D01*
X4448606Y-3718051D01*
X4444695Y-3717290D01*
X4441393Y-3715054D01*
X4439208Y-3711701D01*
X4435754Y-3703116D01*
X4428286Y-3689604D01*
X4419295Y-3677056D01*
X4408830Y-3665626D01*
X4397146Y-3655517D01*
X4384294Y-3646881D01*
X4373321Y-3641242D01*
X4370324Y-3638905D01*
X4368393Y-3635654D01*
X4367784Y-3631895D01*
X4368596Y-3628237D01*
X4370730Y-3625087D01*
X4373880Y-3622903D01*
X4377588Y-3621278D01*
X4390898Y-3613404D01*
X4403191Y-3604056D01*
X4414266Y-3593287D01*
X4424019Y-3581247D01*
X4432249Y-3568192D01*
X4439005Y-3553917D01*
X4440377Y-3551529D01*
X4364329Y-3551529D01*
X4364329Y-3623564D01*
X4363720Y-3627170D01*
X4361789Y-3630269D01*
X4358944Y-3632555D01*
X4355439Y-3633622D01*
X4351782Y-3633419D01*
X4341012Y-3630828D01*
X4325670Y-3628999D01*
X4310227Y-3628999D01*
X4294886Y-3630828D01*
X4284218Y-3633419D01*
X4280560Y-3633622D01*
X4277055Y-3632504D01*
X4274210Y-3630269D01*
X4272330Y-3627120D01*
X4271670Y-3623513D01*
X4271670Y-3551529D01*
X4196181Y-3551529D01*
X4197096Y-3554222D01*
X4203750Y-3568192D01*
X4211980Y-3581247D01*
X4221734Y-3593287D01*
X4232808Y-3604056D01*
X4245102Y-3613404D01*
X4258411Y-3621278D01*
X4262120Y-3622903D01*
X4265218Y-3625037D01*
X4267352Y-3628186D01*
X4268165Y-3631895D01*
X4267555Y-3635654D01*
X4265625Y-3638905D01*
X4262628Y-3641242D01*
X4251604Y-3646881D01*
X4238802Y-3655517D01*
X4227068Y-3665626D01*
X4216654Y-3677056D01*
X4207611Y-3689604D01*
X4200144Y-3703116D01*
X4194352Y-3717442D01*
X4190288Y-3732377D01*
X4188002Y-3747668D01*
X4187545Y-3763111D01*
X4188917Y-3778504D01*
X4192066Y-3793642D01*
X4197045Y-3808272D01*
X4203700Y-3822242D01*
X4211929Y-3835298D01*
X4221683Y-3847337D01*
X4232757Y-3858107D01*
X4245051Y-3867454D01*
X4258360Y-3875328D01*
X4262018Y-3876903D01*
X4265117Y-3879087D01*
X4267250Y-3882237D01*
X4268063Y-3885946D01*
X4267454Y-3889654D01*
X4265523Y-3892956D01*
X4262526Y-3895242D01*
X4251655Y-3900830D01*
X4238853Y-3909466D01*
X4227118Y-3919575D01*
X4216704Y-3931005D01*
X4207662Y-3943553D01*
X4200194Y-3957065D01*
X4194403Y-3971391D01*
X4190339Y-3986326D01*
X4188053Y-4001617D01*
X4187596Y-4017060D01*
X4188968Y-4032453D01*
X4192117Y-4047591D01*
X4197096Y-4062222D01*
X4203750Y-4076192D01*
X4211980Y-4089247D01*
X4221734Y-4101287D01*
X4232808Y-4112056D01*
X4241546Y-4118711D01*
X4244187Y-4121759D01*
X4245457Y-4125569D01*
X4245152Y-4129582D01*
X4243273Y-4133189D01*
X4240123Y-4135729D01*
X4236262Y-4136898D01*
X4229252Y-4137507D01*
X4220718Y-4139793D01*
X4212793Y-4143501D01*
X4205579Y-4148531D01*
X4199331Y-4154779D01*
X4194301Y-4161993D01*
X4190593Y-4169918D01*
X4188307Y-4178452D01*
X4187494Y-4187647D01*
X4187494Y-4346752D01*
X4188307Y-4355947D01*
X4190593Y-4364482D01*
X4194301Y-4372406D01*
X4199331Y-4379620D01*
X4205579Y-4385868D01*
X4212793Y-4390898D01*
X4220718Y-4394606D01*
X4229252Y-4396892D01*
X4238447Y-4397705D01*
X4397552Y-4397705D01*
X4406747Y-4396892D01*
X4415282Y-4394606D01*
X4423206Y-4390898D01*
X4430420Y-4385868D01*
X4436668Y-4379620D01*
X4440326Y-4374388D01*
X4443425Y-4371492D01*
X4447489Y-4370120D01*
X4451705Y-4370527D01*
X4455414Y-4372610D01*
X4457903Y-4376064D01*
X4458817Y-4380230D01*
X4458817Y-4677257D01*
X4458055Y-4681118D01*
X4455820Y-4684420D01*
X4452518Y-4686655D01*
X4448657Y-4687417D01*
X2256942Y-4687417D01*
X2253081Y-4686655D01*
X2249779Y-4684420D01*
X2247544Y-4681118D01*
X2246782Y-4677257D01*
X2246782Y-2984855D01*
X2245918Y-2971393D01*
X2243328Y-2958490D01*
X2239111Y-2946044D01*
X2233320Y-2934258D01*
X2226005Y-2923336D01*
X2217115Y-2913227D01*
X1938020Y-2634081D01*
X1935784Y-2630678D01*
X1935022Y-2626614D01*
X1935124Y-2624785D01*
X1933702Y-2608326D01*
X1930400Y-2592171D01*
X1925675Y-2577592D01*
X1925218Y-2573832D01*
X1926132Y-2570124D01*
X1928368Y-2567025D01*
X1931619Y-2564993D01*
X1935327Y-2564282D01*
X2202078Y-2564282D01*
X2205939Y-2565044D01*
X2209241Y-2567279D01*
X2405227Y-2763215D01*
X2415336Y-2772105D01*
X2426258Y-2779420D01*
X2438044Y-2785211D01*
X2450490Y-2789428D01*
X2463393Y-2792018D01*
X2476500Y-2792882D01*
X2489606Y-2792018D01*
X2502509Y-2789428D01*
X2514955Y-2785211D01*
X2526741Y-2779420D01*
X2537663Y-2772105D01*
X2547569Y-2763469D01*
X2556205Y-2753563D01*
X2563520Y-2742641D01*
X2569311Y-2730855D01*
X2573528Y-2718409D01*
X2576118Y-2705506D01*
X2576982Y-2692044D01*
X2576982Y-1558442D01*
X2577744Y-1554581D01*
X2579979Y-1551279D01*
X2583281Y-1549044D01*
X2587142Y-1548282D01*
X2682341Y-1548282D01*
X2686710Y-1549298D01*
X2690266Y-1552041D01*
X2697683Y-1561236D01*
X2708757Y-1572006D01*
X2721051Y-1581353D01*
X2734360Y-1589227D01*
X2738120Y-1590852D01*
X2741218Y-1593037D01*
X2743352Y-1596186D01*
X2744165Y-1599844D01*
X2743555Y-1603603D01*
X2741625Y-1606854D01*
X2738628Y-1609191D01*
X2727655Y-1614830D01*
X2714853Y-1623466D01*
X2703118Y-1633575D01*
X2692704Y-1645005D01*
X2683662Y-1657553D01*
X2676194Y-1671066D01*
X2670403Y-1685391D01*
X2666339Y-1700326D01*
X2664053Y-1715617D01*
X2663596Y-1731060D01*
X2664968Y-1746453D01*
X2668117Y-1761591D01*
X2673096Y-1776222D01*
X2679750Y-1790192D01*
X2687980Y-1803247D01*
X2697734Y-1815287D01*
X2708808Y-1826056D01*
X2721102Y-1835404D01*
X2734411Y-1843278D01*
X2738018Y-1844852D01*
X2741117Y-1846986D01*
X2743250Y-1850136D01*
X2744063Y-1853844D01*
X2743454Y-1857603D01*
X2741523Y-1860854D01*
X2738526Y-1863191D01*
X2727604Y-1868779D01*
X2714802Y-1877415D01*
X2703068Y-1887524D01*
X2692654Y-1898954D01*
X2683611Y-1911502D01*
X2676144Y-1925015D01*
X2670352Y-1939340D01*
X2666288Y-1954275D01*
X2664002Y-1969566D01*
X2663545Y-1985010D01*
X2664917Y-2000402D01*
X2668066Y-2015540D01*
X2673045Y-2030171D01*
X2679700Y-2044141D01*
X2687929Y-2057196D01*
X2697683Y-2069236D01*
X2708757Y-2080006D01*
X2721051Y-2089353D01*
X2734360Y-2097227D01*
X2738120Y-2098852D01*
X2741218Y-2101037D01*
X2743352Y-2104186D01*
X2744165Y-2107844D01*
X2743555Y-2111603D01*
X2741625Y-2114854D01*
X2738628Y-2117191D01*
X2727655Y-2122830D01*
X2714853Y-2131466D01*
X2703118Y-2141575D01*
X2692704Y-2153005D01*
X2683662Y-2165553D01*
X2676194Y-2179066D01*
X2670403Y-2193391D01*
X2666339Y-2208326D01*
X2664053Y-2223617D01*
X2663596Y-2239060D01*
X2664968Y-2254453D01*
X2668117Y-2269591D01*
X2673096Y-2284222D01*
X2679750Y-2298192D01*
X2687980Y-2311247D01*
X2697734Y-2323287D01*
X2708808Y-2334056D01*
X2721102Y-2343404D01*
X2734411Y-2351278D01*
X2738018Y-2352852D01*
X2741117Y-2354986D01*
X2743250Y-2358136D01*
X2744063Y-2361844D01*
X2743454Y-2365603D01*
X2741523Y-2368854D01*
X2738526Y-2371191D01*
X2727604Y-2376779D01*
X2714802Y-2385415D01*
X2703068Y-2395524D01*
X2692654Y-2406954D01*
X2683611Y-2419502D01*
X2676144Y-2433015D01*
X2670352Y-2447340D01*
X2666288Y-2462276D01*
X2664002Y-2477566D01*
X2663545Y-2493010D01*
X2664917Y-2508402D01*
X2668066Y-2523540D01*
X2673045Y-2538171D01*
X2679700Y-2552141D01*
X2687929Y-2565196D01*
X2697683Y-2577236D01*
X2708757Y-2588006D01*
X2721051Y-2597353D01*
X2734360Y-2605227D01*
X2738120Y-2606852D01*
X2741218Y-2609037D01*
X2743352Y-2612186D01*
X2744165Y-2615844D01*
X2743555Y-2619603D01*
X2741625Y-2622854D01*
X2738628Y-2625191D01*
X2727655Y-2630830D01*
X2714853Y-2639466D01*
X2703118Y-2649575D01*
X2692704Y-2661005D01*
X2683662Y-2673553D01*
X2676194Y-2687066D01*
X2670403Y-2701391D01*
X2666339Y-2716326D01*
X2664053Y-2731617D01*
X2663596Y-2747060D01*
X2664968Y-2762453D01*
X2668117Y-2777591D01*
X2673096Y-2792222D01*
X2679750Y-2806192D01*
X2687980Y-2819247D01*
X2697734Y-2831287D01*
X2708808Y-2842056D01*
X2721102Y-2851404D01*
X2734411Y-2859278D01*
X2738018Y-2860852D01*
X2741117Y-2862986D01*
X2743250Y-2866136D01*
X2744063Y-2869844D01*
X2743454Y-2873603D01*
X2741523Y-2876854D01*
X2738526Y-2879191D01*
X2727604Y-2884779D01*
X2714802Y-2893415D01*
X2703068Y-2903524D01*
X2692654Y-2914954D01*
X2683611Y-2927502D01*
X2676144Y-2941015D01*
X2670352Y-2955340D01*
X2666288Y-2970276D01*
X2664002Y-2985566D01*
X2663545Y-3001010D01*
X2664917Y-3016402D01*
X2668066Y-3031540D01*
X2673045Y-3046171D01*
X2679700Y-3060141D01*
X2687929Y-3073196D01*
X2697683Y-3085236D01*
X2708757Y-3096006D01*
X2721051Y-3105353D01*
X2734360Y-3113227D01*
X2738120Y-3114852D01*
X2741218Y-3117037D01*
X2743352Y-3120186D01*
X2744165Y-3123844D01*
X2743555Y-3127603D01*
X2741625Y-3130854D01*
X2738628Y-3133191D01*
X2727655Y-3138830D01*
X2714853Y-3147466D01*
X2703118Y-3157575D01*
X2692704Y-3169005D01*
X2683662Y-3181553D01*
X2676194Y-3195066D01*
X2670403Y-3209391D01*
X2666339Y-3224326D01*
X2664053Y-3239617D01*
X2663596Y-3255060D01*
X2664968Y-3270453D01*
X2668117Y-3285591D01*
X2673096Y-3300222D01*
X2679750Y-3314192D01*
X2687980Y-3327247D01*
X2697734Y-3339287D01*
X2708808Y-3350056D01*
X2721102Y-3359404D01*
X2734411Y-3367278D01*
X2738018Y-3368852D01*
X2741117Y-3370986D01*
X2743250Y-3374136D01*
X2744063Y-3377844D01*
X2743454Y-3381603D01*
X2741523Y-3384854D01*
X2738526Y-3387191D01*
X2727604Y-3392779D01*
X2714802Y-3401415D01*
X2703068Y-3411524D01*
X2692654Y-3422954D01*
X2683611Y-3435502D01*
X2676144Y-3449015D01*
X2670352Y-3463340D01*
X2666288Y-3478276D01*
X2664002Y-3493566D01*
X2663545Y-3509010D01*
X2664917Y-3524402D01*
X2668066Y-3539540D01*
X2673045Y-3554171D01*
X2679700Y-3568141D01*
X2687929Y-3581196D01*
X2697683Y-3593236D01*
X2708757Y-3604006D01*
X2721051Y-3613353D01*
X2734360Y-3621227D01*
X2738120Y-3622852D01*
X2741218Y-3625037D01*
X2743352Y-3628136D01*
X2744165Y-3631844D01*
X2743555Y-3635603D01*
X2741625Y-3638854D01*
X2738628Y-3641191D01*
X2727655Y-3646830D01*
X2714853Y-3655466D01*
X2703118Y-3665575D01*
X2692704Y-3677005D01*
X2683662Y-3689553D01*
X2676194Y-3703065D01*
X2670403Y-3717391D01*
X2666339Y-3732326D01*
X2664053Y-3747617D01*
X2663596Y-3763060D01*
X2664968Y-3778453D01*
X2668117Y-3793591D01*
X2673096Y-3808222D01*
X2679750Y-3822192D01*
X2687980Y-3835247D01*
X2697734Y-3847287D01*
X2708808Y-3858006D01*
X2721102Y-3867404D01*
X2734411Y-3875278D01*
X2738069Y-3876903D01*
X2741218Y-3879037D01*
X2743301Y-3882186D01*
X2744165Y-3885895D01*
X2743555Y-3889603D01*
X2741625Y-3892905D01*
X2738628Y-3895242D01*
X2727655Y-3900830D01*
X2714802Y-3909466D01*
X2703118Y-3919575D01*
X2692704Y-3931005D01*
X2683662Y-3943553D01*
X2676194Y-3957065D01*
X2672232Y-3966870D01*
X2747670Y-3966870D01*
X2747670Y-3894937D01*
X2748330Y-3891229D01*
X2750362Y-3888028D01*
X2753410Y-3885793D01*
X2757017Y-3884828D01*
X2760776Y-3885234D01*
X2763367Y-3885996D01*
X2778556Y-3888740D01*
X2794000Y-3889654D01*
X2809443Y-3888740D01*
X2824632Y-3885996D01*
X2827223Y-3885234D01*
X2830982Y-3884828D01*
X2834589Y-3885793D01*
X2837637Y-3888028D01*
X2839669Y-3891229D01*
X2840329Y-3894937D01*
X2840329Y-3966870D01*
X2915767Y-3966870D01*
X2911805Y-3957065D01*
X2904337Y-3943553D01*
X2895295Y-3931005D01*
X2884881Y-3919575D01*
X2873197Y-3909466D01*
X2860344Y-3900830D01*
X2849372Y-3895242D01*
X2846374Y-3892905D01*
X2844444Y-3889603D01*
X2843885Y-3885895D01*
X2844698Y-3882186D01*
X2846781Y-3879037D01*
X2849930Y-3876903D01*
X2853588Y-3875278D01*
X2866898Y-3867404D01*
X2879191Y-3858006D01*
X2890266Y-3847287D01*
X2900019Y-3835247D01*
X2908249Y-3822192D01*
X2914904Y-3808222D01*
X2919882Y-3793591D01*
X2923032Y-3778453D01*
X2924403Y-3763060D01*
X2923946Y-3747617D01*
X2921660Y-3732326D01*
X2917596Y-3717391D01*
X2911805Y-3703065D01*
X2904337Y-3689553D01*
X2895346Y-3677005D01*
X2884881Y-3665575D01*
X2873197Y-3655466D01*
X2860344Y-3646830D01*
X2849321Y-3641191D01*
X2846324Y-3638854D01*
X2844393Y-3635603D01*
X2843784Y-3631844D01*
X2844596Y-3628136D01*
X2846730Y-3624986D01*
X2849880Y-3622852D01*
X2853537Y-3621227D01*
X2866847Y-3613353D01*
X2879140Y-3604006D01*
X2890215Y-3593236D01*
X2899968Y-3581196D01*
X2908198Y-3568141D01*
X2914853Y-3554171D01*
X2919831Y-3539540D01*
X2922981Y-3524402D01*
X2924352Y-3509010D01*
X2923895Y-3493566D01*
X2921609Y-3478276D01*
X2917545Y-3463340D01*
X2911754Y-3449015D01*
X2904286Y-3435502D01*
X2895295Y-3422954D01*
X2884830Y-3411524D01*
X2873146Y-3401415D01*
X2860294Y-3392779D01*
X2849422Y-3387191D01*
X2846425Y-3384854D01*
X2844495Y-3381603D01*
X2843885Y-3377844D01*
X2844698Y-3374186D01*
X2846832Y-3371037D01*
X2849981Y-3368852D01*
X2853588Y-3367278D01*
X2866898Y-3359404D01*
X2879191Y-3350056D01*
X2890266Y-3339287D01*
X2900019Y-3327247D01*
X2908249Y-3314192D01*
X2914904Y-3300222D01*
X2919882Y-3285591D01*
X2923032Y-3270453D01*
X2924403Y-3255060D01*
X2923946Y-3239617D01*
X2921660Y-3224326D01*
X2917596Y-3209391D01*
X2911805Y-3195066D01*
X2904337Y-3181553D01*
X2895346Y-3169005D01*
X2884881Y-3157575D01*
X2873197Y-3147466D01*
X2860344Y-3138830D01*
X2849321Y-3133191D01*
X2846324Y-3130854D01*
X2844393Y-3127603D01*
X2843784Y-3123844D01*
X2844596Y-3120136D01*
X2846730Y-3116986D01*
X2849880Y-3114852D01*
X2853537Y-3113227D01*
X2866847Y-3105353D01*
X2879140Y-3096006D01*
X2890215Y-3085236D01*
X2899968Y-3073196D01*
X2908198Y-3060141D01*
X2914853Y-3046171D01*
X2919831Y-3031540D01*
X2922981Y-3016402D01*
X2924352Y-3001010D01*
X2923895Y-2985566D01*
X2921609Y-2970276D01*
X2917545Y-2955340D01*
X2911754Y-2941015D01*
X2904286Y-2927502D01*
X2895295Y-2914954D01*
X2884830Y-2903524D01*
X2873146Y-2893415D01*
X2860294Y-2884779D01*
X2849422Y-2879191D01*
X2846425Y-2876854D01*
X2844495Y-2873603D01*
X2843885Y-2869844D01*
X2844698Y-2866186D01*
X2846832Y-2863037D01*
X2849981Y-2860852D01*
X2853588Y-2859278D01*
X2866898Y-2851404D01*
X2879191Y-2842056D01*
X2890266Y-2831287D01*
X2900019Y-2819247D01*
X2908249Y-2806192D01*
X2914904Y-2792222D01*
X2919882Y-2777591D01*
X2923032Y-2762453D01*
X2924403Y-2747060D01*
X2923946Y-2731617D01*
X2921660Y-2716326D01*
X2917596Y-2701391D01*
X2911805Y-2687066D01*
X2904337Y-2673553D01*
X2895346Y-2661005D01*
X2884881Y-2649575D01*
X2873197Y-2639466D01*
X2860344Y-2630830D01*
X2849321Y-2625191D01*
X2846324Y-2622854D01*
X2844393Y-2619603D01*
X2843784Y-2615844D01*
X2844596Y-2612136D01*
X2846730Y-2608986D01*
X2849880Y-2606852D01*
X2853537Y-2605227D01*
X2866847Y-2597353D01*
X2879140Y-2588006D01*
X2890215Y-2577236D01*
X2899968Y-2565196D01*
X2908198Y-2552141D01*
X2914853Y-2538171D01*
X2919831Y-2523540D01*
X2922981Y-2508402D01*
X2923286Y-2505405D01*
X2924200Y-2502001D01*
X2926181Y-2499106D01*
X3588715Y-1836572D01*
X3597605Y-1826463D01*
X3604920Y-1815541D01*
X3610711Y-1803755D01*
X3614928Y-1791309D01*
X3617518Y-1778406D01*
X3618382Y-1764944D01*
X3618382Y-428142D01*
X3619144Y-424281D01*
X3621379Y-420979D01*
X3624681Y-418744D01*
X3628542Y-417982D01*
X4437278Y-417982D01*
X4441139Y-418744D01*
X4444441Y-420979D01*
X4697120Y-673658D01*
X4699355Y-676960D01*
X4700117Y-680821D01*
X4700117Y-2742844D01*
X4700981Y-2756306D01*
X4703572Y-2769209D01*
X4707788Y-2781655D01*
X4713579Y-2793441D01*
X4720894Y-2804363D01*
X4729784Y-2814472D01*
X4742027Y-2826715D01*
X4752136Y-2835605D01*
X4763058Y-2842920D01*
X4774844Y-2848711D01*
X4787290Y-2852928D01*
X4800193Y-2855518D01*
X4813655Y-2856382D01*
X5783478Y-2856382D01*
X5787339Y-2857144D01*
X5790641Y-2859379D01*
X5801004Y-2869742D01*
X5803239Y-2873044D01*
X5804001Y-2876905D01*
X5804001Y-3129026D01*
X5803442Y-3132328D01*
X5801817Y-3135274D01*
X5800242Y-3137306D01*
X5792317Y-3150412D01*
X5786729Y-3162808D01*
X5784545Y-3165957D01*
X5781294Y-3168040D01*
X5777484Y-3168802D01*
X5773674Y-3168040D01*
X5770422Y-3165957D01*
X5768238Y-3162808D01*
X5762650Y-3150412D01*
X5754725Y-3137306D01*
X5745327Y-3125266D01*
X5734507Y-3114446D01*
X5722467Y-3105048D01*
X5709361Y-3097123D01*
X5695391Y-3090824D01*
X5680811Y-3086303D01*
X5665774Y-3083560D01*
X5650484Y-3082594D01*
X5635193Y-3083560D01*
X5620156Y-3086303D01*
X5605576Y-3090824D01*
X5591606Y-3097123D01*
X5578500Y-3105048D01*
X5566460Y-3114446D01*
X5555640Y-3125266D01*
X5546242Y-3137306D01*
X5538317Y-3150412D01*
X5532729Y-3162808D01*
X5530545Y-3165957D01*
X5527294Y-3168040D01*
X5523484Y-3168802D01*
X5519674Y-3168040D01*
X5516422Y-3165957D01*
X5514238Y-3162808D01*
X5508650Y-3150412D01*
X5500725Y-3137306D01*
X5491327Y-3125266D01*
X5480507Y-3114446D01*
X5468467Y-3105048D01*
X5455361Y-3097123D01*
X5441391Y-3090824D01*
X5426811Y-3086303D01*
X5411774Y-3083560D01*
X5396484Y-3082594D01*
X5381193Y-3083560D01*
X5366156Y-3086303D01*
X5351576Y-3090824D01*
X5337606Y-3097123D01*
X5324500Y-3105048D01*
X5312460Y-3114446D01*
X5301640Y-3125266D01*
X5292242Y-3137306D01*
X5284317Y-3150412D01*
X5278729Y-3162808D01*
X5276545Y-3165957D01*
X5273294Y-3168040D01*
X5269484Y-3168802D01*
X5265674Y-3168040D01*
X5262422Y-3165957D01*
X5260238Y-3162808D01*
X5254650Y-3150412D01*
X5246725Y-3137306D01*
X5237327Y-3125266D01*
X5226507Y-3114446D01*
X5214467Y-3105048D01*
X5201361Y-3097123D01*
X5187391Y-3090824D01*
X5172811Y-3086303D01*
X5157774Y-3083560D01*
X5142484Y-3082594D01*
X5127193Y-3083560D01*
X5112156Y-3086303D01*
X5097576Y-3090824D01*
X5083606Y-3097123D01*
X5070500Y-3105048D01*
X5058460Y-3114446D01*
X5047640Y-3125266D01*
X5038242Y-3137306D01*
X5030317Y-3150412D01*
X5024729Y-3162808D01*
X5022545Y-3165957D01*
X5019294Y-3168040D01*
X5017617Y-3168396D01*
X5019243Y-3170631D01*
X5020208Y-3174288D01*
X5016754Y-3193999D01*
X5015788Y-3209290D01*
X5016754Y-3224580D01*
X5020208Y-3244291D01*
X5019243Y-3247948D01*
X5017617Y-3250184D01*
X5019294Y-3250539D01*
X5022545Y-3252622D01*
X5024729Y-3255772D01*
X5030317Y-3268167D01*
X5038242Y-3281273D01*
X5047640Y-3293313D01*
X5058460Y-3304133D01*
X5070500Y-3313531D01*
X5083606Y-3321456D01*
X5097576Y-3327755D01*
X5112156Y-3332276D01*
X5127193Y-3335020D01*
X5142484Y-3335985D01*
X5157774Y-3335020D01*
X5172811Y-3332276D01*
X5187391Y-3327755D01*
X5201361Y-3321456D01*
X5214467Y-3313531D01*
X5226507Y-3304133D01*
X5237327Y-3293313D01*
X5246725Y-3281273D01*
X5254650Y-3268167D01*
X5260238Y-3255772D01*
X5262422Y-3252622D01*
X5265674Y-3250539D01*
X5269484Y-3249777D01*
X5273294Y-3250539D01*
X5276545Y-3252622D01*
X5278729Y-3255772D01*
X5284317Y-3268167D01*
X5292242Y-3281273D01*
X5301640Y-3293313D01*
X5312460Y-3304133D01*
X5324500Y-3313531D01*
X5337606Y-3321456D01*
X5351576Y-3327755D01*
X5366156Y-3332276D01*
X5381193Y-3335020D01*
X5396484Y-3335985D01*
X5411774Y-3335020D01*
X5426811Y-3332276D01*
X5441391Y-3327755D01*
X5455361Y-3321456D01*
X5468467Y-3313531D01*
X5480507Y-3304133D01*
X5491327Y-3293313D01*
X5500725Y-3281273D01*
X5508650Y-3268167D01*
X5514238Y-3255772D01*
X5516422Y-3252622D01*
X5519674Y-3250539D01*
X5523484Y-3249777D01*
X5527294Y-3250539D01*
X5530545Y-3252622D01*
X5532729Y-3255772D01*
X5538317Y-3268167D01*
X5546242Y-3281273D01*
X5555640Y-3293313D01*
X5566460Y-3304133D01*
X5578500Y-3313531D01*
X5591606Y-3321456D01*
X5605576Y-3327755D01*
X5620156Y-3332276D01*
X5635193Y-3335020D01*
X5650484Y-3335985D01*
X5665774Y-3335020D01*
X5680811Y-3332276D01*
X5695391Y-3327755D01*
X5709361Y-3321456D01*
X5722467Y-3313531D01*
X5734507Y-3304133D01*
X5745327Y-3293313D01*
X5754725Y-3281273D01*
X5762650Y-3268167D01*
X5768238Y-3255772D01*
X5770422Y-3252622D01*
X5773674Y-3250539D01*
X5777484Y-3249777D01*
X5781294Y-3250539D01*
X5784545Y-3252622D01*
X5786729Y-3255772D01*
X5792317Y-3268167D01*
X5800242Y-3281273D01*
X5801817Y-3283305D01*
X5803442Y-3286251D01*
X5804001Y-3289554D01*
X5804001Y-4108094D01*
X5803239Y-4111955D01*
X5801004Y-4115257D01*
X5796584Y-4119727D01*
X5787694Y-4129836D01*
X5780379Y-4140758D01*
X5774588Y-4152544D01*
X5770372Y-4164990D01*
X5767781Y-4177893D01*
X5766917Y-4191000D01*
X5767781Y-4204106D01*
X5770372Y-4217009D01*
X5774588Y-4229455D01*
X5780379Y-4241241D01*
X5787694Y-4252163D01*
X5796330Y-4262069D01*
X5806236Y-4270705D01*
X5817158Y-4278020D01*
X5828944Y-4283811D01*
X5841390Y-4288028D01*
X5854293Y-4290618D01*
X5867755Y-4291482D01*
X7060844Y-4291482D01*
X7074306Y-4290618D01*
X7087209Y-4288028D01*
X7099655Y-4283811D01*
X7111441Y-4278020D01*
X7122363Y-4270705D01*
X7132472Y-4261815D01*
X7170115Y-4224172D01*
X7179005Y-4214063D01*
X7186320Y-4203141D01*
X7192111Y-4191355D01*
X7196328Y-4178909D01*
X7198918Y-4166006D01*
X7199782Y-4152544D01*
X7199782Y-3492855D01*
X7198918Y-3479393D01*
X7196328Y-3466490D01*
X7192111Y-3454044D01*
X7186320Y-3442258D01*
X7179005Y-3431336D01*
X7170115Y-3421227D01*
X6948779Y-3199841D01*
X6946544Y-3196539D01*
X6945782Y-3192678D01*
X6945782Y-3089198D01*
X6946595Y-3085185D01*
X6948982Y-3081832D01*
X6952437Y-3079648D01*
X6956501Y-3079038D01*
X6960463Y-3080105D01*
X6963664Y-3082594D01*
X6965645Y-3086201D01*
X6967778Y-3092907D01*
X6974027Y-3106877D01*
X6981952Y-3119983D01*
X6991400Y-3132023D01*
X7002221Y-3142843D01*
X7014260Y-3152241D01*
X7027316Y-3160166D01*
X7041286Y-3166465D01*
X7055866Y-3170986D01*
X7070953Y-3173730D01*
X7086193Y-3174695D01*
X7101484Y-3173730D01*
X7116521Y-3170986D01*
X7131100Y-3166465D01*
X7145070Y-3160166D01*
X7158177Y-3152241D01*
X7170216Y-3142843D01*
X7181037Y-3132023D01*
X7190435Y-3119983D01*
X7198359Y-3106877D01*
X7201916Y-3098952D01*
X7204151Y-3095802D01*
X7207402Y-3093669D01*
X7211212Y-3092958D01*
X7214971Y-3093669D01*
X7218222Y-3095802D01*
X7220458Y-3098952D01*
X7224014Y-3106877D01*
X7231938Y-3119983D01*
X7241387Y-3132023D01*
X7252208Y-3142843D01*
X7264247Y-3152241D01*
X7277353Y-3160166D01*
X7291273Y-3166465D01*
X7305903Y-3170986D01*
X7320940Y-3173730D01*
X7336180Y-3174695D01*
X7351471Y-3173730D01*
X7366508Y-3170986D01*
X7381138Y-3166465D01*
X7395057Y-3160166D01*
X7408164Y-3152241D01*
X7420203Y-3142843D01*
X7431024Y-3132023D01*
X7440472Y-3119983D01*
X7448346Y-3106877D01*
X7451953Y-3098952D01*
X7454138Y-3095802D01*
X7457389Y-3093669D01*
X7461199Y-3092958D01*
X7465009Y-3093669D01*
X7468260Y-3095802D01*
X7470444Y-3098952D01*
X7474051Y-3106877D01*
X7481925Y-3119983D01*
X7491374Y-3132023D01*
X7502194Y-3142843D01*
X7514234Y-3152241D01*
X7527340Y-3160166D01*
X7541259Y-3166465D01*
X7555890Y-3170986D01*
X7570927Y-3173730D01*
X7586218Y-3174695D01*
X7601458Y-3173730D01*
X7616494Y-3170986D01*
X7631125Y-3166465D01*
X7645095Y-3160166D01*
X7658150Y-3152241D01*
X7670190Y-3142843D01*
X7681010Y-3132023D01*
X7690459Y-3119983D01*
X7698384Y-3106877D01*
X7704632Y-3092907D01*
X7709204Y-3078327D01*
X7711948Y-3063290D01*
X7712862Y-3048000D01*
X7711948Y-3032709D01*
X7709204Y-3017672D01*
X7704632Y-3003092D01*
X7698384Y-2989122D01*
X7690459Y-2976016D01*
X7681010Y-2963976D01*
X7670190Y-2953156D01*
X7658150Y-2943758D01*
X7645095Y-2935833D01*
X7631125Y-2929534D01*
X7616494Y-2925013D01*
X7601458Y-2922270D01*
X7586218Y-2921304D01*
X7570927Y-2922270D01*
X7555890Y-2925013D01*
X7541259Y-2929534D01*
X7527340Y-2935833D01*
X7514234Y-2943758D01*
X7502194Y-2953156D01*
X7491374Y-2963976D01*
X7481925Y-2976016D01*
X7474051Y-2989122D01*
X7470444Y-2997047D01*
X7468260Y-3000197D01*
X7465009Y-3002330D01*
X7461199Y-3003042D01*
X7457389Y-3002330D01*
X7454138Y-3000197D01*
X7451953Y-2997047D01*
X7448346Y-2989122D01*
X7440472Y-2976016D01*
X7431024Y-2963976D01*
X7420203Y-2953156D01*
X7408164Y-2943758D01*
X7395057Y-2935833D01*
X7381138Y-2929534D01*
X7366508Y-2925013D01*
X7351471Y-2922270D01*
X7336180Y-2921304D01*
X7320940Y-2922270D01*
X7305903Y-2925013D01*
X7291273Y-2929534D01*
X7277353Y-2935833D01*
X7264247Y-2943758D01*
X7252208Y-2953156D01*
X7241387Y-2963976D01*
X7231938Y-2976016D01*
X7224014Y-2989122D01*
X7220458Y-2997047D01*
X7218222Y-3000197D01*
X7214971Y-3002330D01*
X7211212Y-3003042D01*
X7207402Y-3002330D01*
X7204151Y-3000197D01*
X7201916Y-2997047D01*
X7198359Y-2989122D01*
X7190435Y-2976016D01*
X7181037Y-2963976D01*
X7170216Y-2953156D01*
X7158177Y-2943758D01*
X7145070Y-2935833D01*
X7131100Y-2929534D01*
X7116521Y-2925013D01*
X7101484Y-2922270D01*
X7086193Y-2921304D01*
X7070953Y-2922270D01*
X7055866Y-2925013D01*
X7041286Y-2929534D01*
X7027316Y-2935833D01*
X7014260Y-2943758D01*
X7002221Y-2953156D01*
X6991400Y-2963976D01*
X6981952Y-2976016D01*
X6974027Y-2989122D01*
X6967778Y-3003092D01*
X6965645Y-3009798D01*
X6963664Y-3013405D01*
X6960463Y-3015894D01*
X6956501Y-3016961D01*
X6952437Y-3016351D01*
X6948982Y-3014167D01*
X6946595Y-3010814D01*
X6945782Y-3006801D01*
X6945782Y-2375255D01*
X6944918Y-2361793D01*
X6942328Y-2348890D01*
X6938111Y-2336444D01*
X6932320Y-2324658D01*
X6925005Y-2313736D01*
X6916115Y-2303627D01*
X6814972Y-2202484D01*
X6804863Y-2193594D01*
X6793941Y-2186279D01*
X6782155Y-2180488D01*
X6769709Y-2176272D01*
X6756806Y-2173681D01*
X6743344Y-2172817D01*
X6447942Y-2172817D01*
X6444081Y-2172055D01*
X6440779Y-2169820D01*
X6438544Y-2166518D01*
X6437782Y-2162657D01*
X6437782Y-729335D01*
X6438544Y-725474D01*
X6440779Y-722172D01*
X6548881Y-614019D01*
X6551371Y-612241D01*
X6554266Y-611225D01*
X6564833Y-609295D01*
X6579412Y-604723D01*
X6593382Y-598474D01*
X6606438Y-590550D01*
X6618478Y-581101D01*
X6629298Y-570280D01*
X6638747Y-558241D01*
X6646672Y-545185D01*
X6652920Y-531215D01*
X6657492Y-516635D01*
X6660235Y-501548D01*
X6661200Y-486308D01*
X6660235Y-471017D01*
X6657492Y-455980D01*
X6652920Y-441401D01*
X6646672Y-427431D01*
X6638747Y-414324D01*
X6629298Y-402285D01*
X6618478Y-391464D01*
X6606438Y-382066D01*
X6593382Y-374142D01*
X6579412Y-367842D01*
X6564833Y-363321D01*
X6549745Y-360527D01*
X6534505Y-359613D01*
X6519214Y-360527D01*
X6504178Y-363321D01*
X6489598Y-367842D01*
X6475628Y-374142D01*
X6462522Y-382066D01*
X6450482Y-391464D01*
X6439662Y-402285D01*
X6430264Y-414324D01*
X6422339Y-427431D01*
X6416751Y-439826D01*
X6414516Y-442976D01*
X6411315Y-445058D01*
X6407505Y-445770D01*
X6403695Y-445058D01*
X6400444Y-442976D01*
X6398260Y-439826D01*
X6392672Y-427431D01*
X6384747Y-414324D01*
X6375298Y-402285D01*
X6364478Y-391464D01*
X6352438Y-382066D01*
X6339382Y-374142D01*
X6325412Y-367842D01*
X6310833Y-363321D01*
X6295745Y-360527D01*
X6280505Y-359613D01*
X6265214Y-360527D01*
X6250178Y-363321D01*
X6235598Y-367842D01*
X6221628Y-374142D01*
X6208522Y-382066D01*
X6196482Y-391464D01*
X6185662Y-402285D01*
X6176264Y-414324D01*
X6168339Y-427431D01*
X6162751Y-439826D01*
X6160516Y-442976D01*
X6157315Y-445058D01*
X6155639Y-445363D01*
X6157264Y-447598D01*
X6158230Y-451256D01*
X6155537Y-466598D01*
X6154572Y-469493D01*
X6152743Y-471932D01*
X6096914Y-527761D01*
X6093612Y-529996D01*
X6089751Y-530758D01*
X6070955Y-530758D01*
X6070955Y-550621D01*
X6070295Y-554177D01*
X6068415Y-557326D01*
X6067094Y-558850D01*
X6059779Y-569772D01*
X6053988Y-581558D01*
X6049772Y-594004D01*
X6048146Y-602183D01*
X6046622Y-605840D01*
X6043828Y-608634D01*
X6040170Y-610158D01*
X6036157Y-610158D01*
X6032500Y-608634D01*
X6029706Y-605840D01*
X6023305Y-596239D01*
X6014415Y-586130D01*
X5985002Y-556717D01*
X5982817Y-553415D01*
X5982055Y-549503D01*
X5982055Y-530758D01*
X5963259Y-530758D01*
X5959398Y-529996D01*
X5956096Y-527761D01*
X5900267Y-471932D01*
X5898438Y-469442D01*
X5897422Y-466598D01*
X5894781Y-451256D01*
X5895746Y-447598D01*
X5897372Y-445363D01*
X5895695Y-445058D01*
X5892444Y-442976D01*
X5890260Y-439826D01*
X5884672Y-427431D01*
X5876747Y-414324D01*
X5867298Y-402285D01*
X5856478Y-391464D01*
X5844438Y-382066D01*
X5831382Y-374142D01*
X5817412Y-367842D01*
X5802833Y-363321D01*
X5792216Y-361340D01*
X5789320Y-360375D01*
X5786882Y-358546D01*
X5522569Y-94284D01*
X5512460Y-85394D01*
X5501538Y-78079D01*
X5489752Y-72288D01*
X5477306Y-68072D01*
X5464403Y-65481D01*
X5450941Y-64617D01*
X2641955Y-64617D01*
X2628493Y-65481D01*
X2615590Y-68072D01*
X2603144Y-72288D01*
X2591358Y-78079D01*
X2580436Y-85394D01*
X2570327Y-94284D01*
X2309368Y-355193D01*
X2306218Y-357327D01*
X2302510Y-358190D01*
X2298700Y-357530D01*
X2295448Y-355600D01*
X2284679Y-345998D01*
X2271826Y-336854D01*
X2258060Y-329234D01*
X2243480Y-323189D01*
X2228342Y-318871D01*
X2212797Y-316230D01*
X2197100Y-315315D01*
X2181352Y-316230D01*
X2165807Y-318871D01*
X2150668Y-323189D01*
X2136140Y-329234D01*
X2122373Y-336854D01*
X2109520Y-345998D01*
X2097735Y-356463D01*
X2087270Y-368198D01*
X2078736Y-380238D01*
X2075942Y-382879D01*
X2072386Y-384352D01*
X2068525Y-384352D01*
X2064918Y-382879D01*
X2062175Y-380238D01*
X2052929Y-367233D01*
X2042414Y-355447D01*
X2030679Y-344982D01*
X2017826Y-335838D01*
X2004060Y-328218D01*
X1994458Y-324256D01*
X1994458Y-423468D01*
X2048306Y-423468D01*
X2052574Y-424383D01*
X2056028Y-427075D01*
X2058060Y-430936D01*
X2058314Y-435305D01*
X2057501Y-440080D01*
X2056587Y-456082D01*
X2056587Y-535533D01*
X2057501Y-551535D01*
X2057958Y-554278D01*
X2057755Y-558647D01*
X2055723Y-562559D01*
X2052218Y-565200D01*
X2047951Y-566166D01*
X1994458Y-566166D01*
X1994458Y-665327D01*
X2004060Y-661365D01*
X2017826Y-653745D01*
X2030679Y-644652D01*
X2042414Y-634136D01*
X2052929Y-622401D01*
X2061464Y-610362D01*
X2064207Y-607720D01*
X2067814Y-606298D01*
X2071674Y-606298D01*
X2075230Y-607720D01*
X2078024Y-610362D01*
X2087270Y-623417D01*
X2097735Y-635152D01*
X2109520Y-645617D01*
X2122373Y-654761D01*
X2136140Y-662381D01*
X2150668Y-668426D01*
X2165807Y-672744D01*
X2181352Y-675386D01*
X2197100Y-676300D01*
X2212797Y-675386D01*
X2228342Y-672744D01*
X2243480Y-668426D01*
X2258060Y-662381D01*
X2271826Y-654761D01*
X2284679Y-645617D01*
X2296414Y-635152D01*
X2306929Y-623417D01*
X2316022Y-610565D01*
X2322169Y-599440D01*
X2325065Y-596188D01*
X2329078Y-594410D01*
X2336901Y-592836D01*
X2349347Y-588619D01*
X2361133Y-582828D01*
X2372055Y-575513D01*
X2382164Y-566623D01*
X2680258Y-268579D01*
X2683560Y-266344D01*
X2687421Y-265582D01*
X3415487Y-265582D01*
X3419246Y-266293D01*
X3422446Y-268376D01*
X3424682Y-271526D01*
X3425596Y-275234D01*
X3425088Y-279044D01*
X3420872Y-291490D01*
X3418281Y-304393D01*
X3417417Y-317855D01*
X3417417Y-1719478D01*
X3416655Y-1723339D01*
X3414420Y-1726641D01*
X2936443Y-2204669D01*
X2932887Y-2206955D01*
X2928721Y-2207615D01*
X2924657Y-2206548D01*
X2921355Y-2203907D01*
X2919425Y-2200148D01*
X2917596Y-2193391D01*
X2911805Y-2179066D01*
X2904337Y-2165553D01*
X2895346Y-2153005D01*
X2884881Y-2141575D01*
X2873197Y-2131466D01*
X2860344Y-2122830D01*
X2849321Y-2117191D01*
X2846324Y-2114854D01*
X2844393Y-2111603D01*
X2843784Y-2107844D01*
X2844596Y-2104136D01*
X2846730Y-2100986D01*
X2849880Y-2098852D01*
X2853537Y-2097227D01*
X2866847Y-2089353D01*
X2879140Y-2080006D01*
X2890215Y-2069236D01*
X2899968Y-2057196D01*
X2908198Y-2044141D01*
X2914853Y-2030171D01*
X2919831Y-2015540D01*
X2922981Y-2000402D01*
X2924352Y-1985010D01*
X2923895Y-1969566D01*
X2921609Y-1954275D01*
X2917545Y-1939340D01*
X2911754Y-1925015D01*
X2904286Y-1911502D01*
X2895295Y-1898954D01*
X2884830Y-1887524D01*
X2873146Y-1877415D01*
X2860294Y-1868779D01*
X2849422Y-1863191D01*
X2846425Y-1860854D01*
X2844495Y-1857603D01*
X2843885Y-1853844D01*
X2844698Y-1850186D01*
X2846832Y-1847037D01*
X2849981Y-1844852D01*
X2853588Y-1843278D01*
X2866898Y-1835404D01*
X2879191Y-1826056D01*
X2890266Y-1815287D01*
X2900019Y-1803247D01*
X2908249Y-1790192D01*
X2914904Y-1776222D01*
X2919882Y-1761591D01*
X2923032Y-1746453D01*
X2924403Y-1731060D01*
X2923946Y-1715617D01*
X2921660Y-1700326D01*
X2917596Y-1685391D01*
X2911805Y-1671066D01*
X2904337Y-1657553D01*
X2895346Y-1645005D01*
X2884881Y-1633575D01*
X2873197Y-1623466D01*
X2860344Y-1614830D01*
X2849321Y-1609191D01*
X2846324Y-1606854D01*
X2844393Y-1603603D01*
X2843784Y-1599844D01*
X2844596Y-1596136D01*
X2846730Y-1592986D01*
X2849880Y-1590852D01*
X2853537Y-1589227D01*
X2866847Y-1581353D01*
X2879140Y-1572006D01*
X2890215Y-1561236D01*
X2899968Y-1549196D01*
X2908198Y-1536141D01*
X2914853Y-1522171D01*
X2919831Y-1507540D01*
X2922981Y-1492402D01*
X2924352Y-1477010D01*
X2923895Y-1461566D01*
X2921609Y-1446276D01*
X2917545Y-1431340D01*
X2911754Y-1417015D01*
X2904286Y-1403502D01*
X2895295Y-1390954D01*
X2884830Y-1379524D01*
X2873146Y-1369415D01*
X2860294Y-1360779D01*
X2849422Y-1355191D01*
X2846425Y-1352854D01*
X2844495Y-1349603D01*
X2843885Y-1345844D01*
X2844698Y-1342186D01*
X2846832Y-1339037D01*
X2849981Y-1336852D01*
X2853588Y-1335278D01*
X2866898Y-1327404D01*
X2879191Y-1318056D01*
X2890266Y-1307287D01*
X2900019Y-1295247D01*
X2908249Y-1282192D01*
X2914904Y-1268222D01*
X2919882Y-1253591D01*
X2923032Y-1238453D01*
X2924403Y-1223060D01*
X2923946Y-1207617D01*
X2921660Y-1192326D01*
X2917596Y-1177391D01*
X2911805Y-1163066D01*
X2904337Y-1149553D01*
X2895346Y-1137005D01*
X2884881Y-1125575D01*
X2873197Y-1115466D01*
X2860344Y-1106830D01*
X2849321Y-1101191D01*
X2846324Y-1098854D01*
X2844393Y-1095603D01*
X2843784Y-1091844D01*
X2844596Y-1088136D01*
X2846730Y-1084986D01*
X2849880Y-1082852D01*
X2853537Y-1081227D01*
X2866847Y-1073353D01*
X2879140Y-1064006D01*
X2890215Y-1053236D01*
X2899968Y-1041196D01*
X2908198Y-1028141D01*
X2914853Y-1014171D01*
X2919831Y-999540D01*
X2922981Y-984402D01*
X2924352Y-969010D01*
X2923895Y-953566D01*
X2921609Y-938276D01*
X2917545Y-923340D01*
X2911754Y-909015D01*
X2904286Y-895502D01*
X2895295Y-882954D01*
X2884830Y-871524D01*
X2873146Y-861415D01*
X2860294Y-852779D01*
X2849422Y-847191D01*
X2846425Y-844854D01*
X2844495Y-841603D01*
X2843885Y-837895D01*
X2844698Y-834186D01*
X2846832Y-831037D01*
X2849981Y-828852D01*
X2853588Y-827278D01*
X2866898Y-819403D01*
X2879191Y-810056D01*
X2890266Y-799287D01*
X2900019Y-787247D01*
X2908249Y-774192D01*
X2914904Y-760222D01*
X2919882Y-745591D01*
X2923032Y-730453D01*
X2924403Y-715060D01*
X2923946Y-699617D01*
X2921660Y-684326D01*
X2917596Y-669391D01*
X2911805Y-655066D01*
X2904337Y-641553D01*
X2895346Y-629005D01*
X2884881Y-617575D01*
X2873197Y-607466D01*
X2860344Y-598830D01*
X2846578Y-591769D01*
X2832100Y-586384D01*
X2817063Y-582777D01*
X2801721Y-580948D01*
X2786278Y-580948D01*
X2770936Y-582777D01*
X2755900Y-586384D01*
X2741422Y-591769D01*
X2727655Y-598830D01*
X2714853Y-607466D01*
X2703118Y-617575D01*
X2692704Y-629005D01*
X2683662Y-641553D01*
X2676194Y-655066D01*
X2670403Y-669391D01*
X2666339Y-684326D01*
X2664053Y-699617D01*
X2663596Y-715060D01*
X2664968Y-730453D01*
X2668117Y-745591D01*
X2673096Y-760222D01*
X2679750Y-774192D01*
X2687980Y-787247D01*
X2697734Y-799287D01*
X2708808Y-810056D01*
X2721102Y-819403D01*
X2734411Y-827278D01*
X2738018Y-828852D01*
X2741117Y-830986D01*
X2743250Y-834136D01*
X2744063Y-837844D01*
X2743454Y-841603D01*
X2741523Y-844854D01*
X2738526Y-847191D01*
X2727604Y-852779D01*
X2714802Y-861415D01*
X2703068Y-871524D01*
X2692654Y-882954D01*
X2683611Y-895502D01*
X2676144Y-909015D01*
X2670352Y-923340D01*
X2666288Y-938276D01*
X2664002Y-953566D01*
X2663545Y-969010D01*
X2664917Y-984402D01*
X2668066Y-999540D01*
X2673045Y-1014171D01*
X2679700Y-1028141D01*
X2687929Y-1041196D01*
X2697683Y-1053236D01*
X2708757Y-1064006D01*
X2721051Y-1073353D01*
X2734360Y-1081227D01*
X2738120Y-1082852D01*
X2741218Y-1085037D01*
X2743352Y-1088186D01*
X2744165Y-1091844D01*
X2743555Y-1095603D01*
X2741625Y-1098854D01*
X2738628Y-1101191D01*
X2727655Y-1106830D01*
X2714853Y-1115466D01*
X2703118Y-1125575D01*
X2692704Y-1137005D01*
X2683662Y-1149553D01*
X2676194Y-1163066D01*
X2670403Y-1177391D01*
X2666339Y-1192326D01*
X2664053Y-1207617D01*
X2663596Y-1223060D01*
X2664968Y-1238453D01*
X2668117Y-1253591D01*
X2673096Y-1268222D01*
X2679750Y-1282192D01*
X2687980Y-1295247D01*
X2697734Y-1307287D01*
X2708808Y-1318056D01*
X2721102Y-1327404D01*
X2722778Y-1328420D01*
X2725978Y-1331366D01*
X2727604Y-1335430D01*
X2727401Y-1339799D01*
X2725369Y-1343710D01*
X2721864Y-1346352D01*
X2717596Y-1347317D01*
X2514955Y-1347317D01*
X2501493Y-1348181D01*
X2488590Y-1350772D01*
X2476144Y-1354988D01*
X2464358Y-1360779D01*
X2453436Y-1368094D01*
X2443327Y-1376984D01*
X2405684Y-1414627D01*
X2396794Y-1424736D01*
X2389479Y-1435658D01*
X2383688Y-1447444D01*
X2379472Y-1459890D01*
X2376881Y-1472793D01*
X2376017Y-1486255D01*
X2376017Y-2425242D01*
X2375255Y-2429154D01*
X2373020Y-2432456D01*
X2369718Y-2434640D01*
X2365857Y-2435402D01*
X2361946Y-2434640D01*
X2358644Y-2432456D01*
X2319172Y-2392984D01*
X2309063Y-2384094D01*
X2298141Y-2376779D01*
X2286355Y-2370988D01*
X2273909Y-2366772D01*
X2261006Y-2364181D01*
X2247544Y-2363317D01*
X2158339Y-2363317D01*
X2154377Y-2362504D01*
X2151075Y-2360218D01*
X2148890Y-2356815D01*
X2148179Y-2352852D01*
X2149094Y-2348941D01*
X2153920Y-2338425D01*
X2159000Y-2322728D01*
X2162302Y-2306574D01*
X2163724Y-2290114D01*
X2163216Y-2273655D01*
X2160879Y-2257298D01*
X2156663Y-2241346D01*
X2150719Y-2226005D01*
X2142998Y-2211425D01*
X2133701Y-2197811D01*
X2122881Y-2185314D01*
X2110740Y-2174189D01*
X2097379Y-2164486D01*
X2083054Y-2156358D01*
X2067864Y-2149957D01*
X2052015Y-2145284D01*
X2035759Y-2142490D01*
X2019300Y-2141524D01*
X2002840Y-2142490D01*
X1986584Y-2145284D01*
X1970735Y-2149957D01*
X1955546Y-2156358D01*
X1941220Y-2164486D01*
X1927860Y-2174189D01*
X1915718Y-2185314D01*
X1904898Y-2197811D01*
X1895602Y-2211425D01*
X1887880Y-2226005D01*
X1881936Y-2241346D01*
X1877720Y-2257298D01*
X1875383Y-2273655D01*
X1874875Y-2290114D01*
X1876298Y-2306574D01*
X1879600Y-2322728D01*
X1884680Y-2338425D01*
X1889506Y-2348941D01*
X1890420Y-2352852D01*
X1889709Y-2356815D01*
X1887524Y-2360218D01*
X1884222Y-2362504D01*
X1880260Y-2363317D01*
X1374902Y-2363317D01*
X1370990Y-2362555D01*
X1367688Y-2360320D01*
X1286052Y-2278684D01*
X1275943Y-2269794D01*
X1264970Y-2262479D01*
X1253185Y-2256688D01*
X1237386Y-2251151D01*
X1234338Y-2249220D01*
X1221740Y-2237689D01*
X1208379Y-2227986D01*
X1194054Y-2219858D01*
X1178864Y-2213457D01*
X1163015Y-2208784D01*
X1146759Y-2205990D01*
X1130300Y-2205024D01*
X1113840Y-2205990D01*
X1097584Y-2208784D01*
X1081735Y-2213457D01*
X1066546Y-2219858D01*
X1052220Y-2227986D01*
X1038860Y-2237689D01*
X1026718Y-2248814D01*
X1015898Y-2261311D01*
X1006602Y-2274925D01*
X998880Y-2289505D01*
X992936Y-2304846D01*
X988720Y-2320798D01*
X986383Y-2337155D01*
X985875Y-2353614D01*
X987298Y-2370074D01*
X990600Y-2386228D01*
X995680Y-2401925D01*
X1002537Y-2416911D01*
X1011072Y-2431034D01*
X1021130Y-2444089D01*
X1032611Y-2455926D01*
X1045413Y-2466390D01*
X1059281Y-2475280D01*
X1074064Y-2482545D01*
X1089609Y-2488082D01*
X1105662Y-2491841D01*
X1122070Y-2493721D01*
X1138529Y-2493721D01*
X1154938Y-2491841D01*
X1170990Y-2488082D01*
X1186738Y-2482494D01*
X1190802Y-2481427D01*
X1194917Y-2482138D01*
X1198422Y-2484424D01*
X1200708Y-2487980D01*
X1201369Y-2492146D01*
X1200251Y-2496159D01*
X1197660Y-2499461D01*
X1185011Y-2509774D01*
X1173530Y-2521610D01*
X1163472Y-2534666D01*
X1154938Y-2548788D01*
X1148486Y-2562860D01*
X1229360Y-2562860D01*
X1229360Y-2530754D01*
X1230122Y-2526842D01*
X1232357Y-2523591D01*
X1235608Y-2521356D01*
X1239520Y-2520594D01*
X1243431Y-2521356D01*
X1246682Y-2523591D01*
X1257757Y-2534615D01*
X1267866Y-2543505D01*
X1278839Y-2550820D01*
X1290624Y-2556611D01*
X1303070Y-2560828D01*
X1315923Y-2563418D01*
X1329385Y-2564282D01*
X1646072Y-2564282D01*
X1649780Y-2564993D01*
X1653032Y-2567025D01*
X1655267Y-2570124D01*
X1656181Y-2573832D01*
X1655724Y-2577592D01*
X1651000Y-2592171D01*
X1647698Y-2608326D01*
X1646275Y-2624785D01*
X1646783Y-2641244D01*
X1649120Y-2657602D01*
X1653336Y-2673553D01*
X1659280Y-2688894D01*
X1667002Y-2703474D01*
X1676298Y-2717088D01*
X1687118Y-2729585D01*
X1699260Y-2740710D01*
X1712620Y-2750413D01*
X1726946Y-2758541D01*
X1742135Y-2764942D01*
X1757984Y-2769616D01*
X1774240Y-2772410D01*
X1789328Y-2773273D01*
X1792884Y-2774137D01*
X1795932Y-2776220D01*
X2042820Y-3023158D01*
X2045055Y-3026460D01*
X2045817Y-3030321D01*
X2045817Y-4762144D01*
X2046681Y-4775606D01*
X2049272Y-4788509D01*
X2053488Y-4800955D01*
X2059279Y-4812741D01*
X2066594Y-4823663D01*
X2075484Y-4833772D01*
X2100427Y-4858715D01*
X2110536Y-4867605D01*
X2121458Y-4874920D01*
X2133244Y-4880711D01*
X2145690Y-4884928D01*
X2158593Y-4887518D01*
G37*
G36*
X347827Y-4655972D02*
G01*
X458774Y-4655972D01*
X455828Y-4649317D01*
X445719Y-4631080D01*
X433933Y-4613910D01*
X420624Y-4597908D01*
X405892Y-4583176D01*
X389890Y-4569866D01*
X372719Y-4558080D01*
X354482Y-4547971D01*
X347827Y-4545025D01*
G37*
G36*
X49225Y-4655972D02*
G01*
X160172Y-4655972D01*
X160172Y-4545025D01*
X153517Y-4547971D01*
X135280Y-4558080D01*
X118110Y-4569866D01*
X102108Y-4583176D01*
X87376Y-4597908D01*
X74066Y-4613910D01*
X62280Y-4631080D01*
X52171Y-4649317D01*
G37*
G36*
X7554925Y-4655972D02*
G01*
X7665872Y-4655972D01*
X7665872Y-4601159D01*
X7666329Y-4598162D01*
X7667650Y-4595418D01*
X7681010Y-4582007D01*
X7690459Y-4569968D01*
X7698384Y-4556861D01*
X7704632Y-4542942D01*
X7709204Y-4528312D01*
X7711948Y-4513275D01*
X7712862Y-4497984D01*
X7711948Y-4482744D01*
X7709204Y-4467707D01*
X7704632Y-4453077D01*
X7698384Y-4439107D01*
X7690459Y-4426051D01*
X7681010Y-4414012D01*
X7670190Y-4403191D01*
X7658150Y-4393742D01*
X7645095Y-4385818D01*
X7631125Y-4379569D01*
X7616494Y-4374997D01*
X7601458Y-4372254D01*
X7586218Y-4371340D01*
X7570927Y-4372254D01*
X7555890Y-4374997D01*
X7541259Y-4379569D01*
X7527340Y-4385818D01*
X7514234Y-4393742D01*
X7502194Y-4403191D01*
X7491374Y-4414012D01*
X7481925Y-4426051D01*
X7474051Y-4439107D01*
X7467752Y-4453077D01*
X7463180Y-4467707D01*
X7460437Y-4482744D01*
X7459522Y-4497984D01*
X7460437Y-4513275D01*
X7463180Y-4528312D01*
X7467752Y-4542942D01*
X7474051Y-4556861D01*
X7481925Y-4569968D01*
X7491374Y-4582007D01*
X7502194Y-4592828D01*
X7514234Y-4602276D01*
X7527340Y-4610150D01*
X7541259Y-4616450D01*
X7555890Y-4620971D01*
X7558024Y-4621377D01*
X7561580Y-4622800D01*
X7564424Y-4625390D01*
X7566050Y-4628845D01*
X7566253Y-4632706D01*
X7565085Y-4636312D01*
X7557871Y-4649317D01*
G37*
G36*
X7041743Y-4616602D02*
G01*
X7041743Y-4542434D01*
X6967626Y-4542434D01*
X6974027Y-4556861D01*
X6981952Y-4569968D01*
X6991400Y-4582007D01*
X7002221Y-4592828D01*
X7014260Y-4602276D01*
X7027316Y-4610150D01*
G37*
G36*
X7130643Y-4616602D02*
G01*
X7145070Y-4610150D01*
X7158177Y-4602276D01*
X7170216Y-4592828D01*
X7181037Y-4582007D01*
X7190435Y-4569968D01*
X7198359Y-4556861D01*
X7204811Y-4542434D01*
X7130643Y-4542434D01*
G37*
G36*
X6967626Y-4453534D02*
G01*
X7041743Y-4453534D01*
X7041743Y-4379417D01*
X7027316Y-4385818D01*
X7014260Y-4393742D01*
X7002221Y-4403191D01*
X6991400Y-4414012D01*
X6981952Y-4426051D01*
X6974027Y-4439107D01*
G37*
G36*
X7130643Y-4453534D02*
G01*
X7204811Y-4453534D01*
X7198359Y-4439107D01*
X7190435Y-4426051D01*
X7181037Y-4414012D01*
X7170216Y-4403191D01*
X7158177Y-4393742D01*
X7145070Y-4385818D01*
X7130643Y-4379417D01*
G37*
G36*
X2714447Y-4397705D02*
G01*
X2873552Y-4397705D01*
X2882747Y-4396892D01*
X2891282Y-4394606D01*
X2899206Y-4390898D01*
X2906420Y-4385868D01*
X2912668Y-4379620D01*
X2917698Y-4372406D01*
X2921406Y-4364482D01*
X2923692Y-4355947D01*
X2924505Y-4346752D01*
X2924505Y-4187647D01*
X2923692Y-4178452D01*
X2921406Y-4169918D01*
X2917698Y-4161993D01*
X2912668Y-4154779D01*
X2906420Y-4148531D01*
X2899206Y-4143501D01*
X2891282Y-4139793D01*
X2882747Y-4137507D01*
X2875737Y-4136898D01*
X2871876Y-4135729D01*
X2868726Y-4133189D01*
X2866847Y-4129582D01*
X2866542Y-4125569D01*
X2867812Y-4121759D01*
X2870454Y-4118711D01*
X2879191Y-4112056D01*
X2890266Y-4101287D01*
X2900019Y-4089247D01*
X2908249Y-4076192D01*
X2914904Y-4062222D01*
X2915818Y-4059529D01*
X2840329Y-4059529D01*
X2840329Y-4126534D01*
X2839567Y-4130446D01*
X2837383Y-4133748D01*
X2834081Y-4135932D01*
X2830169Y-4136694D01*
X2757830Y-4136694D01*
X2753918Y-4135932D01*
X2750616Y-4133748D01*
X2748432Y-4130446D01*
X2747670Y-4126534D01*
X2747670Y-4059529D01*
X2672181Y-4059529D01*
X2673096Y-4062222D01*
X2679750Y-4076192D01*
X2687980Y-4089247D01*
X2697734Y-4101287D01*
X2708808Y-4112056D01*
X2717546Y-4118711D01*
X2720187Y-4121759D01*
X2721457Y-4125569D01*
X2721152Y-4129582D01*
X2719273Y-4133189D01*
X2716123Y-4135729D01*
X2712262Y-4136898D01*
X2705252Y-4137507D01*
X2696718Y-4139793D01*
X2688793Y-4143501D01*
X2681579Y-4148531D01*
X2675331Y-4154779D01*
X2670302Y-4161993D01*
X2666593Y-4169918D01*
X2664307Y-4178452D01*
X2663494Y-4187647D01*
X2663494Y-4346752D01*
X2664307Y-4355947D01*
X2666593Y-4364482D01*
X2670302Y-4372406D01*
X2675331Y-4379620D01*
X2681579Y-4385868D01*
X2688793Y-4390898D01*
X2696718Y-4394606D01*
X2705252Y-4396892D01*
G37*
G36*
X594360Y-4210812D02*
G01*
X594360Y-4130040D01*
X513486Y-4130040D01*
X519938Y-4144111D01*
X528472Y-4158234D01*
X538530Y-4171289D01*
X550011Y-4183126D01*
X562813Y-4193590D01*
X576681Y-4202480D01*
X591464Y-4209745D01*
G37*
G36*
X701040Y-4210812D02*
G01*
X703935Y-4209745D01*
X718718Y-4202480D01*
X732586Y-4193590D01*
X745388Y-4183126D01*
X756869Y-4171289D01*
X766927Y-4158234D01*
X775462Y-4144111D01*
X781913Y-4130040D01*
X701040Y-4130040D01*
G37*
G36*
X701040Y-4023360D02*
G01*
X781710Y-4023360D01*
X779119Y-4016705D01*
X771398Y-4002125D01*
X762101Y-3988511D01*
X751281Y-3976014D01*
X739140Y-3964889D01*
X725779Y-3955186D01*
X711454Y-3947058D01*
X701040Y-3942689D01*
G37*
G36*
X513689Y-4023360D02*
G01*
X594360Y-4023360D01*
X594360Y-3942689D01*
X583946Y-3947058D01*
X569620Y-3955186D01*
X556260Y-3964889D01*
X544118Y-3976014D01*
X533298Y-3988511D01*
X524001Y-4002125D01*
X516280Y-4016705D01*
G37*
G36*
X984148Y-3915105D02*
G01*
X1073251Y-3915105D01*
X1082446Y-3914292D01*
X1090980Y-3912006D01*
X1098905Y-3908298D01*
X1102664Y-3905707D01*
X1105763Y-3904234D01*
X1109167Y-3903878D01*
X1112520Y-3904691D01*
X1123746Y-3909568D01*
X1136294Y-3913073D01*
X1149197Y-3914851D01*
X1162202Y-3914851D01*
X1175105Y-3913073D01*
X1187653Y-3909568D01*
X1199642Y-3904386D01*
X1210767Y-3897579D01*
X1212799Y-3895953D01*
X1215796Y-3894277D01*
X1219200Y-3893667D01*
X1222603Y-3894277D01*
X1225600Y-3895953D01*
X1227632Y-3897579D01*
X1238758Y-3904386D01*
X1250746Y-3909568D01*
X1263294Y-3913073D01*
X1276197Y-3914851D01*
X1289202Y-3914851D01*
X1302105Y-3913073D01*
X1314653Y-3909568D01*
X1326642Y-3904386D01*
X1337767Y-3897579D01*
X1347876Y-3889349D01*
X1356766Y-3879850D01*
X1364284Y-3869182D01*
X1370279Y-3857650D01*
X1374648Y-3845356D01*
X1377289Y-3832606D01*
X1378204Y-3819245D01*
X1378204Y-3749954D01*
X1377289Y-3736594D01*
X1374648Y-3723843D01*
X1370279Y-3711549D01*
X1364284Y-3700018D01*
X1356766Y-3689350D01*
X1347876Y-3679850D01*
X1337767Y-3671620D01*
X1326642Y-3664813D01*
X1314653Y-3659632D01*
X1302105Y-3656126D01*
X1289202Y-3654348D01*
X1276197Y-3654348D01*
X1263294Y-3656126D01*
X1250746Y-3659632D01*
X1238758Y-3664813D01*
X1227632Y-3671620D01*
X1225600Y-3673246D01*
X1222603Y-3674922D01*
X1219200Y-3675532D01*
X1215796Y-3674922D01*
X1212799Y-3673246D01*
X1210767Y-3671620D01*
X1199642Y-3664813D01*
X1187653Y-3659632D01*
X1175105Y-3656126D01*
X1162202Y-3654348D01*
X1149197Y-3654348D01*
X1136294Y-3656126D01*
X1123746Y-3659632D01*
X1112520Y-3664508D01*
X1109167Y-3665321D01*
X1105763Y-3664965D01*
X1102664Y-3663492D01*
X1098905Y-3660901D01*
X1090980Y-3657193D01*
X1082446Y-3654907D01*
X1073251Y-3654094D01*
X984148Y-3654094D01*
X974953Y-3654907D01*
X966419Y-3657193D01*
X958494Y-3660901D01*
X951280Y-3665931D01*
X945032Y-3672179D01*
X940003Y-3679393D01*
X936294Y-3687318D01*
X934008Y-3695852D01*
X933196Y-3705047D01*
X933196Y-3864152D01*
X934008Y-3873347D01*
X936294Y-3881882D01*
X940003Y-3889806D01*
X945032Y-3897020D01*
X951280Y-3903268D01*
X958494Y-3908298D01*
X966419Y-3912006D01*
X974953Y-3914292D01*
G37*
G36*
X1790700Y-3535375D02*
G01*
X1807159Y-3534410D01*
X1823415Y-3531615D01*
X1839264Y-3526942D01*
X1854454Y-3520541D01*
X1868779Y-3512413D01*
X1882139Y-3502710D01*
X1894281Y-3491585D01*
X1905101Y-3479088D01*
X1914398Y-3465474D01*
X1922119Y-3450894D01*
X1928063Y-3435553D01*
X1932279Y-3419601D01*
X1934616Y-3403244D01*
X1935124Y-3386785D01*
X1933702Y-3370326D01*
X1930400Y-3354171D01*
X1925320Y-3338474D01*
X1918462Y-3323488D01*
X1909927Y-3309365D01*
X1899869Y-3296310D01*
X1888388Y-3284474D01*
X1875586Y-3274009D01*
X1861718Y-3265119D01*
X1846935Y-3257854D01*
X1831390Y-3252317D01*
X1815338Y-3248558D01*
X1798929Y-3246678D01*
X1782470Y-3246678D01*
X1766062Y-3248558D01*
X1750009Y-3252317D01*
X1734464Y-3257854D01*
X1719681Y-3265119D01*
X1705813Y-3274009D01*
X1693011Y-3284474D01*
X1681530Y-3296310D01*
X1671472Y-3309365D01*
X1662938Y-3323488D01*
X1656080Y-3338474D01*
X1651000Y-3354171D01*
X1647698Y-3370326D01*
X1646275Y-3386785D01*
X1646783Y-3403244D01*
X1649120Y-3419601D01*
X1653336Y-3435553D01*
X1659280Y-3450894D01*
X1667002Y-3465474D01*
X1676298Y-3479088D01*
X1687118Y-3491585D01*
X1699260Y-3502710D01*
X1712620Y-3512413D01*
X1726946Y-3520541D01*
X1742135Y-3526942D01*
X1757984Y-3531615D01*
X1774240Y-3534410D01*
G37*
G36*
X1282700Y-3522675D02*
G01*
X1299159Y-3521710D01*
X1315415Y-3518915D01*
X1331264Y-3514242D01*
X1346454Y-3507841D01*
X1360779Y-3499713D01*
X1374140Y-3490010D01*
X1386281Y-3478885D01*
X1397101Y-3466388D01*
X1406398Y-3452774D01*
X1414119Y-3438194D01*
X1420063Y-3422853D01*
X1424279Y-3406901D01*
X1426616Y-3390544D01*
X1427124Y-3374085D01*
X1425702Y-3357626D01*
X1422400Y-3341471D01*
X1417320Y-3325774D01*
X1410462Y-3310788D01*
X1401927Y-3296665D01*
X1391869Y-3283610D01*
X1380388Y-3271774D01*
X1367586Y-3261309D01*
X1353718Y-3252419D01*
X1338935Y-3245154D01*
X1323390Y-3239617D01*
X1307338Y-3235858D01*
X1290929Y-3233978D01*
X1274470Y-3233978D01*
X1258062Y-3235858D01*
X1242009Y-3239617D01*
X1226464Y-3245154D01*
X1211681Y-3252419D01*
X1197813Y-3261309D01*
X1185011Y-3271774D01*
X1173530Y-3283610D01*
X1163472Y-3296665D01*
X1154938Y-3310788D01*
X1148080Y-3325774D01*
X1143000Y-3341471D01*
X1139698Y-3357626D01*
X1138275Y-3374085D01*
X1138783Y-3390544D01*
X1141120Y-3406901D01*
X1145336Y-3422853D01*
X1151280Y-3438194D01*
X1159002Y-3452774D01*
X1168298Y-3466388D01*
X1179118Y-3478885D01*
X1191260Y-3490010D01*
X1204620Y-3499713D01*
X1218946Y-3507841D01*
X1234135Y-3514242D01*
X1249984Y-3518915D01*
X1266240Y-3521710D01*
G37*
G36*
X639470Y-3458921D02*
G01*
X655929Y-3458921D01*
X672338Y-3457041D01*
X688390Y-3453282D01*
X703935Y-3447745D01*
X718718Y-3440480D01*
X732586Y-3431590D01*
X745388Y-3421126D01*
X756869Y-3409289D01*
X766927Y-3396234D01*
X775462Y-3382111D01*
X782320Y-3367125D01*
X787400Y-3351428D01*
X790702Y-3335274D01*
X792124Y-3318814D01*
X791616Y-3302355D01*
X789279Y-3285998D01*
X785063Y-3270046D01*
X779119Y-3254705D01*
X771398Y-3240125D01*
X762101Y-3226511D01*
X751281Y-3214014D01*
X739140Y-3202889D01*
X725779Y-3193186D01*
X711454Y-3185058D01*
X696264Y-3178657D01*
X680415Y-3173984D01*
X664159Y-3171190D01*
X647700Y-3170224D01*
X631240Y-3171190D01*
X614984Y-3173984D01*
X599135Y-3178657D01*
X583946Y-3185058D01*
X569620Y-3193186D01*
X556260Y-3202889D01*
X544118Y-3214014D01*
X533298Y-3226511D01*
X524001Y-3240125D01*
X516280Y-3254705D01*
X510336Y-3270046D01*
X506120Y-3285998D01*
X503783Y-3302355D01*
X503275Y-3318814D01*
X504698Y-3335274D01*
X508000Y-3351428D01*
X513080Y-3367125D01*
X519938Y-3382111D01*
X528472Y-3396234D01*
X538530Y-3409289D01*
X550011Y-3421126D01*
X562813Y-3431590D01*
X576681Y-3440480D01*
X591464Y-3447745D01*
X607009Y-3453282D01*
X623062Y-3457041D01*
G37*
G36*
X4844034Y-3327857D02*
G01*
X4844034Y-3253740D01*
X4769916Y-3253740D01*
X4776317Y-3268167D01*
X4784242Y-3281273D01*
X4793640Y-3293313D01*
X4804460Y-3304133D01*
X4816500Y-3313531D01*
X4829606Y-3321456D01*
G37*
G36*
X4932934Y-3327857D02*
G01*
X4947361Y-3321456D01*
X4960467Y-3313531D01*
X4972507Y-3304133D01*
X4983327Y-3293313D01*
X4992725Y-3281273D01*
X5000650Y-3268167D01*
X5006238Y-3255772D01*
X5007660Y-3253740D01*
X4932934Y-3253740D01*
G37*
G36*
X4769916Y-3164840D02*
G01*
X4844034Y-3164840D01*
X4844034Y-3090722D01*
X4829606Y-3097123D01*
X4816500Y-3105048D01*
X4804460Y-3114446D01*
X4793640Y-3125266D01*
X4784242Y-3137306D01*
X4776317Y-3150412D01*
G37*
G36*
X4932934Y-3164840D02*
G01*
X5007660Y-3164840D01*
X5006238Y-3162808D01*
X5000650Y-3150412D01*
X4992725Y-3137306D01*
X4983327Y-3125266D01*
X4972507Y-3114446D01*
X4960467Y-3105048D01*
X4947361Y-3097123D01*
X4932934Y-3090722D01*
G37*
G36*
X499973Y-2959658D02*
G01*
X516026Y-2959658D01*
X531977Y-2957830D01*
X547573Y-2954172D01*
X562660Y-2948787D01*
X577088Y-2941726D01*
X590550Y-2933039D01*
X602996Y-2922879D01*
X614172Y-2911398D01*
X623976Y-2898698D01*
X632256Y-2884932D01*
X638911Y-2870352D01*
X643839Y-2855112D01*
X647039Y-2839415D01*
X648411Y-2823413D01*
X647954Y-2807360D01*
X645668Y-2791510D01*
X641604Y-2775966D01*
X635762Y-2761030D01*
X628294Y-2746857D01*
X619252Y-2733598D01*
X608736Y-2721508D01*
X605586Y-2717393D01*
X604824Y-2713126D01*
X605840Y-2708960D01*
X608482Y-2705557D01*
X612343Y-2703576D01*
X615238Y-2702814D01*
X623214Y-2699105D01*
X630428Y-2694076D01*
X636676Y-2687828D01*
X641705Y-2680614D01*
X645414Y-2672638D01*
X647700Y-2664155D01*
X648512Y-2654960D01*
X648512Y-2616758D01*
X559358Y-2616758D01*
X559358Y-2674721D01*
X558647Y-2678430D01*
X556666Y-2681630D01*
X553669Y-2683865D01*
X550062Y-2684881D01*
X546303Y-2684475D01*
X539800Y-2682595D01*
X524001Y-2679852D01*
X508000Y-2678938D01*
X491998Y-2679852D01*
X476199Y-2682595D01*
X469696Y-2684475D01*
X465937Y-2684881D01*
X462330Y-2683865D01*
X459333Y-2681630D01*
X457352Y-2678430D01*
X456641Y-2674721D01*
X456641Y-2616758D01*
X367487Y-2616758D01*
X367487Y-2654960D01*
X368300Y-2664155D01*
X370586Y-2672638D01*
X374294Y-2680614D01*
X379323Y-2687828D01*
X385572Y-2694076D01*
X392785Y-2699105D01*
X400761Y-2702814D01*
X403656Y-2703576D01*
X407517Y-2705557D01*
X410159Y-2708960D01*
X411175Y-2713126D01*
X410413Y-2717393D01*
X407263Y-2721508D01*
X396748Y-2733598D01*
X387705Y-2746857D01*
X380238Y-2761030D01*
X374396Y-2775966D01*
X370332Y-2791510D01*
X368046Y-2807360D01*
X367588Y-2823413D01*
X368960Y-2839415D01*
X372160Y-2855112D01*
X377088Y-2870352D01*
X383743Y-2884932D01*
X392023Y-2898698D01*
X401828Y-2911398D01*
X413004Y-2922879D01*
X425450Y-2933039D01*
X438912Y-2941726D01*
X453339Y-2948787D01*
X468426Y-2954172D01*
X484022Y-2957830D01*
G37*
G36*
X1336040Y-2750210D02*
G01*
X1346454Y-2745841D01*
X1360779Y-2737713D01*
X1374140Y-2728010D01*
X1386281Y-2716885D01*
X1397101Y-2704388D01*
X1406398Y-2690774D01*
X1414119Y-2676194D01*
X1416710Y-2669540D01*
X1336040Y-2669540D01*
G37*
G36*
X1229360Y-2750210D02*
G01*
X1229360Y-2669540D01*
X1148689Y-2669540D01*
X1151280Y-2676194D01*
X1159002Y-2690774D01*
X1168298Y-2704388D01*
X1179118Y-2716885D01*
X1191260Y-2728010D01*
X1204620Y-2737713D01*
X1218946Y-2745841D01*
G37*
G36*
X559358Y-2514041D02*
G01*
X648512Y-2514041D01*
X648512Y-2475839D01*
X647700Y-2466644D01*
X645414Y-2458161D01*
X641705Y-2450185D01*
X636676Y-2442972D01*
X630428Y-2436723D01*
X623214Y-2431694D01*
X615238Y-2427986D01*
X606755Y-2425700D01*
X597560Y-2424887D01*
X559358Y-2424887D01*
G37*
G36*
X367487Y-2514041D02*
G01*
X456641Y-2514041D01*
X456641Y-2424887D01*
X418439Y-2424887D01*
X409244Y-2425700D01*
X400761Y-2427986D01*
X392785Y-2431694D01*
X385572Y-2436723D01*
X379323Y-2442972D01*
X374294Y-2450185D01*
X370586Y-2458161D01*
X368300Y-2466644D01*
X367487Y-2475839D01*
G37*
G36*
X1698091Y-2139696D02*
G01*
X1712925Y-2139238D01*
X1727555Y-2137003D01*
X1741830Y-2132939D01*
X1755495Y-2127148D01*
X1768348Y-2119731D01*
X1780184Y-2110790D01*
X1790852Y-2100478D01*
X1800148Y-2088896D01*
X1807921Y-2076297D01*
X1814118Y-2062835D01*
X1818639Y-2048662D01*
X1821383Y-2034082D01*
X1822297Y-2019300D01*
X1821383Y-2004517D01*
X1818639Y-1989937D01*
X1814118Y-1975764D01*
X1807921Y-1962302D01*
X1800148Y-1949704D01*
X1790852Y-1938121D01*
X1780184Y-1927809D01*
X1768348Y-1918868D01*
X1755495Y-1911451D01*
X1741830Y-1905660D01*
X1727555Y-1901596D01*
X1712925Y-1899361D01*
X1698091Y-1898904D01*
X1683308Y-1900224D01*
X1668830Y-1903425D01*
X1654860Y-1908352D01*
X1641551Y-1914956D01*
X1629206Y-1923135D01*
X1617929Y-1932787D01*
X1607921Y-1943760D01*
X1599387Y-1955901D01*
X1592376Y-1968957D01*
X1586992Y-1982774D01*
X1583385Y-1997151D01*
X1581556Y-2011883D01*
X1581556Y-2026716D01*
X1583385Y-2041448D01*
X1586992Y-2055825D01*
X1592376Y-2069642D01*
X1599387Y-2082698D01*
X1607921Y-2094839D01*
X1617929Y-2105812D01*
X1629206Y-2115464D01*
X1641551Y-2123643D01*
X1654860Y-2130247D01*
X1668830Y-2135174D01*
X1683308Y-2138375D01*
G37*
G36*
X1489151Y-2132380D02*
G01*
X1501495Y-2127148D01*
X1514348Y-2119731D01*
X1526184Y-2110790D01*
X1536852Y-2100478D01*
X1546148Y-2088896D01*
X1553921Y-2076297D01*
X1560118Y-2062835D01*
X1560830Y-2060651D01*
X1489151Y-2060651D01*
G37*
G36*
X1406448Y-2132228D02*
G01*
X1406448Y-2060651D01*
X1334871Y-2060651D01*
X1338376Y-2069642D01*
X1345387Y-2082698D01*
X1353921Y-2094839D01*
X1363929Y-2105812D01*
X1375206Y-2115464D01*
X1387551Y-2123643D01*
X1400860Y-2130247D01*
G37*
G36*
X520700Y-2086762D02*
G01*
X536702Y-2085848D01*
X552500Y-2083155D01*
X567893Y-2078634D01*
X582676Y-2072386D01*
X596646Y-2064461D01*
X609600Y-2055063D01*
X621436Y-2044192D01*
X631952Y-2032101D01*
X640994Y-2018842D01*
X648462Y-2004669D01*
X654304Y-1989734D01*
X658368Y-1974189D01*
X660654Y-1958339D01*
X661111Y-1942287D01*
X659739Y-1926336D01*
X656539Y-1910588D01*
X651611Y-1895348D01*
X644956Y-1880768D01*
X636676Y-1867001D01*
X626872Y-1854301D01*
X615696Y-1842820D01*
X603250Y-1832660D01*
X589788Y-1823974D01*
X575360Y-1816912D01*
X560273Y-1811528D01*
X544677Y-1807870D01*
X528726Y-1806041D01*
X512673Y-1806041D01*
X496722Y-1807870D01*
X481126Y-1811528D01*
X466039Y-1816912D01*
X451612Y-1823974D01*
X438150Y-1832660D01*
X425704Y-1842820D01*
X414528Y-1854301D01*
X404723Y-1867001D01*
X396443Y-1880768D01*
X389788Y-1895348D01*
X384860Y-1910588D01*
X381660Y-1926336D01*
X380288Y-1942287D01*
X380746Y-1958339D01*
X383032Y-1974189D01*
X387096Y-1989734D01*
X392938Y-2004669D01*
X400405Y-2018842D01*
X409448Y-2032101D01*
X419963Y-2044192D01*
X431800Y-2055063D01*
X444754Y-2064461D01*
X458724Y-2072386D01*
X473506Y-2078634D01*
X488899Y-2083155D01*
X504698Y-2085848D01*
G37*
G36*
X1334871Y-1977948D02*
G01*
X1406448Y-1977948D01*
X1406448Y-1906371D01*
X1400860Y-1908352D01*
X1387551Y-1914956D01*
X1375206Y-1923135D01*
X1363929Y-1932787D01*
X1353921Y-1943760D01*
X1345387Y-1955901D01*
X1338376Y-1968957D01*
G37*
G36*
X1489151Y-1977948D02*
G01*
X1560830Y-1977948D01*
X1560118Y-1975764D01*
X1553921Y-1962302D01*
X1546148Y-1949704D01*
X1536852Y-1938121D01*
X1526184Y-1927809D01*
X1514348Y-1918868D01*
X1501495Y-1911451D01*
X1489151Y-1906219D01*
G37*
G36*
X1122070Y-1731721D02*
G01*
X1138529Y-1731721D01*
X1154938Y-1729841D01*
X1170990Y-1726082D01*
X1186535Y-1720545D01*
X1201318Y-1713280D01*
X1215186Y-1704390D01*
X1227988Y-1693925D01*
X1239469Y-1682089D01*
X1249527Y-1669034D01*
X1258062Y-1654911D01*
X1264920Y-1639925D01*
X1270000Y-1624228D01*
X1273302Y-1608074D01*
X1274724Y-1591614D01*
X1274216Y-1575155D01*
X1271879Y-1558798D01*
X1267663Y-1542846D01*
X1261719Y-1527505D01*
X1253998Y-1512925D01*
X1244701Y-1499311D01*
X1233881Y-1486814D01*
X1221740Y-1475689D01*
X1208379Y-1465986D01*
X1194054Y-1457858D01*
X1178864Y-1451457D01*
X1163015Y-1446784D01*
X1146759Y-1443990D01*
X1130300Y-1443024D01*
X1113840Y-1443990D01*
X1097584Y-1446784D01*
X1081735Y-1451457D01*
X1066546Y-1457858D01*
X1052220Y-1465986D01*
X1038860Y-1475689D01*
X1026718Y-1486814D01*
X1015898Y-1499311D01*
X1006602Y-1512925D01*
X998880Y-1527505D01*
X992936Y-1542846D01*
X988720Y-1558798D01*
X986383Y-1575155D01*
X985875Y-1591614D01*
X987298Y-1608074D01*
X990600Y-1624228D01*
X995680Y-1639925D01*
X1002537Y-1654911D01*
X1011072Y-1669034D01*
X1021130Y-1682089D01*
X1032611Y-1693925D01*
X1045413Y-1704390D01*
X1059281Y-1713280D01*
X1074064Y-1720545D01*
X1089609Y-1726082D01*
X1105662Y-1729841D01*
G37*
G36*
X2011070Y-1668221D02*
G01*
X2027529Y-1668221D01*
X2043938Y-1666341D01*
X2059990Y-1662582D01*
X2075535Y-1657045D01*
X2090318Y-1649780D01*
X2104186Y-1640890D01*
X2116988Y-1630426D01*
X2128469Y-1618589D01*
X2138527Y-1605534D01*
X2147062Y-1591411D01*
X2153920Y-1576425D01*
X2159000Y-1560728D01*
X2162302Y-1544574D01*
X2163724Y-1528114D01*
X2163216Y-1511655D01*
X2160879Y-1495298D01*
X2156663Y-1479346D01*
X2150719Y-1464005D01*
X2142998Y-1449425D01*
X2133701Y-1435811D01*
X2122881Y-1423314D01*
X2110740Y-1412189D01*
X2097379Y-1402486D01*
X2083054Y-1394358D01*
X2067864Y-1387957D01*
X2052015Y-1383284D01*
X2035759Y-1380490D01*
X2019300Y-1379524D01*
X2002840Y-1380490D01*
X1986584Y-1383284D01*
X1970735Y-1387957D01*
X1955546Y-1394358D01*
X1941220Y-1402486D01*
X1927860Y-1412189D01*
X1915718Y-1423314D01*
X1904898Y-1435811D01*
X1895602Y-1449425D01*
X1887880Y-1464005D01*
X1881936Y-1479346D01*
X1877720Y-1495298D01*
X1875383Y-1511655D01*
X1874875Y-1528114D01*
X1876298Y-1544574D01*
X1879600Y-1560728D01*
X1884680Y-1576425D01*
X1891538Y-1591411D01*
X1900072Y-1605534D01*
X1910130Y-1618589D01*
X1921611Y-1630426D01*
X1934413Y-1640890D01*
X1948281Y-1649780D01*
X1963064Y-1657045D01*
X1978609Y-1662582D01*
X1994662Y-1666341D01*
G37*
G36*
X1066038Y-1389634D02*
G01*
X1066038Y-1319936D01*
X996340Y-1319936D01*
X1000404Y-1330248D01*
X1007414Y-1342999D01*
X1015898Y-1354683D01*
X1025855Y-1365300D01*
X1037031Y-1374546D01*
X1049274Y-1382268D01*
X1062380Y-1388465D01*
G37*
G36*
X1143762Y-1389634D02*
G01*
X1147419Y-1388465D01*
X1160526Y-1382268D01*
X1172768Y-1374546D01*
X1183944Y-1365300D01*
X1193850Y-1354683D01*
X1202385Y-1342999D01*
X1209395Y-1330248D01*
X1213459Y-1319936D01*
X1143762Y-1319936D01*
G37*
G36*
X996340Y-1242263D02*
G01*
X1066038Y-1242263D01*
X1066038Y-1203299D01*
X1067003Y-1198981D01*
X1069746Y-1195476D01*
X1073658Y-1193444D01*
X1078128Y-1193292D01*
X1090422Y-1195679D01*
X1104900Y-1196594D01*
X1119378Y-1195679D01*
X1131671Y-1193292D01*
X1136091Y-1193444D01*
X1140053Y-1195476D01*
X1142796Y-1198981D01*
X1143762Y-1203299D01*
X1143762Y-1242263D01*
X1213459Y-1242263D01*
X1209395Y-1231950D01*
X1202385Y-1219200D01*
X1193850Y-1207516D01*
X1183944Y-1196898D01*
X1174292Y-1188923D01*
X1171549Y-1185418D01*
X1170584Y-1181100D01*
X1171549Y-1176782D01*
X1174292Y-1173276D01*
X1183944Y-1165301D01*
X1193850Y-1154684D01*
X1202385Y-1143000D01*
X1209395Y-1130249D01*
X1214729Y-1116787D01*
X1218336Y-1102715D01*
X1220165Y-1088339D01*
X1220165Y-1073861D01*
X1218336Y-1059484D01*
X1214729Y-1045413D01*
X1209395Y-1031951D01*
X1202385Y-1019200D01*
X1193850Y-1007516D01*
X1183944Y-996899D01*
X1172768Y-987704D01*
X1160526Y-979932D01*
X1147419Y-973734D01*
X1133602Y-969264D01*
X1119378Y-966520D01*
X1104900Y-965606D01*
X1090422Y-966520D01*
X1076198Y-969264D01*
X1062380Y-973734D01*
X1049274Y-979932D01*
X1037031Y-987704D01*
X1025855Y-996899D01*
X1015898Y-1007516D01*
X1007414Y-1019200D01*
X1000404Y-1031951D01*
X995070Y-1045413D01*
X991463Y-1059484D01*
X989634Y-1073861D01*
X989634Y-1088339D01*
X991463Y-1102715D01*
X995070Y-1116787D01*
X1000404Y-1130249D01*
X1007414Y-1143000D01*
X1015898Y-1154684D01*
X1025855Y-1165301D01*
X1035507Y-1173276D01*
X1038250Y-1176782D01*
X1039215Y-1181100D01*
X1038250Y-1185418D01*
X1035507Y-1188923D01*
X1025855Y-1196898D01*
X1015898Y-1207516D01*
X1007414Y-1219200D01*
X1000404Y-1231950D01*
G37*
G36*
X520700Y-1216761D02*
G01*
X536702Y-1215847D01*
X552500Y-1213104D01*
X567893Y-1208582D01*
X582676Y-1202334D01*
X596646Y-1194460D01*
X609600Y-1185062D01*
X621436Y-1174191D01*
X631952Y-1162100D01*
X640994Y-1148842D01*
X648462Y-1134668D01*
X654304Y-1119682D01*
X658368Y-1104188D01*
X660654Y-1088339D01*
X661111Y-1072286D01*
X659739Y-1056284D01*
X656539Y-1040587D01*
X651611Y-1025347D01*
X644956Y-1010716D01*
X636676Y-997000D01*
X626872Y-984300D01*
X615696Y-972819D01*
X603250Y-962660D01*
X589788Y-953973D01*
X575360Y-946912D01*
X560273Y-941527D01*
X544677Y-937869D01*
X528726Y-936040D01*
X512673Y-936040D01*
X496722Y-937869D01*
X481126Y-941527D01*
X466039Y-946912D01*
X451612Y-953973D01*
X438150Y-962660D01*
X425704Y-972819D01*
X414528Y-984300D01*
X404723Y-997000D01*
X396443Y-1010716D01*
X389788Y-1025347D01*
X384860Y-1040587D01*
X381660Y-1056284D01*
X380288Y-1072286D01*
X380746Y-1088339D01*
X383032Y-1104188D01*
X387096Y-1119682D01*
X392938Y-1134668D01*
X400405Y-1148842D01*
X409448Y-1162100D01*
X419963Y-1174191D01*
X431800Y-1185062D01*
X444754Y-1194460D01*
X458724Y-1202334D01*
X473506Y-1208582D01*
X488899Y-1213104D01*
X504698Y-1215847D01*
G37*
G36*
X2195931Y-1205382D02*
G01*
X2209342Y-1204468D01*
X2222500Y-1201826D01*
X2235200Y-1197406D01*
X2247138Y-1191361D01*
X2258212Y-1183741D01*
X2268169Y-1174750D01*
X2276856Y-1164488D01*
X2284069Y-1153160D01*
X2289708Y-1141018D01*
X2293670Y-1128166D01*
X2295906Y-1114958D01*
X2296363Y-1101547D01*
X2295042Y-1088186D01*
X2291892Y-1075131D01*
X2287066Y-1062583D01*
X2280615Y-1050848D01*
X2272690Y-1040028D01*
X2263343Y-1030376D01*
X2252827Y-1022045D01*
X2241245Y-1015237D01*
X2228900Y-1010005D01*
X2215946Y-1006449D01*
X2202688Y-1004671D01*
X2189226Y-1004671D01*
X2175916Y-1006449D01*
X2163013Y-1010005D01*
X2150618Y-1015237D01*
X2139086Y-1022045D01*
X2128215Y-1030732D01*
X2124862Y-1033068D01*
X2120900Y-1033830D01*
X2116937Y-1033068D01*
X2113229Y-1030376D01*
X2102713Y-1022045D01*
X2091131Y-1015237D01*
X2078786Y-1010005D01*
X2077212Y-1009548D01*
X2077212Y-1073556D01*
X2087524Y-1073556D01*
X2091080Y-1074216D01*
X2094230Y-1076096D01*
X2096465Y-1078941D01*
X2097582Y-1082446D01*
X2097379Y-1086053D01*
X2096871Y-1088186D01*
X2095550Y-1101547D01*
X2096007Y-1114958D01*
X2097582Y-1124407D01*
X2097379Y-1128776D01*
X2095296Y-1132636D01*
X2091842Y-1135329D01*
X2087575Y-1136243D01*
X2077212Y-1136243D01*
X2077212Y-1200150D01*
X2085086Y-1197406D01*
X2097024Y-1191361D01*
X2108098Y-1183741D01*
X2114092Y-1178356D01*
X2117242Y-1176426D01*
X2120900Y-1175715D01*
X2124557Y-1176426D01*
X2127707Y-1178356D01*
X2133701Y-1183741D01*
X2144725Y-1191361D01*
X2156714Y-1197406D01*
X2169414Y-1201826D01*
X2182571Y-1204468D01*
G37*
G36*
X2014474Y-1200150D02*
G01*
X2014474Y-1136243D01*
X1950618Y-1136243D01*
X1952091Y-1141018D01*
X1957730Y-1153160D01*
X1964943Y-1164488D01*
X1973630Y-1174750D01*
X1983587Y-1183741D01*
X1994611Y-1191361D01*
X2006600Y-1197406D01*
G37*
G36*
X1950466Y-1073556D02*
G01*
X2014474Y-1073556D01*
X2014474Y-1009548D01*
X2012899Y-1010005D01*
X2000504Y-1015237D01*
X1988972Y-1022045D01*
X1978456Y-1030376D01*
X1969109Y-1040028D01*
X1961134Y-1050848D01*
X1954682Y-1062583D01*
G37*
G36*
X1599539Y-675284D02*
G01*
X1778660Y-675284D01*
X1787855Y-674471D01*
X1796338Y-672236D01*
X1804314Y-668477D01*
X1811528Y-663448D01*
X1817725Y-657250D01*
X1822805Y-650036D01*
X1826514Y-642061D01*
X1827275Y-639165D01*
X1829104Y-635508D01*
X1832254Y-632866D01*
X1836216Y-631698D01*
X1840280Y-632155D01*
X1843836Y-634238D01*
X1855520Y-644652D01*
X1868373Y-653745D01*
X1882139Y-661365D01*
X1891741Y-665327D01*
X1891741Y-566166D01*
X1839722Y-566166D01*
X1835861Y-565404D01*
X1832559Y-563168D01*
X1830374Y-559866D01*
X1829562Y-556006D01*
X1829562Y-433628D01*
X1830374Y-429717D01*
X1832559Y-426415D01*
X1835861Y-424230D01*
X1839722Y-423468D01*
X1891741Y-423468D01*
X1891741Y-324256D01*
X1882139Y-328218D01*
X1868373Y-335838D01*
X1855520Y-344982D01*
X1843836Y-355396D01*
X1840280Y-357428D01*
X1836216Y-357936D01*
X1832254Y-356768D01*
X1829104Y-354126D01*
X1827275Y-350418D01*
X1826514Y-347522D01*
X1822805Y-339598D01*
X1817725Y-332384D01*
X1811528Y-326136D01*
X1804314Y-321106D01*
X1796338Y-317398D01*
X1787855Y-315112D01*
X1778660Y-314299D01*
X1599539Y-314299D01*
X1590344Y-315112D01*
X1581810Y-317398D01*
X1573834Y-321106D01*
X1566672Y-326136D01*
X1560423Y-332384D01*
X1555394Y-339598D01*
X1551686Y-347522D01*
X1549400Y-356057D01*
X1548587Y-365252D01*
X1548587Y-624382D01*
X1549400Y-633577D01*
X1551686Y-642061D01*
X1555394Y-650036D01*
X1560423Y-657250D01*
X1566672Y-663448D01*
X1573834Y-668477D01*
X1581810Y-672236D01*
X1590344Y-674471D01*
G37*
G36*
X7665872Y-458774D02*
G01*
X7665872Y-347827D01*
X7554925Y-347827D01*
X7557871Y-354482D01*
X7567980Y-372719D01*
X7579766Y-389890D01*
X7593075Y-405892D01*
X7607808Y-420624D01*
X7623809Y-433933D01*
X7640980Y-445719D01*
X7659217Y-455828D01*
G37*
G36*
X343865Y-454761D02*
G01*
X350520Y-451866D01*
X368706Y-441706D01*
X385876Y-429920D01*
X401929Y-416610D01*
X416610Y-401929D01*
X429920Y-385876D01*
X441706Y-368706D01*
X451866Y-350520D01*
X454761Y-343865D01*
X343865Y-343865D01*
G37*
G36*
X156159Y-454761D02*
G01*
X156159Y-343865D01*
X45110Y-343865D01*
X48158Y-350520D01*
X58267Y-368706D01*
X70053Y-385876D01*
X83362Y-401929D01*
X98094Y-416610D01*
X114096Y-429920D01*
X131318Y-441706D01*
X149504Y-451866D01*
G37*
G36*
X5907328Y-441858D02*
G01*
X5982055Y-441858D01*
X5982055Y-367690D01*
X5967628Y-374142D01*
X5954522Y-382066D01*
X5942482Y-391464D01*
X5931662Y-402285D01*
X5922264Y-414324D01*
X5914339Y-427431D01*
X5908751Y-439826D01*
G37*
G36*
X6070955Y-441858D02*
G01*
X6145682Y-441858D01*
X6144260Y-439826D01*
X6138672Y-427431D01*
X6130747Y-414324D01*
X6121298Y-402285D01*
X6110478Y-391464D01*
X6098438Y-382066D01*
X6085382Y-374142D01*
X6070955Y-367690D01*
G37*
G36*
X7554925Y-160172D02*
G01*
X7665872Y-160172D01*
X7665872Y-49225D01*
X7659217Y-52171D01*
X7640980Y-62280D01*
X7623809Y-74066D01*
X7607808Y-87376D01*
X7593075Y-102108D01*
X7579766Y-118110D01*
X7567980Y-135280D01*
X7557871Y-153517D01*
G37*
G36*
X343865Y-156159D02*
G01*
X454761Y-156159D01*
X451866Y-149504D01*
X441706Y-131318D01*
X429920Y-114096D01*
X416610Y-98094D01*
X401929Y-83362D01*
X385876Y-70053D01*
X368706Y-58267D01*
X350520Y-48158D01*
X343865Y-45110D01*
G37*
G36*
X45110Y-156159D02*
G01*
X156159Y-156159D01*
X156159Y-45110D01*
X149504Y-48158D01*
X131318Y-58267D01*
X114096Y-70053D01*
X98094Y-83362D01*
X83362Y-98094D01*
X70053Y-114096D01*
X58267Y-131318D01*
X48158Y-149504D01*
G37*

%LPD*%
D10*
X2794000Y-1473200D02*
G01*
X2768600Y-1447800D01*
X2514600Y-1447800D01*
X2476500Y-1485900D01*
X2476500Y-2692400D01*
X2247900Y-2463800D01*
X1329054Y-2463800D01*
X1214754Y-2349500D01*
X1130300Y-2349500D01*
X1790700Y-2628900D02*
G01*
X2146300Y-2984500D01*
X2146300Y-4762500D01*
X2171700Y-4787900D01*
X4559300Y-4787900D01*
X4559300Y-3263900D01*
X4546600Y-3251200D01*
X4318000Y-3251200D01*
X5772505Y-486308D02*
G01*
X5451297Y-165100D01*
X2641600Y-165100D01*
X2310891Y-495807D01*
X2197125Y-495807D01*
X6280505Y-486308D02*
G01*
X6146800Y-620013D01*
X6146800Y-2463800D01*
X6578600Y-2463800D01*
X6667500Y-2552700D01*
X6667500Y-3492500D01*
X6629400Y-3530600D01*
X6172200Y-3530600D01*
X6158484Y-3516884D01*
X6158484Y-3209289D01*
X6534505Y-486308D02*
G01*
X6337300Y-683513D01*
X6337300Y-2273300D01*
X6743700Y-2273300D01*
X6845300Y-2374900D01*
X6845300Y-3238500D01*
X7099300Y-3492500D01*
X7099300Y-4152900D01*
X7061200Y-4191000D01*
X5867400Y-4191000D01*
X5904484Y-4153915D01*
X5904484Y-3209289D01*
X2794000Y-2489200D02*
G01*
X3517900Y-1765300D01*
X3517900Y-317500D01*
X4483100Y-317500D01*
X4800600Y-635000D01*
X4800600Y-2743200D01*
X4813300Y-2755900D01*
X5829300Y-2755900D01*
X5904484Y-2831084D01*
X5904484Y-3209289D01*
X5772505Y-486308D02*
G01*
X5943600Y-657402D01*
X5943600Y-2578100D01*
X5969000Y-2603500D01*
X6388100Y-2603500D01*
X6412484Y-2627884D01*
X6412484Y-3209289D01*
D11*
G01*
X1104900Y-1081100D03*
G01*
X1104900Y-1281099D03*
D10*
G01*
X2045843Y-1104900D03*
G01*
X2195956Y-1104900D03*
D12*
G01*
X520700Y-1076299D03*
G01*
X520700Y-1946300D03*
D13*
G01*
X508000Y-2565400D03*
D12*
G01*
X508000Y-2819400D03*
D14*
G01*
X1701800Y-2019300D03*
G01*
X1447800Y-2019300D03*
D15*
G01*
X1282700Y-3784600D03*
G01*
X1155700Y-3784600D03*
D16*
G01*
X1028700Y-3784600D03*
D17*
G01*
X2019300Y-2286000D03*
G01*
X2019300Y-1524000D03*
G01*
X1130300Y-2349500D03*
G01*
X1130300Y-1587500D03*
G01*
X1282700Y-2616200D03*
G01*
X1282700Y-3378200D03*
G01*
X1790700Y-2628900D03*
G01*
X1790700Y-3390900D03*
G01*
X647700Y-4076700D03*
G01*
X647700Y-3314700D03*
D18*
G01*
X1943100Y-494817D03*
G01*
X2197125Y-495807D03*
D19*
G01*
X1689100Y-494792D03*
D20*
G01*
X4318000Y-4267200D03*
D21*
G01*
X2794000Y-4013200D03*
G01*
X2794000Y-3505200D03*
G01*
X2794000Y-2997200D03*
G01*
X2794000Y-2489200D03*
G01*
X2794000Y-1981200D03*
G01*
X2794000Y-1473200D03*
G01*
X2794000Y-965200D03*
G01*
X4318000Y-711200D03*
G01*
X4318000Y-1219200D03*
G01*
X4318000Y-1727200D03*
G01*
X4318000Y-2235200D03*
G01*
X4318000Y-2743200D03*
G01*
X4318000Y-3251200D03*
G01*
X4318000Y-3759200D03*
G01*
X4318000Y-4013200D03*
G01*
X4318000Y-3505200D03*
G01*
X4318000Y-2997200D03*
G01*
X4318000Y-2489200D03*
G01*
X4318000Y-1981200D03*
G01*
X4318000Y-1473200D03*
G01*
X4318000Y-965200D03*
G01*
X2794000Y-711200D03*
G01*
X2794000Y-1219200D03*
G01*
X2794000Y-1727200D03*
G01*
X2794000Y-2235200D03*
G01*
X2794000Y-2743200D03*
G01*
X2794000Y-3251200D03*
G01*
X2794000Y-3759200D03*
D20*
G01*
X2794000Y-4267200D03*
D22*
G01*
X6412484Y-3209289D03*
G01*
X6158484Y-3209289D03*
G01*
X5904484Y-3209289D03*
G01*
X5650484Y-3209289D03*
G01*
X5396484Y-3209289D03*
G01*
X5142484Y-3209289D03*
G01*
X4888484Y-3209289D03*
G01*
X5772505Y-486308D03*
G01*
X6026505Y-486308D03*
G01*
X6280505Y-486308D03*
G01*
X6534505Y-486308D03*
G01*
X7586192Y-3048000D03*
G01*
X7336205Y-3048000D03*
G01*
X7086193Y-3048000D03*
G01*
X7586192Y-4498009D03*
G01*
X7086193Y-4498009D03*
D23*
G01*
X6866686Y-3798011D03*
G01*
X7796707Y-3798011D03*
D24*
G01*
X250012Y-250012D03*
G01*
X7759700Y-254000D03*
G01*
X254000Y-4749800D03*
G01*
X7759700Y-4749800D03*
M02*
