G04 Layer: TopSolderMaskLayer*
G04 EasyEDA v6.5.50, 2025-05-18 23:27:22*
G04 3d9ee40f25bc44afba2a55a8afe60d3c,38e003156f3e444eba849dea5bfb7f5a,10*
G04 Gerber Generator version 0.2*
G04 Scale: 100 percent, Rotated: No, Reflected: No *
G04 Dimensions in millimeters *
G04 leading zeros omitted , absolute positions ,4 integer and 5 decimal *
%FSLAX45Y45*%
%MOMM*%

%AMMACRO1*4,1,8,-0.9421,-1.0016,-1.0016,-0.9421,-1.0016,0.9421,-0.9421,1.0016,0.9421,1.0016,1.0016,0.9421,1.0016,-0.9421,0.9421,-1.0016,-0.9421,-1.0016,0*%
%AMMACRO2*4,1,8,-0.4711,-0.8508,-0.5008,-0.821,-0.5008,0.8211,-0.4711,0.8508,0.471,0.8508,0.5008,0.8211,0.5008,-0.821,0.471,-0.8508,-0.4711,-0.8508,0*%
%AMMACRO3*4,1,8,-0.9211,-1.3508,-0.9508,-1.321,-0.9508,1.3211,-0.9211,1.3508,0.921,1.3508,0.9508,1.3211,0.9508,-1.321,0.921,-1.3508,-0.9211,-1.3508,0*%
%AMMACRO4*4,1,8,-0.8211,-0.8508,-0.8508,-0.821,-0.8508,0.8211,-0.8211,0.8508,0.821,0.8508,0.8508,0.8211,0.8508,-0.821,0.821,-0.8508,-0.8211,-0.8508,0*%
%ADD10C,1.5032*%
%ADD11C,1.2032*%
%ADD12C,1.9016*%
%ADD13MACRO1*%
%ADD14C,2.0032*%
%ADD15C,1.5016*%
%ADD16O,1.0015981999999999X1.7015968*%
%ADD17MACRO2*%
%ADD18C,1.9812*%
%ADD19O,1.9015964X2.7015948*%
%ADD20MACRO3*%
%ADD21MACRO4*%
%ADD22C,1.7016*%
%ADD23C,1.7272*%
%ADD24C,2.0320*%
%ADD25C,3.2032*%
%ADD26C,3.6016*%
%ADD27C,0.0138*%

%LPD*%
D10*
G01*
X1104900Y-1081100D03*
G01*
X1104900Y-1281099D03*
D11*
G01*
X2045843Y-1104900D03*
G01*
X2195956Y-1104900D03*
D12*
G01*
X520700Y-1076299D03*
G01*
X520700Y-1946300D03*
D13*
G01*
X508000Y-2565400D03*
D14*
G01*
X508000Y-2819400D03*
D15*
G01*
X1701800Y-2019300D03*
G01*
X1447800Y-2019300D03*
D16*
G01*
X1282700Y-3784600D03*
G01*
X1155700Y-3784600D03*
D17*
G01*
X1028701Y-3784600D03*
D18*
G01*
X2019300Y-2286000D03*
G01*
X2019300Y-1524000D03*
G01*
X1130300Y-2349500D03*
G01*
X1130300Y-1587500D03*
G01*
X1282700Y-2616200D03*
G01*
X1282700Y-3378200D03*
G01*
X1790700Y-2628900D03*
G01*
X1790700Y-3390900D03*
G01*
X647700Y-4076700D03*
G01*
X647700Y-3314700D03*
D19*
G01*
X1943100Y-494817D03*
G01*
X2197125Y-495807D03*
D20*
G01*
X1689087Y-494804D03*
D21*
G01*
X4318000Y-4267200D03*
D22*
G01*
X2794000Y-4013200D03*
G01*
X2794000Y-3505200D03*
G01*
X2794000Y-2997200D03*
G01*
X2794000Y-2489200D03*
G01*
X2794000Y-1981200D03*
G01*
X2794000Y-1473200D03*
G01*
X2794000Y-965200D03*
G01*
X4318000Y-711200D03*
G01*
X4318000Y-1219200D03*
G01*
X4318000Y-1727200D03*
G01*
X4318000Y-2235200D03*
G01*
X4318000Y-2743200D03*
G01*
X4318000Y-3251200D03*
G01*
X4318000Y-3759200D03*
G01*
X4318000Y-4013200D03*
G01*
X4318000Y-3505200D03*
G01*
X4318000Y-2997200D03*
G01*
X4318000Y-2489200D03*
G01*
X4318000Y-1981200D03*
G01*
X4318000Y-1473200D03*
G01*
X4318000Y-965200D03*
G01*
X2794000Y-711200D03*
G01*
X2794000Y-1219200D03*
G01*
X2794000Y-1727200D03*
G01*
X2794000Y-2235200D03*
G01*
X2794000Y-2743200D03*
G01*
X2794000Y-3251200D03*
G01*
X2794000Y-3759200D03*
D21*
G01*
X2794000Y-4267200D03*
D23*
G01*
X6412484Y-3209289D03*
G01*
X6158484Y-3209289D03*
G01*
X5904484Y-3209289D03*
G01*
X5650484Y-3209289D03*
G01*
X5396484Y-3209289D03*
G01*
X5142484Y-3209289D03*
G01*
X4888484Y-3209289D03*
D24*
G01*
X5772505Y-486308D03*
G01*
X6026505Y-486308D03*
G01*
X6280505Y-486308D03*
G01*
X6534505Y-486308D03*
D23*
G01*
X7586192Y-3048000D03*
G01*
X7336205Y-3048000D03*
G01*
X7086193Y-3048000D03*
G01*
X7586192Y-4498009D03*
G01*
X7086193Y-4498009D03*
D25*
G01*
X6866686Y-3798011D03*
G01*
X7796707Y-3798011D03*
D26*
G01*
X250012Y-250012D03*
G01*
X7759700Y-254000D03*
G01*
X254000Y-4749800D03*
G01*
X7759700Y-4749800D03*
M02*
