G04 Layer: TopSilkscreenLayer*
G04 EasyEDA v6.5.50, 2025-05-18 23:27:22*
G04 3d9ee40f25bc44afba2a55a8afe60d3c,38e003156f3e444eba849dea5bfb7f5a,10*
G04 Gerber Generator version 0.2*
G04 Scale: 100 percent, Rotated: No, Reflected: No *
G04 Dimensions in millimeters *
G04 leading zeros omitted , absolute positions ,4 integer and 5 decimal *
%FSLAX45Y45*%
%MOMM*%

%ADD10C,0.1524*%
%ADD11C,0.1500*%
%ADD12C,0.2032*%
%ADD13C,0.2540*%
%ADD14C,0.1520*%
%ADD15C,0.4000*%
%ADD16C,0.3000*%
%ADD17C,0.0196*%

%LPD*%
G36*
X4801616Y-4598416D02*
G01*
X4796078Y-4598619D01*
X4790643Y-4599279D01*
X4785410Y-4600346D01*
X4780381Y-4601819D01*
X4775555Y-4603750D01*
X4770932Y-4606036D01*
X4766564Y-4608677D01*
X4762398Y-4611776D01*
X4758486Y-4615180D01*
X4754880Y-4618990D01*
X4751527Y-4623155D01*
X4748479Y-4627676D01*
X4745736Y-4632502D01*
X4743348Y-4637684D01*
X4741265Y-4643221D01*
X4739538Y-4649012D01*
X4738166Y-4655159D01*
X4737150Y-4661611D01*
X4736541Y-4668367D01*
X4736338Y-4675378D01*
X4736541Y-4682490D01*
X4737150Y-4689246D01*
X4738116Y-4695748D01*
X4739436Y-4701895D01*
X4741164Y-4707737D01*
X4743196Y-4713274D01*
X4745583Y-4718456D01*
X4748276Y-4723333D01*
X4751273Y-4727803D01*
X4754524Y-4731969D01*
X4758080Y-4735728D01*
X4761890Y-4739132D01*
X4765954Y-4742180D01*
X4770272Y-4744821D01*
X4774793Y-4747107D01*
X4779568Y-4748987D01*
X4784496Y-4750409D01*
X4789627Y-4751476D01*
X4794910Y-4752136D01*
X4800346Y-4752340D01*
X4807356Y-4751984D01*
X4813960Y-4750917D01*
X4820158Y-4749190D01*
X4825949Y-4746802D01*
X4831384Y-4743805D01*
X4836515Y-4740148D01*
X4841290Y-4735880D01*
X4845812Y-4731004D01*
X4836414Y-4720590D01*
X4832654Y-4724450D01*
X4828743Y-4727854D01*
X4824730Y-4730750D01*
X4820462Y-4733188D01*
X4816043Y-4735118D01*
X4811318Y-4736490D01*
X4806391Y-4737303D01*
X4801108Y-4737608D01*
X4795774Y-4737303D01*
X4790694Y-4736490D01*
X4785868Y-4735118D01*
X4781346Y-4733239D01*
X4777130Y-4730851D01*
X4773218Y-4727956D01*
X4769662Y-4724603D01*
X4766411Y-4720742D01*
X4763516Y-4716475D01*
X4760925Y-4711750D01*
X4758740Y-4706620D01*
X4756912Y-4701082D01*
X4755489Y-4695139D01*
X4754473Y-4688840D01*
X4753813Y-4682134D01*
X4753610Y-4675124D01*
X4753813Y-4668113D01*
X4754473Y-4661458D01*
X4755540Y-4655159D01*
X4757064Y-4649266D01*
X4758944Y-4643729D01*
X4761179Y-4638649D01*
X4763820Y-4633976D01*
X4766767Y-4629759D01*
X4770120Y-4625949D01*
X4773777Y-4622647D01*
X4777740Y-4619802D01*
X4782007Y-4617415D01*
X4786579Y-4615586D01*
X4791405Y-4614214D01*
X4796536Y-4613402D01*
X4801870Y-4613148D01*
X4811064Y-4614214D01*
X4819243Y-4617110D01*
X4826406Y-4621631D01*
X4832604Y-4627372D01*
X4842002Y-4616450D01*
X4838598Y-4612995D01*
X4834686Y-4609642D01*
X4830318Y-4606594D01*
X4825441Y-4603902D01*
X4820107Y-4601667D01*
X4814366Y-4599889D01*
X4808169Y-4598822D01*
G37*
G36*
X5374640Y-4598416D02*
G01*
X5369204Y-4598619D01*
X5363921Y-4599279D01*
X5358841Y-4600346D01*
X5353964Y-4601819D01*
X5349290Y-4603699D01*
X5344871Y-4605934D01*
X5340604Y-4608626D01*
X5336641Y-4611624D01*
X5332933Y-4615078D01*
X5329478Y-4618837D01*
X5326278Y-4622952D01*
X5323382Y-4627422D01*
X5320792Y-4632248D01*
X5318506Y-4637430D01*
X5316524Y-4642866D01*
X5314899Y-4648657D01*
X5313578Y-4654804D01*
X5312664Y-4661204D01*
X5312105Y-4667910D01*
X5311902Y-4674870D01*
X5329174Y-4674870D01*
X5329377Y-4667910D01*
X5329986Y-4661255D01*
X5331002Y-4655007D01*
X5332425Y-4649165D01*
X5334203Y-4643678D01*
X5336336Y-4638598D01*
X5338826Y-4633925D01*
X5341620Y-4629708D01*
X5344769Y-4625949D01*
X5348224Y-4622647D01*
X5351932Y-4619802D01*
X5355945Y-4617415D01*
X5360263Y-4615586D01*
X5364835Y-4614214D01*
X5369610Y-4613402D01*
X5374640Y-4613148D01*
X5379720Y-4613402D01*
X5384546Y-4614214D01*
X5389118Y-4615586D01*
X5393486Y-4617415D01*
X5397500Y-4619802D01*
X5401259Y-4622647D01*
X5404713Y-4625949D01*
X5407863Y-4629708D01*
X5410708Y-4633925D01*
X5413197Y-4638598D01*
X5415330Y-4643678D01*
X5417108Y-4649165D01*
X5418531Y-4655007D01*
X5419547Y-4661255D01*
X5420156Y-4667910D01*
X5420360Y-4674870D01*
X5420156Y-4681829D01*
X5419547Y-4688484D01*
X5418531Y-4694783D01*
X5417108Y-4700727D01*
X5415330Y-4706315D01*
X5413197Y-4711446D01*
X5410708Y-4716221D01*
X5407863Y-4720539D01*
X5404713Y-4724400D01*
X5401259Y-4727803D01*
X5397500Y-4730750D01*
X5393486Y-4733137D01*
X5389118Y-4735068D01*
X5384546Y-4736490D01*
X5379720Y-4737303D01*
X5374640Y-4737608D01*
X5369610Y-4737303D01*
X5364835Y-4736490D01*
X5360263Y-4735068D01*
X5355945Y-4733137D01*
X5351932Y-4730750D01*
X5348224Y-4727803D01*
X5344769Y-4724400D01*
X5341620Y-4720539D01*
X5338826Y-4716221D01*
X5336336Y-4711446D01*
X5334203Y-4706315D01*
X5332425Y-4700727D01*
X5331002Y-4694783D01*
X5329986Y-4688484D01*
X5329377Y-4681829D01*
X5329174Y-4674870D01*
X5311902Y-4674870D01*
X5312105Y-4681880D01*
X5312664Y-4688586D01*
X5313578Y-4695037D01*
X5314899Y-4701184D01*
X5316524Y-4707026D01*
X5318506Y-4712563D01*
X5320792Y-4717745D01*
X5323382Y-4722672D01*
X5326278Y-4727194D01*
X5329478Y-4731410D01*
X5332933Y-4735271D01*
X5336641Y-4738725D01*
X5340604Y-4741875D01*
X5344871Y-4744567D01*
X5349290Y-4746904D01*
X5353964Y-4748834D01*
X5358841Y-4750358D01*
X5363921Y-4751476D01*
X5369204Y-4752136D01*
X5374640Y-4752340D01*
X5380126Y-4752136D01*
X5385409Y-4751476D01*
X5390540Y-4750358D01*
X5395417Y-4748834D01*
X5400141Y-4746904D01*
X5404612Y-4744567D01*
X5408828Y-4741875D01*
X5412841Y-4738725D01*
X5416550Y-4735271D01*
X5420055Y-4731410D01*
X5423255Y-4727194D01*
X5426151Y-4722672D01*
X5428742Y-4717745D01*
X5431028Y-4712563D01*
X5433009Y-4707026D01*
X5434634Y-4701184D01*
X5435955Y-4695037D01*
X5436870Y-4688586D01*
X5437428Y-4681880D01*
X5437632Y-4674870D01*
X5437428Y-4667910D01*
X5436870Y-4661204D01*
X5435955Y-4654804D01*
X5434634Y-4648657D01*
X5433009Y-4642866D01*
X5431028Y-4637430D01*
X5428742Y-4632248D01*
X5426151Y-4627422D01*
X5423255Y-4622952D01*
X5420055Y-4618837D01*
X5416550Y-4615078D01*
X5412841Y-4611624D01*
X5408828Y-4608626D01*
X5404612Y-4605934D01*
X5400141Y-4603699D01*
X5395417Y-4601819D01*
X5390540Y-4600346D01*
X5385409Y-4599279D01*
X5380126Y-4598619D01*
G37*
G36*
X5939282Y-4598416D02*
G01*
X5933744Y-4598619D01*
X5928309Y-4599279D01*
X5923076Y-4600346D01*
X5918047Y-4601819D01*
X5913221Y-4603750D01*
X5908598Y-4606036D01*
X5904230Y-4608677D01*
X5900064Y-4611776D01*
X5896152Y-4615180D01*
X5892546Y-4618990D01*
X5889193Y-4623155D01*
X5886145Y-4627676D01*
X5883402Y-4632502D01*
X5881014Y-4637684D01*
X5878931Y-4643221D01*
X5877204Y-4649012D01*
X5875832Y-4655159D01*
X5874816Y-4661611D01*
X5874207Y-4668367D01*
X5874004Y-4675378D01*
X5874207Y-4682490D01*
X5874816Y-4689246D01*
X5875782Y-4695748D01*
X5877153Y-4701895D01*
X5878880Y-4707737D01*
X5880912Y-4713274D01*
X5883300Y-4718456D01*
X5885992Y-4723333D01*
X5888990Y-4727803D01*
X5892292Y-4731969D01*
X5895848Y-4735728D01*
X5899658Y-4739132D01*
X5903772Y-4742180D01*
X5908040Y-4744821D01*
X5912561Y-4747107D01*
X5917285Y-4748987D01*
X5922213Y-4750409D01*
X5927344Y-4751476D01*
X5932576Y-4752136D01*
X5938012Y-4752340D01*
X5945022Y-4751984D01*
X5951626Y-4750917D01*
X5957824Y-4749190D01*
X5963615Y-4746802D01*
X5969050Y-4743805D01*
X5974181Y-4740148D01*
X5978956Y-4735880D01*
X5983478Y-4731004D01*
X5974080Y-4720590D01*
X5970371Y-4724450D01*
X5966510Y-4727854D01*
X5962497Y-4730750D01*
X5958281Y-4733188D01*
X5953810Y-4735118D01*
X5949137Y-4736490D01*
X5944209Y-4737303D01*
X5939028Y-4737608D01*
X5933643Y-4737303D01*
X5928512Y-4736490D01*
X5923686Y-4735118D01*
X5919114Y-4733239D01*
X5914898Y-4730851D01*
X5910986Y-4727956D01*
X5907379Y-4724603D01*
X5904077Y-4720742D01*
X5901182Y-4716475D01*
X5898591Y-4711750D01*
X5896406Y-4706620D01*
X5894578Y-4701082D01*
X5893155Y-4695139D01*
X5892139Y-4688840D01*
X5891479Y-4682134D01*
X5891276Y-4675124D01*
X5891479Y-4668113D01*
X5892139Y-4661458D01*
X5893257Y-4655159D01*
X5894730Y-4649266D01*
X5896660Y-4643729D01*
X5898896Y-4638649D01*
X5901537Y-4633976D01*
X5904534Y-4629759D01*
X5907887Y-4625949D01*
X5911545Y-4622647D01*
X5915507Y-4619802D01*
X5919774Y-4617415D01*
X5924346Y-4615586D01*
X5929172Y-4614214D01*
X5934202Y-4613402D01*
X5939536Y-4613148D01*
X5948730Y-4614214D01*
X5956909Y-4617110D01*
X5964174Y-4621631D01*
X5970524Y-4627372D01*
X5979668Y-4616450D01*
X5976264Y-4612995D01*
X5972352Y-4609642D01*
X5967984Y-4606594D01*
X5963107Y-4603902D01*
X5957773Y-4601667D01*
X5952032Y-4599889D01*
X5945835Y-4598822D01*
G37*
G36*
X4904994Y-4600956D02*
G01*
X4874739Y-4689602D01*
X4890516Y-4689602D01*
X4906213Y-4640630D01*
X4913630Y-4615180D01*
X4914392Y-4615180D01*
X4925720Y-4652975D01*
X4929886Y-4665472D01*
X4937506Y-4689602D01*
X4874739Y-4689602D01*
X4854194Y-4749800D01*
X4871212Y-4749800D01*
X4886452Y-4702810D01*
X4941824Y-4702810D01*
X4956556Y-4749800D01*
X4974590Y-4749800D01*
X4923536Y-4600956D01*
G37*
G36*
X4996180Y-4600956D02*
G01*
X4996180Y-4614672D01*
X5038852Y-4614672D01*
X5047386Y-4615027D01*
X5054854Y-4616145D01*
X5061254Y-4618075D01*
X5066588Y-4620869D01*
X5070754Y-4624679D01*
X5073751Y-4629454D01*
X5075580Y-4635347D01*
X5076190Y-4642358D01*
X5075580Y-4649317D01*
X5073751Y-4655312D01*
X5070754Y-4660392D01*
X5066588Y-4664506D01*
X5061254Y-4667707D01*
X5054854Y-4669993D01*
X5047386Y-4671364D01*
X5038852Y-4671822D01*
X5012944Y-4671822D01*
X5012944Y-4614672D01*
X4996180Y-4614672D01*
X4996180Y-4749800D01*
X5012944Y-4749800D01*
X5012944Y-4685538D01*
X5040884Y-4685538D01*
X5077968Y-4749800D01*
X5096764Y-4749800D01*
X5058410Y-4684014D01*
X5063540Y-4682642D01*
X5068265Y-4680864D01*
X5072684Y-4678730D01*
X5076748Y-4676241D01*
X5080355Y-4673396D01*
X5083606Y-4670145D01*
X5086350Y-4666488D01*
X5088686Y-4662474D01*
X5090515Y-4658055D01*
X5091836Y-4653229D01*
X5092700Y-4647996D01*
X5092954Y-4642358D01*
X5092496Y-4635144D01*
X5091277Y-4628692D01*
X5089194Y-4623054D01*
X5086350Y-4618075D01*
X5082844Y-4613808D01*
X5078628Y-4610252D01*
X5073802Y-4607255D01*
X5068366Y-4604918D01*
X5062423Y-4603140D01*
X5055920Y-4601921D01*
X5049012Y-4601210D01*
X5041646Y-4600956D01*
G37*
G36*
X5123434Y-4600956D02*
G01*
X5123434Y-4614926D01*
X5158740Y-4614926D01*
X5165293Y-4615180D01*
X5171389Y-4615942D01*
X5177078Y-4617212D01*
X5182311Y-4618939D01*
X5187137Y-4621174D01*
X5191556Y-4623866D01*
X5195519Y-4627016D01*
X5199075Y-4630623D01*
X5202174Y-4634687D01*
X5204866Y-4639157D01*
X5207152Y-4644085D01*
X5209032Y-4649419D01*
X5210454Y-4655210D01*
X5211521Y-4661357D01*
X5212130Y-4667910D01*
X5212334Y-4674870D01*
X5212130Y-4681778D01*
X5211521Y-4688382D01*
X5210454Y-4694580D01*
X5209032Y-4700422D01*
X5207152Y-4705858D01*
X5204866Y-4710887D01*
X5202174Y-4715510D01*
X5199075Y-4719675D01*
X5195519Y-4723434D01*
X5191556Y-4726686D01*
X5187137Y-4729530D01*
X5182311Y-4731816D01*
X5177078Y-4733696D01*
X5171389Y-4735017D01*
X5165293Y-4735830D01*
X5158740Y-4736084D01*
X5140452Y-4736084D01*
X5140452Y-4614926D01*
X5123434Y-4614926D01*
X5123434Y-4749800D01*
X5160772Y-4749800D01*
X5167376Y-4749596D01*
X5173624Y-4748987D01*
X5179568Y-4747920D01*
X5185206Y-4746498D01*
X5190490Y-4744669D01*
X5195468Y-4742434D01*
X5200091Y-4739843D01*
X5204409Y-4736896D01*
X5208422Y-4733544D01*
X5212029Y-4729835D01*
X5215331Y-4725822D01*
X5218328Y-4721453D01*
X5220970Y-4716729D01*
X5223256Y-4711649D01*
X5225186Y-4706315D01*
X5226761Y-4700625D01*
X5227980Y-4694631D01*
X5228894Y-4688332D01*
X5229402Y-4681728D01*
X5229606Y-4674870D01*
X5229402Y-4668012D01*
X5228894Y-4661458D01*
X5227980Y-4655159D01*
X5226761Y-4649216D01*
X5225186Y-4643628D01*
X5223205Y-4638294D01*
X5220919Y-4633315D01*
X5218277Y-4628642D01*
X5215280Y-4624374D01*
X5211927Y-4620361D01*
X5208270Y-4616754D01*
X5204256Y-4613503D01*
X5199888Y-4610608D01*
X5195214Y-4608068D01*
X5190185Y-4605934D01*
X5184800Y-4604156D01*
X5179110Y-4602784D01*
X5173065Y-4601768D01*
X5166715Y-4601159D01*
X5160010Y-4600956D01*
G37*
G36*
X5262372Y-4600956D02*
G01*
X5262372Y-4749800D01*
X5279136Y-4749800D01*
X5279136Y-4600956D01*
G37*
G36*
X5501386Y-4600956D02*
G01*
X5501386Y-4615180D01*
X5546852Y-4615180D01*
X5546852Y-4749800D01*
X5563870Y-4749800D01*
X5563870Y-4615180D01*
X5609336Y-4615180D01*
X5609336Y-4600956D01*
G37*
G36*
X5636260Y-4600956D02*
G01*
X5636260Y-4614672D01*
X5679186Y-4614672D01*
X5687720Y-4615027D01*
X5695188Y-4616145D01*
X5701588Y-4618075D01*
X5706922Y-4620869D01*
X5711088Y-4624679D01*
X5714085Y-4629454D01*
X5715914Y-4635347D01*
X5716524Y-4642358D01*
X5715914Y-4649317D01*
X5714085Y-4655312D01*
X5711088Y-4660392D01*
X5706922Y-4664506D01*
X5701588Y-4667707D01*
X5695188Y-4669993D01*
X5687720Y-4671364D01*
X5679186Y-4671822D01*
X5653278Y-4671822D01*
X5653278Y-4614672D01*
X5636260Y-4614672D01*
X5636260Y-4749800D01*
X5653278Y-4749800D01*
X5653278Y-4685538D01*
X5680964Y-4685538D01*
X5718302Y-4749800D01*
X5737098Y-4749800D01*
X5698744Y-4684014D01*
X5703824Y-4682642D01*
X5708548Y-4680864D01*
X5712917Y-4678730D01*
X5716981Y-4676241D01*
X5720588Y-4673396D01*
X5723839Y-4670145D01*
X5726633Y-4666488D01*
X5728970Y-4662474D01*
X5730798Y-4658055D01*
X5732170Y-4653229D01*
X5732983Y-4647996D01*
X5733288Y-4642358D01*
X5732830Y-4635144D01*
X5731611Y-4628692D01*
X5729528Y-4623054D01*
X5726684Y-4618075D01*
X5723178Y-4613808D01*
X5718962Y-4610252D01*
X5714136Y-4607255D01*
X5708700Y-4604918D01*
X5702757Y-4603140D01*
X5696254Y-4601921D01*
X5689346Y-4601210D01*
X5681980Y-4600956D01*
G37*
G36*
X5793994Y-4600956D02*
G01*
X5763739Y-4689602D01*
X5779516Y-4689602D01*
X5795213Y-4640630D01*
X5802630Y-4615180D01*
X5803392Y-4615180D01*
X5814720Y-4652975D01*
X5818886Y-4665472D01*
X5826506Y-4689602D01*
X5763739Y-4689602D01*
X5743194Y-4749800D01*
X5760212Y-4749800D01*
X5775452Y-4702810D01*
X5830824Y-4702810D01*
X5845556Y-4749800D01*
X5863590Y-4749800D01*
X5812536Y-4600956D01*
G37*
G36*
X6011672Y-4600956D02*
G01*
X6011672Y-4749800D01*
X6028436Y-4749800D01*
X6028436Y-4701794D01*
X6055106Y-4670298D01*
X6100826Y-4749800D01*
X6119622Y-4749800D01*
X6066028Y-4657344D01*
X6112764Y-4600956D01*
X6093460Y-4600956D01*
X6028944Y-4677664D01*
X6028436Y-4677664D01*
X6028436Y-4600956D01*
G37*
G36*
X5841492Y-4786630D02*
G01*
X5820410Y-4792472D01*
X5820410Y-4796536D01*
X5831840Y-4797806D01*
X5831659Y-4876546D01*
X5843270Y-4876546D01*
X5843270Y-4836668D01*
X5848553Y-4832451D01*
X5853125Y-4830064D01*
X5857087Y-4829048D01*
X5860542Y-4828794D01*
X5864402Y-4829251D01*
X5867857Y-4830572D01*
X5870956Y-4832756D01*
X5873546Y-4835855D01*
X5875680Y-4839817D01*
X5877255Y-4844643D01*
X5878220Y-4850384D01*
X5878576Y-4856988D01*
X5878169Y-4863693D01*
X5877052Y-4869383D01*
X5875324Y-4874056D01*
X5872988Y-4877816D01*
X5870194Y-4880660D01*
X5866993Y-4882642D01*
X5863488Y-4883810D01*
X5859780Y-4884166D01*
X5855716Y-4883708D01*
X5851601Y-4882337D01*
X5847435Y-4880000D01*
X5843270Y-4876546D01*
X5831659Y-4876546D01*
X5831586Y-4883658D01*
X5821172Y-4885182D01*
X5821172Y-4889500D01*
X5841746Y-4890770D01*
X5842762Y-4881372D01*
X5847638Y-4886248D01*
X5852668Y-4889296D01*
X5857697Y-4890820D01*
X5862574Y-4891278D01*
X5868619Y-4890617D01*
X5874105Y-4888687D01*
X5878931Y-4885588D01*
X5883097Y-4881422D01*
X5886450Y-4876292D01*
X5888939Y-4870297D01*
X5890463Y-4863490D01*
X5891022Y-4855972D01*
X5890514Y-4848301D01*
X5888939Y-4841494D01*
X5886551Y-4835652D01*
X5883300Y-4830724D01*
X5879388Y-4826863D01*
X5874816Y-4824018D01*
X5869787Y-4822291D01*
X5864352Y-4821682D01*
X5858814Y-4822291D01*
X5853379Y-4824120D01*
X5847994Y-4827371D01*
X5842762Y-4832096D01*
X5842762Y-4807458D01*
X5843270Y-4787646D01*
G37*
G36*
X6677914Y-4786630D02*
G01*
X6656578Y-4792472D01*
X6656578Y-4796536D01*
X6667753Y-4797806D01*
X6667652Y-4877866D01*
X6667500Y-4883658D01*
X6656578Y-4885182D01*
X6656578Y-4889500D01*
X6690614Y-4889500D01*
X6690614Y-4885182D01*
X6679438Y-4883658D01*
X6679184Y-4860290D01*
X6679184Y-4807458D01*
X6679946Y-4787646D01*
G37*
G36*
X6765036Y-4786630D02*
G01*
X6743953Y-4792472D01*
X6743953Y-4796536D01*
X6755130Y-4797806D01*
X6755079Y-4871770D01*
X6754875Y-4883658D01*
X6744462Y-4885182D01*
X6744462Y-4889500D01*
X6776466Y-4889500D01*
X6776466Y-4885182D01*
X6766814Y-4883658D01*
X6766559Y-4839716D01*
X6771995Y-4835296D01*
X6777075Y-4832502D01*
X6781901Y-4830978D01*
X6786625Y-4830572D01*
X6791756Y-4831384D01*
X6795414Y-4834178D01*
X6797598Y-4839360D01*
X6798309Y-4847336D01*
X6798056Y-4883658D01*
X6787642Y-4885182D01*
X6787642Y-4889500D01*
X6819646Y-4889500D01*
X6819646Y-4885182D01*
X6809994Y-4883658D01*
X6809740Y-4847082D01*
X6809435Y-4840732D01*
X6808622Y-4835398D01*
X6807200Y-4831029D01*
X6805218Y-4827524D01*
X6802678Y-4824882D01*
X6799580Y-4823104D01*
X6795922Y-4822037D01*
X6791706Y-4821682D01*
X6785000Y-4822596D01*
X6778345Y-4825187D01*
X6772046Y-4829302D01*
X6766306Y-4834636D01*
X6766306Y-4807458D01*
X6766814Y-4787646D01*
G37*
G36*
X6038088Y-4794250D02*
G01*
X6031738Y-4794707D01*
X6025845Y-4795977D01*
X6020562Y-4798060D01*
X6016040Y-4801006D01*
X6012281Y-4804664D01*
X6009487Y-4809032D01*
X6007709Y-4814112D01*
X6007100Y-4819904D01*
X6007557Y-4824780D01*
X6008827Y-4829200D01*
X6010910Y-4833162D01*
X6013704Y-4836718D01*
X6017158Y-4839868D01*
X6021222Y-4842713D01*
X6025845Y-4845304D01*
X6030976Y-4847590D01*
X6036310Y-4849622D01*
X6044285Y-4853381D01*
X6049721Y-4857394D01*
X6052870Y-4862118D01*
X6053836Y-4868164D01*
X6052261Y-4875580D01*
X6047740Y-4880965D01*
X6040780Y-4884318D01*
X6031738Y-4885436D01*
X6027470Y-4885232D01*
X6023711Y-4884623D01*
X6020257Y-4883505D01*
X6017006Y-4881880D01*
X6013450Y-4864608D01*
X6006338Y-4864608D01*
X6005322Y-4884166D01*
X6010808Y-4887010D01*
X6017412Y-4889347D01*
X6024727Y-4890973D01*
X6032500Y-4891532D01*
X6039459Y-4891074D01*
X6045758Y-4889703D01*
X6051346Y-4887518D01*
X6056122Y-4884521D01*
X6059982Y-4880711D01*
X6062878Y-4876190D01*
X6064656Y-4871008D01*
X6065266Y-4865116D01*
X6064910Y-4860493D01*
X6063894Y-4856276D01*
X6062116Y-4852466D01*
X6059525Y-4848910D01*
X6056071Y-4845659D01*
X6051651Y-4842611D01*
X6046266Y-4839716D01*
X6034278Y-4834636D01*
X6027623Y-4831486D01*
X6022695Y-4827524D01*
X6019596Y-4822647D01*
X6018530Y-4816602D01*
X6020003Y-4809540D01*
X6024016Y-4804460D01*
X6030214Y-4801362D01*
X6038088Y-4800346D01*
X6041136Y-4800498D01*
X6043980Y-4800955D01*
X6046622Y-4801870D01*
X6049264Y-4803140D01*
X6052820Y-4819904D01*
X6060186Y-4819904D01*
X6060948Y-4801616D01*
X6056122Y-4798517D01*
X6050737Y-4796231D01*
X6044742Y-4794758D01*
G37*
G36*
X6411976Y-4796536D02*
G01*
X6411976Y-4801362D01*
X6424930Y-4802632D01*
X6425184Y-4855768D01*
X6424930Y-4883404D01*
X6411976Y-4884674D01*
X6411976Y-4889500D01*
X6450838Y-4889500D01*
X6450838Y-4884674D01*
X6438138Y-4883404D01*
X6437884Y-4844542D01*
X6483096Y-4844542D01*
X6482842Y-4883404D01*
X6470142Y-4884674D01*
X6470142Y-4889500D01*
X6509004Y-4889500D01*
X6509004Y-4884674D01*
X6496050Y-4883404D01*
X6495796Y-4830267D01*
X6496050Y-4802632D01*
X6509004Y-4801362D01*
X6509004Y-4796536D01*
X6470142Y-4796536D01*
X6470142Y-4801362D01*
X6482842Y-4802632D01*
X6483096Y-4838954D01*
X6437884Y-4838954D01*
X6438138Y-4802632D01*
X6450838Y-4801362D01*
X6450838Y-4796536D01*
G37*
G36*
X6345174Y-4804410D02*
G01*
X6341364Y-4823206D01*
X6328918Y-4824730D01*
X6328918Y-4829556D01*
X6340856Y-4829556D01*
X6340602Y-4875022D01*
X6341668Y-4882286D01*
X6344767Y-4887315D01*
X6349695Y-4890312D01*
X6356350Y-4891278D01*
X6361379Y-4890820D01*
X6365798Y-4889449D01*
X6369558Y-4887214D01*
X6372606Y-4884166D01*
X6369812Y-4880864D01*
X6367170Y-4882692D01*
X6364782Y-4883962D01*
X6362547Y-4884674D01*
X6360160Y-4884928D01*
X6356908Y-4884318D01*
X6354419Y-4882489D01*
X6352844Y-4879238D01*
X6352286Y-4874514D01*
X6352286Y-4829556D01*
X6371082Y-4829556D01*
X6371082Y-4823714D01*
X6352286Y-4823714D01*
X6353048Y-4804410D01*
G37*
G36*
X6711950Y-4804410D02*
G01*
X6708394Y-4823206D01*
X6695948Y-4824730D01*
X6695948Y-4829556D01*
X6707631Y-4829556D01*
X6707631Y-4875022D01*
X6708698Y-4882286D01*
X6711797Y-4887315D01*
X6716725Y-4890312D01*
X6723380Y-4891278D01*
X6728358Y-4890820D01*
X6732727Y-4889449D01*
X6736384Y-4887214D01*
X6739381Y-4884166D01*
X6736588Y-4880864D01*
X6734098Y-4882692D01*
X6731812Y-4883962D01*
X6729526Y-4884674D01*
X6727190Y-4884928D01*
X6723786Y-4884318D01*
X6721195Y-4882489D01*
X6719620Y-4879238D01*
X6719062Y-4874514D01*
X6719062Y-4829556D01*
X6737858Y-4829556D01*
X6737858Y-4823714D01*
X6719316Y-4823714D01*
X6720078Y-4804410D01*
G37*
G36*
X6122416Y-4821682D02*
G01*
X6116066Y-4822596D01*
X6109766Y-4825187D01*
X6103772Y-4829200D01*
X6098286Y-4834382D01*
X6097016Y-4823206D01*
X6095238Y-4821936D01*
X6075680Y-4829556D01*
X6075680Y-4833620D01*
X6086602Y-4834636D01*
X6087059Y-4843170D01*
X6086856Y-4883658D01*
X6076442Y-4885182D01*
X6076442Y-4889500D01*
X6108446Y-4889500D01*
X6108446Y-4885182D01*
X6098794Y-4883658D01*
X6098540Y-4839716D01*
X6103620Y-4835499D01*
X6108344Y-4832654D01*
X6112916Y-4831080D01*
X6117590Y-4830572D01*
X6122720Y-4831384D01*
X6126276Y-4834178D01*
X6128359Y-4839360D01*
X6129020Y-4847336D01*
X6128766Y-4883658D01*
X6118098Y-4885182D01*
X6118098Y-4889500D01*
X6150102Y-4889500D01*
X6150102Y-4885182D01*
X6140704Y-4883658D01*
X6140196Y-4860290D01*
X6140145Y-4843221D01*
X6139942Y-4839970D01*
X6145225Y-4835601D01*
X6150051Y-4832705D01*
X6154572Y-4831080D01*
X6158992Y-4830572D01*
X6164122Y-4831334D01*
X6167780Y-4834026D01*
X6169964Y-4839157D01*
X6170676Y-4847336D01*
X6170422Y-4883658D01*
X6160008Y-4885182D01*
X6160008Y-4889500D01*
X6192012Y-4889500D01*
X6192012Y-4885182D01*
X6182106Y-4883658D01*
X6181852Y-4845812D01*
X6180683Y-4834839D01*
X6177229Y-4827371D01*
X6171692Y-4823053D01*
X6164072Y-4821682D01*
X6157417Y-4822444D01*
X6150914Y-4824831D01*
X6144717Y-4828844D01*
X6138926Y-4834636D01*
X6136589Y-4828844D01*
X6133033Y-4824831D01*
X6128308Y-4822444D01*
G37*
G36*
X6231382Y-4821682D02*
G01*
X6221374Y-4822901D01*
X6213348Y-4826304D01*
X6207607Y-4831740D01*
X6204458Y-4838954D01*
X6204966Y-4841189D01*
X6206185Y-4842865D01*
X6208014Y-4843932D01*
X6210554Y-4844288D01*
X6212992Y-4843881D01*
X6214973Y-4842611D01*
X6216497Y-4840528D01*
X6217666Y-4837684D01*
X6220206Y-4828286D01*
X6224422Y-4827270D01*
X6228080Y-4827016D01*
X6234125Y-4827778D01*
X6238341Y-4830521D01*
X6240780Y-4835804D01*
X6241542Y-4844288D01*
X6241542Y-4848606D01*
X6233058Y-4850790D01*
X6225540Y-4853178D01*
X6214211Y-4857953D01*
X6207150Y-4862982D01*
X6203442Y-4868316D01*
X6202773Y-4872228D01*
X6214364Y-4872228D01*
X6214872Y-4868468D01*
X6216904Y-4864608D01*
X6221222Y-4860747D01*
X6228588Y-4856988D01*
X6234277Y-4855057D01*
X6241542Y-4852924D01*
X6241542Y-4875022D01*
X6236411Y-4878882D01*
X6232499Y-4881372D01*
X6229096Y-4882743D01*
X6225540Y-4883150D01*
X6221120Y-4882489D01*
X6217564Y-4880559D01*
X6215227Y-4877155D01*
X6214364Y-4872228D01*
X6202773Y-4872228D01*
X6202426Y-4874260D01*
X6203899Y-4881626D01*
X6207861Y-4886960D01*
X6213805Y-4890211D01*
X6220968Y-4891278D01*
X6226708Y-4890617D01*
X6231686Y-4888534D01*
X6236512Y-4885080D01*
X6241796Y-4880102D01*
X6243218Y-4884572D01*
X6245809Y-4888026D01*
X6249568Y-4890262D01*
X6254242Y-4891024D01*
X6257696Y-4890668D01*
X6260795Y-4889449D01*
X6263589Y-4887264D01*
X6266180Y-4883912D01*
X6263640Y-4881372D01*
X6261049Y-4883810D01*
X6259626Y-4884420D01*
X6258052Y-4884674D01*
X6255969Y-4884216D01*
X6254394Y-4882692D01*
X6253327Y-4879949D01*
X6252972Y-4875784D01*
X6252972Y-4845558D01*
X6252616Y-4839563D01*
X6251651Y-4834534D01*
X6249974Y-4830419D01*
X6247587Y-4827168D01*
X6244590Y-4824679D01*
X6240881Y-4823002D01*
X6236462Y-4821986D01*
G37*
G36*
X6314440Y-4821682D02*
G01*
X6308598Y-4822901D01*
X6303060Y-4826457D01*
X6298133Y-4832197D01*
X6294120Y-4839970D01*
X6292596Y-4823206D01*
X6290818Y-4821936D01*
X6271260Y-4829556D01*
X6271260Y-4833620D01*
X6282182Y-4834636D01*
X6282690Y-4853178D01*
X6282436Y-4883658D01*
X6272276Y-4885182D01*
X6272276Y-4889500D01*
X6306058Y-4889500D01*
X6306058Y-4885182D01*
X6294374Y-4883404D01*
X6294120Y-4849368D01*
X6296406Y-4843526D01*
X6299047Y-4838598D01*
X6302349Y-4834483D01*
X6306312Y-4831080D01*
X6307836Y-4832604D01*
X6309918Y-4834178D01*
X6311950Y-4835347D01*
X6314135Y-4836160D01*
X6316472Y-4836414D01*
X6320078Y-4835702D01*
X6322517Y-4833772D01*
X6323888Y-4830724D01*
X6324346Y-4826762D01*
X6322771Y-4824679D01*
X6320434Y-4823104D01*
X6317589Y-4822037D01*
G37*
G36*
X6550406Y-4821682D02*
G01*
X6544056Y-4822342D01*
X6538112Y-4824222D01*
X6532676Y-4827219D01*
X6527952Y-4831334D01*
X6523990Y-4836464D01*
X6520992Y-4842459D01*
X6519062Y-4849368D01*
X6518952Y-4850638D01*
X6530848Y-4850638D01*
X6533134Y-4839970D01*
X6537604Y-4832654D01*
X6543344Y-4828387D01*
X6549644Y-4827016D01*
X6555943Y-4828336D01*
X6560820Y-4831892D01*
X6564020Y-4837074D01*
X6565138Y-4843272D01*
X6564782Y-4846370D01*
X6563614Y-4848809D01*
X6561277Y-4850333D01*
X6557518Y-4850892D01*
X6518952Y-4850638D01*
X6518402Y-4856988D01*
X6518960Y-4864658D01*
X6520688Y-4871466D01*
X6523431Y-4877308D01*
X6527088Y-4882235D01*
X6531660Y-4886096D01*
X6537045Y-4888941D01*
X6543141Y-4890668D01*
X6549898Y-4891278D01*
X6558432Y-4890160D01*
X6565646Y-4887010D01*
X6571538Y-4882083D01*
X6576059Y-4875530D01*
X6573266Y-4873498D01*
X6569456Y-4877612D01*
X6565087Y-4880762D01*
X6559956Y-4882692D01*
X6553708Y-4883404D01*
X6548881Y-4882997D01*
X6544462Y-4881676D01*
X6540550Y-4879543D01*
X6537198Y-4876546D01*
X6534454Y-4872685D01*
X6532422Y-4867960D01*
X6531102Y-4862423D01*
X6530594Y-4855972D01*
X6575298Y-4855972D01*
X6576110Y-4852619D01*
X6576314Y-4848352D01*
X6575806Y-4842459D01*
X6574383Y-4837226D01*
X6572046Y-4832654D01*
X6568998Y-4828844D01*
X6565188Y-4825746D01*
X6560769Y-4823510D01*
X6555841Y-4822139D01*
G37*
G36*
X6616953Y-4821682D02*
G01*
X6607098Y-4822901D01*
X6599123Y-4826304D01*
X6593331Y-4831740D01*
X6590030Y-4838954D01*
X6590690Y-4841189D01*
X6591960Y-4842865D01*
X6593840Y-4843932D01*
X6596380Y-4844288D01*
X6598818Y-4843881D01*
X6600748Y-4842611D01*
X6602222Y-4840528D01*
X6606031Y-4828286D01*
X6610045Y-4827270D01*
X6613906Y-4827016D01*
X6619951Y-4827778D01*
X6624015Y-4830521D01*
X6626352Y-4835804D01*
X6627114Y-4844288D01*
X6627114Y-4848606D01*
X6618731Y-4850790D01*
X6611112Y-4853178D01*
X6599936Y-4857953D01*
X6592925Y-4862982D01*
X6589268Y-4868316D01*
X6588599Y-4872228D01*
X6599936Y-4872228D01*
X6600494Y-4868468D01*
X6602577Y-4864608D01*
X6606997Y-4860747D01*
X6614414Y-4856988D01*
X6627114Y-4852924D01*
X6627114Y-4875022D01*
X6622135Y-4878882D01*
X6618173Y-4881372D01*
X6614769Y-4882743D01*
X6611366Y-4883150D01*
X6606794Y-4882489D01*
X6603187Y-4880559D01*
X6600799Y-4877155D01*
X6599936Y-4872228D01*
X6588599Y-4872228D01*
X6588252Y-4874260D01*
X6589674Y-4881626D01*
X6593586Y-4886960D01*
X6599377Y-4890211D01*
X6606540Y-4891278D01*
X6612280Y-4890617D01*
X6617258Y-4888534D01*
X6622084Y-4885080D01*
X6627368Y-4880102D01*
X6628892Y-4884572D01*
X6631482Y-4888026D01*
X6635140Y-4890262D01*
X6639814Y-4891024D01*
X6643268Y-4890668D01*
X6646468Y-4889449D01*
X6649262Y-4887264D01*
X6651752Y-4883912D01*
X6649212Y-4881372D01*
X6646621Y-4883810D01*
X6645198Y-4884420D01*
X6643624Y-4884674D01*
X6641541Y-4884216D01*
X6639915Y-4882692D01*
X6638899Y-4879949D01*
X6638544Y-4875784D01*
X6638544Y-4845558D01*
X6638239Y-4839563D01*
X6637223Y-4834534D01*
X6635597Y-4830419D01*
X6633260Y-4827168D01*
X6630263Y-4824679D01*
X6626555Y-4823002D01*
X6622135Y-4821986D01*
G37*
G36*
X5896102Y-4823714D02*
G01*
X5896102Y-4827778D01*
X5903722Y-4828794D01*
X5929630Y-4893564D01*
X5926582Y-4901184D01*
X5923534Y-4906721D01*
X5919927Y-4911598D01*
X5915660Y-4915662D01*
X5912104Y-4912512D01*
X5909665Y-4910988D01*
X5907176Y-4910124D01*
X5904484Y-4909820D01*
X5901486Y-4910124D01*
X5898794Y-4911090D01*
X5896711Y-4912817D01*
X5895594Y-4915408D01*
X5896610Y-4918913D01*
X5899353Y-4921656D01*
X5903315Y-4923434D01*
X5908040Y-4924044D01*
X5911799Y-4923586D01*
X5915456Y-4922215D01*
X5919012Y-4919827D01*
X5922467Y-4916373D01*
X5925921Y-4911801D01*
X5929274Y-4906060D01*
X5932627Y-4899050D01*
X5935980Y-4890770D01*
X5959348Y-4829302D01*
X5967222Y-4827778D01*
X5967222Y-4823714D01*
X5940044Y-4823714D01*
X5940044Y-4827778D01*
X5952744Y-4829302D01*
X5935218Y-4878578D01*
X5916930Y-4829302D01*
X5929122Y-4827778D01*
X5929122Y-4823714D01*
G37*
G36*
X6458458Y-3350514D02*
G01*
X6457188Y-3361182D01*
X6369304Y-3393694D01*
X6369304Y-3399536D01*
X6456934Y-3428746D01*
X6458458Y-3440684D01*
X6463284Y-3440684D01*
X6463284Y-3408934D01*
X6457950Y-3408934D01*
X6456680Y-3421634D01*
X6386830Y-3399028D01*
X6456680Y-3374644D01*
X6457950Y-3388360D01*
X6463284Y-3388360D01*
X6463284Y-3350514D01*
G37*
G36*
X6370066Y-3448304D02*
G01*
X6370066Y-3487420D01*
X6374892Y-3487420D01*
X6376416Y-3474465D01*
X6429451Y-3474212D01*
X6456934Y-3474465D01*
X6458458Y-3487420D01*
X6463284Y-3487420D01*
X6463284Y-3448304D01*
X6458458Y-3448304D01*
X6456934Y-3461258D01*
X6429400Y-3461512D01*
X6376416Y-3461258D01*
X6374892Y-3448304D01*
G37*
G36*
X6370066Y-3499104D02*
G01*
X6370066Y-3531870D01*
X6374892Y-3531870D01*
X6376924Y-3517137D01*
X6447282Y-3516884D01*
X6369304Y-3573526D01*
X6369304Y-3578606D01*
X6456680Y-3578606D01*
X6458458Y-3590290D01*
X6463284Y-3590290D01*
X6463284Y-3557524D01*
X6458458Y-3557524D01*
X6456680Y-3572256D01*
X6392164Y-3572510D01*
X6463284Y-3521201D01*
X6463284Y-3499612D01*
X6458458Y-3499612D01*
X6457188Y-3509518D01*
X6455410Y-3511042D01*
X6376670Y-3510787D01*
X6374892Y-3499104D01*
G37*
G36*
X6113018Y-3367786D02*
G01*
X6110173Y-3373221D01*
X6107836Y-3379724D01*
X6106210Y-3386988D01*
X6105652Y-3394710D01*
X6106109Y-3401669D01*
X6107480Y-3407968D01*
X6109665Y-3413556D01*
X6112662Y-3418332D01*
X6116472Y-3422192D01*
X6120993Y-3425088D01*
X6126175Y-3426866D01*
X6132068Y-3427476D01*
X6136690Y-3427120D01*
X6140907Y-3426104D01*
X6144717Y-3424326D01*
X6148273Y-3421735D01*
X6151524Y-3418281D01*
X6154572Y-3413861D01*
X6157468Y-3408476D01*
X6162548Y-3396487D01*
X6165697Y-3389731D01*
X6169660Y-3384804D01*
X6174536Y-3381756D01*
X6180582Y-3380740D01*
X6187643Y-3382162D01*
X6192723Y-3386226D01*
X6195822Y-3392322D01*
X6196838Y-3400044D01*
X6196685Y-3403142D01*
X6196177Y-3406038D01*
X6195314Y-3408781D01*
X6194044Y-3411474D01*
X6177280Y-3415029D01*
X6177280Y-3422396D01*
X6195568Y-3423158D01*
X6198666Y-3418332D01*
X6200952Y-3412947D01*
X6202426Y-3406952D01*
X6202934Y-3400298D01*
X6202476Y-3393948D01*
X6201206Y-3388055D01*
X6199124Y-3382772D01*
X6196177Y-3378250D01*
X6192520Y-3374491D01*
X6188151Y-3371697D01*
X6183071Y-3369919D01*
X6177280Y-3369310D01*
X6172403Y-3369767D01*
X6167983Y-3371037D01*
X6164021Y-3373120D01*
X6160465Y-3375914D01*
X6157315Y-3379368D01*
X6154470Y-3383432D01*
X6151880Y-3388055D01*
X6149594Y-3393186D01*
X6147562Y-3398520D01*
X6143802Y-3406495D01*
X6139840Y-3411931D01*
X6135065Y-3415080D01*
X6129020Y-3416046D01*
X6121603Y-3414471D01*
X6116218Y-3410000D01*
X6112865Y-3402990D01*
X6111748Y-3393694D01*
X6111951Y-3389579D01*
X6112560Y-3385870D01*
X6113678Y-3382467D01*
X6115304Y-3379215D01*
X6132576Y-3375660D01*
X6132576Y-3368548D01*
G37*
G36*
X6154420Y-3439922D02*
G01*
X6147358Y-3440328D01*
X6140754Y-3441496D01*
X6134608Y-3443376D01*
X6128918Y-3445967D01*
X6123736Y-3449218D01*
X6119164Y-3453079D01*
X6115202Y-3457498D01*
X6111849Y-3462477D01*
X6109208Y-3468014D01*
X6107277Y-3473958D01*
X6106058Y-3480358D01*
X6105652Y-3487165D01*
X6106058Y-3494481D01*
X6107226Y-3501593D01*
X6109309Y-3508400D01*
X6112256Y-3514851D01*
X6132830Y-3515360D01*
X6132830Y-3507486D01*
X6115304Y-3504184D01*
X6113678Y-3500170D01*
X6112560Y-3496106D01*
X6111951Y-3492093D01*
X6111748Y-3488182D01*
X6112052Y-3483356D01*
X6112967Y-3478784D01*
X6114491Y-3474516D01*
X6116624Y-3470554D01*
X6119317Y-3466947D01*
X6122619Y-3463747D01*
X6126480Y-3460953D01*
X6130950Y-3458565D01*
X6135979Y-3456686D01*
X6141567Y-3455314D01*
X6147714Y-3454450D01*
X6154420Y-3454146D01*
X6161074Y-3454450D01*
X6167170Y-3455365D01*
X6172708Y-3456838D01*
X6177737Y-3458819D01*
X6182156Y-3461258D01*
X6186017Y-3464153D01*
X6189268Y-3467506D01*
X6192012Y-3471164D01*
X6194094Y-3475126D01*
X6195618Y-3479444D01*
X6196533Y-3483965D01*
X6196838Y-3488690D01*
X6196634Y-3492144D01*
X6196025Y-3495700D01*
X6194907Y-3499307D01*
X6193282Y-3502914D01*
X6175756Y-3506470D01*
X6175756Y-3513836D01*
X6196076Y-3513836D01*
X6199378Y-3506825D01*
X6201511Y-3500018D01*
X6202629Y-3493465D01*
X6202934Y-3487165D01*
X6202527Y-3480511D01*
X6201308Y-3474212D01*
X6199327Y-3468319D01*
X6196634Y-3462832D01*
X6193231Y-3457854D01*
X6189268Y-3453333D01*
X6184646Y-3449421D01*
X6179515Y-3446119D01*
X6173876Y-3443478D01*
X6167780Y-3441547D01*
X6161278Y-3440328D01*
G37*
G36*
X6107684Y-3527298D02*
G01*
X6107684Y-3596386D01*
X6133846Y-3597401D01*
X6133846Y-3590036D01*
X6113780Y-3585464D01*
X6113780Y-3553460D01*
X6166916Y-3553206D01*
X6194552Y-3553460D01*
X6195822Y-3566668D01*
X6200648Y-3566668D01*
X6200648Y-3527298D01*
X6195822Y-3527298D01*
X6194552Y-3540251D01*
X6141466Y-3540506D01*
X6113780Y-3540251D01*
X6112510Y-3527298D01*
G37*
G36*
X5859018Y-3367786D02*
G01*
X5856173Y-3373221D01*
X5853836Y-3379724D01*
X5852210Y-3386988D01*
X5851652Y-3394710D01*
X5852109Y-3401669D01*
X5853480Y-3407968D01*
X5855665Y-3413556D01*
X5858662Y-3418332D01*
X5862472Y-3422192D01*
X5866993Y-3425088D01*
X5872175Y-3426866D01*
X5878068Y-3427476D01*
X5882690Y-3427120D01*
X5886907Y-3426104D01*
X5890717Y-3424326D01*
X5894273Y-3421735D01*
X5897524Y-3418281D01*
X5900572Y-3413861D01*
X5903468Y-3408476D01*
X5908548Y-3396487D01*
X5911697Y-3389731D01*
X5915660Y-3384804D01*
X5920536Y-3381756D01*
X5926582Y-3380740D01*
X5933643Y-3382162D01*
X5938723Y-3386226D01*
X5941822Y-3392322D01*
X5942838Y-3400044D01*
X5942685Y-3403142D01*
X5942177Y-3406038D01*
X5941314Y-3408781D01*
X5940044Y-3411474D01*
X5923280Y-3415029D01*
X5923280Y-3422396D01*
X5941568Y-3423158D01*
X5944666Y-3418332D01*
X5946952Y-3412947D01*
X5948426Y-3406952D01*
X5948934Y-3400298D01*
X5948476Y-3393948D01*
X5947206Y-3388055D01*
X5945124Y-3382772D01*
X5942177Y-3378250D01*
X5938520Y-3374491D01*
X5934151Y-3371697D01*
X5929071Y-3369919D01*
X5923280Y-3369310D01*
X5918403Y-3369767D01*
X5913983Y-3371037D01*
X5910021Y-3373120D01*
X5906465Y-3375914D01*
X5903315Y-3379368D01*
X5900470Y-3383432D01*
X5897880Y-3388055D01*
X5895594Y-3393186D01*
X5893562Y-3398520D01*
X5889802Y-3406495D01*
X5885840Y-3411931D01*
X5881065Y-3415080D01*
X5875020Y-3416046D01*
X5867603Y-3414471D01*
X5862218Y-3410000D01*
X5858865Y-3402990D01*
X5857748Y-3393694D01*
X5857951Y-3389579D01*
X5858560Y-3385870D01*
X5859678Y-3382467D01*
X5861304Y-3379215D01*
X5878576Y-3375660D01*
X5878576Y-3368548D01*
G37*
G36*
X5853684Y-3438398D02*
G01*
X5853684Y-3475482D01*
X5859272Y-3475482D01*
X5859272Y-3464560D01*
X5878474Y-3464356D01*
X5941314Y-3464560D01*
X5941314Y-3476751D01*
X5941009Y-3481832D01*
X5940145Y-3486505D01*
X5938672Y-3490823D01*
X5936640Y-3494684D01*
X5933998Y-3498138D01*
X5930849Y-3501186D01*
X5927090Y-3503777D01*
X5922822Y-3505911D01*
X5917946Y-3507587D01*
X5912561Y-3508806D01*
X5906617Y-3509518D01*
X5900166Y-3509772D01*
X5893968Y-3509518D01*
X5888228Y-3508806D01*
X5882944Y-3507536D01*
X5878169Y-3505860D01*
X5873851Y-3503676D01*
X5870092Y-3501034D01*
X5866841Y-3497884D01*
X5864148Y-3494328D01*
X5862066Y-3490264D01*
X5860542Y-3485794D01*
X5859576Y-3480866D01*
X5859272Y-3475482D01*
X5853684Y-3475482D01*
X5854039Y-3483051D01*
X5855055Y-3489502D01*
X5856782Y-3495497D01*
X5859119Y-3501034D01*
X5862116Y-3506114D01*
X5865774Y-3510584D01*
X5870041Y-3514547D01*
X5874918Y-3517849D01*
X5880354Y-3520440D01*
X5886399Y-3522421D01*
X5893003Y-3523589D01*
X5900166Y-3523996D01*
X5907379Y-3523640D01*
X5914034Y-3522522D01*
X5920079Y-3520744D01*
X5925515Y-3518306D01*
X5930392Y-3515258D01*
X5934659Y-3511600D01*
X5938266Y-3507384D01*
X5941263Y-3502660D01*
X5943600Y-3497427D01*
X5945276Y-3491737D01*
X5946292Y-3485591D01*
X5946648Y-3479037D01*
X5946648Y-3438398D01*
X5941822Y-3438398D01*
X5940552Y-3451351D01*
X5883402Y-3451606D01*
X5859780Y-3451351D01*
X5858510Y-3438398D01*
G37*
G36*
X5853684Y-3523996D02*
G01*
X5853684Y-3554984D01*
X5858510Y-3554984D01*
X5860288Y-3541268D01*
X5884672Y-3549396D01*
X5884672Y-3551174D01*
X5890006Y-3551174D01*
X5933186Y-3565398D01*
X5890006Y-3579876D01*
X5890006Y-3551174D01*
X5884672Y-3551174D01*
X5884672Y-3581654D01*
X5860288Y-3589782D01*
X5858510Y-3576065D01*
X5853684Y-3576065D01*
X5853684Y-3613912D01*
X5858510Y-3613912D01*
X5859780Y-3602990D01*
X5947410Y-3573018D01*
X5947410Y-3564890D01*
X5860288Y-3535172D01*
X5858510Y-3523996D01*
G37*
G36*
X5599684Y-3367786D02*
G01*
X5599684Y-3406901D01*
X5604510Y-3406901D01*
X5606034Y-3394201D01*
X5624423Y-3393744D01*
X5658916Y-3393694D01*
X5677458Y-3393897D01*
X5686552Y-3394201D01*
X5687822Y-3406901D01*
X5692648Y-3406901D01*
X5692648Y-3367786D01*
X5687822Y-3367786D01*
X5686552Y-3380994D01*
X5605780Y-3380994D01*
X5604510Y-3367786D01*
G37*
G36*
X5599684Y-3419601D02*
G01*
X5599684Y-3458718D01*
X5604510Y-3458718D01*
X5606034Y-3445764D01*
X5643118Y-3445510D01*
X5687314Y-3445764D01*
X5687314Y-3457701D01*
X5686044Y-3467252D01*
X5682386Y-3473907D01*
X5676493Y-3477768D01*
X5668518Y-3479037D01*
X5660542Y-3477666D01*
X5654192Y-3473500D01*
X5649976Y-3466490D01*
X5648452Y-3456686D01*
X5648452Y-3445510D01*
X5643118Y-3445510D01*
X5643118Y-3452876D01*
X5642559Y-3460242D01*
X5640425Y-3465525D01*
X5636158Y-3469182D01*
X5629148Y-3471672D01*
X5607304Y-3477514D01*
X5603138Y-3479139D01*
X5600395Y-3481832D01*
X5598871Y-3485896D01*
X5598414Y-3491484D01*
X5598769Y-3497376D01*
X5599684Y-3502151D01*
X5604510Y-3502151D01*
X5605526Y-3491229D01*
X5627370Y-3484879D01*
X5634329Y-3482136D01*
X5639358Y-3478580D01*
X5642813Y-3474008D01*
X5644896Y-3468115D01*
X5646267Y-3473754D01*
X5648248Y-3478580D01*
X5650687Y-3482695D01*
X5653633Y-3486048D01*
X5656935Y-3488639D01*
X5660491Y-3490518D01*
X5664301Y-3491636D01*
X5668264Y-3491992D01*
X5673750Y-3491433D01*
X5678627Y-3489706D01*
X5682792Y-3486962D01*
X5686247Y-3483152D01*
X5689041Y-3478326D01*
X5691022Y-3472586D01*
X5692241Y-3465982D01*
X5692648Y-3458464D01*
X5692648Y-3419601D01*
X5687822Y-3419601D01*
X5686552Y-3432556D01*
X5633415Y-3432810D01*
X5605780Y-3432556D01*
X5604510Y-3419601D01*
G37*
G36*
X5646420Y-3508248D02*
G01*
X5639562Y-3508603D01*
X5633212Y-3509518D01*
X5627370Y-3511092D01*
X5621985Y-3513175D01*
X5617210Y-3515766D01*
X5612892Y-3518814D01*
X5609132Y-3522218D01*
X5605881Y-3526028D01*
X5603189Y-3530092D01*
X5601055Y-3534460D01*
X5599480Y-3539032D01*
X5598414Y-3543808D01*
X5592724Y-3544315D01*
X5587441Y-3545636D01*
X5582615Y-3547821D01*
X5578613Y-3550665D01*
X5603748Y-3550665D01*
X5604154Y-3546043D01*
X5605373Y-3541877D01*
X5607304Y-3538118D01*
X5609894Y-3534765D01*
X5613095Y-3531870D01*
X5616803Y-3529329D01*
X5620969Y-3527196D01*
X5625541Y-3525469D01*
X5630418Y-3524148D01*
X5635599Y-3523234D01*
X5640933Y-3522675D01*
X5646420Y-3522472D01*
X5651855Y-3522675D01*
X5657138Y-3523234D01*
X5662269Y-3524148D01*
X5667146Y-3525469D01*
X5671667Y-3527196D01*
X5675833Y-3529329D01*
X5679541Y-3531870D01*
X5682691Y-3534765D01*
X5685282Y-3538118D01*
X5687212Y-3541877D01*
X5688431Y-3546043D01*
X5688838Y-3550665D01*
X5687923Y-3557422D01*
X5685282Y-3563162D01*
X5681167Y-3567988D01*
X5675833Y-3571849D01*
X5669432Y-3574846D01*
X5662269Y-3576929D01*
X5654497Y-3578199D01*
X5646420Y-3578606D01*
X5640933Y-3578402D01*
X5635599Y-3577894D01*
X5630418Y-3576980D01*
X5625541Y-3575659D01*
X5620969Y-3573983D01*
X5616803Y-3571849D01*
X5613095Y-3569411D01*
X5609894Y-3566464D01*
X5607304Y-3563162D01*
X5605373Y-3559454D01*
X5604154Y-3555288D01*
X5603748Y-3550665D01*
X5578613Y-3550665D01*
X5574893Y-3554577D01*
X5572252Y-3559149D01*
X5570575Y-3564534D01*
X5569966Y-3570732D01*
X5570270Y-3575202D01*
X5571134Y-3579622D01*
X5572556Y-3583889D01*
X5574538Y-3587750D01*
X5578348Y-3586479D01*
X5576976Y-3580688D01*
X5576570Y-3575812D01*
X5577992Y-3567734D01*
X5582107Y-3561537D01*
X5588762Y-3557524D01*
X5597906Y-3556000D01*
X5598922Y-3560876D01*
X5600496Y-3565601D01*
X5602681Y-3570173D01*
X5605475Y-3574440D01*
X5608777Y-3578351D01*
X5612638Y-3581958D01*
X5617006Y-3585159D01*
X5621934Y-3587851D01*
X5627319Y-3590086D01*
X5633212Y-3591712D01*
X5639612Y-3592728D01*
X5646420Y-3593084D01*
X5653938Y-3592677D01*
X5660847Y-3591458D01*
X5667197Y-3589477D01*
X5672886Y-3586886D01*
X5677966Y-3583686D01*
X5682386Y-3579977D01*
X5686196Y-3575812D01*
X5689295Y-3571240D01*
X5691733Y-3566414D01*
X5693511Y-3561283D01*
X5694578Y-3556050D01*
X5694934Y-3550665D01*
X5694578Y-3545230D01*
X5693460Y-3539947D01*
X5691581Y-3534816D01*
X5689092Y-3529939D01*
X5685891Y-3525418D01*
X5682030Y-3521252D01*
X5677509Y-3517544D01*
X5672429Y-3514394D01*
X5666740Y-3511804D01*
X5660491Y-3509873D01*
X5653735Y-3508654D01*
G37*
G36*
X5345684Y-3367786D02*
G01*
X5345684Y-3406901D01*
X5350510Y-3406901D01*
X5352034Y-3394201D01*
X5370423Y-3393744D01*
X5404916Y-3393694D01*
X5423458Y-3393897D01*
X5432552Y-3394201D01*
X5433822Y-3406901D01*
X5438648Y-3406901D01*
X5438648Y-3367786D01*
X5433822Y-3367786D01*
X5432552Y-3380994D01*
X5351780Y-3380994D01*
X5350510Y-3367786D01*
G37*
G36*
X5345684Y-3419601D02*
G01*
X5345684Y-3458718D01*
X5350510Y-3458718D01*
X5352034Y-3445764D01*
X5389118Y-3445510D01*
X5433314Y-3445764D01*
X5433314Y-3457701D01*
X5432044Y-3467252D01*
X5428386Y-3473907D01*
X5422493Y-3477768D01*
X5414518Y-3479037D01*
X5406542Y-3477666D01*
X5400192Y-3473500D01*
X5395976Y-3466490D01*
X5394452Y-3456686D01*
X5394452Y-3445510D01*
X5389118Y-3445510D01*
X5389118Y-3452876D01*
X5388559Y-3460242D01*
X5386425Y-3465525D01*
X5382158Y-3469182D01*
X5375148Y-3471672D01*
X5353304Y-3477514D01*
X5349138Y-3479139D01*
X5346395Y-3481832D01*
X5344871Y-3485896D01*
X5344414Y-3491484D01*
X5344769Y-3497376D01*
X5345684Y-3502151D01*
X5350510Y-3502151D01*
X5351526Y-3491229D01*
X5373370Y-3484879D01*
X5380329Y-3482136D01*
X5385358Y-3478580D01*
X5388813Y-3474008D01*
X5390896Y-3468115D01*
X5392267Y-3473754D01*
X5394248Y-3478580D01*
X5396687Y-3482695D01*
X5399633Y-3486048D01*
X5402935Y-3488639D01*
X5406491Y-3490518D01*
X5410301Y-3491636D01*
X5414264Y-3491992D01*
X5419750Y-3491433D01*
X5424627Y-3489706D01*
X5428792Y-3486962D01*
X5432247Y-3483152D01*
X5435041Y-3478326D01*
X5437022Y-3472586D01*
X5438241Y-3465982D01*
X5438648Y-3458464D01*
X5438648Y-3419601D01*
X5433822Y-3419601D01*
X5432552Y-3432556D01*
X5379415Y-3432810D01*
X5351780Y-3432556D01*
X5350510Y-3419601D01*
G37*
G36*
X5345684Y-3510279D02*
G01*
X5345684Y-3547364D01*
X5351272Y-3547364D01*
X5351272Y-3536442D01*
X5370474Y-3536238D01*
X5433314Y-3536442D01*
X5433314Y-3548379D01*
X5433009Y-3553460D01*
X5432145Y-3558133D01*
X5430672Y-3562451D01*
X5428640Y-3566312D01*
X5425998Y-3569766D01*
X5422849Y-3572814D01*
X5419090Y-3575405D01*
X5414822Y-3577539D01*
X5409946Y-3579215D01*
X5404561Y-3580434D01*
X5398617Y-3581146D01*
X5392166Y-3581400D01*
X5385968Y-3581146D01*
X5380228Y-3580434D01*
X5374944Y-3579164D01*
X5370169Y-3577488D01*
X5365851Y-3575304D01*
X5362092Y-3572662D01*
X5358841Y-3569563D01*
X5356148Y-3566007D01*
X5354066Y-3561994D01*
X5352542Y-3557574D01*
X5351576Y-3552698D01*
X5351272Y-3547364D01*
X5345684Y-3547364D01*
X5346039Y-3554882D01*
X5347055Y-3561283D01*
X5348782Y-3567277D01*
X5351119Y-3572814D01*
X5354116Y-3577844D01*
X5357774Y-3582365D01*
X5362041Y-3586327D01*
X5366918Y-3589629D01*
X5372354Y-3592322D01*
X5378399Y-3594252D01*
X5385003Y-3595471D01*
X5392166Y-3595878D01*
X5399379Y-3595522D01*
X5406034Y-3594404D01*
X5412079Y-3592626D01*
X5417515Y-3590188D01*
X5422392Y-3587140D01*
X5426659Y-3583482D01*
X5430266Y-3579215D01*
X5433263Y-3574491D01*
X5435600Y-3569208D01*
X5437276Y-3563467D01*
X5438292Y-3557270D01*
X5438648Y-3550665D01*
X5438648Y-3510279D01*
X5433822Y-3510279D01*
X5432552Y-3523234D01*
X5375402Y-3523487D01*
X5351780Y-3523234D01*
X5350510Y-3510279D01*
G37*
G36*
X5091684Y-3367786D02*
G01*
X5091684Y-3406901D01*
X5096510Y-3406901D01*
X5098034Y-3394201D01*
X5116220Y-3393744D01*
X5150916Y-3393694D01*
X5170119Y-3393897D01*
X5179314Y-3394201D01*
X5179314Y-3406140D01*
X5178044Y-3415588D01*
X5174386Y-3422243D01*
X5168493Y-3426155D01*
X5160518Y-3427476D01*
X5152542Y-3426104D01*
X5146192Y-3421938D01*
X5141976Y-3414928D01*
X5140452Y-3405124D01*
X5140452Y-3393694D01*
X5135118Y-3393694D01*
X5135118Y-3401060D01*
X5134559Y-3408578D01*
X5132425Y-3413912D01*
X5128158Y-3417620D01*
X5121148Y-3420110D01*
X5099304Y-3425951D01*
X5095138Y-3427577D01*
X5092395Y-3430270D01*
X5090871Y-3434334D01*
X5090414Y-3439922D01*
X5090769Y-3445814D01*
X5091684Y-3450336D01*
X5096510Y-3450336D01*
X5097526Y-3439668D01*
X5119370Y-3433318D01*
X5126329Y-3430574D01*
X5131358Y-3427018D01*
X5134813Y-3422446D01*
X5136896Y-3416554D01*
X5138267Y-3422091D01*
X5140248Y-3426917D01*
X5142687Y-3431032D01*
X5145633Y-3434384D01*
X5148935Y-3437026D01*
X5152491Y-3438906D01*
X5156301Y-3440074D01*
X5160264Y-3440429D01*
X5165750Y-3439871D01*
X5170627Y-3438144D01*
X5174792Y-3435400D01*
X5178247Y-3431590D01*
X5181041Y-3426764D01*
X5183022Y-3421024D01*
X5184241Y-3414420D01*
X5184648Y-3406901D01*
X5184648Y-3367786D01*
X5179822Y-3367786D01*
X5178552Y-3380994D01*
X5097780Y-3380994D01*
X5096510Y-3367786D01*
G37*
G36*
X5091684Y-3458718D02*
G01*
X5091684Y-3495801D01*
X5097272Y-3495801D01*
X5097272Y-3484879D01*
X5116474Y-3484676D01*
X5179314Y-3484879D01*
X5179314Y-3496818D01*
X5179009Y-3501898D01*
X5178145Y-3506571D01*
X5176672Y-3510889D01*
X5174640Y-3514750D01*
X5171998Y-3518204D01*
X5168849Y-3521252D01*
X5165090Y-3523843D01*
X5160822Y-3525977D01*
X5155946Y-3527653D01*
X5150561Y-3528872D01*
X5144617Y-3529584D01*
X5138166Y-3529837D01*
X5131968Y-3529584D01*
X5126228Y-3528872D01*
X5120944Y-3527602D01*
X5116169Y-3525926D01*
X5111851Y-3523742D01*
X5108092Y-3521100D01*
X5104841Y-3518001D01*
X5102148Y-3514445D01*
X5100066Y-3510432D01*
X5098542Y-3506012D01*
X5097576Y-3501136D01*
X5097272Y-3495801D01*
X5091684Y-3495801D01*
X5092039Y-3503320D01*
X5093055Y-3509721D01*
X5094782Y-3515715D01*
X5097119Y-3521252D01*
X5100116Y-3526282D01*
X5103774Y-3530803D01*
X5108041Y-3534765D01*
X5112918Y-3538067D01*
X5118354Y-3540760D01*
X5124399Y-3542690D01*
X5131003Y-3543909D01*
X5138166Y-3544315D01*
X5145379Y-3543960D01*
X5152034Y-3542842D01*
X5158079Y-3541064D01*
X5163515Y-3538626D01*
X5168392Y-3535578D01*
X5172659Y-3531920D01*
X5176266Y-3527653D01*
X5179263Y-3522929D01*
X5181600Y-3517646D01*
X5183276Y-3511905D01*
X5184292Y-3505708D01*
X5184648Y-3499104D01*
X5184648Y-3458718D01*
X5179822Y-3458718D01*
X5178552Y-3471672D01*
X5121402Y-3471926D01*
X5097780Y-3471672D01*
X5096510Y-3458718D01*
G37*
G36*
X4884420Y-3368294D02*
G01*
X4877460Y-3368700D01*
X4870907Y-3369818D01*
X4864811Y-3371697D01*
X4859121Y-3374288D01*
X4853990Y-3377488D01*
X4849368Y-3381298D01*
X4845354Y-3385718D01*
X4841951Y-3390696D01*
X4839258Y-3396132D01*
X4837277Y-3402126D01*
X4836058Y-3408476D01*
X4835652Y-3415284D01*
X4836210Y-3423513D01*
X4837836Y-3431184D01*
X4840376Y-3438448D01*
X4843780Y-3445510D01*
X4876546Y-3446018D01*
X4877054Y-3454400D01*
X4881880Y-3454400D01*
X4881880Y-3418078D01*
X4877054Y-3418078D01*
X4876038Y-3432810D01*
X4844542Y-3433318D01*
X4842459Y-3425545D01*
X4841951Y-3421634D01*
X4841748Y-3417570D01*
X4842052Y-3412388D01*
X4843018Y-3407562D01*
X4844643Y-3403142D01*
X4846828Y-3399078D01*
X4849622Y-3395421D01*
X4852974Y-3392170D01*
X4856937Y-3389376D01*
X4861407Y-3387039D01*
X4866386Y-3385210D01*
X4871923Y-3383889D01*
X4877917Y-3383026D01*
X4884420Y-3382772D01*
X4890922Y-3383076D01*
X4896916Y-3383940D01*
X4902403Y-3385362D01*
X4907381Y-3387242D01*
X4911852Y-3389629D01*
X4915712Y-3392474D01*
X4919065Y-3395726D01*
X4921808Y-3399383D01*
X4923993Y-3403346D01*
X4925568Y-3407664D01*
X4926533Y-3412236D01*
X4926838Y-3417062D01*
X4926584Y-3421329D01*
X4925872Y-3425342D01*
X4924602Y-3429152D01*
X4922774Y-3432810D01*
X4905502Y-3436365D01*
X4905502Y-3443986D01*
X4926076Y-3443478D01*
X4929073Y-3437686D01*
X4931206Y-3431235D01*
X4932527Y-3424021D01*
X4932934Y-3415792D01*
X4932527Y-3408984D01*
X4931308Y-3402584D01*
X4929327Y-3396589D01*
X4926634Y-3391052D01*
X4923231Y-3386023D01*
X4919268Y-3381552D01*
X4914646Y-3377692D01*
X4909515Y-3374390D01*
X4903876Y-3371799D01*
X4897780Y-3369868D01*
X4891278Y-3368700D01*
G37*
G36*
X4837684Y-3462020D02*
G01*
X4837684Y-3494786D01*
X4842510Y-3494786D01*
X4844288Y-3480054D01*
X4914646Y-3479546D01*
X4836922Y-3536442D01*
X4836922Y-3541522D01*
X4924298Y-3541522D01*
X4925822Y-3553206D01*
X4930648Y-3553206D01*
X4930648Y-3520440D01*
X4925822Y-3520440D01*
X4924298Y-3535172D01*
X4859528Y-3535426D01*
X4930648Y-3484118D01*
X4930648Y-3462528D01*
X4925822Y-3462528D01*
X4924806Y-3472434D01*
X4923028Y-3473704D01*
X4844288Y-3473704D01*
X4842510Y-3462020D01*
G37*
G36*
X4837684Y-3563620D02*
G01*
X4837684Y-3600704D01*
X4843272Y-3600704D01*
X4843272Y-3590036D01*
X4857648Y-3589629D01*
X4897120Y-3589528D01*
X4916068Y-3589731D01*
X4925314Y-3590036D01*
X4925314Y-3601974D01*
X4925009Y-3607054D01*
X4924145Y-3611727D01*
X4922672Y-3616045D01*
X4920640Y-3619906D01*
X4917998Y-3623360D01*
X4914849Y-3626408D01*
X4911090Y-3628999D01*
X4906822Y-3631133D01*
X4901946Y-3632809D01*
X4896561Y-3634028D01*
X4890617Y-3634740D01*
X4884166Y-3634994D01*
X4877968Y-3634740D01*
X4872228Y-3634028D01*
X4866944Y-3632758D01*
X4862169Y-3631082D01*
X4857851Y-3628898D01*
X4854092Y-3626256D01*
X4850841Y-3623106D01*
X4848148Y-3619550D01*
X4846066Y-3615486D01*
X4844542Y-3611016D01*
X4843576Y-3606088D01*
X4843272Y-3600704D01*
X4837684Y-3600704D01*
X4838039Y-3608476D01*
X4839055Y-3614877D01*
X4840782Y-3620871D01*
X4843119Y-3626408D01*
X4846116Y-3631437D01*
X4849774Y-3635959D01*
X4854041Y-3639921D01*
X4858918Y-3643223D01*
X4864354Y-3645915D01*
X4870399Y-3647846D01*
X4877003Y-3649065D01*
X4884166Y-3649472D01*
X4891379Y-3649116D01*
X4898034Y-3647998D01*
X4904079Y-3646220D01*
X4909515Y-3643782D01*
X4914392Y-3640734D01*
X4918659Y-3637076D01*
X4922266Y-3632809D01*
X4925263Y-3628085D01*
X4927600Y-3622801D01*
X4929276Y-3617061D01*
X4930292Y-3610864D01*
X4930648Y-3604260D01*
X4930648Y-3563620D01*
X4925822Y-3563620D01*
X4924552Y-3576828D01*
X4843780Y-3576828D01*
X4842510Y-3563620D01*
G37*
G36*
X5690362Y-4044696D02*
G01*
X5683148Y-4045051D01*
X5676341Y-4046118D01*
X5670042Y-4047845D01*
X5664250Y-4050233D01*
X5659018Y-4053128D01*
X5654344Y-4056634D01*
X5650280Y-4060647D01*
X5646877Y-4065066D01*
X5644184Y-4069994D01*
X5642203Y-4075277D01*
X5640984Y-4080916D01*
X5640578Y-4086860D01*
X5640832Y-4091787D01*
X5641543Y-4096410D01*
X5642762Y-4100829D01*
X5644438Y-4104944D01*
X5646674Y-4108805D01*
X5649366Y-4112361D01*
X5652617Y-4115562D01*
X5656326Y-4118457D01*
X5660593Y-4120946D01*
X5665419Y-4123131D01*
X5670753Y-4124858D01*
X5676646Y-4126229D01*
X5669483Y-4128871D01*
X5663133Y-4132173D01*
X5657748Y-4136085D01*
X5653278Y-4140555D01*
X5649772Y-4145534D01*
X5647232Y-4150969D01*
X5645658Y-4156862D01*
X5645150Y-4163060D01*
X5645505Y-4168343D01*
X5646470Y-4173321D01*
X5648096Y-4177944D01*
X5650331Y-4182160D01*
X5653125Y-4186021D01*
X5656529Y-4189425D01*
X5660440Y-4192371D01*
X5664860Y-4194810D01*
X5669788Y-4196791D01*
X5675172Y-4198213D01*
X5681065Y-4199077D01*
X5687314Y-4199382D01*
X5694832Y-4198975D01*
X5701944Y-4197654D01*
X5708446Y-4195470D01*
X5714339Y-4192371D01*
X5719419Y-4188409D01*
X5723636Y-4183532D01*
X5726836Y-4177690D01*
X5728970Y-4170934D01*
X5727141Y-4167225D01*
X5724702Y-4164787D01*
X5721807Y-4163466D01*
X5718556Y-4163060D01*
X5713933Y-4163872D01*
X5710478Y-4166362D01*
X5707888Y-4170578D01*
X5705856Y-4176522D01*
X5702300Y-4189476D01*
X5696559Y-4190492D01*
X5691632Y-4190746D01*
X5685434Y-4190288D01*
X5679897Y-4188866D01*
X5675172Y-4186529D01*
X5671210Y-4183329D01*
X5668060Y-4179265D01*
X5665825Y-4174337D01*
X5664403Y-4168597D01*
X5663946Y-4162044D01*
X5664504Y-4155033D01*
X5666181Y-4148836D01*
X5668924Y-4143552D01*
X5672683Y-4139133D01*
X5677357Y-4135628D01*
X5682894Y-4133087D01*
X5689295Y-4131564D01*
X5696458Y-4131056D01*
X5705094Y-4131056D01*
X5705094Y-4121150D01*
X5694680Y-4121150D01*
X5686552Y-4120540D01*
X5679541Y-4118762D01*
X5673598Y-4115866D01*
X5668721Y-4111955D01*
X5664962Y-4107078D01*
X5662269Y-4101337D01*
X5660694Y-4094734D01*
X5660136Y-4087368D01*
X5660694Y-4080154D01*
X5662371Y-4073550D01*
X5665114Y-4067708D01*
X5668873Y-4062679D01*
X5673699Y-4058615D01*
X5679440Y-4055618D01*
X5686094Y-4053738D01*
X5693664Y-4053078D01*
X5699810Y-4053484D01*
X5706364Y-4054856D01*
X5709920Y-4068064D01*
X5712053Y-4074617D01*
X5714492Y-4079087D01*
X5717692Y-4081729D01*
X5722112Y-4082542D01*
X5725515Y-4082135D01*
X5728411Y-4080916D01*
X5730951Y-4078681D01*
X5733034Y-4075429D01*
X5730951Y-4067962D01*
X5727750Y-4061612D01*
X5723585Y-4056329D01*
X5718454Y-4052062D01*
X5712510Y-4048810D01*
X5705805Y-4046474D01*
X5698388Y-4045153D01*
G37*
G36*
X5575046Y-4044696D02*
G01*
X5570677Y-4044950D01*
X5566359Y-4045712D01*
X5562092Y-4046982D01*
X5557977Y-4048861D01*
X5553964Y-4051300D01*
X5550154Y-4054348D01*
X5546547Y-4058005D01*
X5543143Y-4062323D01*
X5540095Y-4067301D01*
X5537301Y-4072991D01*
X5534812Y-4079443D01*
X5532729Y-4086606D01*
X5531104Y-4094530D01*
X5529834Y-4103268D01*
X5529072Y-4112818D01*
X5528818Y-4123182D01*
X5548630Y-4123182D01*
X5548884Y-4110177D01*
X5549646Y-4098747D01*
X5550865Y-4088892D01*
X5552490Y-4080408D01*
X5554472Y-4073245D01*
X5556808Y-4067352D01*
X5559399Y-4062628D01*
X5562193Y-4058970D01*
X5565241Y-4056227D01*
X5568391Y-4054449D01*
X5571693Y-4053382D01*
X5575046Y-4053078D01*
X5577687Y-4053230D01*
X5580278Y-4053789D01*
X5582818Y-4054805D01*
X5585307Y-4056227D01*
X5587644Y-4058158D01*
X5589879Y-4060596D01*
X5592013Y-4063644D01*
X5593943Y-4067251D01*
X5595772Y-4071569D01*
X5597398Y-4076547D01*
X5598769Y-4082287D01*
X5599988Y-4088739D01*
X5600954Y-4096054D01*
X5601614Y-4104182D01*
X5602071Y-4113225D01*
X5602224Y-4123182D01*
X5601970Y-4135729D01*
X5601208Y-4146702D01*
X5599988Y-4156201D01*
X5598363Y-4164329D01*
X5596331Y-4171187D01*
X5593994Y-4176826D01*
X5591302Y-4181398D01*
X5588406Y-4184904D01*
X5585307Y-4187494D01*
X5582005Y-4189222D01*
X5578551Y-4190187D01*
X5575046Y-4190492D01*
X5571693Y-4190187D01*
X5568391Y-4189222D01*
X5565241Y-4187494D01*
X5562193Y-4184904D01*
X5559399Y-4181398D01*
X5556808Y-4176826D01*
X5554472Y-4171187D01*
X5552490Y-4164329D01*
X5550865Y-4156201D01*
X5549646Y-4146702D01*
X5548884Y-4135729D01*
X5548630Y-4123182D01*
X5528818Y-4123182D01*
X5529072Y-4133189D01*
X5529834Y-4142435D01*
X5531104Y-4150868D01*
X5532729Y-4158538D01*
X5534812Y-4165498D01*
X5537301Y-4171746D01*
X5540095Y-4177284D01*
X5543143Y-4182160D01*
X5546547Y-4186377D01*
X5550154Y-4189933D01*
X5553964Y-4192930D01*
X5557977Y-4195318D01*
X5562092Y-4197096D01*
X5566359Y-4198366D01*
X5570677Y-4199128D01*
X5575046Y-4199382D01*
X5579567Y-4199128D01*
X5583986Y-4198366D01*
X5588355Y-4197096D01*
X5592572Y-4195318D01*
X5596636Y-4192930D01*
X5600496Y-4189933D01*
X5604154Y-4186377D01*
X5607608Y-4182160D01*
X5610707Y-4177284D01*
X5613552Y-4171746D01*
X5615990Y-4165498D01*
X5618073Y-4158538D01*
X5619750Y-4150868D01*
X5621020Y-4142435D01*
X5621782Y-4133189D01*
X5622036Y-4123182D01*
X5621782Y-4112818D01*
X5621020Y-4103268D01*
X5619750Y-4094530D01*
X5618073Y-4086606D01*
X5615990Y-4079443D01*
X5613552Y-4072991D01*
X5610707Y-4067301D01*
X5607608Y-4062323D01*
X5604154Y-4058005D01*
X5600496Y-4054348D01*
X5596636Y-4051300D01*
X5592572Y-4048861D01*
X5588355Y-4046982D01*
X5583986Y-4045712D01*
X5579567Y-4044950D01*
G37*
G36*
X5352034Y-4044696D02*
G01*
X5347665Y-4044950D01*
X5343347Y-4045712D01*
X5339080Y-4046982D01*
X5334914Y-4048861D01*
X5330901Y-4051300D01*
X5327040Y-4054348D01*
X5323433Y-4058005D01*
X5320030Y-4062323D01*
X5316931Y-4067301D01*
X5314086Y-4072991D01*
X5311648Y-4079443D01*
X5309514Y-4086606D01*
X5307838Y-4094530D01*
X5306568Y-4103268D01*
X5305806Y-4112818D01*
X5305552Y-4123182D01*
X5325618Y-4123182D01*
X5325872Y-4110177D01*
X5326634Y-4098747D01*
X5327802Y-4088892D01*
X5329428Y-4080408D01*
X5331409Y-4073245D01*
X5333695Y-4067352D01*
X5336286Y-4062628D01*
X5339080Y-4058970D01*
X5342128Y-4056227D01*
X5345328Y-4054449D01*
X5348630Y-4053382D01*
X5352034Y-4053078D01*
X5354675Y-4053230D01*
X5357266Y-4053789D01*
X5359806Y-4054805D01*
X5362295Y-4056227D01*
X5364632Y-4058158D01*
X5366867Y-4060596D01*
X5369001Y-4063644D01*
X5370931Y-4067251D01*
X5372760Y-4071569D01*
X5374386Y-4076547D01*
X5375757Y-4082287D01*
X5376976Y-4088739D01*
X5377942Y-4096054D01*
X5378602Y-4104182D01*
X5379059Y-4113225D01*
X5379212Y-4123182D01*
X5378958Y-4135729D01*
X5378196Y-4146702D01*
X5376976Y-4156201D01*
X5375351Y-4164329D01*
X5373319Y-4171187D01*
X5370931Y-4176826D01*
X5368290Y-4181398D01*
X5365394Y-4184904D01*
X5362295Y-4187494D01*
X5358993Y-4189222D01*
X5355539Y-4190187D01*
X5352034Y-4190492D01*
X5348630Y-4190187D01*
X5345328Y-4189222D01*
X5342128Y-4187494D01*
X5339080Y-4184904D01*
X5336286Y-4181398D01*
X5333695Y-4176826D01*
X5331409Y-4171187D01*
X5329428Y-4164329D01*
X5327802Y-4156201D01*
X5326634Y-4146702D01*
X5325872Y-4135729D01*
X5325618Y-4123182D01*
X5305552Y-4123182D01*
X5305806Y-4133189D01*
X5306568Y-4142435D01*
X5307838Y-4150868D01*
X5309514Y-4158538D01*
X5311648Y-4165498D01*
X5314086Y-4171746D01*
X5316931Y-4177284D01*
X5320030Y-4182160D01*
X5323433Y-4186377D01*
X5327040Y-4189933D01*
X5330901Y-4192930D01*
X5334914Y-4195318D01*
X5339080Y-4197096D01*
X5343347Y-4198366D01*
X5347665Y-4199128D01*
X5352034Y-4199382D01*
X5356504Y-4199128D01*
X5360924Y-4198366D01*
X5365242Y-4197096D01*
X5369458Y-4195318D01*
X5373522Y-4192930D01*
X5377383Y-4189933D01*
X5381040Y-4186377D01*
X5384495Y-4182160D01*
X5387644Y-4177284D01*
X5390438Y-4171746D01*
X5392928Y-4165498D01*
X5395061Y-4158538D01*
X5396738Y-4150868D01*
X5398008Y-4142435D01*
X5398770Y-4133189D01*
X5399024Y-4123182D01*
X5398770Y-4112818D01*
X5398008Y-4103268D01*
X5396738Y-4094530D01*
X5395061Y-4086606D01*
X5392928Y-4079443D01*
X5390438Y-4072991D01*
X5387644Y-4067301D01*
X5384495Y-4062323D01*
X5381040Y-4058005D01*
X5377383Y-4054348D01*
X5373522Y-4051300D01*
X5369458Y-4048861D01*
X5365242Y-4046982D01*
X5360924Y-4045712D01*
X5356504Y-4044950D01*
G37*
G36*
X5240528Y-4044696D02*
G01*
X5236159Y-4044950D01*
X5231841Y-4045712D01*
X5227574Y-4046982D01*
X5223408Y-4048861D01*
X5219395Y-4051300D01*
X5215534Y-4054348D01*
X5211927Y-4058005D01*
X5208524Y-4062323D01*
X5205425Y-4067301D01*
X5202580Y-4072991D01*
X5200142Y-4079443D01*
X5198008Y-4086606D01*
X5196332Y-4094530D01*
X5195062Y-4103268D01*
X5194300Y-4112818D01*
X5194046Y-4123182D01*
X5214112Y-4123182D01*
X5214366Y-4110177D01*
X5215128Y-4098747D01*
X5216296Y-4088892D01*
X5217922Y-4080408D01*
X5219903Y-4073245D01*
X5222189Y-4067352D01*
X5224780Y-4062628D01*
X5227574Y-4058970D01*
X5230622Y-4056227D01*
X5233822Y-4054449D01*
X5237124Y-4053382D01*
X5240528Y-4053078D01*
X5243169Y-4053230D01*
X5245760Y-4053789D01*
X5248300Y-4054805D01*
X5250789Y-4056227D01*
X5253126Y-4058158D01*
X5255361Y-4060596D01*
X5257495Y-4063644D01*
X5259476Y-4067251D01*
X5261254Y-4071569D01*
X5262880Y-4076547D01*
X5264251Y-4082287D01*
X5265470Y-4088739D01*
X5266436Y-4096054D01*
X5267096Y-4104182D01*
X5267553Y-4113225D01*
X5267706Y-4123182D01*
X5267452Y-4135729D01*
X5266690Y-4146702D01*
X5265470Y-4156201D01*
X5263845Y-4164329D01*
X5261813Y-4171187D01*
X5259476Y-4176826D01*
X5256784Y-4181398D01*
X5253888Y-4184904D01*
X5250789Y-4187494D01*
X5247487Y-4189222D01*
X5244033Y-4190187D01*
X5240528Y-4190492D01*
X5237124Y-4190187D01*
X5233822Y-4189222D01*
X5230622Y-4187494D01*
X5227574Y-4184904D01*
X5224780Y-4181398D01*
X5222189Y-4176826D01*
X5219903Y-4171187D01*
X5217922Y-4164329D01*
X5216296Y-4156201D01*
X5215128Y-4146702D01*
X5214366Y-4135729D01*
X5214112Y-4123182D01*
X5194046Y-4123182D01*
X5194300Y-4133189D01*
X5195062Y-4142435D01*
X5196332Y-4150868D01*
X5198008Y-4158538D01*
X5200142Y-4165498D01*
X5202580Y-4171746D01*
X5205425Y-4177284D01*
X5208524Y-4182160D01*
X5211927Y-4186377D01*
X5215534Y-4189933D01*
X5219395Y-4192930D01*
X5223408Y-4195318D01*
X5227574Y-4197096D01*
X5231841Y-4198366D01*
X5236159Y-4199128D01*
X5240528Y-4199382D01*
X5244998Y-4199128D01*
X5249367Y-4198366D01*
X5253685Y-4197096D01*
X5257901Y-4195318D01*
X5261965Y-4192930D01*
X5265826Y-4189933D01*
X5269433Y-4186377D01*
X5272836Y-4182160D01*
X5275986Y-4177284D01*
X5278780Y-4171746D01*
X5281218Y-4165498D01*
X5283301Y-4158538D01*
X5284978Y-4150868D01*
X5286248Y-4142435D01*
X5287010Y-4133189D01*
X5287264Y-4123182D01*
X5287010Y-4112818D01*
X5286248Y-4103268D01*
X5284978Y-4094530D01*
X5283301Y-4086606D01*
X5281218Y-4079443D01*
X5278780Y-4072991D01*
X5275986Y-4067301D01*
X5272836Y-4062323D01*
X5269433Y-4058005D01*
X5265826Y-4054348D01*
X5261965Y-4051300D01*
X5257901Y-4048861D01*
X5253685Y-4046982D01*
X5249367Y-4045712D01*
X5244998Y-4044950D01*
G37*
G36*
X6044438Y-4047490D02*
G01*
X6044438Y-4055110D01*
X6065012Y-4057396D01*
X6065418Y-4079595D01*
X6065520Y-4142232D01*
X6065316Y-4171848D01*
X6065012Y-4186428D01*
X6044184Y-4188714D01*
X6044184Y-4196334D01*
X6087110Y-4196334D01*
X6135370Y-4072890D01*
X6185408Y-4196334D01*
X6226048Y-4196334D01*
X6226048Y-4188714D01*
X6205728Y-4186174D01*
X6205982Y-4058158D01*
X6226048Y-4055110D01*
X6226048Y-4047490D01*
X6176264Y-4047490D01*
X6176264Y-4055110D01*
X6195568Y-4058158D01*
X6195618Y-4129989D01*
X6196838Y-4174998D01*
X6144768Y-4047490D01*
X6135370Y-4047490D01*
X6085078Y-4175506D01*
X6085382Y-4086504D01*
X6085840Y-4057396D01*
X6105144Y-4055110D01*
X6105144Y-4047490D01*
G37*
G36*
X5888736Y-4047490D02*
G01*
X5888736Y-4055110D01*
X5906008Y-4057142D01*
X5922618Y-4105656D01*
X5989066Y-4105656D01*
X5966206Y-4174744D01*
X5943092Y-4105656D01*
X5922618Y-4105656D01*
X5954014Y-4197350D01*
X5966968Y-4197350D01*
X6014466Y-4058158D01*
X6032500Y-4055110D01*
X6032500Y-4047490D01*
X5982970Y-4047490D01*
X5982970Y-4055110D01*
X6004560Y-4058158D01*
X5991860Y-4096765D01*
X5940298Y-4096765D01*
X5927344Y-4057904D01*
X5949188Y-4055110D01*
X5949188Y-4047490D01*
G37*
G36*
X5745226Y-4047490D02*
G01*
X5745226Y-4055110D01*
X5764276Y-4057396D01*
X5806440Y-4128770D01*
X5769610Y-4186174D01*
X5749544Y-4188714D01*
X5749544Y-4196334D01*
X5800344Y-4196334D01*
X5800344Y-4188714D01*
X5780532Y-4185920D01*
X5810758Y-4136390D01*
X5840222Y-4186428D01*
X5819394Y-4188714D01*
X5819394Y-4196334D01*
X5882132Y-4196334D01*
X5882132Y-4188714D01*
X5862574Y-4186682D01*
X5823204Y-4119626D01*
X5862574Y-4058158D01*
X5883656Y-4055110D01*
X5883656Y-4047490D01*
X5833110Y-4047490D01*
X5833110Y-4055110D01*
X5851652Y-4058158D01*
X5818632Y-4112006D01*
X5786628Y-4057396D01*
X5807456Y-4055110D01*
X5807456Y-4047490D01*
G37*
G36*
X5420868Y-4047490D02*
G01*
X5420868Y-4054348D01*
X5452110Y-4058920D01*
X5452618Y-4094479D01*
X5452618Y-4164329D01*
X5451856Y-4196334D01*
X5454904Y-4198620D01*
X5500624Y-4186682D01*
X5500624Y-4179062D01*
X5470906Y-4181856D01*
X5471160Y-4058920D01*
X5502910Y-4054348D01*
X5502910Y-4047490D01*
G37*
D10*
X1106678Y-799592D02*
G01*
X1101344Y-789178D01*
X1090929Y-778763D01*
X1080770Y-773684D01*
X1059942Y-773684D01*
X1049528Y-778763D01*
X1039113Y-789178D01*
X1033779Y-799592D01*
X1028700Y-815339D01*
X1028700Y-841247D01*
X1033779Y-856742D01*
X1039113Y-867155D01*
X1049528Y-877570D01*
X1059942Y-882650D01*
X1080770Y-882650D01*
X1090929Y-877570D01*
X1101344Y-867155D01*
X1106678Y-856742D01*
X1140968Y-794512D02*
G01*
X1151381Y-789178D01*
X1166876Y-773684D01*
X1166876Y-882650D01*
X2109977Y-786892D02*
G01*
X2104643Y-776478D01*
X2094229Y-766063D01*
X2084070Y-760984D01*
X2063241Y-760984D01*
X2052827Y-766063D01*
X2042413Y-776478D01*
X2037079Y-786892D01*
X2032000Y-802639D01*
X2032000Y-828547D01*
X2037079Y-844042D01*
X2042413Y-854455D01*
X2052827Y-864870D01*
X2063241Y-869950D01*
X2084070Y-869950D01*
X2094229Y-864870D01*
X2104643Y-854455D01*
X2109977Y-844042D01*
X2149347Y-786892D02*
G01*
X2149347Y-781812D01*
X2154681Y-771397D01*
X2159761Y-766063D01*
X2170175Y-760984D01*
X2191004Y-760984D01*
X2201418Y-766063D01*
X2206497Y-771397D01*
X2211831Y-781812D01*
X2211831Y-792226D01*
X2206497Y-802639D01*
X2196084Y-818134D01*
X2144268Y-869950D01*
X2216911Y-869950D01*
X813815Y-1485900D02*
G01*
X704850Y-1485900D01*
X813815Y-1485900D02*
G01*
X813815Y-1522221D01*
X808736Y-1537970D01*
X798321Y-1548129D01*
X787907Y-1553463D01*
X772160Y-1558544D01*
X746252Y-1558544D01*
X730757Y-1553463D01*
X720344Y-1548129D01*
X709929Y-1537970D01*
X704850Y-1522221D01*
X704850Y-1485900D01*
X792987Y-1592834D02*
G01*
X798321Y-1603247D01*
X813815Y-1618995D01*
X704850Y-1618995D01*
X342900Y-2069084D02*
G01*
X342900Y-2178050D01*
X415544Y-2069084D02*
G01*
X415544Y-2178050D01*
X342900Y-2120900D02*
G01*
X415544Y-2120900D01*
X449834Y-2089912D02*
G01*
X460247Y-2084578D01*
X475995Y-2069084D01*
X475995Y-2178050D01*
X1422400Y-1662684D02*
G01*
X1422400Y-1771650D01*
X1422400Y-1771650D02*
G01*
X1484629Y-1771650D01*
X1518920Y-1662684D02*
G01*
X1518920Y-1771650D01*
X1518920Y-1662684D02*
G01*
X1586484Y-1662684D01*
X1518920Y-1714500D02*
G01*
X1560576Y-1714500D01*
X1518920Y-1771650D02*
G01*
X1586484Y-1771650D01*
X1620773Y-1662684D02*
G01*
X1620773Y-1771650D01*
X1620773Y-1662684D02*
G01*
X1657350Y-1662684D01*
X1672844Y-1667763D01*
X1683257Y-1678178D01*
X1688337Y-1688592D01*
X1693671Y-1704339D01*
X1693671Y-1730247D01*
X1688337Y-1745742D01*
X1683257Y-1756155D01*
X1672844Y-1766570D01*
X1657350Y-1771650D01*
X1620773Y-1771650D01*
X1727962Y-1683512D02*
G01*
X1738376Y-1678178D01*
X1753870Y-1662684D01*
X1753870Y-1771650D01*
X1310131Y-3996436D02*
G01*
X1299718Y-4001515D01*
X1289304Y-4011929D01*
X1283970Y-4022344D01*
X1278889Y-4038092D01*
X1278889Y-4064000D01*
X1283970Y-4079494D01*
X1289304Y-4089907D01*
X1299718Y-4100321D01*
X1310131Y-4105402D01*
X1330960Y-4105402D01*
X1341120Y-4100321D01*
X1351534Y-4089907D01*
X1356868Y-4079494D01*
X1361947Y-4064000D01*
X1361947Y-4038092D01*
X1356868Y-4022344D01*
X1351534Y-4011929D01*
X1341120Y-4001515D01*
X1330960Y-3996436D01*
X1310131Y-3996436D01*
X1325626Y-4084828D02*
G01*
X1356868Y-4115815D01*
X1396237Y-4017263D02*
G01*
X1406652Y-4011929D01*
X1422400Y-3996436D01*
X1422400Y-4105402D01*
X1776984Y-1905000D02*
G01*
X1885950Y-1905000D01*
X1776984Y-1905000D02*
G01*
X1776984Y-1858263D01*
X1782063Y-1842770D01*
X1787397Y-1837436D01*
X1797812Y-1832355D01*
X1808226Y-1832355D01*
X1818639Y-1837436D01*
X1823720Y-1842770D01*
X1828800Y-1858263D01*
X1828800Y-1905000D01*
X1828800Y-1868678D02*
G01*
X1885950Y-1832355D01*
X1797812Y-1798065D02*
G01*
X1792478Y-1787652D01*
X1776984Y-1771904D01*
X1885950Y-1771904D01*
X887984Y-1968500D02*
G01*
X996950Y-1968500D01*
X887984Y-1968500D02*
G01*
X887984Y-1921763D01*
X893063Y-1906270D01*
X898397Y-1900936D01*
X908812Y-1895855D01*
X919226Y-1895855D01*
X929639Y-1900936D01*
X934720Y-1906270D01*
X939800Y-1921763D01*
X939800Y-1968500D01*
X939800Y-1932178D02*
G01*
X996950Y-1895855D01*
X913892Y-1856231D02*
G01*
X908812Y-1856231D01*
X898397Y-1851152D01*
X893063Y-1845818D01*
X887984Y-1835404D01*
X887984Y-1814829D01*
X893063Y-1804415D01*
X898397Y-1799081D01*
X908812Y-1794002D01*
X919226Y-1794002D01*
X929639Y-1799081D01*
X945134Y-1809495D01*
X996950Y-1861565D01*
X996950Y-1788668D01*
X1525015Y-2997200D02*
G01*
X1416050Y-2997200D01*
X1525015Y-2997200D02*
G01*
X1525015Y-3043936D01*
X1519936Y-3059429D01*
X1514602Y-3064763D01*
X1504187Y-3069844D01*
X1493773Y-3069844D01*
X1483360Y-3064763D01*
X1478279Y-3059429D01*
X1473200Y-3043936D01*
X1473200Y-2997200D01*
X1473200Y-3033521D02*
G01*
X1416050Y-3069844D01*
X1525015Y-3114547D02*
G01*
X1525015Y-3171697D01*
X1483360Y-3140710D01*
X1483360Y-3156204D01*
X1478279Y-3166618D01*
X1473200Y-3171697D01*
X1457452Y-3177031D01*
X1447037Y-3177031D01*
X1431544Y-3171697D01*
X1421129Y-3161284D01*
X1416050Y-3145789D01*
X1416050Y-3130295D01*
X1421129Y-3114547D01*
X1426210Y-3109468D01*
X1436623Y-3104134D01*
X2033015Y-2946400D02*
G01*
X1924050Y-2946400D01*
X2033015Y-2946400D02*
G01*
X2033015Y-2993136D01*
X2027936Y-3008629D01*
X2022602Y-3013963D01*
X2012188Y-3019044D01*
X2001774Y-3019044D01*
X1991359Y-3013963D01*
X1986279Y-3008629D01*
X1981200Y-2993136D01*
X1981200Y-2946400D01*
X1981200Y-2982721D02*
G01*
X1924050Y-3019044D01*
X2033015Y-3105404D02*
G01*
X1960372Y-3053334D01*
X1960372Y-3131312D01*
X2033015Y-3105404D02*
G01*
X1924050Y-3105404D01*
X418084Y-3810000D02*
G01*
X527050Y-3810000D01*
X418084Y-3810000D02*
G01*
X418084Y-3763263D01*
X423163Y-3747770D01*
X428497Y-3742436D01*
X438912Y-3737355D01*
X449326Y-3737355D01*
X459739Y-3742436D01*
X464820Y-3747770D01*
X469900Y-3763263D01*
X469900Y-3810000D01*
X469900Y-3773678D02*
G01*
X527050Y-3737355D01*
X418084Y-3640581D02*
G01*
X418084Y-3692652D01*
X464820Y-3697731D01*
X459739Y-3692652D01*
X454405Y-3676904D01*
X454405Y-3661410D01*
X459739Y-3645915D01*
X469900Y-3635502D01*
X485647Y-3630168D01*
X496062Y-3630168D01*
X511555Y-3635502D01*
X521970Y-3645915D01*
X527050Y-3661410D01*
X527050Y-3676904D01*
X521970Y-3692652D01*
X516889Y-3697731D01*
X506476Y-3703065D01*
X1206500Y-291084D02*
G01*
X1206500Y-369062D01*
X1211579Y-384555D01*
X1221994Y-394970D01*
X1237742Y-400050D01*
X1248155Y-400050D01*
X1263650Y-394970D01*
X1274063Y-384555D01*
X1279144Y-369062D01*
X1279144Y-291084D01*
X1313434Y-311912D02*
G01*
X1323847Y-306578D01*
X1339595Y-291084D01*
X1339595Y-400050D01*
X2832100Y-151384D02*
G01*
X2832100Y-229362D01*
X2837179Y-244855D01*
X2847593Y-255270D01*
X2863341Y-260350D01*
X2873756Y-260350D01*
X2889250Y-255270D01*
X2899663Y-244855D01*
X2904743Y-229362D01*
X2904743Y-151384D01*
X2944368Y-177292D02*
G01*
X2944368Y-172212D01*
X2949447Y-161797D01*
X2954781Y-156463D01*
X2965195Y-151384D01*
X2985770Y-151384D01*
X2996184Y-156463D01*
X3001518Y-161797D01*
X3006597Y-172212D01*
X3006597Y-182626D01*
X3001518Y-193039D01*
X2991104Y-208534D01*
X2939034Y-260350D01*
X3011931Y-260350D01*
D11*
X2956994Y-665162D02*
G01*
X2956994Y-760666D01*
X2956994Y-665162D02*
G01*
X2988744Y-665162D01*
X3002460Y-669734D01*
X3011604Y-678624D01*
X3016176Y-687768D01*
X3020748Y-701484D01*
X3020748Y-724090D01*
X3016176Y-737806D01*
X3011604Y-746950D01*
X3002460Y-756094D01*
X2988744Y-760666D01*
X2956994Y-760666D01*
X3050720Y-683196D02*
G01*
X3059610Y-678624D01*
X3073326Y-665162D01*
X3073326Y-760666D01*
X3112442Y-665162D02*
G01*
X3162480Y-665162D01*
X3135302Y-701484D01*
X3148764Y-701484D01*
X3157908Y-706056D01*
X3162480Y-710628D01*
X3167052Y-724090D01*
X3167052Y-733234D01*
X3162480Y-746950D01*
X3153336Y-756094D01*
X3139620Y-760666D01*
X3126158Y-760666D01*
X3112442Y-756094D01*
X3107870Y-751522D01*
X3103298Y-742378D01*
X2966133Y-919157D02*
G01*
X3016171Y-919157D01*
X2988739Y-955479D01*
X3002455Y-955479D01*
X3011599Y-960051D01*
X3016171Y-964623D01*
X3020743Y-978085D01*
X3020743Y-987229D01*
X3016171Y-1000945D01*
X3007027Y-1010089D01*
X2993311Y-1014661D01*
X2979595Y-1014661D01*
X2966133Y-1010089D01*
X2961561Y-1005517D01*
X2956989Y-996373D01*
X3050715Y-919157D02*
G01*
X3087037Y-1014661D01*
X3123359Y-919157D02*
G01*
X3087037Y-1014661D01*
X3162475Y-919157D02*
G01*
X3212513Y-919157D01*
X3185081Y-955479D01*
X3198797Y-955479D01*
X3207941Y-960051D01*
X3212513Y-964623D01*
X3217085Y-978085D01*
X3217085Y-987229D01*
X3212513Y-1000945D01*
X3203369Y-1010089D01*
X3189653Y-1014661D01*
X3176191Y-1014661D01*
X3162475Y-1010089D01*
X3157903Y-1005517D01*
X3153331Y-996373D01*
X2956989Y-1173157D02*
G01*
X2956989Y-1268661D01*
X2956989Y-1173157D02*
G01*
X2997883Y-1173157D01*
X3011599Y-1177729D01*
X3016171Y-1182301D01*
X3020743Y-1191191D01*
X3020743Y-1200335D01*
X3016171Y-1209479D01*
X3011599Y-1214051D01*
X2997883Y-1218623D01*
X2956989Y-1218623D01*
X2988739Y-1218623D02*
G01*
X3020743Y-1268661D01*
X3050715Y-1173157D02*
G01*
X3050715Y-1268661D01*
X3050715Y-1173157D02*
G01*
X3109643Y-1173157D01*
X3050715Y-1218623D02*
G01*
X3087037Y-1218623D01*
X3050715Y-1268661D02*
G01*
X3109643Y-1268661D01*
X3139615Y-1173157D02*
G01*
X3139615Y-1268661D01*
X3139615Y-1173157D02*
G01*
X3198797Y-1173157D01*
X3139615Y-1218623D02*
G01*
X3176191Y-1218623D01*
X2993313Y-1427159D02*
G01*
X2956991Y-1522663D01*
X2993313Y-1427159D02*
G01*
X3029635Y-1522663D01*
X2970707Y-1490659D02*
G01*
X3016173Y-1490659D01*
X3087039Y-1427159D02*
G01*
X3073323Y-1431731D01*
X3064179Y-1445193D01*
X3059607Y-1468053D01*
X3059607Y-1481515D01*
X3064179Y-1504375D01*
X3073323Y-1518091D01*
X3087039Y-1522663D01*
X3096183Y-1522663D01*
X3109645Y-1518091D01*
X3118789Y-1504375D01*
X3123361Y-1481515D01*
X3123361Y-1468053D01*
X3118789Y-1445193D01*
X3109645Y-1431731D01*
X3096183Y-1427159D01*
X3087039Y-1427159D01*
X2993311Y-1681157D02*
G01*
X2956989Y-1776661D01*
X2993311Y-1681157D02*
G01*
X3029633Y-1776661D01*
X2970705Y-1744657D02*
G01*
X3016171Y-1744657D01*
X3059605Y-1699191D02*
G01*
X3068749Y-1694619D01*
X3082465Y-1681157D01*
X3082465Y-1776661D01*
X2993313Y-1935159D02*
G01*
X2956991Y-2030663D01*
X2993313Y-1935159D02*
G01*
X3029635Y-2030663D01*
X2970707Y-1998659D02*
G01*
X3016173Y-1998659D01*
X3064179Y-1957765D02*
G01*
X3064179Y-1953193D01*
X3068751Y-1944303D01*
X3073323Y-1939731D01*
X3082467Y-1935159D01*
X3100501Y-1935159D01*
X3109645Y-1939731D01*
X3114217Y-1944303D01*
X3118789Y-1953193D01*
X3118789Y-1962337D01*
X3114217Y-1971481D01*
X3105073Y-1985197D01*
X3059607Y-2030663D01*
X3123361Y-2030663D01*
X2993313Y-2189159D02*
G01*
X2956991Y-2284663D01*
X2993313Y-2189159D02*
G01*
X3029635Y-2284663D01*
X2970707Y-2252659D02*
G01*
X3016173Y-2252659D01*
X3068751Y-2189159D02*
G01*
X3118789Y-2189159D01*
X3091611Y-2225481D01*
X3105073Y-2225481D01*
X3114217Y-2230053D01*
X3118789Y-2234625D01*
X3123361Y-2248087D01*
X3123361Y-2257231D01*
X3118789Y-2270947D01*
X3109645Y-2280091D01*
X3096183Y-2284663D01*
X3082467Y-2284663D01*
X3068751Y-2280091D01*
X3064179Y-2275519D01*
X3059607Y-2266375D01*
X2993316Y-2443162D02*
G01*
X2956994Y-2538666D01*
X2993316Y-2443162D02*
G01*
X3029638Y-2538666D01*
X2970710Y-2506662D02*
G01*
X3016176Y-2506662D01*
X3105076Y-2443162D02*
G01*
X3059610Y-2506662D01*
X3127936Y-2506662D01*
X3105076Y-2443162D02*
G01*
X3105076Y-2538666D01*
X2993313Y-2697159D02*
G01*
X2956991Y-2792663D01*
X2993313Y-2697159D02*
G01*
X3029635Y-2792663D01*
X2970707Y-2760659D02*
G01*
X3016173Y-2760659D01*
X3114217Y-2697159D02*
G01*
X3068751Y-2697159D01*
X3064179Y-2738053D01*
X3068751Y-2733481D01*
X3082467Y-2728909D01*
X3096183Y-2728909D01*
X3109645Y-2733481D01*
X3118789Y-2742625D01*
X3123361Y-2756087D01*
X3123361Y-2765231D01*
X3118789Y-2778947D01*
X3109645Y-2788091D01*
X3096183Y-2792663D01*
X3082467Y-2792663D01*
X3068751Y-2788091D01*
X3064179Y-2783519D01*
X3059607Y-2774375D01*
X2993316Y-2951162D02*
G01*
X2956994Y-3046666D01*
X2993316Y-2951162D02*
G01*
X3029638Y-3046666D01*
X2970710Y-3014662D02*
G01*
X3016176Y-3014662D01*
X3114220Y-2964624D02*
G01*
X3109648Y-2955734D01*
X3096186Y-2951162D01*
X3087042Y-2951162D01*
X3073326Y-2955734D01*
X3064182Y-2969196D01*
X3059610Y-2992056D01*
X3059610Y-3014662D01*
X3064182Y-3032950D01*
X3073326Y-3042094D01*
X3087042Y-3046666D01*
X3091614Y-3046666D01*
X3105076Y-3042094D01*
X3114220Y-3032950D01*
X3118792Y-3019234D01*
X3118792Y-3014662D01*
X3114220Y-3001200D01*
X3105076Y-2992056D01*
X3091614Y-2987484D01*
X3087042Y-2987484D01*
X3073326Y-2992056D01*
X3064182Y-3001200D01*
X3059610Y-3014662D01*
X2993313Y-3205159D02*
G01*
X2956991Y-3300663D01*
X2993313Y-3205159D02*
G01*
X3029635Y-3300663D01*
X2970707Y-3268659D02*
G01*
X3016173Y-3268659D01*
X3123361Y-3205159D02*
G01*
X3077895Y-3300663D01*
X3059607Y-3205159D02*
G01*
X3123361Y-3205159D01*
X3011601Y-3459159D02*
G01*
X2966135Y-3459159D01*
X2961563Y-3500053D01*
X2966135Y-3495481D01*
X2979597Y-3490909D01*
X2993313Y-3490909D01*
X3007029Y-3495481D01*
X3016173Y-3504625D01*
X3020745Y-3518087D01*
X3020745Y-3527231D01*
X3016173Y-3540947D01*
X3007029Y-3550091D01*
X2993313Y-3554663D01*
X2979597Y-3554663D01*
X2966135Y-3550091D01*
X2961563Y-3545519D01*
X2956991Y-3536375D01*
X3050717Y-3459159D02*
G01*
X3087039Y-3554663D01*
X3123361Y-3459159D02*
G01*
X3087039Y-3554663D01*
X2956989Y-3713157D02*
G01*
X2956989Y-3808661D01*
X2956989Y-3713157D02*
G01*
X2997883Y-3713157D01*
X3011599Y-3717729D01*
X3016171Y-3722301D01*
X3020743Y-3731191D01*
X3020743Y-3740335D01*
X3016171Y-3749479D01*
X3011599Y-3754051D01*
X2997883Y-3758623D01*
X2956989Y-3758623D01*
X2988739Y-3758623D02*
G01*
X3020743Y-3808661D01*
X3114215Y-3726619D02*
G01*
X3105071Y-3717729D01*
X3091609Y-3713157D01*
X3073321Y-3713157D01*
X3059605Y-3717729D01*
X3050715Y-3726619D01*
X3050715Y-3735763D01*
X3055287Y-3744907D01*
X3059605Y-3749479D01*
X3068749Y-3754051D01*
X3096181Y-3763195D01*
X3105071Y-3767513D01*
X3109643Y-3772085D01*
X3114215Y-3781229D01*
X3114215Y-3794945D01*
X3105071Y-3804089D01*
X3091609Y-3808661D01*
X3073321Y-3808661D01*
X3059605Y-3804089D01*
X3050715Y-3794945D01*
X3176191Y-3713157D02*
G01*
X3176191Y-3808661D01*
X3144187Y-3713157D02*
G01*
X3207941Y-3713157D01*
X3025063Y-3989765D02*
G01*
X3020745Y-3980621D01*
X3011601Y-3971731D01*
X3002457Y-3967159D01*
X2984169Y-3967159D01*
X2975279Y-3971731D01*
X2966135Y-3980621D01*
X2961563Y-3989765D01*
X2956991Y-4003481D01*
X2956991Y-4026087D01*
X2961563Y-4039803D01*
X2966135Y-4048947D01*
X2975279Y-4058091D01*
X2984169Y-4062663D01*
X3002457Y-4062663D01*
X3011601Y-4058091D01*
X3020745Y-4048947D01*
X3025063Y-4039803D01*
X3025063Y-4026087D01*
X3002457Y-4026087D02*
G01*
X3025063Y-4026087D01*
X3055289Y-3967159D02*
G01*
X3055289Y-4062663D01*
X3055289Y-3967159D02*
G01*
X3118789Y-4062663D01*
X3118789Y-3967159D02*
G01*
X3118789Y-4062663D01*
X3148761Y-3967159D02*
G01*
X3148761Y-4062663D01*
X3148761Y-3967159D02*
G01*
X3180511Y-3967159D01*
X3194227Y-3971731D01*
X3203371Y-3980621D01*
X3207943Y-3989765D01*
X3212515Y-4003481D01*
X3212515Y-4026087D01*
X3207943Y-4039803D01*
X3203371Y-4048947D01*
X3194227Y-4058091D01*
X3180511Y-4062663D01*
X3148761Y-4062663D01*
X2956994Y-4221162D02*
G01*
X2993316Y-4316666D01*
X3029638Y-4221162D02*
G01*
X2993316Y-4316666D01*
X3059610Y-4221162D02*
G01*
X3059610Y-4316666D01*
X3089836Y-4221162D02*
G01*
X3089836Y-4316666D01*
X3089836Y-4221162D02*
G01*
X3153336Y-4316666D01*
X3153336Y-4221162D02*
G01*
X3153336Y-4316666D01*
X3945892Y-663158D02*
G01*
X3945892Y-758662D01*
X3945892Y-663158D02*
G01*
X3977642Y-663158D01*
X3991358Y-667730D01*
X4000502Y-676620D01*
X4005074Y-685764D01*
X4009646Y-699480D01*
X4009646Y-722086D01*
X4005074Y-735802D01*
X4000502Y-744946D01*
X3991358Y-754090D01*
X3977642Y-758662D01*
X3945892Y-758662D01*
X4039618Y-681192D02*
G01*
X4048508Y-676620D01*
X4062224Y-663158D01*
X4062224Y-758662D01*
X4096768Y-685764D02*
G01*
X4096768Y-681192D01*
X4101340Y-672302D01*
X4105912Y-667730D01*
X4115056Y-663158D01*
X4133090Y-663158D01*
X4142234Y-667730D01*
X4146806Y-672302D01*
X4151378Y-681192D01*
X4151378Y-690336D01*
X4146806Y-699480D01*
X4137662Y-713196D01*
X4092196Y-758662D01*
X4155950Y-758662D01*
X3986786Y-917155D02*
G01*
X3986786Y-1012659D01*
X3986786Y-917155D02*
G01*
X4018536Y-917155D01*
X4032252Y-921727D01*
X4041396Y-930617D01*
X4045968Y-939761D01*
X4050540Y-953477D01*
X4050540Y-976083D01*
X4045968Y-989799D01*
X4041396Y-998943D01*
X4032252Y-1008087D01*
X4018536Y-1012659D01*
X3986786Y-1012659D01*
X4080512Y-935189D02*
G01*
X4089402Y-930617D01*
X4103118Y-917155D01*
X4103118Y-1012659D01*
X4133090Y-935189D02*
G01*
X4142234Y-930617D01*
X4155950Y-917155D01*
X4155950Y-1012659D01*
X3945892Y-1171158D02*
G01*
X3945892Y-1266662D01*
X3945892Y-1171158D02*
G01*
X3977642Y-1171158D01*
X3991358Y-1175730D01*
X4000502Y-1184620D01*
X4005074Y-1193764D01*
X4009646Y-1207480D01*
X4009646Y-1230086D01*
X4005074Y-1243802D01*
X4000502Y-1252946D01*
X3991358Y-1262090D01*
X3977642Y-1266662D01*
X3945892Y-1266662D01*
X4039618Y-1189192D02*
G01*
X4048508Y-1184620D01*
X4062224Y-1171158D01*
X4062224Y-1266662D01*
X4119628Y-1171158D02*
G01*
X4105912Y-1175730D01*
X4096768Y-1189192D01*
X4092196Y-1212052D01*
X4092196Y-1225514D01*
X4096768Y-1248374D01*
X4105912Y-1262090D01*
X4119628Y-1266662D01*
X4128518Y-1266662D01*
X4142234Y-1262090D01*
X4151378Y-1248374D01*
X4155950Y-1225514D01*
X4155950Y-1212052D01*
X4151378Y-1189192D01*
X4142234Y-1175730D01*
X4128518Y-1171158D01*
X4119628Y-1171158D01*
X4003296Y-1425158D02*
G01*
X4003296Y-1520662D01*
X4003296Y-1425158D02*
G01*
X4035046Y-1425158D01*
X4048762Y-1429730D01*
X4057906Y-1438620D01*
X4062478Y-1447764D01*
X4067050Y-1461480D01*
X4067050Y-1484086D01*
X4062478Y-1497802D01*
X4057906Y-1506946D01*
X4048762Y-1516090D01*
X4035046Y-1520662D01*
X4003296Y-1520662D01*
X4155950Y-1456908D02*
G01*
X4151378Y-1470624D01*
X4142488Y-1479514D01*
X4128772Y-1484086D01*
X4124200Y-1484086D01*
X4110484Y-1479514D01*
X4101594Y-1470624D01*
X4097022Y-1456908D01*
X4097022Y-1452336D01*
X4101594Y-1438620D01*
X4110484Y-1429730D01*
X4124200Y-1425158D01*
X4128772Y-1425158D01*
X4142488Y-1429730D01*
X4151378Y-1438620D01*
X4155950Y-1456908D01*
X4155950Y-1479514D01*
X4151378Y-1502374D01*
X4142488Y-1516090D01*
X4128772Y-1520662D01*
X4119628Y-1520662D01*
X4105912Y-1516090D01*
X4101594Y-1506946D01*
X3998724Y-1679155D02*
G01*
X3998724Y-1774659D01*
X3998724Y-1679155D02*
G01*
X4030474Y-1679155D01*
X4044190Y-1683727D01*
X4053334Y-1692617D01*
X4057906Y-1701761D01*
X4062478Y-1715477D01*
X4062478Y-1738083D01*
X4057906Y-1751799D01*
X4053334Y-1760943D01*
X4044190Y-1770087D01*
X4030474Y-1774659D01*
X3998724Y-1774659D01*
X4115056Y-1679155D02*
G01*
X4101340Y-1683727D01*
X4097022Y-1692617D01*
X4097022Y-1701761D01*
X4101340Y-1710905D01*
X4110484Y-1715477D01*
X4128772Y-1720049D01*
X4142234Y-1724621D01*
X4151378Y-1733511D01*
X4155950Y-1742655D01*
X4155950Y-1756371D01*
X4151378Y-1765515D01*
X4146806Y-1770087D01*
X4133344Y-1774659D01*
X4115056Y-1774659D01*
X4101340Y-1770087D01*
X4097022Y-1765515D01*
X4092450Y-1756371D01*
X4092450Y-1742655D01*
X4097022Y-1733511D01*
X4105912Y-1724621D01*
X4119628Y-1720049D01*
X4137916Y-1715477D01*
X4146806Y-1710905D01*
X4151378Y-1701761D01*
X4151378Y-1692617D01*
X4146806Y-1683727D01*
X4133344Y-1679155D01*
X4115056Y-1679155D01*
X3998724Y-1933158D02*
G01*
X3998724Y-2028662D01*
X3998724Y-1933158D02*
G01*
X4030474Y-1933158D01*
X4044190Y-1937730D01*
X4053334Y-1946620D01*
X4057906Y-1955764D01*
X4062478Y-1969480D01*
X4062478Y-1992086D01*
X4057906Y-2005802D01*
X4053334Y-2014946D01*
X4044190Y-2024090D01*
X4030474Y-2028662D01*
X3998724Y-2028662D01*
X4155950Y-1933158D02*
G01*
X4110484Y-2028662D01*
X4092450Y-1933158D02*
G01*
X4155950Y-1933158D01*
X4003296Y-2187158D02*
G01*
X4003296Y-2282662D01*
X4003296Y-2187158D02*
G01*
X4035046Y-2187158D01*
X4048762Y-2191730D01*
X4057906Y-2200620D01*
X4062478Y-2209764D01*
X4067050Y-2223480D01*
X4067050Y-2246086D01*
X4062478Y-2259802D01*
X4057906Y-2268946D01*
X4048762Y-2278090D01*
X4035046Y-2282662D01*
X4003296Y-2282662D01*
X4151378Y-2200620D02*
G01*
X4146806Y-2191730D01*
X4133344Y-2187158D01*
X4124200Y-2187158D01*
X4110484Y-2191730D01*
X4101594Y-2205192D01*
X4097022Y-2228052D01*
X4097022Y-2250658D01*
X4101594Y-2268946D01*
X4110484Y-2278090D01*
X4124200Y-2282662D01*
X4128772Y-2282662D01*
X4142488Y-2278090D01*
X4151378Y-2268946D01*
X4155950Y-2255230D01*
X4155950Y-2250658D01*
X4151378Y-2237196D01*
X4142488Y-2228052D01*
X4128772Y-2223480D01*
X4124200Y-2223480D01*
X4110484Y-2228052D01*
X4101594Y-2237196D01*
X4097022Y-2250658D01*
X3998724Y-2441155D02*
G01*
X3998724Y-2536659D01*
X3998724Y-2441155D02*
G01*
X4030474Y-2441155D01*
X4044190Y-2445727D01*
X4053334Y-2454617D01*
X4057906Y-2463761D01*
X4062478Y-2477477D01*
X4062478Y-2500083D01*
X4057906Y-2513799D01*
X4053334Y-2522943D01*
X4044190Y-2532087D01*
X4030474Y-2536659D01*
X3998724Y-2536659D01*
X4146806Y-2441155D02*
G01*
X4101340Y-2441155D01*
X4097022Y-2482049D01*
X4101340Y-2477477D01*
X4115056Y-2472905D01*
X4128772Y-2472905D01*
X4142234Y-2477477D01*
X4151378Y-2486621D01*
X4155950Y-2500083D01*
X4155950Y-2509227D01*
X4151378Y-2522943D01*
X4142234Y-2532087D01*
X4128772Y-2536659D01*
X4115056Y-2536659D01*
X4101340Y-2532087D01*
X4097022Y-2527515D01*
X4092450Y-2518371D01*
X3994152Y-2695158D02*
G01*
X3994152Y-2790662D01*
X3994152Y-2695158D02*
G01*
X4025902Y-2695158D01*
X4039618Y-2699730D01*
X4048762Y-2708620D01*
X4053334Y-2717764D01*
X4057906Y-2731480D01*
X4057906Y-2754086D01*
X4053334Y-2767802D01*
X4048762Y-2776946D01*
X4039618Y-2786090D01*
X4025902Y-2790662D01*
X3994152Y-2790662D01*
X4133344Y-2695158D02*
G01*
X4087878Y-2758658D01*
X4155950Y-2758658D01*
X4133344Y-2695158D02*
G01*
X4133344Y-2790662D01*
X3998724Y-2949158D02*
G01*
X3998724Y-3044662D01*
X3998724Y-2949158D02*
G01*
X4030474Y-2949158D01*
X4044190Y-2953730D01*
X4053334Y-2962620D01*
X4057906Y-2971764D01*
X4062478Y-2985480D01*
X4062478Y-3008086D01*
X4057906Y-3021802D01*
X4053334Y-3030946D01*
X4044190Y-3040090D01*
X4030474Y-3044662D01*
X3998724Y-3044662D01*
X4101340Y-2949158D02*
G01*
X4151378Y-2949158D01*
X4124200Y-2985480D01*
X4137916Y-2985480D01*
X4146806Y-2990052D01*
X4151378Y-2994624D01*
X4155950Y-3008086D01*
X4155950Y-3017230D01*
X4151378Y-3030946D01*
X4142234Y-3040090D01*
X4128772Y-3044662D01*
X4115056Y-3044662D01*
X4101340Y-3040090D01*
X4097022Y-3035518D01*
X4092450Y-3026374D01*
X3998724Y-3203155D02*
G01*
X3998724Y-3298659D01*
X3998724Y-3203155D02*
G01*
X4030474Y-3203155D01*
X4044190Y-3207727D01*
X4053334Y-3216617D01*
X4057906Y-3225761D01*
X4062478Y-3239477D01*
X4062478Y-3262083D01*
X4057906Y-3275799D01*
X4053334Y-3284943D01*
X4044190Y-3294087D01*
X4030474Y-3298659D01*
X3998724Y-3298659D01*
X4097022Y-3225761D02*
G01*
X4097022Y-3221189D01*
X4101340Y-3212299D01*
X4105912Y-3207727D01*
X4115056Y-3203155D01*
X4133344Y-3203155D01*
X4142234Y-3207727D01*
X4146806Y-3212299D01*
X4151378Y-3221189D01*
X4151378Y-3230333D01*
X4146806Y-3239477D01*
X4137916Y-3253193D01*
X4092450Y-3298659D01*
X4155950Y-3298659D01*
X3968498Y-3479764D02*
G01*
X3964180Y-3470620D01*
X3955036Y-3461730D01*
X3945892Y-3457158D01*
X3927604Y-3457158D01*
X3918714Y-3461730D01*
X3909570Y-3470620D01*
X3904998Y-3479764D01*
X3900426Y-3493480D01*
X3900426Y-3516086D01*
X3904998Y-3529802D01*
X3909570Y-3538946D01*
X3918714Y-3548090D01*
X3927604Y-3552662D01*
X3945892Y-3552662D01*
X3955036Y-3548090D01*
X3964180Y-3538946D01*
X3968498Y-3529802D01*
X3968498Y-3516086D01*
X3945892Y-3516086D02*
G01*
X3968498Y-3516086D01*
X3998724Y-3457158D02*
G01*
X3998724Y-3552662D01*
X3998724Y-3457158D02*
G01*
X4062224Y-3552662D01*
X4062224Y-3457158D02*
G01*
X4062224Y-3552662D01*
X4092196Y-3457158D02*
G01*
X4092196Y-3552662D01*
X4092196Y-3457158D02*
G01*
X4123946Y-3457158D01*
X4137662Y-3461730D01*
X4146806Y-3470620D01*
X4151378Y-3479764D01*
X4155950Y-3493480D01*
X4155950Y-3516086D01*
X4151378Y-3529802D01*
X4146806Y-3538946D01*
X4137662Y-3548090D01*
X4123946Y-3552662D01*
X4092196Y-3552662D01*
X3904998Y-3711158D02*
G01*
X3904998Y-3806662D01*
X3904998Y-3711158D02*
G01*
X3945892Y-3711158D01*
X3959608Y-3715730D01*
X3964180Y-3720302D01*
X3968752Y-3729192D01*
X3968752Y-3738336D01*
X3964180Y-3747480D01*
X3959608Y-3752052D01*
X3945892Y-3756624D01*
X3904998Y-3756624D01*
X3936748Y-3756624D02*
G01*
X3968752Y-3806662D01*
X4062224Y-3724620D02*
G01*
X4053080Y-3715730D01*
X4039618Y-3711158D01*
X4021330Y-3711158D01*
X4007614Y-3715730D01*
X3998724Y-3724620D01*
X3998724Y-3733764D01*
X4003296Y-3742908D01*
X4007614Y-3747480D01*
X4016758Y-3752052D01*
X4044190Y-3761196D01*
X4053080Y-3765514D01*
X4057652Y-3770086D01*
X4062224Y-3779230D01*
X4062224Y-3792946D01*
X4053080Y-3802090D01*
X4039618Y-3806662D01*
X4021330Y-3806662D01*
X4007614Y-3802090D01*
X3998724Y-3792946D01*
X4124200Y-3711158D02*
G01*
X4124200Y-3806662D01*
X4092196Y-3711158D02*
G01*
X4155950Y-3711158D01*
X3904998Y-3965155D02*
G01*
X3904998Y-4060659D01*
X3904998Y-3965155D02*
G01*
X3945892Y-3965155D01*
X3959608Y-3969727D01*
X3964180Y-3974299D01*
X3968752Y-3983189D01*
X3968752Y-3992333D01*
X3964180Y-4001477D01*
X3959608Y-4006049D01*
X3945892Y-4010621D01*
X3904998Y-4010621D01*
X3936748Y-4010621D02*
G01*
X3968752Y-4060659D01*
X3998724Y-3965155D02*
G01*
X4062224Y-4060659D01*
X4062224Y-3965155D02*
G01*
X3998724Y-4060659D01*
X4092196Y-3965155D02*
G01*
X4092196Y-4060659D01*
X4092196Y-3965155D02*
G01*
X4124200Y-3965155D01*
X4137662Y-3969727D01*
X4146806Y-3978617D01*
X4151378Y-3987761D01*
X4155950Y-4001477D01*
X4155950Y-4024083D01*
X4151378Y-4037799D01*
X4146806Y-4046943D01*
X4137662Y-4056087D01*
X4124200Y-4060659D01*
X4092196Y-4060659D01*
X3936748Y-4219158D02*
G01*
X3936748Y-4314662D01*
X3904998Y-4219158D02*
G01*
X3968752Y-4219158D01*
X3998724Y-4219158D02*
G01*
X4062224Y-4314662D01*
X4062224Y-4219158D02*
G01*
X3998724Y-4314662D01*
X4092196Y-4219158D02*
G01*
X4092196Y-4314662D01*
X4092196Y-4219158D02*
G01*
X4124200Y-4219158D01*
X4137662Y-4223730D01*
X4146806Y-4232620D01*
X4151378Y-4241764D01*
X4155950Y-4255480D01*
X4155950Y-4278086D01*
X4151378Y-4291802D01*
X4146806Y-4300946D01*
X4137662Y-4310090D01*
X4124200Y-4314662D01*
X4092196Y-4314662D01*
D10*
X5626100Y-2894584D02*
G01*
X5626100Y-2972562D01*
X5631179Y-2988055D01*
X5641593Y-2998470D01*
X5657341Y-3003550D01*
X5667756Y-3003550D01*
X5683250Y-2998470D01*
X5693663Y-2988055D01*
X5698743Y-2972562D01*
X5698743Y-2894584D01*
X5743447Y-2894584D02*
G01*
X5800597Y-2894584D01*
X5769609Y-2936239D01*
X5785104Y-2936239D01*
X5795518Y-2941320D01*
X5800597Y-2946400D01*
X5805931Y-2962147D01*
X5805931Y-2972562D01*
X5800597Y-2988055D01*
X5790184Y-2998470D01*
X5774690Y-3003550D01*
X5759195Y-3003550D01*
X5743447Y-2998470D01*
X5738368Y-2993389D01*
X5733034Y-2982976D01*
X6159500Y-100584D02*
G01*
X6159500Y-178562D01*
X6164579Y-194055D01*
X6174993Y-204470D01*
X6190741Y-209550D01*
X6201156Y-209550D01*
X6216650Y-204470D01*
X6227063Y-194055D01*
X6232143Y-178562D01*
X6232143Y-100584D01*
X6318504Y-100584D02*
G01*
X6266434Y-173228D01*
X6344411Y-173228D01*
X6318504Y-100584D02*
G01*
X6318504Y-209550D01*
D12*
X5659559Y-600661D02*
G01*
X5686737Y-672289D01*
X5714169Y-600661D02*
G01*
X5686737Y-672289D01*
X5787575Y-617679D02*
G01*
X5784273Y-610821D01*
X5777415Y-603963D01*
X5770557Y-600661D01*
X5757095Y-600661D01*
X5750237Y-603963D01*
X5743379Y-610821D01*
X5740077Y-617679D01*
X5736521Y-627839D01*
X5736521Y-644857D01*
X5740077Y-655271D01*
X5743379Y-661875D01*
X5750237Y-668733D01*
X5757095Y-672289D01*
X5770557Y-672289D01*
X5777415Y-668733D01*
X5784273Y-661875D01*
X5787575Y-655271D01*
X5861235Y-617679D02*
G01*
X5857933Y-610821D01*
X5851075Y-603963D01*
X5844217Y-600661D01*
X5830755Y-600661D01*
X5823897Y-603963D01*
X5817039Y-610821D01*
X5813483Y-617679D01*
X5810181Y-627839D01*
X5810181Y-644857D01*
X5813483Y-655271D01*
X5817039Y-661875D01*
X5823897Y-668733D01*
X5830755Y-672289D01*
X5844217Y-672289D01*
X5851075Y-668733D01*
X5857933Y-661875D01*
X5861235Y-655271D01*
X5985509Y-617743D02*
G01*
X5982208Y-610885D01*
X5975350Y-604027D01*
X5968491Y-600725D01*
X5955029Y-600725D01*
X5948172Y-604027D01*
X5941313Y-610885D01*
X5938011Y-617743D01*
X5934456Y-627903D01*
X5934456Y-644921D01*
X5938011Y-655081D01*
X5941313Y-661939D01*
X5948172Y-668797D01*
X5955029Y-672099D01*
X5968491Y-672099D01*
X5975350Y-668797D01*
X5982208Y-661939D01*
X5985509Y-655081D01*
X5985509Y-644921D01*
X5968491Y-644921D02*
G01*
X5985509Y-644921D01*
X6008115Y-600725D02*
G01*
X6008115Y-672099D01*
X6008115Y-600725D02*
G01*
X6055868Y-672099D01*
X6055868Y-600725D02*
G01*
X6055868Y-672099D01*
X6078474Y-600725D02*
G01*
X6078474Y-672099D01*
X6078474Y-600725D02*
G01*
X6102350Y-600725D01*
X6112509Y-604027D01*
X6119368Y-610885D01*
X6122670Y-617743D01*
X6125972Y-627903D01*
X6125972Y-644921D01*
X6122670Y-655081D01*
X6119368Y-661939D01*
X6112509Y-668797D01*
X6102350Y-672099D01*
X6078474Y-672099D01*
X6247142Y-610887D02*
G01*
X6240284Y-604029D01*
X6230124Y-600727D01*
X6216662Y-600727D01*
X6206248Y-604029D01*
X6199390Y-610887D01*
X6199390Y-617745D01*
X6202946Y-624603D01*
X6206248Y-627905D01*
X6213106Y-631207D01*
X6233680Y-638065D01*
X6240284Y-641621D01*
X6243840Y-644923D01*
X6247142Y-651781D01*
X6247142Y-661941D01*
X6240284Y-668799D01*
X6230124Y-672101D01*
X6216662Y-672101D01*
X6206248Y-668799D01*
X6199390Y-661941D01*
X6320802Y-617745D02*
G01*
X6317500Y-610887D01*
X6310642Y-604029D01*
X6303784Y-600727D01*
X6290068Y-600727D01*
X6283464Y-604029D01*
X6276606Y-610887D01*
X6273050Y-617745D01*
X6269748Y-627905D01*
X6269748Y-644923D01*
X6273050Y-655083D01*
X6276606Y-661941D01*
X6283464Y-668799D01*
X6290068Y-672101D01*
X6303784Y-672101D01*
X6310642Y-668799D01*
X6317500Y-661941D01*
X6320802Y-655083D01*
X6343408Y-600727D02*
G01*
X6343408Y-672101D01*
X6343408Y-672101D02*
G01*
X6384302Y-672101D01*
X6497332Y-610887D02*
G01*
X6490474Y-604029D01*
X6480060Y-600727D01*
X6466598Y-600727D01*
X6456438Y-604029D01*
X6449580Y-610887D01*
X6449580Y-617745D01*
X6452882Y-624603D01*
X6456438Y-627905D01*
X6463042Y-631207D01*
X6483616Y-638065D01*
X6490474Y-641621D01*
X6493776Y-644923D01*
X6497332Y-651781D01*
X6497332Y-661941D01*
X6490474Y-668799D01*
X6480060Y-672101D01*
X6466598Y-672101D01*
X6456438Y-668799D01*
X6449580Y-661941D01*
X6519684Y-600727D02*
G01*
X6519684Y-672101D01*
X6519684Y-600727D02*
G01*
X6543560Y-600727D01*
X6553720Y-604029D01*
X6560578Y-610887D01*
X6564134Y-617745D01*
X6567436Y-627905D01*
X6567436Y-644923D01*
X6564134Y-655083D01*
X6560578Y-661941D01*
X6553720Y-668799D01*
X6543560Y-672101D01*
X6519684Y-672101D01*
X6617220Y-600727D02*
G01*
X6590042Y-672101D01*
X6617220Y-600727D02*
G01*
X6644398Y-672101D01*
X6600202Y-648225D02*
G01*
X6634238Y-648225D01*
D10*
X7264400Y-2831084D02*
G01*
X7264400Y-2909062D01*
X7269479Y-2924555D01*
X7279893Y-2934970D01*
X7295641Y-2940050D01*
X7306056Y-2940050D01*
X7321550Y-2934970D01*
X7331963Y-2924555D01*
X7337043Y-2909062D01*
X7337043Y-2831084D01*
X7433818Y-2831084D02*
G01*
X7381747Y-2831084D01*
X7376668Y-2877820D01*
X7381747Y-2872739D01*
X7397495Y-2867405D01*
X7412990Y-2867405D01*
X7428484Y-2872739D01*
X7438897Y-2882900D01*
X7444231Y-2898647D01*
X7444231Y-2909062D01*
X7438897Y-2924555D01*
X7428484Y-2934970D01*
X7412990Y-2940050D01*
X7397495Y-2940050D01*
X7381747Y-2934970D01*
X7376668Y-2929889D01*
X7371334Y-2919476D01*
G36*
X939800Y-1360525D02*
G01*
X949553Y-1370076D01*
X959815Y-1379067D01*
X970635Y-1387449D01*
X981913Y-1395171D01*
X993648Y-1402181D01*
X1005789Y-1408480D01*
X1018286Y-1414018D01*
X1031036Y-1418844D01*
X1044143Y-1422857D01*
X1057402Y-1426108D01*
X1070864Y-1428546D01*
X1084427Y-1430172D01*
X1098042Y-1430985D01*
X1111707Y-1430985D01*
X1125372Y-1430172D01*
X1138936Y-1428546D01*
X1152398Y-1426108D01*
X1165656Y-1422857D01*
X1178712Y-1418844D01*
X1191514Y-1414018D01*
X1204010Y-1408480D01*
X1216152Y-1402181D01*
X1227886Y-1395171D01*
X1239164Y-1387449D01*
X1249984Y-1379067D01*
X1260246Y-1370076D01*
X1270000Y-1360525D01*
G37*
G36*
X1985822Y-964895D02*
G01*
X1976678Y-972819D01*
X1968042Y-981303D01*
X1960016Y-990396D01*
X1952650Y-999998D01*
X1945893Y-1010056D01*
X1939848Y-1020521D01*
X1934565Y-1031443D01*
X1929942Y-1042619D01*
X1926132Y-1054100D01*
X1923135Y-1065834D01*
X1920900Y-1077772D01*
X1919478Y-1089761D01*
X1918868Y-1101852D01*
X1919071Y-1113993D01*
X1920087Y-1126032D01*
X1921916Y-1138021D01*
X1924557Y-1149858D01*
X1926132Y-1155700D01*
X1929942Y-1167180D01*
X1934565Y-1178356D01*
X1939848Y-1189278D01*
X1945893Y-1199743D01*
X1952650Y-1209802D01*
X1960016Y-1219403D01*
X1968042Y-1228496D01*
X1976678Y-1236980D01*
X1985822Y-1244904D01*
G37*
D13*
X1299517Y-1115672D02*
G01*
X1219517Y-1115672D01*
X1259517Y-1075672D02*
G01*
X1259517Y-1155672D01*
X2141197Y-1224450D02*
G01*
X2221196Y-1224450D01*
X2181837Y-1186350D02*
G01*
X2181837Y-1266350D01*
X380700Y-1251300D02*
G01*
X380700Y-1771299D01*
X660699Y-1347226D02*
G01*
X380700Y-1347226D01*
X660699Y-1251300D02*
G01*
X380700Y-1251300D01*
X660699Y-1771299D02*
G01*
X380700Y-1771299D01*
X660699Y-1251300D02*
G01*
X660699Y-1771299D01*
X807999Y-2736639D02*
G01*
X807999Y-3142401D01*
X99999Y-3142399D02*
G01*
X99999Y-2242395D01*
X107000Y-3142404D02*
G01*
X807001Y-3142404D01*
X449999Y-3140400D02*
G01*
X449999Y-3081408D01*
X360766Y-3081408D01*
X360766Y-3140400D01*
X108005Y-2242395D02*
G01*
X808007Y-2242395D01*
X358005Y-2245398D02*
G01*
X358005Y-2304397D01*
X447240Y-2304397D01*
X447240Y-2245398D01*
X807999Y-2647398D02*
G01*
X807999Y-2242398D01*
X807999Y-2647398D02*
G01*
X749005Y-2647398D01*
X749005Y-2736639D01*
X807999Y-2736639D01*
X1406652Y-1892300D02*
G01*
X1406118Y-2147087D01*
X1353690Y-3934587D02*
G01*
X957709Y-3934587D01*
X2019300Y-2159000D02*
G01*
X2019300Y-2184400D01*
X2019300Y-1651000D02*
G01*
X2019300Y-1625600D01*
X2019300Y-2159000D02*
G01*
X1943100Y-2159000D01*
X2095500Y-2159000D02*
G01*
X2019300Y-2159000D01*
X2095500Y-1651000D02*
G01*
X2095500Y-2159000D01*
X2019300Y-1651000D02*
G01*
X2095500Y-1651000D01*
X1943100Y-1651000D02*
G01*
X2019300Y-1651000D01*
X1943100Y-2159000D02*
G01*
X1943100Y-1651000D01*
X1130300Y-2222500D02*
G01*
X1130300Y-2247900D01*
X1130300Y-1714500D02*
G01*
X1130300Y-1689100D01*
X1130300Y-2222500D02*
G01*
X1054100Y-2222500D01*
X1206500Y-2222500D02*
G01*
X1130300Y-2222500D01*
X1206500Y-1714500D02*
G01*
X1206500Y-2222500D01*
X1130300Y-1714500D02*
G01*
X1206500Y-1714500D01*
X1054100Y-1714500D02*
G01*
X1130300Y-1714500D01*
X1054100Y-2222500D02*
G01*
X1054100Y-1714500D01*
X1282700Y-2743200D02*
G01*
X1282700Y-2717800D01*
X1282700Y-3251200D02*
G01*
X1282700Y-3276600D01*
X1282700Y-2743200D02*
G01*
X1358900Y-2743200D01*
X1206500Y-2743200D02*
G01*
X1282700Y-2743200D01*
X1206500Y-3251200D02*
G01*
X1206500Y-2743200D01*
X1282700Y-3251200D02*
G01*
X1206500Y-3251200D01*
X1358900Y-3251200D02*
G01*
X1282700Y-3251200D01*
X1358900Y-2743200D02*
G01*
X1358900Y-3251200D01*
X1790700Y-2755900D02*
G01*
X1790700Y-2730500D01*
X1790700Y-3263900D02*
G01*
X1790700Y-3289300D01*
X1790700Y-2755900D02*
G01*
X1866900Y-2755900D01*
X1714500Y-2755900D02*
G01*
X1790700Y-2755900D01*
X1714500Y-3263900D02*
G01*
X1714500Y-2755900D01*
X1790700Y-3263900D02*
G01*
X1714500Y-3263900D01*
X1866900Y-3263900D02*
G01*
X1790700Y-3263900D01*
X1866900Y-2755900D02*
G01*
X1866900Y-3263900D01*
X647700Y-3949700D02*
G01*
X647700Y-3975100D01*
X647700Y-3441700D02*
G01*
X647700Y-3416300D01*
X647700Y-3949700D02*
G01*
X571500Y-3949700D01*
X723900Y-3949700D02*
G01*
X647700Y-3949700D01*
X723900Y-3441700D02*
G01*
X723900Y-3949700D01*
X647700Y-3441700D02*
G01*
X723900Y-3441700D01*
X571500Y-3441700D02*
G01*
X647700Y-3441700D01*
X571500Y-3949700D02*
G01*
X571500Y-3441700D01*
X1412986Y-185897D02*
G01*
X2473187Y-185897D01*
X2473187Y-665706D01*
X1412986Y-665706D01*
X1412986Y-186405D01*
X1412986Y-185897D01*
X2473083Y-245813D02*
G01*
X1413090Y-245813D01*
D14*
X2667060Y-2806659D02*
G01*
X2730560Y-2870159D01*
X2667060Y-2933659D01*
X2921048Y-647674D02*
G01*
X2857548Y-584174D01*
X2730548Y-584174D01*
X2667048Y-647674D01*
X2921048Y-901674D02*
G01*
X2857548Y-838174D01*
X2921048Y-774674D01*
X2921048Y-1155674D02*
G01*
X2857548Y-1092174D01*
X2921048Y-1028674D01*
X2921048Y-1409628D02*
G01*
X2857548Y-1346151D01*
X2921048Y-1282651D01*
X2921048Y-1663623D02*
G01*
X2857548Y-1600123D01*
X2921048Y-1536623D01*
X2921048Y-1917623D02*
G01*
X2857548Y-1854123D01*
X2921048Y-1790623D01*
X2921048Y-2171623D02*
G01*
X2857548Y-2108123D01*
X2921048Y-2044623D01*
X2921048Y-2425623D02*
G01*
X2857548Y-2362123D01*
X2921048Y-2298623D01*
X2921048Y-2679623D02*
G01*
X2857548Y-2616123D01*
X2921048Y-2552623D01*
X2921048Y-2933623D02*
G01*
X2857548Y-2870123D01*
X2921048Y-2806623D01*
X2921048Y-3187623D02*
G01*
X2857548Y-3124123D01*
X2921048Y-3060623D01*
X2921048Y-3441623D02*
G01*
X2857548Y-3378123D01*
X2921048Y-3314623D01*
X2921048Y-3695651D02*
G01*
X2857548Y-3632128D01*
X2921048Y-3568623D01*
X2921048Y-3949659D02*
G01*
X2857548Y-3886159D01*
X2921048Y-3822659D01*
X2921048Y-4203659D02*
G01*
X2857548Y-4140159D01*
X2921048Y-4076659D01*
X2667048Y-4330659D02*
G01*
X2730548Y-4394159D01*
X2857548Y-4394159D01*
X2921048Y-4330659D01*
X2667048Y-4076659D02*
G01*
X2730548Y-4140159D01*
X2667048Y-4203659D01*
X2667048Y-3822659D02*
G01*
X2730548Y-3886159D01*
X2667048Y-3949659D01*
X2667048Y-3568623D02*
G01*
X2730548Y-3632128D01*
X2667048Y-3695651D01*
X2667048Y-1282651D02*
G01*
X2730548Y-1346151D01*
X2667048Y-1409628D01*
X2667048Y-774674D02*
G01*
X2730548Y-838174D01*
X2667048Y-901674D01*
X2667048Y-1028674D02*
G01*
X2730548Y-1092174D01*
X2667048Y-1155674D01*
X2667048Y-1536623D02*
G01*
X2730548Y-1600123D01*
X2667048Y-1663623D01*
X2667048Y-1790623D02*
G01*
X2730548Y-1854123D01*
X2667048Y-1917623D01*
X2667048Y-2044623D02*
G01*
X2730548Y-2108123D01*
X2667048Y-2171623D01*
X2667048Y-2298623D02*
G01*
X2730548Y-2362123D01*
X2667048Y-2425623D01*
X2667048Y-2552623D02*
G01*
X2730548Y-2616123D01*
X2667048Y-2679623D01*
X2667048Y-3060623D02*
G01*
X2730548Y-3124123D01*
X2667048Y-3187623D01*
X2667048Y-3314623D02*
G01*
X2730548Y-3378123D01*
X2667048Y-3441623D01*
X2667048Y-3568623D02*
G01*
X2730548Y-3632128D01*
X2667048Y-3695651D01*
X2667048Y-3822659D01*
X2730548Y-3886159D01*
X2667048Y-3949659D01*
X2667048Y-4076659D01*
X2730548Y-4140159D01*
X2667048Y-4203659D01*
X2667048Y-4330659D01*
X2730548Y-4394159D01*
X2857548Y-4394159D01*
X2921048Y-4330659D01*
X2921048Y-4203659D01*
X2857548Y-4140159D01*
X2921048Y-4076659D01*
X2921048Y-3949659D01*
X2857548Y-3886159D01*
X2921048Y-3822659D01*
X2921048Y-3695651D01*
X2857548Y-3632128D01*
X2921048Y-3568623D01*
X2921048Y-3441623D01*
X2857548Y-3378123D01*
X2921048Y-3314623D01*
X2921048Y-3187623D01*
X2857548Y-3124123D01*
X2921048Y-3060623D01*
X2921048Y-2933623D01*
X2857548Y-2870123D01*
X2921048Y-2806623D01*
X2921048Y-2679623D01*
X2857548Y-2616123D01*
X2921048Y-2552623D01*
X2921048Y-2425623D01*
X2857548Y-2362123D01*
X2921048Y-2298623D01*
X2921048Y-2171623D01*
X2857548Y-2108123D01*
X2921048Y-2044623D01*
X2921048Y-1917623D01*
X2857548Y-1854123D01*
X2921048Y-1790623D01*
X2921048Y-1663623D01*
X2857548Y-1600123D01*
X2921048Y-1536623D01*
X2921048Y-1409628D01*
X2857548Y-1346151D01*
X2921048Y-1282651D01*
X2921048Y-1155674D01*
X2857548Y-1092174D01*
X2921048Y-1028674D01*
X2921048Y-901674D01*
X2857548Y-838174D01*
X2921048Y-774674D01*
X2921048Y-647674D01*
X2857548Y-584174D01*
X2730548Y-584174D01*
X2667048Y-647674D01*
X4444956Y-2171725D02*
G01*
X4381456Y-2108225D01*
X4444956Y-2044725D01*
X4444966Y-1409766D02*
G01*
X4381466Y-1346263D01*
X4444966Y-1282738D01*
X4444966Y-1155725D01*
X4381466Y-1092225D01*
X4444966Y-1028725D01*
X4444966Y-901725D01*
X4381466Y-838225D01*
X4444966Y-774725D01*
X4444966Y-647725D01*
X4381466Y-584225D01*
X4254466Y-584225D01*
X4190966Y-647725D01*
X4190966Y-774725D01*
X4254466Y-838225D01*
X4190966Y-901725D01*
X4190966Y-1028725D01*
X4254466Y-1092225D01*
X4190966Y-1155725D01*
X4190966Y-1282738D01*
X4254466Y-1346263D01*
X4190966Y-1409766D01*
X4190966Y-1536766D01*
X4254466Y-1600266D01*
X4190966Y-1663766D01*
X4190966Y-1790766D01*
X4254466Y-1854266D01*
X4190966Y-1917766D01*
X4190966Y-2044766D01*
X4254466Y-2108266D01*
X4190966Y-2171766D01*
X4190966Y-2298766D01*
X4254466Y-2362266D01*
X4190966Y-2425766D01*
X4190966Y-2552766D01*
X4254466Y-2616266D01*
X4190966Y-2679766D01*
X4190966Y-2806766D01*
X4254466Y-2870266D01*
X4190966Y-2933766D01*
X4190966Y-3060766D01*
X4254466Y-3124266D01*
X4190966Y-3187766D01*
X4190966Y-3314766D01*
X4254466Y-3378266D01*
X4190966Y-3441766D01*
X4190966Y-3568760D01*
X4254466Y-3632238D01*
X4190966Y-3695738D01*
X4190966Y-3822715D01*
X4254466Y-3886215D01*
X4190966Y-3949715D01*
X4190966Y-4076715D01*
X4254466Y-4140215D01*
X4190966Y-4203715D01*
X4190966Y-4330715D01*
X4254466Y-4394215D01*
X4381466Y-4394215D01*
X4444966Y-4330715D01*
X4444966Y-3695738D02*
G01*
X4381466Y-3632238D01*
X4444966Y-3568760D01*
X4444966Y-4203715D02*
G01*
X4381466Y-4140215D01*
X4444966Y-4076715D01*
X4444966Y-3949715D02*
G01*
X4381466Y-3886215D01*
X4444966Y-3822715D01*
X4444966Y-3441766D02*
G01*
X4381466Y-3378266D01*
X4444966Y-3314766D01*
X4444966Y-3187766D02*
G01*
X4381466Y-3124266D01*
X4444966Y-3060766D01*
X4444966Y-2933766D02*
G01*
X4381466Y-2870266D01*
X4444966Y-2806766D01*
X4444966Y-2679766D02*
G01*
X4381466Y-2616266D01*
X4444966Y-2552766D01*
X4444966Y-2425766D02*
G01*
X4381466Y-2362266D01*
X4444966Y-2298766D01*
X4444966Y-1917766D02*
G01*
X4381466Y-1854266D01*
X4444966Y-1790766D01*
X4444966Y-1663766D02*
G01*
X4381466Y-1600266D01*
X4444966Y-1536766D01*
X3835400Y-718820D02*
G01*
X3810010Y-718820D01*
X3835400Y-330200D02*
G01*
X3835400Y-177800D01*
X3276600Y-177800D01*
X3276600Y-718820D01*
X3297504Y-718820D01*
X3835400Y-330200D02*
G01*
X3835400Y-718820D01*
X3810010Y-718820D02*
G01*
X3302000Y-718820D01*
D10*
X4452617Y-322579D02*
G01*
X4452617Y-4655812D01*
X2659379Y-4655812D01*
X2659379Y-322579D01*
X4452617Y-322579D01*
D13*
X6590284Y-3056889D02*
G01*
X6590284Y-4504689D01*
X4710684Y-4504689D01*
X4710684Y-3056889D01*
X6590284Y-3056889D01*
X5459498Y-2311300D02*
G01*
X4959499Y-2311300D01*
X4959499Y-711299D01*
X4959499Y-711299D02*
G01*
X7359500Y-711299D01*
X7359500Y-2311300D01*
X6859501Y-2311300D01*
X6859501Y-2511300D01*
X6559499Y-2511300D01*
X6559499Y-2711300D01*
X5759500Y-2711300D01*
X5759500Y-2511300D01*
X5459498Y-2511300D01*
X5459498Y-2311300D01*
X7259497Y-611301D02*
G01*
X7009495Y-611301D01*
X7009495Y-411302D02*
G01*
X7259497Y-411302D01*
X7259497Y-2661300D02*
G01*
X7009498Y-2661300D01*
X7009498Y-2461300D02*
G01*
X7259497Y-2461300D01*
X5309499Y-2661300D02*
G01*
X5059499Y-2661300D01*
X5059499Y-2461300D02*
G01*
X5309499Y-2461300D01*
X5309499Y-611299D02*
G01*
X5059499Y-611299D01*
X5059499Y-411299D02*
G01*
X5309499Y-411299D01*
X4834509Y-261289D02*
G01*
X7484516Y-261289D01*
X7484516Y-2761284D01*
X4834509Y-2761284D01*
X4834509Y-261289D01*
X7886700Y-3048000D02*
G01*
X7886700Y-4498009D01*
X6776694Y-4498009D01*
X6776694Y-3048000D01*
X7886700Y-3048000D01*
G75*
G01*
X2121022Y-1304798D02*
G03*
X2117720Y-1304798I-1651J199993D01*
G75*
G01*
X1406652Y-2145843D02*
G03*
X1406652Y-1892351I154710J126746D01*
G75*
G01*
X1353820Y-3934714D02*
G03*
X957580Y-3934714I-198120J149840D01*
D15*
G75*
G01*
X1666090Y-728304D02*
G03*
X1666344Y-728304I127J-20000D01*
D13*
G75*
G01*
X5309499Y-611299D02*
G03*
X5309499Y-411300I0J100000D01*
G75*
G01*
X5059500Y-411300D02*
G03*
X5059500Y-611299I0J-99999D01*
G75*
G01*
X5309499Y-2661300D02*
G03*
X5309499Y-2461301I0J100000D01*
G75*
G01*
X5059500Y-2461301D02*
G03*
X5059500Y-2661300I0J-99999D01*
G75*
G01*
X7259498Y-2661300D02*
G03*
X7259498Y-2461301I0J100000D01*
G75*
G01*
X7009498Y-2461301D02*
G03*
X7009498Y-2661300I0J-99999D01*
G75*
G01*
X7259498Y-611302D02*
G03*
X7259498Y-411302I0J100000D01*
G75*
G01*
X7009498Y-411302D02*
G03*
X7009498Y-611302I0J-100000D01*
D16*
G75*
G01
X1354912Y-1181100D02*
G03X1354912Y-1181100I-250012J0D01*
M02*
